<?xml version="1.0" standalone="no"?>
<!DOCTYPE svg PUBLIC "-//W3C//DTD SVG 1.1//EN" "http://www.w3.org/Graphics/SVG/1.1/DTD/svg11.dtd" >
<svg xmlns="http://www.w3.org/2000/svg" xmlns:xlink="http://www.w3.org/1999/xlink" version="1.1">
<metadata>
Created by FontForge 20201107 at Sat Sep  7 20:18:40 2024
 By 
2015 published by Monotype GmbH
</metadata>
<defs>
<font id="RealTextBold" horiz-adv-x="1228" >
  <font-face 
    font-family="Real Text"
    font-weight="700"
    font-stretch="normal"
    units-per-em="2048"
    panose-1="2 11 8 4 3 1 1 1 1 2"
    ascent="1638"
    descent="-410"
    x-height="1096"
    cap-height="1434"
    bbox="-1049 -684 2945 2451"
    underline-thickness="102"
    underline-position="-255"
    unicode-range="U+0020-FEFF"
  />
<missing-glyph 
d="M1087 -340h-946v1774h946v-1774zM424 1163v-1233h383v1233h-383z" />
    <glyph glyph-name="f_f.liga" unicode="ff" horiz-adv-x="1437" 
d="M1278 1212q-59 0 -86 -18t-27 -72v-53h260v-242h-260v-827h-344v827h-315v-827h-344v827h-148v242h148v82q0 137 99 225q98 88 302 88q73 0 155 -13q83 -13 197 -71q49 42 118 63q71 21 169 21q78 0 144 -13q70 -14 122 -30v-239q-40 12 -92 21q-51 9 -98 9zM821 1169
q0 9 2 23q-55 24 -106 31q-56 8 -96 8q-115 0 -115 -109v-53h315v100z" />
    <glyph glyph-name="f_f_i.liga" unicode="ffi" horiz-adv-x="1929" 
d="M1812 1069v-1069h-344v827h-305v-827h-344v827h-313v-827h-344v827h-148v242h148v82q0 137 99 225q98 88 302 88q71 0 153 -13q84 -13 197 -69q52 41 130 62q76 20 196 20q94 0 178 -15q81 -14 135 -32v-243q-51 19 -115 29q-60 9 -120 9q-85 0 -120 -18q-34 -18 -34 -72
v-53h649zM819 1192q-49 20 -103 28q-49 7 -95 7q-115 0 -115 -105v-53h313v123z" />
    <glyph glyph-name="f_f_j.liga" unicode="ffj" horiz-adv-x="1927" 
d="M1812 1069v-1081q0 -103 -30 -175q-29 -71 -81 -119q-48 -45 -117 -67q-63 -20 -138 -20q-64 0 -97 4q-40 5 -73 12v244l22 -2h17q38 0 70 8q30 8 49 31q19 24 26 62q8 43 8 106v755h-305v-827h-344v827h-313v-827h-344v827h-148v242h148v82q0 137 99 225q98 88 302 88
q71 0 153 -13q84 -13 197 -69q52 41 130 62q76 20 196 20q94 0 178 -15q81 -14 135 -32v-243q-51 19 -115 29q-60 9 -120 9q-85 0 -120 -18q-34 -18 -34 -72v-53h649zM819 1192q-49 20 -103 28q-49 7 -95 7q-115 0 -115 -105v-53h313v123z" />
    <glyph glyph-name="f_f_l.liga" unicode="ffl" horiz-adv-x="1966" 
d="M1905 244q2 0 24 2v-242q-36 -9 -75 -13q-48 -5 -97 -5q-148 0 -226 77q-79 78 -79 250v877q-66 22 -160 22q-69 0 -99 -18t-30 -72v-53h164v-242h-164v-827h-344v827h-313v-827h-344v827h-148v242h148v82q0 137 100 225t303 88q71 0 152 -13q79 -13 194 -67
q46 38 120 60q69 20 175 20q77 0 136 -11q69 -13 116 -28l338 17v-1082q0 -27 2 -57q1 -22 11 -36q9 -13 28 -18q20 -5 51 -5h17zM819 1192q-50 20 -104 28q-48 7 -92 7q-117 0 -117 -105v-53h313v123z" />
    <glyph glyph-name="f_i.liga" unicode="fi" horiz-adv-x="1271" 
d="M582 1464q94 0 178 -15q81 -14 135 -32v-243q-51 19 -116 29q-60 9 -120 9q-85 0 -119 -18t-34 -72v-53h649v-1069h-344v827h-305v-827h-344v827h-148v242h148v100q0 137 97 216t323 79z" />
    <glyph glyph-name="f_j.liga" unicode="fj" horiz-adv-x="1269" 
d="M582 1464q94 0 178 -15q81 -14 135 -32v-243q-51 19 -116 29q-60 9 -120 9q-85 0 -119 -18t-34 -72v-53h649v-1081q0 -101 -31 -175q-29 -71 -81 -119q-48 -46 -116 -67q-63 -20 -139 -20q-64 0 -97 4q-40 5 -73 12v244q22 -2 23 -2h16q39 0 71 8q29 7 48 31q20 25 27 62
q8 43 8 106v755h-305v-827h-344v827h-148v242h148v100q0 137 97 216t323 79z" />
    <glyph glyph-name="f_l.liga" unicode="fl" horiz-adv-x="1308" 
d="M549 1464q77 0 136 -11q69 -13 116 -28l338 17v-1082q0 -27 2 -57q1 -22 11 -36q9 -13 28 -18q20 -5 51 -5h16q3 0 25 2v-242q-36 -9 -75 -13q-48 -5 -97 -5q-149 0 -227 77t-78 250v877q-66 22 -160 22q-69 0 -99 -18t-30 -72v-53h164v-242h-164v-827h-344v827h-148v242
h148v100q0 137 93 216q92 79 294 79z" />
    <glyph glyph-name=".notdef" 
d="M1087 -340h-946v1774h946v-1774zM424 1163v-1233h383v1233h-383z" />
    <glyph glyph-name=".null" horiz-adv-x="0" 
 />
    <glyph glyph-name="nonmarkingreturn" horiz-adv-x="682" 
 />
    <glyph glyph-name="space" unicode=" " horiz-adv-x="462" 
 />
    <glyph glyph-name="exclam" unicode="!" horiz-adv-x="595" 
d="M483 1028l-45 -545h-284l-45 545v412h374v-412zM297 362q41 0 78 -15q35 -14 64 -43q28 -28 44 -63q17 -37 17 -77t-17 -77q-15 -33 -44 -62q-27 -27 -64 -43q-39 -17 -78 -17q-40 0 -77 17q-35 16 -62 43t-43 62q-17 37 -17 77t17 77t43 63q29 29 62 43q36 15 77 15z
" />
    <glyph glyph-name="quotedbl" unicode="&#x22;" horiz-adv-x="1005" 
d="M426 799h-309v667h309v-667zM893 799h-309v667h309v-667z" />
    <glyph glyph-name="numbersign" unicode="#" 
d="M987 887l-57 -402h143v-209h-174l-39 -276h-248l39 276h-170l-39 -276h-247l38 276h-137v209h168l58 402h-142v209h172l43 303h248l-43 -303h170l43 303h248l-43 -303h139v-209h-170zM739 887h-170l-57 -402h170z" />
    <glyph glyph-name="dollar" unicode="$" horiz-adv-x="1351" 
d="M797 1464q163 -21 284 -85q122 -65 209 -162l-233 -189q-49 56 -117 99q-70 45 -166 61v-314q152 -29 246 -63q102 -37 168 -90q65 -52 96 -126t31 -169q0 -101 -38 -182q-38 -80 -106 -139q-67 -59 -162 -93q-94 -34 -212 -45v-272h-207v270q-182 11 -317 79t-234 185
l215 207q72 -85 157 -132q85 -48 201 -58v338q-271 56 -396 160q-126 105 -126 300q0 91 35 166q35 74 100 129q65 54 158 88q93 33 207 41v240h207v-244zM612 1192q-73 -11 -112 -44q-41 -35 -41 -93q0 -52 29 -84q30 -33 124 -60v281zM774 246q80 11 123 49q43 39 43 100
q0 25 -6 46q-6 22 -24 40q-20 20 -50 35t-86 31v-301z" />
    <glyph glyph-name="percent" unicode="%" horiz-adv-x="2121" 
d="M459 1470q90 0 165 -30q74 -30 128 -91q53 -61 83 -149q29 -86 29 -205q0 -126 -29 -213q-29 -88 -83 -148q-52 -58 -128 -87t-165 -29q-88 0 -166 29q-77 29 -129 87q-54 60 -83 148q-30 90 -30 213q0 117 30 205t83 149q54 61 128 91q75 30 167 30zM739 -25h-247
l886 1483h248zM459 1278q-92 0 -128 -74t-36 -207q0 -145 36 -217q35 -71 128 -71q88 0 125 71t37 217q0 134 -37 207q-38 74 -125 74zM1665 920q87 0 165 -31q74 -30 128 -91q52 -60 83 -150q30 -89 30 -206q0 -123 -30 -213q-29 -88 -83 -148q-52 -58 -128 -87t-165 -29
q-88 0 -166 29q-77 28 -129 87q-54 60 -83 148q-30 90 -30 213q0 118 30 206q31 90 83 150q54 61 128 91q78 31 167 31zM1665 725q-92 0 -128 -72t-36 -207q0 -146 36 -216t128 -70q88 0 125 70t37 214q0 137 -37 208q-38 73 -125 73z" />
    <glyph glyph-name="ampersand" unicode="&#x26;" horiz-adv-x="1505" 
d="M625 -31q-104 0 -206 27q-103 27 -181 83q-82 59 -130 143q-51 90 -51 210q0 126 70 222t203 163q-79 79 -122 151q-42 70 -42 158q0 84 34 146q36 65 95 107q64 45 147 67q84 22 189 22q112 0 194 -25t141 -70q55 -42 86 -102q29 -57 29 -124q0 -57 -12 -103
q-12 -48 -45 -91q-35 -46 -90 -88q-56 -43 -150 -89l277 -256q9 35 13 64q6 46 7 69q2 46 2 67q0 24 -2 56h316q0 -77 -6 -142q-6 -62 -20 -119q-13 -51 -35 -102q-21 -49 -50 -94q56 -41 106 -56q41 -13 93 -25l-96 -269q-93 18 -167 50q-73 32 -145 92q-96 -73 -199 -107
q-107 -35 -253 -35zM604 944q90 51 123 86q35 38 35 94q0 49 -38 81t-93 32q-58 0 -97 -31q-38 -30 -38 -84q0 -25 4 -41q5 -20 16 -38q13 -21 33 -44q26 -30 55 -55zM659 250q65 0 118 15q49 14 91 40l-348 334q-98 -73 -98 -184q0 -100 64 -152q65 -53 173 -53z" />
    <glyph glyph-name="quotesingle" unicode="'" horiz-adv-x="540" 
d="M426 799h-309v667h309v-667z" />
    <glyph glyph-name="parenleft" unicode="(" horiz-adv-x="690" 
d="M649 1597q-42 -105 -86 -236q-32 -94 -63 -226q-26 -109 -40 -240q-14 -129 -14 -274q0 -147 14 -276q14 -126 40 -237q31 -132 63 -226q44 -131 86 -236h-270q-145 230 -222 477q-77 249 -77 498q0 247 77 498q76 248 222 478h270z" />
    <glyph glyph-name="parenright" unicode=")" horiz-adv-x="690" 
d="M41 1597q42 -105 86 -236q32 -94 63 -226q26 -109 40 -240q14 -129 14 -274q0 -147 -14 -276q-14 -126 -40 -237q-31 -132 -63 -226q-44 -131 -86 -236h270q147 233 223 477q76 246 76 498q0 251 -76 498q-75 245 -223 478h-270z" />
    <glyph glyph-name="asterisk" unicode="*" horiz-adv-x="991" 
d="M602 1169l264 131l92 -280l-290 -49l209 -211l-240 -174l-141 262l-138 -264l-241 172l209 217l-293 47l92 280l266 -129l-43 295h295z" />
    <glyph glyph-name="plus" unicode="+" 
d="M780 731h289v-270h-289v-314h-329v314h-291v270h291v316h329v-316z" />
    <glyph glyph-name="comma" unicode="," horiz-adv-x="643" 
d="M317 395q100 0 159 -62q61 -64 61 -161q0 -149 -72 -285q-73 -138 -182 -247l-179 96q45 72 72 135q28 64 35 149q-53 36 -79 75q-28 42 -28 108q0 36 16 73q15 35 44 62t67 42q39 15 86 15z" />
    <glyph glyph-name="hyphen" unicode="-" horiz-adv-x="786" 
d="M713 494h-637v282h637v-282z" />
    <glyph glyph-name="period" unicode="." horiz-adv-x="643" 
d="M322 395q43 0 82 -16q40 -17 70 -46q28 -28 47 -69q18 -39 18 -82t-18 -82q-18 -40 -47 -67q-29 -28 -70 -46q-40 -18 -82 -18q-43 0 -82 18q-40 18 -69 46q-29 27 -47 67q-18 39 -18 82t18 82q19 41 47 69q29 29 69 46q38 16 82 16z" />
    <glyph glyph-name="slash" unicode="/" horiz-adv-x="1134" 
d="M356 -340h-299l723 1927h299z" />
    <glyph glyph-name="zero" unicode="0" horiz-adv-x="1335" 
d="M668 1231q141 0 255 -45q112 -44 193 -128q80 -83 122 -201q42 -119 42 -261q0 -145 -42 -262q-42 -116 -122 -198q-79 -81 -193 -124q-113 -43 -255 -43t-255 43q-116 44 -194 124q-80 82 -122 198q-42 117 -42 262q0 142 42 261q42 118 122 201t194 128t255 45z
M668 961q-124 0 -188 -99q-64 -98 -64 -266q0 -173 64 -264q65 -92 188 -92q124 0 189 90q65 91 65 266q0 165 -65 265t-189 100z" />
    <glyph glyph-name="one" unicode="1" horiz-adv-x="1036" 
d="M82 272h332v445h-328v223h37q103 0 162 17q63 18 103 52t59 80q21 51 28 105h283v-922h262v-272h-938v272z" />
    <glyph glyph-name="two" unicode="2" horiz-adv-x="1173" 
d="M602 1227q110 0 202 -30q93 -31 158 -82q65 -52 103 -126q37 -73 37 -162q0 -95 -32 -171t-94 -138t-158 -123q-94 -60 -222 -123h514v-272h-1038v264q169 96 322 188q127 76 203 137q75 60 105 111q31 53 31 111q0 67 -39 108q-38 39 -106 39q-88 0 -131 -58t-43 -150
h-346q2 97 38 180q38 86 105 152q70 68 166 106q99 39 225 39z" />
    <glyph glyph-name="three" unicode="3" horiz-adv-x="1177" 
d="M594 1231q116 0 211 -31q88 -29 154 -84q63 -53 95 -125q31 -71 31 -153q0 -130 -70 -216q-70 -87 -194 -114q62 -7 120 -35q54 -26 98 -71t67 -105q24 -61 24 -141q0 -108 -40 -192q-39 -83 -114 -145q-72 -60 -172 -92q-101 -32 -218 -32q-221 0 -368 108
q-146 108 -193 297l309 74q45 -207 237 -207q90 0 149 49q60 49 60 154q0 98 -57 151q-56 52 -154 52h-143v241h117q27 0 70 9q38 8 64 28q27 21 45 57q17 34 17 91q0 91 -51 128q-52 38 -121 38q-75 0 -131 -41t-80 -140l-311 52q45 182 188 288q145 107 361 107z" />
    <glyph glyph-name="four" unicode="4" horiz-adv-x="1282" 
d="M1059 270h172v-270h-172v-266h-342v266h-666v274l557 920h451v-924zM385 270h332v576z" />
    <glyph glyph-name="five" unicode="5" horiz-adv-x="1210" 
d="M1047 922h-570l-37 -287q60 60 130 84t157 24q88 0 165 -32t140 -95q60 -60 98 -151q37 -89 37 -207q0 -122 -38 -225q-38 -102 -112 -178t-183 -118q-108 -42 -250 -42q-114 0 -202 30q-94 32 -157 78q-68 50 -114 115q-50 71 -72 137l317 90q50 -180 230 -180
q108 0 164 75q55 74 55 189q0 118 -55 177t-156 59q-66 0 -119 -31q-50 -30 -86 -84l-301 45l105 799h892z" />
    <glyph glyph-name="six" unicode="6" horiz-adv-x="1255" 
d="M653 1427q349 0 500 -301l-317 -96q-29 67 -69 104t-114 37q-100 0 -163 -97q-61 -95 -78 -304q68 87 149 124q79 36 180 36q83 0 167 -31q80 -30 144 -89q63 -58 100 -145q38 -88 38 -200q0 -117 -42 -208t-116 -156q-72 -63 -174 -98q-99 -34 -217 -34q-123 0 -228 39
q-107 40 -184 121q-77 82 -121 207q-45 129 -45 295q0 189 41 339q40 146 118 250q75 100 187 154q111 53 244 53zM639 668q-87 0 -139 -60q-54 -62 -54 -157q0 -91 53 -155q53 -63 138 -63q91 0 144 61t53 161q0 91 -49 152t-146 61z" />
    <glyph glyph-name="seven" unicode="7" horiz-adv-x="1091" 
d="M1079 920q-98 -128 -181 -256q-82 -126 -147 -269q-65 -141 -108 -303q-41 -153 -63 -358h-375q21 227 76 402q57 181 133 319q79 143 172 255q92 111 190 212h-459v-164h-292v436h1054v-274z" />
    <glyph glyph-name="eight" unicode="8" horiz-adv-x="1273" 
d="M633 1427q134 0 230 -32q99 -33 164 -86q63 -51 97 -121q33 -68 33 -135q0 -111 -58 -176q-59 -66 -149 -107q57 -24 102 -52q50 -32 90 -78q38 -43 63 -108q24 -62 24 -137q0 -71 -30 -146t-98 -137t-183 -103q-113 -40 -285 -40q-160 0 -272 38q-113 38 -182 97
q-70 60 -102 134q-32 75 -32 147q0 137 72 223q74 88 182 133q-101 68 -139 146q-37 75 -37 168q0 66 30 132q32 70 92 120q64 53 158 87q92 33 230 33zM635 1173q-76 0 -118 -38q-44 -39 -44 -103q0 -59 38 -94q36 -33 122 -61l69 -23q60 44 84 88q25 47 25 90q0 54 -45 97
q-46 44 -131 44zM535 637q-55 -40 -92 -91q-35 -48 -35 -128q0 -82 61 -134q62 -53 166 -53q59 0 105 16q45 16 72 41q28 26 41 57q13 30 13 63q0 44 -17 72q-18 31 -49 51q-33 22 -75 38q-51 19 -92 33z" />
    <glyph glyph-name="nine" unicode="9" horiz-adv-x="1251" 
d="M616 1231q123 0 229 -38q105 -37 183 -120t123 -214q45 -132 45 -318q0 -423 -158 -635q-157 -211 -456 -211q-202 0 -329 83t-190 218l293 125q34 -82 87 -121t141 -39q112 0 180 107q67 106 82 321q-67 -79 -145 -116t-187 -37q-87 0 -166 30t-141 92q-61 62 -99 153
q-38 93 -38 212q0 122 43 215q44 96 117 160q72 64 174 99q98 34 212 34zM627 963q-91 0 -145 -60t-54 -170q0 -97 47 -164q46 -65 146 -65q85 0 138 63q52 62 52 170q0 112 -49 168q-50 58 -135 58z" />
    <glyph glyph-name="colon" unicode=":" horiz-adv-x="643" 
d="M322 1106q43 0 82 -16t70 -47q29 -29 47 -68t18 -82t-18 -82q-19 -42 -47 -68q-29 -28 -70 -46q-38 -17 -82 -17q-45 0 -82 17q-40 18 -69 46q-28 26 -47 68q-18 39 -18 82t18 82t47 68q31 31 69 47t82 16zM322 395q43 0 82 -16q40 -17 70 -46q28 -28 47 -69
q18 -39 18 -82t-18 -82q-18 -40 -47 -67q-29 -28 -70 -46q-40 -18 -82 -18q-43 0 -82 18q-40 18 -69 46q-29 27 -47 67q-18 39 -18 82t18 82q19 41 47 69q29 29 69 46q38 16 82 16z" />
    <glyph glyph-name="semicolon" unicode=";" horiz-adv-x="643" 
d="M317 395q100 0 159 -62q61 -64 61 -161q0 -149 -72 -285q-73 -138 -182 -247l-179 96q45 72 72 135q28 64 35 149q-53 36 -79 75q-28 42 -28 108q0 36 16 73q15 35 44 62t67 42q39 15 86 15zM317 1106q44 0 83 -16t70 -47q29 -29 47 -68t18 -82t-18 -82q-19 -42 -47 -68
q-29 -28 -70 -46q-38 -17 -83 -17q-44 0 -81 17q-40 18 -69 46q-28 26 -47 68q-18 39 -18 82t18 82t47 68q31 31 69 47t81 16z" />
    <glyph glyph-name="less" unicode="&#x3c;" 
d="M1022 784l-584 -198l584 -197v-338l-815 352v367l815 352v-338z" />
    <glyph glyph-name="equal" unicode="=" 
d="M1069 711h-909v282h909v-282zM1069 246h-909v282h909v-282z" />
    <glyph glyph-name="greater" unicode="&#x3e;" 
d="M1022 770v-367l-815 -352v338l581 197l-581 198v338z" />
    <glyph glyph-name="question" unicode="?" horiz-adv-x="1110" 
d="M571 1462q121 0 214 -30q91 -29 156 -85q61 -52 95 -125q33 -70 33 -151q0 -92 -30 -155q-31 -65 -72 -106q-47 -47 -96 -75q-47 -27 -95 -60q-43 -30 -73 -64q-29 -33 -29 -83v-45h-305v78q0 78 24 132q23 52 62 94q40 43 79 71q16 12 44 33.5t34 26.5q39 29 62 60
q24 32 24 77q0 60 -40 94q-41 35 -107 35q-83 0 -133 -47q-49 -46 -78 -125l-309 80q22 75 63 139q44 68 110 119q69 53 157 82q91 30 210 30zM524 362q40 0 78 -15q37 -15 65 -43t44 -63t16 -77t-16 -77q-15 -33 -44 -62q-26 -26 -65 -43t-78 -17q-40 0 -77 17
q-35 16 -62 43t-43 62t-16 77t16 77q17 37 43 63q29 29 62 43q36 15 77 15z" />
    <glyph glyph-name="at" unicode="@" horiz-adv-x="2172" 
d="M1145 1470q212 0 377 -61q164 -61 279 -168q114 -107 174 -250q61 -146 61 -307q0 -98 -24 -211q-24 -115 -79 -209q-57 -98 -148 -160q-93 -63 -235 -63q-70 0 -115 17q-51 19 -79 46q-30 29 -47 65t-21 73q-50 -98 -139 -148q-90 -51 -211 -51q-83 0 -154 31
q-70 30 -119 87q-53 61 -78 134q-28 81 -28 172q0 133 42 243q41 108 114 188q72 80 166 123q96 44 196 44q93 0 160 -36t100 -99l15 82h231l-108 -625q-11 -67 12 -105t76 -38q52 0 92 37q42 39 68 99q27 63 42 145q15 83 15 173q0 123 -42 228q-42 104 -123 181
q-81 76 -200 120q-117 43 -272 43q-167 0 -309 -58q-140 -57 -238 -158q-99 -102 -153 -241t-54 -301q0 -150 47 -279q46 -127 132 -219t204 -144q117 -52 264 -52q123 0 218 16q100 17 196 49l70 -196q-52 -18 -116 -35q-51 -13 -114 -25q-57 -10 -119 -15q-68 -5 -131 -5
q-209 0 -376 67t-286 189t-181 285q-64 168 -64 362q0 208 74 385q74 176 208 304q135 129 319 200q183 71 411 71zM1106 831q-63 0 -109 -31q-47 -32 -77 -84q-33 -58 -47 -122q-15 -69 -15 -143q0 -80 36 -128q37 -49 107 -49q42 0 86 23q43 23 78 69q36 49 58 118
q22 70 22 173q0 93 -38 134q-37 40 -101 40z" />
    <glyph glyph-name="A" unicode="A" horiz-adv-x="1347" 
d="M918 209h-506l-58 -209h-366l458 1434h451l461 -1434h-383zM666 1165l-177 -673h353z" />
    <glyph glyph-name="B" unicode="B" horiz-adv-x="1384" 
d="M1020 774q171 -34 250 -124q78 -88 78 -234q0 -88 -32 -166q-31 -74 -104 -131q-72 -55 -186 -87q-116 -32 -278 -32h-615v1434h535q166 0 282 -26q114 -25 186 -73q70 -47 102 -114q32 -69 32 -152q0 -128 -67 -198q-65 -68 -183 -97zM496 1155v-291h227q76 0 127 33
t51 115q0 84 -56 113q-57 30 -155 30h-194zM760 276q91 0 152 38t61 128q0 56 -21 90q-23 37 -52 54q-30 17 -70 25q-35 7 -74 7h-260v-342h264z" />
    <glyph glyph-name="C" unicode="C" horiz-adv-x="1519" 
d="M782 1470q105 0 200 -22q93 -21 182 -73q85 -49 154 -132t114 -199l-349 -88q-47 112 -115 164q-71 54 -184 54q-156 0 -248 -117q-92 -118 -92 -336q0 -216 90 -340q88 -121 254 -121q130 0 208 64t124 186l340 -102q-86 -222 -267 -333q-183 -112 -425 -112
q-131 0 -254 43q-125 44 -223 134q-99 92 -159 235q-60 144 -60 344q0 199 59 339q60 142 159 234q99 91 227 135q126 43 265 43z" />
    <glyph glyph-name="D" unicode="D" horiz-adv-x="1470" 
d="M618 1434q154 0 295 -36q142 -36 250 -119q109 -83 173 -216q65 -135 65 -326q0 -209 -64 -352q-63 -140 -166 -227q-103 -86 -230 -122t-259 -36h-549v1434h485zM494 1145v-856h186q64 0 125 18q59 17 110 68t80 136q31 90 31 226q0 191 -92 300q-92 108 -307 108h-133z
" />
    <glyph glyph-name="E" unicode="E" horiz-adv-x="1218" 
d="M1122 1141h-626v-269h583v-282h-583v-297h645v-293h-1008v1434h989v-293z" />
    <glyph glyph-name="F" unicode="F" horiz-adv-x="1157" 
d="M1100 1141h-604v-310h557v-282h-557v-549h-363v1434h967v-293z" />
    <glyph glyph-name="G" unicode="G" horiz-adv-x="1529" 
d="M780 1470q218 0 384 -91q168 -92 263 -296l-327 -112q-46 106 -123 157q-78 52 -193 52q-166 0 -253 -121t-87 -342q0 -222 83 -343q83 -120 257 -120q129 0 213 67q82 66 82 185v43h-284v254h647v-803h-322v125q-150 -162 -399 -162q-120 0 -238 41q-116 40 -208 132
q-89 89 -147 234q-56 140 -56 345q0 199 57 341t156 234q101 93 226 136q129 44 269 44z" />
    <glyph glyph-name="H" unicode="H" horiz-adv-x="1503" 
d="M1370 0h-362v596h-512v-596h-363v1434h363v-543h512v543h362v-1434z" />
    <glyph glyph-name="I" unicode="I" horiz-adv-x="843" 
d="M774 1153h-174v-872h174v-281h-711v281h175v872h-175v281h711v-281z" />
    <glyph glyph-name="J" unicode="J" horiz-adv-x="854" 
d="M737 483q0 -111 -24 -203q-24 -90 -82 -156q-56 -63 -153 -100q-95 -36 -238 -36q-58 0 -106 3q-49 3 -101 9v299q38 -2 56 -3t56 -1q72 0 112 11q44 12 71 36q26 23 37 65q10 39 10 99v928h362v-951z" />
    <glyph glyph-name="K" unicode="K" horiz-adv-x="1425" 
d="M651 604l-155 -174v-430h-363v1434h363v-582l493 582h422l-510 -582l549 -852h-426z" />
    <glyph glyph-name="L" unicode="L" horiz-adv-x="1130" 
d="M496 307h608v-307h-971v1434h363v-1127z" />
    <glyph glyph-name="M" unicode="M" horiz-adv-x="1802" 
d="M1714 0h-344l-57 1079l-221 -1079h-387l-220 1079l-59 -1079h-340l107 1434h520l190 -1028l184 1028h525z" />
    <glyph glyph-name="N" unicode="N" horiz-adv-x="1495" 
d="M1362 0h-426l-481 897v-897h-322v1434h430l479 -914v914h320v-1434z" />
    <glyph glyph-name="O" unicode="O" horiz-adv-x="1611" 
d="M807 1470q138 0 264 -39q131 -41 236 -129q103 -87 169 -234q64 -143 64 -353q0 -193 -60 -334q-61 -143 -162 -235q-102 -93 -234 -138t-277 -45q-132 0 -264 41q-131 41 -236 132q-104 90 -170 235q-65 142 -65 348q0 197 60 339t162 234q103 92 234 135q132 43 279 43
zM807 1174q-81 0 -147 -30t-114 -87t-75 -143t-27 -193q0 -217 93 -340q91 -121 270 -121q76 0 143 29q65 28 114 86q50 59 76 142q27 86 27 196q0 215 -90 338t-270 123z" />
    <glyph glyph-name="P" unicode="P" horiz-adv-x="1345" 
d="M690 1434q159 0 275 -35q112 -34 189 -100q76 -66 110 -155q34 -90 34 -202q0 -235 -149 -362t-455 -127h-198v-453h-363v1434h557zM707 737q45 0 87 11q41 11 69 33q29 23 46 65t17 102q0 90 -54 142q-52 51 -157 51h-219v-404h211z" />
    <glyph glyph-name="Q" unicode="Q" horiz-adv-x="1622" 
d="M807 1470q137 0 264 -38q130 -39 236 -128q103 -87 169 -234q64 -143 64 -355q0 -195 -67 -338q-66 -142 -191 -242q61 -40 133 -61q64 -19 164 -35l-117 -330q-160 44 -260 119q-104 78 -174 174q-56 -21 -108 -30t-113 -9q-132 0 -264 41q-131 41 -236 132
q-104 90 -170 235q-65 142 -65 348q0 197 60 339t162 234q103 92 234 135q132 43 279 43zM807 1174q-81 0 -147 -30t-114 -87t-75 -143t-27 -193q0 -217 93 -340q91 -121 270 -121q76 0 143 29q65 28 114 86q50 59 76 142q27 86 27 196q0 215 -90 338t-270 123z" />
    <glyph glyph-name="R" unicode="R" horiz-adv-x="1370" 
d="M700 1434q160 0 271 -34q113 -35 184 -94t106 -143q33 -79 33 -180q0 -289 -286 -401l372 -582h-428l-299 522h-157v-522h-363v1434h567zM496 1147v-352h211q95 0 155 39t60 141q0 87 -54 130q-52 42 -151 42h-221z" />
    <glyph glyph-name="S" unicode="S" horiz-adv-x="1361" 
d="M692 -37q-214 0 -382 71q-166 70 -283 195l227 215q90 -87 197 -136q105 -48 249 -48q113 0 181 37q69 37 69 104q0 33 -12 59t-48 47q-39 23 -102 40q-67 18 -172 39q-133 24 -228 61q-98 37 -162 90q-64 52 -96 128t-32 175q0 102 42 181q42 80 118 135t183 85
q104 29 237 29q220 0 369 -71q151 -72 251 -182l-235 -199q-62 64 -152 112q-91 48 -227 48q-106 0 -161 -35q-54 -35 -54 -94q0 -32 12 -56t47 -44q34 -19 98 -36q55 -14 162 -32q276 -47 406 -152q129 -105 129 -303q0 -114 -46 -200t-129 -145q-81 -57 -199 -88
q-115 -30 -257 -30z" />
    <glyph glyph-name="T" unicode="T" horiz-adv-x="1191" 
d="M1174 1137h-398v-1137h-362v1137h-398v297h1158v-297z" />
    <glyph glyph-name="U" unicode="U" horiz-adv-x="1458" 
d="M1341 543q0 -130 -36 -231q-38 -107 -113 -183q-77 -79 -192 -122q-117 -44 -273 -44q-160 0 -277 44q-116 44 -191 123q-74 79 -109 184q-35 107 -35 229v891h362v-889q0 -147 60 -216t192 -69q133 0 193 72q59 71 59 213v889h360v-891z" />
    <glyph glyph-name="V" unicode="V" horiz-adv-x="1284" 
d="M870 0h-452l-430 1434h383l276 -1147l268 1147h379z" />
    <glyph glyph-name="W" unicode="W" horiz-adv-x="1789" 
d="M1499 0h-409l-183 1044l-168 -1044h-420l-321 1434h385l160 -1086l178 1086h375l190 -1074l133 1074h369z" />
    <glyph glyph-name="X" unicode="X" horiz-adv-x="1331" 
d="M1341 0h-428l-260 532l-250 -532h-415l450 764l-409 670h409l219 -426l211 426h398l-398 -648z" />
    <glyph glyph-name="Y" unicode="Y" horiz-adv-x="1275" 
d="M811 563v-563h-360v559l-490 875h410l264 -588l268 588h397z" />
    <glyph glyph-name="Z" unicode="Z" horiz-adv-x="1251" 
d="M1165 1155l-682 -864h709v-291h-1161v274l690 877h-647v283h1091v-279z" />
    <glyph glyph-name="bracketleft" unicode="[" horiz-adv-x="684" 
d="M625 1343h-207v-1421h207v-276h-553v1972h553v-275z" />
    <glyph glyph-name="backslash" unicode="\" horiz-adv-x="1134" 
d="M1079 -340h-299l-723 1927h299z" />
    <glyph glyph-name="bracketright" unicode="]" horiz-adv-x="684" 
d="M59 1343h207v-1421h-207v-276h553v1972h-553v-275z" />
    <glyph glyph-name="asciicircum" unicode="^" horiz-adv-x="1310" 
d="M1210 657h-342l-219 519l-217 -519h-330l385 813h336z" />
    <glyph glyph-name="underscore" unicode="_" horiz-adv-x="1202" 
d="M1210 -395h-1218v282h1218v-282z" />
    <glyph glyph-name="grave" unicode="`" horiz-adv-x="747" 
d="M668 1214h-250l-365 324h410z" />
    <glyph glyph-name="a" unicode="a" horiz-adv-x="1177" 
d="M596 1126q257 0 367 -91t110 -255v-536q0 -70 6 -127q6 -54 31 -117h-336q-27 45 -39 109q-58 -75 -137 -105q-82 -31 -178 -31q-84 0 -154 25q-64 23 -113 70q-47 46 -71 105q-25 62 -25 134q0 77 25 143q23 62 80 109q58 48 144 79q88 32 216 48l207 25v47
q0 74 -28 105q-27 30 -111 30q-78 0 -112 -30q-33 -29 -38 -97h-340q6 179 136 270q129 90 360 90zM602 487q-108 -17 -150 -50q-44 -35 -44 -93q0 -53 31 -83t93 -30q82 0 141 51q56 49 56 128v94z" />
    <glyph glyph-name="b" unicode="b" horiz-adv-x="1302" 
d="M459 999q57 66 131 96q71 29 160 29q110 0 200 -42q92 -43 155 -118q64 -76 99 -183t35 -234q0 -131 -37 -236q-38 -107 -101 -182t-154 -118q-89 -42 -195 -42q-105 0 -180 36q-77 37 -128 97v-102h-329v1434h344v-435zM655 858q-102 0 -159 -76q-59 -79 -60 -235
q0 -159 61 -235q59 -74 158 -74q107 0 165 79q59 80 59 230q0 154 -59 233q-58 78 -165 78z" />
    <glyph glyph-name="c" unicode="c" horiz-adv-x="1185" 
d="M635 1124q195 0 320 -78q130 -81 198 -225l-297 -116q-57 153 -205 153q-102 0 -165 -74q-62 -72 -62 -233t61 -237t168 -76q93 0 141 49q47 48 74 121l295 -115q-74 -149 -201 -235q-131 -89 -327 -89q-135 0 -240 43q-107 44 -180 120t-114 182q-40 104 -40 233
q0 128 40 232q42 108 115 183t180 119q104 43 239 43z" />
    <glyph glyph-name="d" unicode="d" horiz-adv-x="1302" 
d="M1186 0h-330v115q-61 -77 -141 -111q-84 -35 -174 -35q-111 0 -198 43q-89 44 -152 120q-61 73 -96 183q-34 105 -34 234q0 131 39 237q38 104 106 183q63 73 155 115q87 40 192 40q98 0 167 -28q70 -28 122 -82v420h344v-1434zM647 858q-109 0 -166 -78t-57 -233
q0 -154 57 -231q57 -76 166 -76q103 0 161 74t58 233t-60 235t-159 76z" />
    <glyph glyph-name="e" unicode="e" horiz-adv-x="1224" 
d="M614 1124q129 0 232 -41t174 -118t109 -190q38 -112 38 -251v-61h-751q7 -121 72 -175q66 -55 169 -55q86 0 141 35q54 35 89 95l272 -130q-83 -126 -211 -194q-131 -70 -313 -70q-137 0 -242 43q-107 44 -180 120q-74 77 -113 182t-39 233t37 232q38 107 108 183
q69 75 174 119q102 43 234 43zM614 885q-78 0 -136 -50q-56 -49 -64 -165h403q-8 116 -60 165q-53 50 -143 50z" />
    <glyph glyph-name="f" unicode="f" horiz-adv-x="778" 
d="M543 1464q77 0 143 -13q73 -14 123 -30v-239q-40 12 -92 21q-51 9 -99 9q-59 0 -86 -18q-26 -17 -26 -72v-53h260v-242h-260v-827h-344v827h-148v242h148v80q0 141 90 228t291 87z" />
    <glyph glyph-name="g" unicode="g" horiz-adv-x="1232" 
d="M1202 936q-51 0 -88 -5q-26 -4 -65 -16q28 -37 40 -78q11 -39 11 -87q0 -74 -30 -140q-30 -65 -91 -113q-63 -49 -154 -76q-95 -28 -217 -28q-58 0 -112 8q-49 7 -99 25q-13 -17 -20 -30q-8 -16 -8 -31q0 -36 28 -54t109 -18h178q119 0 213 -25q90 -24 150 -69
q58 -43 89 -106q29 -58 29 -134q0 -164 -142 -258t-435 -94q-155 0 -260 21q-102 20 -167 59q-63 37 -88 88q-26 52 -26 110q0 144 158 213q-60 34 -84 83q-25 50 -25 102q0 59 38 112t102 94q-72 45 -114 114t-42 155q0 73 31 143q29 66 94 117q63 50 157 78q93 28 222 28
q95 0 165 -16q76 -17 130 -43q55 66 133 103q80 39 190 40v-272zM594 907q-84 0 -128 -39t-44 -104q0 -63 44 -101t126 -38q79 0 125 38q45 37 45 103t-43 103q-44 38 -125 38zM387 33q-55 -37 -55 -94q0 -25 10 -44q11 -20 37 -33q27 -14 75 -21q45 -7 121 -7q128 0 184 28
q54 27 54 79q0 53 -43 72q-45 20 -143 20h-240z" />
    <glyph glyph-name="h" unicode="h" horiz-adv-x="1257" 
d="M459 963q61 79 139 121t186 42q175 0 271 -106t96 -305v-715h-344v623q0 109 -33 161q-34 54 -119 54q-88 0 -142 -66t-54 -176v-596h-344v1434h344v-471z" />
    <glyph glyph-name="i" unicode="i" horiz-adv-x="575" 
d="M459 0h-344v1096h344v-1096zM287 1565q38 0 74 -15t63 -39t43 -58q16 -33 16 -73q0 -39 -16 -72q-17 -35 -43 -60t-63 -40q-34 -14 -74 -14q-41 0 -75 14q-35 15 -62 40q-28 26 -44 60q-16 33 -16 72q0 40 16 73t44 58t62 39q36 15 75 15z" />
    <glyph glyph-name="j" unicode="j" horiz-adv-x="575" 
d="M459 -12q0 -103 -30 -175q-30 -73 -81 -119q-50 -46 -117 -67q-63 -20 -137 -20q-63 0 -98 4q-40 5 -74 12v244q22 -2 25 -2h14q39 0 71 8q29 7 48 31t26 62q9 49 9 106v1024h344v-1108zM287 1565q38 0 74 -15t63 -39t43 -58q16 -33 16 -73q0 -39 -16 -72
q-17 -35 -43 -60t-63 -40q-34 -14 -74 -14q-41 0 -75 14q-35 15 -62 40q-28 26 -44 60q-16 33 -16 72q0 40 16 73t44 58t62 39q36 15 75 15z" />
    <glyph glyph-name="k" unicode="k" horiz-adv-x="1236" 
d="M459 698l379 398h393l-414 -414l430 -682h-397l-266 444l-125 -125v-319h-344v1434h344v-736z" />
    <glyph glyph-name="l" unicode="l" horiz-adv-x="618" 
d="M449 360q0 -27 2 -57q1 -22 11 -36q9 -13 27 -18q20 -5 52 -5h16q3 0 25 2v-242q-36 -9 -75 -13q-48 -5 -97 -5q-149 0 -227 77q-79 78 -79 250v1121h345v-1074z" />
    <glyph glyph-name="m" unicode="m" horiz-adv-x="1855" 
d="M1405 1126q173 0 258 -106q86 -107 86 -311v-709h-344v602q0 128 -28 182t-105 54q-74 0 -121 -62t-47 -166v-610h-344v602q0 126 -26 181t-107 55q-72 0 -120 -62t-48 -166v-610h-344v1096h329v-129q62 84 138 123q71 36 178 36q112 0 188 -46q75 -46 113 -132
q60 92 146 135t198 43z" />
    <glyph glyph-name="n" unicode="n" horiz-adv-x="1257" 
d="M788 1126q175 0 269 -106t94 -305v-715h-344v616q0 113 -33 167q-34 55 -119 55q-88 0 -142 -66t-54 -176v-596h-344v1096h329v-146q62 92 149 134t195 42z" />
    <glyph glyph-name="o" unicode="o" horiz-adv-x="1306" 
d="M653 1124q136 0 247 -44q109 -43 186 -122q78 -80 118 -183q41 -106 41 -228q0 -128 -41 -236q-39 -103 -118 -182q-76 -76 -186 -118t-247 -42q-143 0 -251 43t-185 120q-75 75 -116 182q-40 104 -40 233q0 128 40 232q41 107 117 183q75 75 186 119q108 43 249 43z
M651 858q-104 0 -167 -74q-62 -72 -62 -233q0 -158 60 -236q59 -77 169 -77q112 0 171 77q61 79 61 236q0 158 -64 233q-63 74 -168 74z" />
    <glyph glyph-name="p" unicode="p" horiz-adv-x="1300" 
d="M752 1124q108 0 198 -42q92 -43 155 -118q64 -76 99 -183t35 -232q0 -129 -36 -237q-36 -107 -101 -183t-156 -118q-90 -42 -198 -42q-92 0 -166 31q-71 29 -123 88v-436h-344v1444h329v-111q57 74 136 107q76 32 172 32zM655 858q-102 0 -160 -76q-59 -77 -59 -231
q0 -163 61 -239q59 -74 156 -74q105 0 164 78q61 80 62 235q0 150 -59 229q-58 78 -165 78z" />
    <glyph glyph-name="q" unicode="q" horiz-adv-x="1302" 
d="M555 1126q106 0 176 -33q74 -35 125 -96v99h330v-1444h-344v444q-54 -65 -130 -95q-75 -30 -161 -30q-112 0 -201 43t-154 120q-66 78 -100 182q-35 107 -35 233q0 131 37 238q38 109 103 183q66 75 155 115q91 41 199 41zM643 858q-105 0 -162 -78t-57 -233
q0 -154 57 -231q57 -76 162 -76t164 75t59 234q0 160 -61 234q-61 75 -162 75z" />
    <glyph glyph-name="r" unicode="r" horiz-adv-x="847" 
d="M737 1126q43 0 86 -6v-327q-40 2 -45 2h-22q-58 0 -116 -16q-53 -15 -94 -56q-40 -39 -64 -113q-23 -69 -23 -184v-426h-344v1096h329v-176q56 112 133 160q74 46 160 46z" />
    <glyph glyph-name="s" unicode="s" horiz-adv-x="1122" 
d="M578 1124q160 0 279 -46q123 -48 198 -117l-168 -189q-70 54 -143 82q-70 27 -152 27t-117 -23t-35 -59q0 -20 10 -37q9 -15 35 -28q25 -12 77 -25q58 -14 134 -29q198 -38 290 -121q93 -84 93 -233q0 -83 -33 -146q-34 -66 -100 -112q-68 -48 -161 -73q-96 -26 -218 -26
q-189 0 -318 50q-125 49 -224 135l163 198q85 -73 171 -103q85 -30 167 -30q98 0 145 24q46 24 46 66q0 22 -7 37t-32 31q-19 12 -74 27q-51 14 -133 30q-198 38 -292 117q-95 80 -95 225q0 83 38 150q37 65 104 109q68 45 157 67q88 22 195 22z" />
    <glyph glyph-name="t" unicode="t" horiz-adv-x="819" 
d="M508 1069h256v-242h-256v-450q0 -67 26 -101q25 -32 97 -32q38 0 76 5q34 4 73 15v-258q-46 -15 -115 -26q-66 -11 -133 -11q-105 0 -175 24q-71 24 -113 69q-44 47 -62 111t-18 149v505h-148v242h148v283h344v-283z" />
    <glyph glyph-name="u" unicode="u" horiz-adv-x="1245" 
d="M1128 0h-329v133q-125 -164 -332 -164q-75 0 -142 23t-116 69t-77 120q-28 75 -28 173v742h345v-660q0 -98 35 -134q36 -38 108 -38q87 0 140 62q52 61 52 161v609h344v-1096z" />
    <glyph glyph-name="v" unicode="v" horiz-adv-x="1107" 
d="M766 0h-428l-350 1096h383l182 -832l192 832h371z" />
    <glyph glyph-name="w" unicode="w" horiz-adv-x="1646" 
d="M1368 0h-397l-146 791l-159 -791h-396l-272 1096h369l116 -783l148 783h381l157 -783l121 783h355z" />
    <glyph glyph-name="x" unicode="x" horiz-adv-x="1122" 
d="M774 598l373 -598h-410l-186 391l-182 -391h-394l367 588l-332 508h408l143 -308l150 308h387z" />
    <glyph glyph-name="y" unicode="y" horiz-adv-x="1101" 
d="M784 -23q-23 -82 -57 -152q-33 -70 -85 -117q-52 -48 -129 -75q-74 -26 -187 -26q-99 0 -166 16v232q48 -5 63 -5h41q49 0 91 7q37 6 60 22q24 17 36 45q13 30 20 76h-135l-354 1096h389l188 -860l174 860h379z" />
    <glyph glyph-name="z" unicode="z" horiz-adv-x="1005" 
d="M934 836l-494 -560h514v-276h-934v256l500 567h-452v273h866v-260z" />
    <glyph glyph-name="braceleft" unicode="{" horiz-adv-x="710" 
d="M676 1356h-37q-74 0 -95 -36q-22 -38 -22 -99v-338q0 -67 -19 -112t-50 -76q-28 -28 -67 -44q-31 -13 -62 -18q3 -1 61 -21q40 -16 68 -44q32 -32 50 -75q19 -45 19 -112v-336q0 -61 22 -99q21 -36 95 -36h37v-262h-139q-89 0 -156 24t-114 68q-45 42 -69 102t-24 129
v365q0 53 -7 85q-8 35 -22 55q-16 23 -39 34q-24 12 -57 18v209q30 5 57 19q23 11 39 34q14 20 22 54q7 31 7 84v366q0 69 24 129q25 61 69 103q46 43 114 67q70 25 156 25h139v-262z" />
    <glyph glyph-name="bar" unicode="|" horiz-adv-x="663" 
d="M465 -340h-266v1925h266v-1925z" />
    <glyph glyph-name="braceright" unicode="}" horiz-adv-x="710" 
d="M35 1356h37q74 0 95 -36t21 -99v-338q0 -64 20 -112q19 -45 50 -76q28 -28 67 -44q31 -13 62 -18q-3 -1 -61 -21q-40 -16 -68 -44q-32 -32 -50 -75q-20 -48 -20 -112v-336q0 -63 -21 -99t-95 -36h-37v-262h139q88 0 156 24q65 23 113 68q47 44 70 102q24 60 24 129v365
q0 53 7 85q8 37 21 55q16 23 39 34q23 12 58 18v209q-31 6 -58 19q-23 11 -39 34q-13 18 -21 54q-7 31 -7 84v366q0 69 -24 129t-70 103t-113 67q-70 25 -156 25h-139v-262z" />
    <glyph glyph-name="asciitilde" unicode="~" 
d="M440 825q71 0 120 -18q46 -17 91 -40q15 -8 40.5 -21.5t35.5 -18.5q35 -18 72 -18q63 0 102 36q44 40 70 82l172 -149q-22 -43 -60 -89q-36 -44 -79 -74t-99 -51q-54 -20 -117 -20q-62 0 -116 19q-50 18 -92 41q-45 25 -77 41q-36 18 -73 18q-62 0 -102 -37
q-43 -40 -70 -84l-172 152q25 47 58 87q36 43 78 74q42 30 99 51q53 19 119 19z" />
    <glyph glyph-name="uni00A0" unicode="&#xa0;" horiz-adv-x="462" 
 />
    <glyph glyph-name="exclamdown" unicode="&#xa1;" horiz-adv-x="595" 
d="M297 1124q41 0 77 -15t63 -42q29 -29 43 -62q16 -38 16 -77t-16 -76q-15 -34 -43 -62q-30 -30 -63 -44q-36 -15 -77 -15t-77 15q-31 13 -62 44q-26 26 -43 62t-17 76q0 37 17 74q18 39 43 64q29 29 62 43q36 15 77 15zM483 72v-412h-374v412l45 522h284z" />
    <glyph glyph-name="cent" unicode="&#xa2;" 
d="M1145 287q-55 -128 -161 -210q-105 -81 -255 -102v-280h-199v282q-104 15 -187 63t-140 122q-59 76 -88 171q-31 101 -31 214t31 214q29 95 88 171q58 75 140 121q83 47 187 63v252h199v-250q143 -18 246 -92q102 -74 158 -203l-256 -102q-23 70 -67 112q-41 40 -108 52
v-674q75 17 115 61q41 45 68 109zM393 551q0 -168 45 -243q44 -74 119 -95v668q-80 -21 -122 -96t-42 -234z" />
    <glyph glyph-name="sterling" unicode="&#xa3;" horiz-adv-x="1351" 
d="M764 1470q186 0 304 -81q119 -82 169 -230l-303 -98q-21 80 -58 114q-36 33 -108 33t-114 -46t-42 -124v-256h377v-174h-377v-73q0 -92 -19 -148q-20 -58 -81 -104h672v-283h-1006l-37 260q41 17 65 37q25 21 40 52q13 28 20 76q6 43 6 110v73h-163v174h163v283
q0 81 32 156q32 73 93 129q60 54 154 88q89 32 213 32z" />
    <glyph glyph-name="currency" unicode="&#xa4;" horiz-adv-x="1325" 
d="M414 1001q53 25 114 41q65 17 136 17q63 0 133 -16q65 -15 118 -42l211 211l177 -176l-205 -202q32 -59 49 -120q18 -65 18 -136q0 -72 -18 -138q-18 -65 -51 -121l207 -202l-177 -176l-213 211q-57 -26 -116 -40q-67 -16 -131 -16q-66 0 -135 16q-60 14 -117 40
l-213 -213l-176 176l206 207q-33 60 -49 119q-18 64 -18 137q0 72 18 135q17 60 47 118l-204 207l176 176zM664 813q-95 0 -147 -61t-52 -174q0 -114 52 -175t149 -61q94 0 145 61t51 175q0 112 -51 174q-51 61 -147 61z" />
    <glyph glyph-name="yen" unicode="&#xa5;" horiz-adv-x="1351" 
d="M911 674h238v-176h-293v-86h293v-174h-293v-238h-360v238h-293v174h293v86h-293v176h235l-432 760h414l260 -598l266 598h400z" />
    <glyph glyph-name="brokenbar" unicode="&#xa6;" horiz-adv-x="663" 
d="M465 829h-266v756h266v-756zM465 -340h-266v756h266v-756z" />
    <glyph glyph-name="section" unicode="&#xa7;" 
d="M627 1468q151 0 263 -47q109 -46 189 -121l-174 -174q-58 49 -121 73q-67 26 -143 26t-112 -22q-33 -20 -33 -56q0 -21 9 -36t36 -30q22 -12 73 -27q41 -12 123 -28q198 -39 296 -119q97 -79 97 -219q0 -94 -45 -159q-44 -63 -127 -119q63 -47 91 -105q26 -55 26 -129
q0 -86 -37 -150q-38 -66 -101 -108q-63 -43 -152 -64q-91 -22 -189 -22q-163 0 -280 50q-115 49 -195 128l174 172q63 -50 132 -78q68 -28 159 -28q145 0 145 82q0 20 -9 37q-8 15 -33 29q-27 15 -66 26q-25 7 -111 26q-212 40 -313 125q-101 84 -101 226q0 93 45 155
t131 119q-65 46 -94 107q-28 59 -28 125q0 87 36 147q38 63 102 105q65 42 151 63q83 20 186 20zM487 815q-36 -39 -47 -70q-12 -33 -12 -69q0 -24 8 -50q7 -21 33 -44q20 -18 69 -38q39 -16 115 -32l90 -16q35 41 47 72q13 33 13 73q0 22 -8 48q-7 21 -30 43q-22 20 -60 35
q-43 17 -103 28q-38 6 -57 10q-16 3 -58 10z" />
    <glyph glyph-name="dieresis" unicode="&#xa8;" horiz-adv-x="1013" 
d="M254 1575q39 0 70 -14q33 -15 57 -39q25 -25 40 -58t15 -69q0 -37 -15 -70q-14 -31 -40 -57q-24 -24 -57 -39t-70 -15q-36 0 -71 15q-34 15 -58 39q-26 26 -40 57q-15 33 -15 70q0 36 15 69t40 58q24 24 58 39q32 14 71 14zM760 1575q38 0 70 -14q35 -15 59 -39
q25 -25 40 -58t15 -69q0 -37 -15 -70q-14 -31 -40 -57q-24 -24 -59 -39t-70 -15q-37 0 -70 15q-32 15 -58 39q-25 23 -40 57q-14 31 -14 70q0 38 14 69q16 36 40 58q26 24 58 39q31 14 70 14z" />
    <glyph glyph-name="copyright" unicode="&#xa9;" horiz-adv-x="1843" 
d="M924 1470q169 0 309 -58t243 -161q100 -100 158 -239t58 -297t-58 -297t-158 -239q-102 -102 -243 -159t-309 -57q-169 0 -310 57t-243 159q-103 103 -160 239t-57 297t57 297t160 239t243 161t310 58zM924 1315q-137 0 -245 -49q-111 -50 -186 -131q-77 -83 -119 -192
t-42 -228q0 -121 42 -229q41 -104 119 -189q76 -82 186 -130t245 -48q134 0 244 48t186 130t116 189q41 109 41 229q0 117 -41 228t-116 192t-186 131q-108 49 -244 49zM926 1165q138 0 232 -60q96 -61 149 -192l-209 -55q-26 60 -66 95q-38 34 -106 34q-86 0 -143 -67
q-56 -66 -56 -199q0 -127 51 -199q50 -71 150 -71q72 0 116 35q45 36 74 110l205 -59q-53 -123 -149 -194q-97 -71 -246 -71q-88 0 -165 30q-78 31 -135 86q-58 56 -92 140q-34 83 -34 193q0 120 37 204q38 88 96 138q64 56 135 78q76 24 156 24z" />
    <glyph glyph-name="ordfeminine" unicode="&#xaa;" horiz-adv-x="907" 
d="M463 1470q199 0 282 -67q84 -68 84 -193v-403q0 -39 6 -95q4 -40 23 -87h-258q-22 41 -29 82q-45 -58 -105 -80q-64 -23 -136 -23q-135 0 -208 71t-73 181q0 120 81 190q82 71 276 95l159 18v35q0 55 -20 76q-21 22 -86 22q-61 0 -87 -21q-26 -22 -28 -73h-262
q5 135 103 204q98 68 278 68zM465 989q-81 -10 -116 -36q-34 -25 -34 -70q0 -82 99 -82q64 0 107 36q44 36 44 95v69z" />
    <glyph glyph-name="guillemotleft" unicode="&#xab;" horiz-adv-x="1169" 
d="M586 934l-209 -365l209 -364l-205 -146l-326 363v295l326 362zM1116 934l-209 -365l209 -364l-205 -146l-325 363v295l325 362z" />
    <glyph glyph-name="logicalnot" unicode="&#xac;" 
d="M1069 162h-342v289h-567v282h909v-571z" />
    <glyph glyph-name="uni00AD" unicode="&#xad;" horiz-adv-x="786" 
d="M713 494h-637v282h637v-282z" />
    <glyph glyph-name="registered" unicode="&#xae;" horiz-adv-x="1843" 
d="M924 1470q169 0 309 -58t243 -161q100 -100 158 -239t58 -297t-58 -297t-158 -239q-102 -102 -243 -159t-309 -57q-169 0 -310 57t-243 159q-103 103 -160 239t-57 297t57 297t160 239t243 161t310 58zM924 1315q-137 0 -245 -49q-111 -50 -186 -131q-77 -83 -119 -192
t-42 -228q0 -121 42 -229q41 -104 119 -189q76 -82 186 -130t245 -48q134 0 244 48t186 130t116 189q41 109 41 229q0 117 -41 228t-116 192t-186 131q-108 49 -244 49zM942 1153q173 0 262 -68q88 -67 88 -192q0 -89 -49 -145q-51 -58 -123 -82l203 -334h-256l-164 299h-90
v-299h-215v821h344zM813 983v-192h129q56 0 90 22q35 23 35 76q0 45 -33 69q-34 25 -86 25h-135z" />
    <glyph glyph-name="macron" unicode="&#xaf;" horiz-adv-x="886" 
d="M825 1266h-764v229h764v-229z" />
    <glyph glyph-name="degree" unicode="&#xb0;" horiz-adv-x="1105" 
d="M553 1468q83 0 154 -26q73 -27 131 -77q57 -49 92 -123q35 -73 35 -163q0 -88 -35 -161q-34 -70 -92 -121q-56 -48 -131 -76q-73 -27 -154 -27q-79 0 -152 27q-72 27 -132 77q-58 49 -93 122t-35 161q0 89 35 162t93 122q60 50 132 77q71 26 152 26zM553 1257
q-59 0 -106 -42q-46 -42 -46 -134t46 -135t106 -43q58 0 104 43q48 45 48 133q0 90 -48 135q-46 43 -104 43z" />
    <glyph glyph-name="plusminus" unicode="&#xb1;" 
d="M782 821h289v-270h-289v-201h-329v201h-291v270h291v314h329v-314zM1065 0h-909v283h909v-283z" />
    <glyph glyph-name="uni00B2" unicode="&#xb2;" horiz-adv-x="819" 
d="M412 1565q77 0 140 -21t105 -56q43 -36 66 -84q22 -47 22 -104q0 -70 -20 -124q-22 -59 -66 -109q-47 -53 -113 -99q-73 -51 -163 -98h373v-194h-695v188q92 63 205 145q78 57 131 108q49 48 70 88q20 39 20 85q0 41 -20 62q-21 22 -64 22q-42 0 -68 -32t-26 -109h-248
q0 69 22 132q21 61 64 105q45 47 109 70q69 25 156 25z" />
    <glyph glyph-name="uni00B3" unicode="&#xb3;" horiz-adv-x="819" 
d="M420 1561q162 0 247 -69t85 -167q0 -77 -45 -124q-44 -45 -117 -68q35 -5 73 -22q29 -13 60 -40q27 -24 42 -59q15 -34 15 -80q0 -131 -99 -206t-269 -75q-144 0 -244 65q-98 64 -127 189l227 53q16 -56 50 -84q36 -30 96 -30q52 0 83 24t31 74q0 48 -33 71t-89 23h-91
v176h72q21 0 42 3q17 2 38 12q16 7 28 24q11 15 11 43q0 41 -29 59q-27 17 -65 17q-44 0 -76 -19t-49 -73l-232 37q27 108 123 177t242 69z" />
    <glyph glyph-name="acute" unicode="&#xb4;" horiz-adv-x="747" 
d="M330 1214h-250l205 324h409z" />
    <glyph glyph-name="uni00B5" unicode="&#xb5;" horiz-adv-x="1255" 
d="M1139 0h-330v119q-45 -76 -104 -106q-61 -31 -127 -31q-91 0 -146 51v-381h-317v1444h344v-645q0 -107 36 -148t107 -41q88 0 140 63q53 64 53 162v609h344v-1096z" />
    <glyph glyph-name="paragraph" unicode="&#xb6;" 
d="M1128 -332h-219v1571h-182v-1571h-219v918q-98 7 -175 45q-80 39 -131 93q-55 58 -83 129q-29 73 -29 157q0 87 32 166q32 78 93 135t153 90t212 33h548v-1766z" />
    <glyph glyph-name="periodcentered" unicode="&#xb7;" horiz-adv-x="643" 
d="M322 836q40 0 82 -17q40 -17 70 -46q29 -29 47 -68t18 -82t-18 -82q-19 -42 -47 -68q-29 -28 -70 -46q-38 -17 -82 -17q-45 0 -82 17q-40 18 -69 46q-28 26 -47 68q-18 39 -18 82t18 82t47 68t69 46t82 17z" />
    <glyph glyph-name="cedilla" unicode="&#xb8;" horiz-adv-x="720" 
d="M428 -88q110 -10 172 -60t62 -137q0 -110 -91 -169q-89 -58 -237 -58q-88 0 -151 16q-66 17 -122 45l76 162q32 -14 80 -26q42 -11 86 -11q38 0 66 11q26 10 26 43q0 44 -51 58q-49 13 -162 13l33 219h215z" />
    <glyph glyph-name="uni00B9" unicode="&#xb9;" horiz-adv-x="819" 
d="M127 870h213v340h-221v164h14q71 0 117 12q47 12 76 35q28 22 44 52q14 27 19 63h193v-666h168v-194h-623v194z" />
    <glyph glyph-name="ordmasculine" unicode="&#xba;" horiz-adv-x="1021" 
d="M506 1470q110 0 190 -33q86 -35 144 -92q59 -58 91 -138q32 -81 32 -171q0 -97 -32 -178q-31 -79 -91 -136q-59 -56 -145 -88q-87 -32 -189 -32q-108 0 -193 32q-83 31 -142 90q-60 60 -89 137q-31 82 -31 175q0 92 31 174q30 80 89 139t143 90t192 31zM506 1268
q-82 0 -130 -56t-48 -172q0 -117 46 -175t132 -58t132 58t46 175q0 116 -48 172t-130 56z" />
    <glyph glyph-name="guillemotright" unicode="&#xbb;" horiz-adv-x="1169" 
d="M1116 717v-295l-325 -363l-205 146l209 364l-209 365l205 145zM586 717v-295l-326 -363l-205 146l209 364l-209 365l205 145z" />
    <glyph glyph-name="onequarter" unicode="&#xbc;" horiz-adv-x="1974" 
d="M760 -25h-248l887 1483h248zM1839 328h107v-195h-107v-133h-235v133h-424v201l348 526h311v-532zM1411 328h193v295zM127 768h213v340h-221v164h14q71 0 117 12q47 12 76 35t44 51q14 27 19 64h193v-666h168v-195h-623v195z" />
    <glyph glyph-name="onehalf" unicode="&#xbd;" horiz-adv-x="2076" 
d="M760 -25h-248l887 1483h248zM1669 889q77 0 140 -21q64 -21 106 -56t65 -84t23 -103q0 -68 -21 -125q-22 -61 -65 -109q-45 -51 -114 -99q-68 -47 -163 -97h373v-195h-694v188q92 63 205 145q78 57 131 108q47 46 69 88q21 41 21 85q0 40 -21 62t-63 22q-44 0 -69 -31
t-25 -110h-248q0 72 21 132q21 61 65 106q44 46 108 69q69 25 156 25zM127 768h213v340h-221v164h14q71 0 117 12q47 12 76 35t44 51q14 27 19 64h193v-666h168v-195h-623v195z" />
    <glyph glyph-name="threequarters" unicode="&#xbe;" horiz-adv-x="1892" 
d="M678 -25h-248l887 1483h248zM1757 328h107v-195h-107v-133h-235v133h-424v201l348 526h311v-532zM1329 328h193v295zM420 1458q163 0 247 -68q85 -69 85 -167q0 -77 -45 -124t-117 -69q38 -6 73 -21q29 -13 60 -40q26 -23 42 -60q15 -35 15 -80q0 -130 -99 -205t-269 -75
q-146 0 -244 64t-127 190l227 53q16 -56 50 -84q37 -31 96 -31q50 0 83 25q31 24 31 74q0 47 -33 70q-35 24 -89 24h-91v176h72q21 0 42 3q20 3 38 11q15 7 28 25q11 15 11 43q0 40 -29 58q-28 18 -65 18q-42 0 -76 -20q-32 -19 -49 -72l-232 36q27 109 123 178
q95 68 242 68z" />
    <glyph glyph-name="questiondown" unicode="&#xbf;" horiz-adv-x="1110" 
d="M588 1124q41 0 77 -15t63 -42q29 -29 43 -62q15 -36 15 -77q0 -42 -15 -76t-43 -62q-30 -30 -63 -44q-36 -15 -77 -15t-77 15q-31 13 -62 44q-26 26 -43 62t-17 76q0 37 17 74q18 39 43 64q29 29 62 43q36 15 77 15zM743 522q0 -78 -24 -132q-23 -52 -62 -94
q-42 -46 -79 -71q-26 -18 -80 -59q-38 -29 -62 -62t-24 -75q0 -62 40 -96q39 -33 107 -33q84 0 133 46q50 47 78 124l309 -80q-22 -76 -63 -138q-45 -69 -109 -118q-69 -54 -156 -82q-95 -31 -210 -31q-118 0 -214 31q-92 30 -157 84q-62 52 -96 124q-33 70 -33 150
q0 94 30 157t72 105q43 44 96 75q22 13 95 61q44 29 73 62t29 85v45h307v-78z" />
    <glyph glyph-name="Agrave" unicode="&#xc0;" horiz-adv-x="1347" 
d="M918 209h-506l-58 -209h-366l458 1434h451l461 -1434h-383zM666 1165l-177 -673h353zM834 1542h-261l-374 322h424z" />
    <glyph glyph-name="Aacute" unicode="&#xc1;" horiz-adv-x="1347" 
d="M918 209h-506l-58 -209h-366l458 1434h451l461 -1434h-383zM666 1165l-177 -673h353zM788 1542h-260l211 322h424z" />
    <glyph glyph-name="Acircumflex" unicode="&#xc2;" horiz-adv-x="1347" 
d="M918 209h-506l-58 -209h-366l458 1434h451l461 -1434h-383zM666 1165l-177 -673h353zM1137 1542h-310l-153 129l-152 -129h-309l287 318h350z" />
    <glyph glyph-name="Atilde" unicode="&#xc3;" horiz-adv-x="1347" 
d="M918 209h-506l-58 -209h-366l458 1434h451l461 -1434h-383zM666 1165l-177 -673h353zM541 1855q59 0 101 -15q43 -15 74 -33q7 -4 19 -10.5t21 -12t16 -9.5q26 -16 47 -16q27 0 49 16q21 15 39 52h180q-17 -136 -94 -212q-79 -77 -186 -77q-59 0 -101 15q-43 15 -74 33
q-49 28 -57 33q-24 15 -47 15q-30 0 -51 -15t-39 -54h-178q21 138 94 214t187 76z" />
    <glyph glyph-name="Adieresis" unicode="&#xc4;" horiz-adv-x="1347" 
d="M918 209h-506l-58 -209h-366l458 1434h451l461 -1434h-383zM666 1165l-177 -673h353zM422 1903q37 0 70 -15t57 -39q26 -26 40 -57q15 -33 15 -70q0 -36 -15 -69t-40 -58q-24 -24 -57 -39q-31 -14 -70 -14t-71 14q-34 15 -58 39q-25 25 -40 58t-15 69q0 37 15 70
q14 31 40 57q24 24 58 39q35 15 71 15zM928 1903q36 0 70 -15q35 -15 59 -39q26 -26 40 -57q15 -33 15 -70q0 -36 -15 -69t-40 -58q-24 -24 -59 -39q-32 -14 -70 -14q-39 0 -70 14q-32 15 -58 39q-24 22 -40 58q-15 33 -15 69q0 37 15 70q15 34 40 57q26 24 58 39
q33 15 70 15z" />
    <glyph glyph-name="Aring" unicode="&#xc5;" horiz-adv-x="1347" 
d="M918 209h-506l-58 -209h-366l458 1434h451l461 -1434h-383zM666 1165l-177 -673h353zM674 2073q58 0 112 -20q58 -21 95 -56q40 -37 64 -89q24 -53 24 -116q0 -64 -24 -115q-25 -53 -63 -88q-38 -36 -95 -56q-55 -20 -113 -20q-61 0 -115 20q-56 21 -94 56q-42 39 -65 88
t-23 115t23 116t65 89q38 36 95 56q55 20 114 20zM672 1890q-38 0 -63 -25t-25 -73t25 -72t63 -24q37 0 62 24q26 24 26 72q0 47 -26 73q-25 25 -62 25z" />
    <glyph glyph-name="AE" unicode="&#xc6;" horiz-adv-x="1931" 
d="M1790 1141h-645l41 -269h565v-282h-522l45 -297h618v-293h-940l-28 207h-492l-82 -207h-383l621 1434h1202v-293zM537 487h352l-90 670z" />
    <glyph glyph-name="Ccedilla" unicode="&#xc7;" horiz-adv-x="1519" 
d="M782 1470q105 0 200 -22q93 -21 182 -73q85 -49 154 -132t114 -199l-349 -88q-47 112 -115 164q-71 54 -184 54q-156 0 -248 -117q-92 -118 -92 -336q0 -216 90 -340q88 -121 254 -121q130 0 208 64t124 186l340 -102q-86 -222 -267 -333q-183 -112 -425 -112
q-131 0 -254 43q-125 44 -223 134q-99 92 -159 235q-60 144 -60 344q0 199 59 339q60 142 159 234q99 91 227 135q126 43 265 43zM881 -88q110 -10 172 -60q61 -49 61 -137q0 -111 -90 -169q-89 -58 -238 -58q-87 0 -150 16q-66 17 -122 45l76 162q32 -14 80 -26
q42 -11 86 -11q37 0 65 11q27 11 27 43q0 44 -51 58q-49 13 -162 13l33 219h215z" />
    <glyph glyph-name="Egrave" unicode="&#xc8;" horiz-adv-x="1218" 
d="M1122 1141h-626v-269h583v-282h-583v-297h645v-293h-1008v1434h989v-293zM786 1542h-260l-374 322h423z" />
    <glyph glyph-name="Eacute" unicode="&#xc9;" horiz-adv-x="1218" 
d="M1122 1141h-626v-269h583v-282h-583v-297h645v-293h-1008v1434h989v-293zM741 1542h-260l211 322h424z" />
    <glyph glyph-name="Ecircumflex" unicode="&#xca;" horiz-adv-x="1218" 
d="M1122 1141h-626v-269h583v-282h-583v-297h645v-293h-1008v1434h989v-293zM1090 1542h-310l-153 129l-152 -129h-309l287 318h350z" />
    <glyph glyph-name="Edieresis" unicode="&#xcb;" horiz-adv-x="1218" 
d="M1122 1141h-626v-269h583v-282h-583v-297h645v-293h-1008v1434h989v-293zM375 1903q36 0 69 -15q35 -16 58 -39q26 -26 40 -57q15 -33 15 -70q0 -36 -15 -69t-40 -58q-23 -23 -58 -39q-31 -14 -69 -14q-39 0 -71 14q-34 15 -58 39q-25 25 -40 58q-16 35 -16 69
q0 35 16 70q14 31 40 57q24 24 58 39t71 15zM881 1903q35 0 70 -15t59 -39q26 -26 40 -57q15 -33 15 -70q0 -36 -15 -69t-40 -58q-24 -24 -59 -39q-32 -14 -70 -14q-39 0 -70 14q-32 15 -58 39q-24 22 -40 58q-15 33 -15 69q0 37 15 70q15 34 40 57q26 24 58 39q33 15 70 15
z" />
    <glyph glyph-name="Igrave" unicode="&#xcc;" horiz-adv-x="843" 
d="M774 1153h-174v-872h174v-281h-711v281h175v872h-175v281h711v-281zM578 1542h-261l-374 322h424z" />
    <glyph glyph-name="Iacute" unicode="&#xcd;" horiz-adv-x="843" 
d="M774 1153h-174v-872h174v-281h-711v281h175v872h-175v281h711v-281zM532 1542h-260l211 322h424z" />
    <glyph glyph-name="Icircumflex" unicode="&#xce;" horiz-adv-x="843" 
d="M774 1153h-174v-872h174v-281h-711v281h175v872h-175v281h711v-281zM881 1542h-310l-153 129l-152 -129h-309l287 318h350z" />
    <glyph glyph-name="Idieresis" unicode="&#xcf;" horiz-adv-x="843" 
d="M774 1153h-174v-872h174v-281h-711v281h175v872h-175v281h711v-281zM166 1903q37 0 70 -15t57 -39q26 -26 40 -57q15 -33 15 -70q0 -36 -15 -69t-40 -58q-24 -24 -57 -39q-31 -14 -70 -14t-71 14q-34 15 -58 39q-25 25 -40 58t-15 69q0 37 15 70q14 31 40 57q24 24 58 39
q35 15 71 15zM672 1903q35 0 70 -15t59 -39q26 -26 40 -57q15 -33 15 -70q0 -36 -15 -69t-40 -58q-24 -24 -59 -39q-32 -14 -70 -14q-39 0 -70 14q-32 15 -58 39q-24 22 -40 58q-15 33 -15 69q0 37 15 70q15 34 40 57q26 24 58 39q33 15 70 15z" />
    <glyph glyph-name="Eth" unicode="&#xd0;" horiz-adv-x="1515" 
d="M664 1434q153 0 294 -36q142 -36 250 -119q109 -83 173 -216q65 -135 65 -326q0 -209 -64 -352q-63 -142 -165 -227q-102 -86 -231 -122q-128 -36 -259 -36h-549v627h-137v243h137v564h486zM725 289q63 0 125 18q61 18 111 68q49 49 79 136q31 90 31 226q0 191 -92 300
q-91 108 -307 108h-133v-275h284v-243h-284v-338h186z" />
    <glyph glyph-name="Ntilde" unicode="&#xd1;" horiz-adv-x="1495" 
d="M1362 0h-426l-481 897v-897h-322v1434h430l479 -914v914h320v-1434zM614 1855q60 0 102 -15q43 -15 74 -33l56 -32q26 -16 47 -16q27 0 49 16q21 15 39 52h180q-17 -136 -94 -212q-79 -77 -186 -77q-60 0 -102 15q-41 15 -73 33q-49 28 -57 33q-24 15 -47 15
q-30 0 -51 -15t-39 -54h-178q21 138 94 214t186 76z" />
    <glyph glyph-name="Ograve" unicode="&#xd2;" horiz-adv-x="1611" 
d="M807 1470q138 0 264 -39q131 -41 236 -129q103 -87 169 -234q64 -143 64 -353q0 -193 -60 -334q-61 -143 -162 -235q-102 -93 -234 -138t-277 -45q-132 0 -264 41q-131 41 -236 132q-104 90 -170 235q-65 142 -65 348q0 197 60 339t162 234q103 92 234 135q132 43 279 43
zM807 1174q-81 0 -147 -30t-114 -87t-75 -143t-27 -193q0 -217 93 -340q91 -121 270 -121q76 0 143 29q65 28 114 86q50 59 76 142q27 86 27 196q0 215 -90 338t-270 123zM965 1542h-260l-375 322h424z" />
    <glyph glyph-name="Oacute" unicode="&#xd3;" horiz-adv-x="1611" 
d="M807 1470q138 0 264 -39q131 -41 236 -129q103 -87 169 -234q64 -143 64 -353q0 -193 -60 -334q-61 -143 -162 -235q-102 -93 -234 -138t-277 -45q-132 0 -264 41q-131 41 -236 132q-104 90 -170 235q-65 142 -65 348q0 197 60 339t162 234q103 92 234 135q132 43 279 43
zM807 1174q-81 0 -147 -30t-114 -87t-75 -143t-27 -193q0 -217 93 -340q91 -121 270 -121q76 0 143 29q65 28 114 86q50 59 76 142q27 86 27 196q0 215 -90 338t-270 123zM920 1542h-261l211 322h424z" />
    <glyph glyph-name="Ocircumflex" unicode="&#xd4;" horiz-adv-x="1611" 
d="M807 1470q138 0 264 -39q131 -41 236 -129q103 -87 169 -234q64 -143 64 -353q0 -193 -60 -334q-61 -143 -162 -235q-102 -93 -234 -138t-277 -45q-132 0 -264 41q-131 41 -236 132q-104 90 -170 235q-65 142 -65 348q0 197 60 339t162 234q103 92 234 135q132 43 279 43
zM807 1174q-81 0 -147 -30t-114 -87t-75 -143t-27 -193q0 -217 93 -340q91 -121 270 -121q76 0 143 29q65 28 114 86q50 59 76 142q27 86 27 196q0 215 -90 338t-270 123zM1268 1542h-310l-153 129l-152 -129h-309l287 318h350z" />
    <glyph glyph-name="Otilde" unicode="&#xd5;" horiz-adv-x="1611" 
d="M807 1470q138 0 264 -39q131 -41 236 -129q103 -87 169 -234q64 -143 64 -353q0 -193 -60 -334q-61 -143 -162 -235q-102 -93 -234 -138t-277 -45q-132 0 -264 41q-131 41 -236 132q-104 90 -170 235q-65 142 -65 348q0 197 60 339t162 234q103 92 234 135q132 43 279 43
zM807 1174q-81 0 -147 -30t-114 -87t-75 -143t-27 -193q0 -217 93 -340q91 -121 270 -121q76 0 143 29q65 28 114 86q50 59 76 142q27 86 27 196q0 215 -90 338t-270 123zM672 1855q59 0 101 -15q43 -15 74 -33l56 -32q26 -16 47 -16q27 0 49 16q21 15 39 52h181
q-17 -135 -95 -212q-79 -77 -186 -77q-59 0 -101 15q-43 15 -74 33q-37 21 -56 33q-24 15 -48 15q-30 0 -51 -15t-39 -54h-178q21 138 94 214t187 76z" />
    <glyph glyph-name="Odieresis" unicode="&#xd6;" horiz-adv-x="1611" 
d="M807 1470q138 0 264 -39q131 -41 236 -129q103 -87 169 -234q64 -143 64 -353q0 -193 -60 -334q-61 -143 -162 -235q-102 -93 -234 -138t-277 -45q-132 0 -264 41q-131 41 -236 132q-104 90 -170 235q-65 142 -65 348q0 197 60 339t162 234q103 92 234 135q132 43 279 43
zM807 1174q-81 0 -147 -30t-114 -87t-75 -143t-27 -193q0 -217 93 -340q91 -121 270 -121q76 0 143 29q65 28 114 86q50 59 76 142q27 86 27 196q0 215 -90 338t-270 123zM553 1903q37 0 70 -15t57 -39q26 -26 40 -57q15 -33 15 -70q0 -36 -15 -69t-40 -58q-24 -24 -57 -39
q-31 -14 -70 -14t-71 14q-34 15 -58 39q-25 25 -40 58t-15 69q0 37 15 70q14 31 40 57q24 24 58 39t71 15zM1059 1903q35 0 70 -15t59 -39q26 -26 40 -57q15 -33 15 -70q0 -36 -15 -69t-40 -58q-24 -24 -59 -39q-32 -14 -70 -14q-39 0 -70 14q-32 15 -58 39q-24 22 -40 58
q-14 31 -14 69q0 39 14 70q15 34 40 57q26 24 58 39q33 15 70 15z" />
    <glyph glyph-name="multiply" unicode="&#xd7;" 
d="M1110 862l-297 -295l297 -293l-201 -202l-293 295l-297 -295l-200 202l297 293l-297 295l200 203l297 -297l293 297z" />
    <glyph glyph-name="Oslash" unicode="&#xd8;" horiz-adv-x="1611" 
d="M1327 1278q96 -92 155 -229q58 -135 58 -334q0 -193 -60 -334q-61 -143 -162 -235q-102 -93 -234 -138t-277 -45q-72 0 -144 12q-75 13 -143 39l-121 -198h-288l204 317q-110 91 -177 237q-66 144 -66 349q0 197 60 339t162 234q103 92 234 135q132 43 279 43
q85 0 161 -14q82 -15 156 -47l90 145h287zM807 1174q-81 0 -147 -30t-114 -87t-75 -143t-27 -193q0 -211 72 -322l469 738q-73 37 -178 37zM807 260q76 0 143 29q65 28 114 86q50 59 76 142q27 86 27 196q0 178 -53 286l-452 -716q64 -23 145 -23z" />
    <glyph glyph-name="Ugrave" unicode="&#xd9;" horiz-adv-x="1458" 
d="M1341 543q0 -130 -36 -231q-38 -107 -113 -183q-77 -79 -192 -122q-117 -44 -273 -44q-160 0 -277 44q-116 44 -191 123q-74 79 -109 184q-35 107 -35 229v891h362v-889q0 -147 60 -216t192 -69q133 0 193 72q59 71 59 213v889h360v-891zM889 1542h-260l-375 322h424z
" />
    <glyph glyph-name="Uacute" unicode="&#xda;" horiz-adv-x="1458" 
d="M1341 543q0 -130 -36 -231q-38 -107 -113 -183q-77 -79 -192 -122q-117 -44 -273 -44q-160 0 -277 44q-116 44 -191 123q-74 79 -109 184q-35 107 -35 229v891h362v-889q0 -147 60 -216t192 -69q133 0 193 72q59 71 59 213v889h360v-891zM844 1542h-260l211 322h424z" />
    <glyph glyph-name="Ucircumflex" unicode="&#xdb;" horiz-adv-x="1458" 
d="M1341 543q0 -130 -36 -231q-38 -107 -113 -183q-77 -79 -192 -122q-117 -44 -273 -44q-160 0 -277 44q-116 44 -191 123q-74 79 -109 184q-35 107 -35 229v891h362v-889q0 -147 60 -216t192 -69q133 0 193 72q59 71 59 213v889h360v-891zM1192 1542h-309l-154 129
l-151 -129h-310l287 318h350z" />
    <glyph glyph-name="Udieresis" unicode="&#xdc;" horiz-adv-x="1458" 
d="M1341 543q0 -130 -36 -231q-38 -107 -113 -183q-77 -79 -192 -122q-117 -44 -273 -44q-160 0 -277 44q-116 44 -191 123q-74 79 -109 184q-35 107 -35 229v891h362v-889q0 -147 60 -216t192 -69q133 0 193 72q59 71 59 213v889h360v-891zM477 1903q37 0 70 -15t57 -39
q26 -26 40 -57q15 -33 15 -70q0 -36 -15 -69t-40 -58q-24 -24 -57 -39q-31 -14 -70 -14q-38 0 -70 14q-35 15 -59 39q-25 25 -40 58t-15 69q0 37 15 70q14 31 40 57q24 24 59 39t70 15zM983 1903q37 0 71 -15t58 -39q26 -26 40 -57q15 -33 15 -70q0 -36 -15 -69t-40 -58
q-24 -24 -58 -39q-32 -14 -71 -14t-70 14q-32 15 -58 39q-24 22 -40 58q-14 31 -14 69q0 39 14 70q15 34 40 57q26 24 58 39q33 15 70 15z" />
    <glyph glyph-name="Yacute" unicode="&#xdd;" horiz-adv-x="1275" 
d="M811 563v-563h-360v559l-490 875h410l264 -588l268 588h397zM752 1542h-260l210 322h424z" />
    <glyph glyph-name="Thorn" unicode="&#xde;" horiz-adv-x="1345" 
d="M496 1217h194q161 0 275 -36q113 -36 189 -101t110 -157t34 -206q0 -242 -149 -372t-455 -130h-198v-215h-363v1434h363v-217zM496 926v-424h209q47 0 86 10q40 10 70 36q29 24 47 67q18 42 18 106q0 96 -57 150q-58 55 -156 55h-217z" />
    <glyph glyph-name="germandbls" unicode="&#xdf;" horiz-adv-x="1300" 
d="M616 1464q125 0 215 -27t148 -73q57 -45 84 -102t27 -117q0 -72 -28 -119q-26 -44 -62 -78q-34 -33 -61 -61q-28 -30 -28 -68q0 -31 28 -53q23 -18 69 -40q41 -20 88 -44q45 -23 88 -66q41 -41 68 -101q28 -62 28 -153q0 -72 -27 -141q-28 -71 -82 -124q-55 -53 -142 -88
q-86 -34 -208 -34q-102 0 -174 24q-71 24 -143 73l135 223q35 -29 71 -41t83 -12q56 0 91 29q36 30 36 94q0 46 -26 77t-64 55q-33 21 -81 46t-82 52q-39 32 -64 72q-25 41 -25 107q0 63 28 104q25 37 64 76q31 31 63 68q29 34 29 76q0 58 -43 83t-101 25q-77 0 -118 -50
t-41 -142v-1014h-344v999q0 219 130 342q131 123 371 123z" />
    <glyph glyph-name="agrave" unicode="&#xe0;" horiz-adv-x="1177" 
d="M596 1126q257 0 367 -91t110 -255v-536q0 -70 6 -127q6 -54 31 -117h-336q-27 45 -39 109q-58 -75 -137 -105q-82 -31 -178 -31q-84 0 -154 25q-64 23 -113 70q-47 46 -71 105q-25 62 -25 134q0 77 25 143q23 62 80 109q58 48 144 79q88 32 216 48l207 25v47
q0 74 -28 105q-27 30 -111 30q-78 0 -112 -30q-33 -29 -38 -97h-340q6 179 136 270q129 90 360 90zM602 487q-108 -17 -150 -50q-44 -35 -44 -93q0 -53 31 -83t93 -30q82 0 141 51q56 49 56 128v94zM760 1214h-250l-365 324h410z" />
    <glyph glyph-name="aacute" unicode="&#xe1;" horiz-adv-x="1177" 
d="M596 1126q257 0 367 -91t110 -255v-536q0 -70 6 -127q6 -54 31 -117h-336q-27 45 -39 109q-58 -75 -137 -105q-82 -31 -178 -31q-84 0 -154 25q-64 23 -113 70q-47 46 -71 105q-25 62 -25 134q0 77 25 143q23 62 80 109q58 48 144 79q88 32 216 48l207 25v47
q0 74 -28 105q-27 30 -111 30q-78 0 -112 -30q-33 -29 -38 -97h-340q6 179 136 270q129 90 360 90zM602 487q-108 -17 -150 -50q-44 -35 -44 -93q0 -53 31 -83t93 -30q82 0 141 51q56 49 56 128v94zM702 1214h-249l204 324h410z" />
    <glyph glyph-name="acircumflex" unicode="&#xe2;" horiz-adv-x="1177" 
d="M596 1126q257 0 367 -91t110 -255v-536q0 -70 6 -127q6 -54 31 -117h-336q-27 45 -39 109q-58 -75 -137 -105q-82 -31 -178 -31q-84 0 -154 25q-64 23 -113 70q-47 46 -71 105q-25 62 -25 134q0 77 25 143q23 62 80 109q58 48 144 79q88 32 216 48l207 25v47
q0 74 -28 105q-27 30 -111 30q-78 0 -112 -30q-33 -29 -38 -97h-340q6 179 136 270q129 90 360 90zM602 487q-108 -17 -150 -50q-44 -35 -44 -93q0 -53 31 -83t93 -30q82 0 141 51q56 49 56 128v94zM1069 1214h-309l-154 148l-151 -148h-310l287 324h350z" />
    <glyph glyph-name="atilde" unicode="&#xe3;" horiz-adv-x="1177" 
d="M596 1126q257 0 367 -91t110 -255v-536q0 -70 6 -127q6 -54 31 -117h-336q-27 45 -39 109q-58 -75 -137 -105q-82 -31 -178 -31q-84 0 -154 25q-64 23 -113 70q-47 46 -71 105q-25 62 -25 134q0 77 25 143q23 62 80 109q58 48 144 79q88 32 216 48l207 25v47
q0 74 -28 105q-27 30 -111 30q-78 0 -112 -30q-33 -29 -38 -97h-340q6 179 136 270q129 90 360 90zM602 487q-108 -17 -150 -50q-44 -35 -44 -93q0 -53 31 -83t93 -30q82 0 141 51q56 49 56 128v94zM473 1528q56 0 101 -16q48 -17 74 -32q49 -28 57 -33q24 -15 47 -15
q28 0 49 15t39 52h180q-17 -136 -94 -212q-79 -77 -187 -77q-56 0 -101 16q-48 17 -74 32q-37 21 -56 33q-26 16 -47 16q-29 0 -51 -16q-21 -15 -39 -54h-178q21 138 94 214q74 77 186 77z" />
    <glyph glyph-name="adieresis" unicode="&#xe4;" horiz-adv-x="1177" 
d="M596 1126q257 0 367 -91t110 -255v-536q0 -70 6 -127q6 -54 31 -117h-336q-27 45 -39 109q-58 -75 -137 -105q-82 -31 -178 -31q-84 0 -154 25q-64 23 -113 70q-47 46 -71 105q-25 62 -25 134q0 77 25 143q23 62 80 109q58 48 144 79q88 32 216 48l207 25v47
q0 74 -28 105q-27 30 -111 30q-78 0 -112 -30q-33 -29 -38 -97h-340q6 179 136 270q129 90 360 90zM602 487q-108 -17 -150 -50q-44 -35 -44 -93q0 -53 31 -83t93 -30q82 0 141 51q56 49 56 128v94zM354 1575q39 0 70 -14q33 -15 57 -39q25 -25 40 -58q16 -35 16 -69
q0 -35 -16 -70q-14 -31 -40 -57q-24 -24 -57 -39t-70 -15q-36 0 -70 15q-35 15 -59 39q-26 26 -40 57q-15 33 -15 70q0 36 15 69t40 58q24 24 59 39q32 14 70 14zM860 1575q39 0 71 -14q34 -15 58 -39q25 -25 40 -58t15 -69q0 -37 -15 -70q-14 -31 -40 -57q-24 -24 -58 -39
t-71 -15q-36 0 -69 15q-34 15 -59 39q-25 23 -40 57q-14 31 -14 70q0 38 14 69q16 36 40 58q25 24 59 39q31 14 69 14z" />
    <glyph glyph-name="aring" unicode="&#xe5;" horiz-adv-x="1177" 
d="M596 1126q257 0 367 -91t110 -255v-536q0 -70 6 -127q6 -54 31 -117h-336q-27 45 -39 109q-58 -75 -137 -105q-82 -31 -178 -31q-84 0 -154 25q-64 23 -113 70q-47 46 -71 105q-25 62 -25 134q0 77 25 143q23 62 80 109q58 48 144 79q88 32 216 48l207 25v47
q0 74 -28 105q-27 30 -111 30q-78 0 -112 -30q-33 -29 -38 -97h-340q6 179 136 270q129 90 360 90zM602 487q-108 -17 -150 -50q-44 -35 -44 -93q0 -53 31 -83t93 -30q82 0 141 51q56 49 56 128v94zM606 1757q62 0 113 -19q54 -20 94 -57q42 -39 65 -88t23 -114
q0 -66 -23 -115q-24 -51 -64 -88q-39 -36 -94 -56t-114 -20q-60 0 -114 20q-58 21 -95 56q-40 37 -64 88t-24 115q0 63 24 114t64 88t96 57q53 19 113 19zM604 1575q-35 0 -62 -25q-26 -24 -26 -71q0 -48 26 -72q27 -25 62 -25q36 0 63 25q25 24 25 72q0 47 -25 71
q-27 25 -63 25z" />
    <glyph glyph-name="ae" unicode="&#xe6;" horiz-adv-x="1857" 
d="M1251 1124q126 0 229 -41q101 -40 173 -118q71 -77 109 -190q38 -112 38 -251v-61h-747q7 -121 71 -175q64 -55 164 -55q86 0 142 35t90 94l272 -129q-83 -126 -211 -194q-131 -70 -311 -70q-274 0 -414 193q-61 -82 -159 -136q-95 -53 -251 -53q-188 0 -289 93
q-100 92 -100 237q0 77 25 146q23 64 80 113q57 50 144 79q88 30 216 45l232 25q3 15 9 43q2 9 11 43q-11 53 -55 74q-47 22 -123 22q-84 0 -118 -30q-33 -29 -38 -97h-340q6 180 128 270t352 90q72 0 131 -8q55 -7 94 -24q38 -16 67 -39t54 -54q52 53 133 88q82 35 192 35z
M1253 885q-78 0 -136 -50q-56 -49 -64 -165h403q-8 116 -60 165q-53 50 -143 50zM588 485q-93 -12 -137 -45q-43 -33 -43 -98q0 -111 127 -111q39 0 80 13q42 13 67 32q26 20 48 46q19 24 24 47q-9 60 -10 78q-1 20 -1 59z" />
    <glyph glyph-name="ccedilla" unicode="&#xe7;" horiz-adv-x="1185" 
d="M635 1124q195 0 320 -78q130 -81 198 -225l-297 -116q-57 153 -205 153q-102 0 -165 -74q-62 -72 -62 -233t61 -237t168 -76q93 0 141 49q47 48 74 121l295 -115q-74 -149 -201 -235q-131 -89 -327 -89q-135 0 -240 43q-107 44 -180 120t-114 182q-40 104 -40 233
q0 128 40 232q42 108 115 183t180 119q104 43 239 43zM725 -88q110 -10 172 -60q61 -49 61 -137q0 -111 -90 -169q-89 -58 -237 -58q-88 0 -151 16q-66 17 -122 45l76 162q32 -14 80 -26q42 -11 86 -11q38 0 66 11q26 10 26 43q0 44 -51 58q-49 13 -162 13l33 219h215z" />
    <glyph glyph-name="egrave" unicode="&#xe8;" horiz-adv-x="1224" 
d="M614 1124q129 0 232 -41t174 -118t109 -190q38 -112 38 -251v-61h-751q7 -121 72 -175q66 -55 169 -55q86 0 141 35q54 35 89 95l272 -130q-83 -126 -211 -194q-131 -70 -313 -70q-137 0 -242 43q-107 44 -180 120q-74 77 -113 182t-39 233t37 232q38 107 108 183
q69 75 174 119q102 43 234 43zM614 885q-78 0 -136 -50q-56 -49 -64 -165h403q-8 116 -60 165q-53 50 -143 50zM770 1214h-250l-364 324h409z" />
    <glyph glyph-name="eacute" unicode="&#xe9;" horiz-adv-x="1224" 
d="M614 1124q129 0 232 -41t174 -118t109 -190q38 -112 38 -251v-61h-751q7 -121 72 -175q66 -55 169 -55q86 0 141 35q54 35 89 95l272 -130q-83 -126 -211 -194q-131 -70 -313 -70q-137 0 -242 43q-107 44 -180 120q-74 77 -113 182t-39 233t37 232q38 107 108 183
q69 75 174 119q102 43 234 43zM614 885q-78 0 -136 -50q-56 -49 -64 -165h403q-8 116 -60 165q-53 50 -143 50zM713 1214h-250l205 324h409z" />
    <glyph glyph-name="ecircumflex" unicode="&#xea;" horiz-adv-x="1224" 
d="M614 1124q129 0 232 -41t174 -118t109 -190q38 -112 38 -251v-61h-751q7 -121 72 -175q66 -55 169 -55q86 0 141 35q54 35 89 95l272 -130q-83 -126 -211 -194q-131 -70 -313 -70q-137 0 -242 43q-107 44 -180 120q-74 77 -113 182t-39 233t37 232q38 107 108 183
q69 75 174 119q102 43 234 43zM614 885q-78 0 -136 -50q-56 -49 -64 -165h403q-8 116 -60 165q-53 50 -143 50zM1079 1214h-309l-154 148l-151 -148h-309l286 324h351z" />
    <glyph glyph-name="edieresis" unicode="&#xeb;" horiz-adv-x="1224" 
d="M614 1124q129 0 232 -41t174 -118t109 -190q38 -112 38 -251v-61h-751q7 -121 72 -175q66 -55 169 -55q86 0 141 35q54 35 89 95l272 -130q-83 -126 -211 -194q-131 -70 -313 -70q-137 0 -242 43q-107 44 -180 120q-74 77 -113 182t-39 233t37 232q38 107 108 183
q69 75 174 119q102 43 234 43zM614 885q-78 0 -136 -50q-56 -49 -64 -165h403q-8 116 -60 165q-53 50 -143 50zM365 1575q38 0 69 -14q35 -16 58 -39t39 -58t16 -69q0 -35 -16 -70q-15 -33 -39 -57q-23 -23 -58 -39q-33 -15 -69 -15t-71 15q-34 15 -58 39q-26 26 -40 57
q-16 35 -16 70q0 34 16 69q15 33 40 58q24 24 58 39q32 14 71 14zM870 1575q39 0 71 -14q34 -15 58 -39q25 -25 40 -58q16 -35 16 -69q0 -35 -16 -70q-14 -31 -40 -57q-24 -24 -58 -39t-71 -15q-36 0 -69 15q-34 15 -59 39q-25 23 -40 57q-14 31 -14 70q0 38 14 69
q16 36 40 58q25 24 59 39q31 14 69 14z" />
    <glyph glyph-name="igrave" unicode="&#xec;" horiz-adv-x="575" 
d="M459 0h-344v1096h344v-1096zM440 1214h-250l-364 324h410z" />
    <glyph glyph-name="iacute" unicode="&#xed;" horiz-adv-x="575" 
d="M459 0h-344v1096h344v-1096zM383 1214h-250l205 324h410z" />
    <glyph glyph-name="icircumflex" unicode="&#xee;" horiz-adv-x="575" 
d="M459 0h-344v1096h344v-1096zM750 1214h-310l-153 148l-152 -148h-309l287 324h350z" />
    <glyph glyph-name="idieresis" unicode="&#xef;" horiz-adv-x="575" 
d="M459 0h-344v1096h344v-1096zM35 1575q38 0 69 -14q35 -16 58 -39q25 -25 40 -58t15 -69q0 -37 -15 -70q-14 -31 -40 -57q-23 -23 -58 -39q-33 -15 -69 -15q-37 0 -71 15t-58 39q-26 26 -40 57q-16 35 -16 70q0 34 16 69q15 33 40 58q24 24 58 39q32 14 71 14zM541 1575
q38 0 70 -14q35 -15 59 -39q25 -25 40 -58t15 -69q0 -37 -15 -70q-14 -31 -40 -57q-24 -24 -59 -39q-34 -15 -70 -15q-37 0 -70 15q-32 15 -58 39q-25 23 -40 57q-15 33 -15 70q0 36 15 69q16 36 40 58q26 24 58 39q31 14 70 14z" />
    <glyph glyph-name="eth" unicode="&#xf0;" horiz-adv-x="1259" 
d="M784 1366q201 -91 308 -265q108 -176 108 -454q0 -177 -44 -306q-43 -127 -122 -212q-78 -84 -184 -124q-105 -40 -234 -40q-126 0 -227 34q-105 35 -175 97q-72 63 -113 157q-40 92 -40 210q0 121 39 211q38 88 104 149q63 59 148 89q84 30 172 30q110 0 197 -38
q86 -38 143 -116q-8 137 -64 223q-57 87 -155 136l-84 -129h-219l121 188q-108 19 -230 19l60 243q99 -5 164 -14q72 -10 149 -29l88 136h215zM627 231q90 0 144 60t54 164q0 105 -56 162q-57 59 -148 59q-105 0 -155 -63q-50 -64 -50 -156q0 -110 56 -167q57 -59 155 -59z
" />
    <glyph glyph-name="ntilde" unicode="&#xf1;" horiz-adv-x="1257" 
d="M788 1126q175 0 269 -106t94 -305v-715h-344v616q0 113 -33 167q-34 55 -119 55q-88 0 -142 -66t-54 -176v-596h-344v1096h329v-146q62 92 149 134t195 42zM539 1528q56 0 101 -16q48 -17 74 -32q37 -21 56 -33q24 -15 47 -15q28 0 49 15t39 52h180q-17 -136 -94 -212
q-79 -77 -186 -77q-57 0 -102 16t-73 32q-49 28 -57 33q-26 16 -47 16q-29 0 -51 -16q-21 -15 -39 -54h-178q21 138 94 214q74 77 187 77z" />
    <glyph glyph-name="ograve" unicode="&#xf2;" horiz-adv-x="1306" 
d="M653 1124q136 0 247 -44q109 -43 186 -122q78 -80 118 -183q41 -106 41 -228q0 -128 -41 -236q-39 -103 -118 -182q-76 -76 -186 -118t-247 -42q-143 0 -251 43t-185 120q-75 75 -116 182q-40 104 -40 233q0 128 40 232q41 107 117 183q75 75 186 119q108 43 249 43z
M651 858q-104 0 -167 -74q-62 -72 -62 -233q0 -158 60 -236q59 -77 169 -77q112 0 171 77q61 79 61 236q0 158 -64 233q-63 74 -168 74zM807 1214h-250l-364 324h409z" />
    <glyph glyph-name="oacute" unicode="&#xf3;" horiz-adv-x="1306" 
d="M653 1124q136 0 247 -44q109 -43 186 -122q78 -80 118 -183q41 -106 41 -228q0 -128 -41 -236q-39 -103 -118 -182q-76 -76 -186 -118t-247 -42q-143 0 -251 43t-185 120q-75 75 -116 182q-40 104 -40 233q0 128 40 232q41 107 117 183q75 75 186 119q108 43 249 43z
M651 858q-104 0 -167 -74q-62 -72 -62 -233q0 -158 60 -236q59 -77 169 -77q112 0 171 77q61 79 61 236q0 158 -64 233q-63 74 -168 74zM750 1214h-250l205 324h409z" />
    <glyph glyph-name="ocircumflex" unicode="&#xf4;" horiz-adv-x="1306" 
d="M653 1124q136 0 247 -44q109 -43 186 -122q78 -80 118 -183q41 -106 41 -228q0 -128 -41 -236q-39 -103 -118 -182q-76 -76 -186 -118t-247 -42q-143 0 -251 43t-185 120q-75 75 -116 182q-40 104 -40 233q0 128 40 232q41 107 117 183q75 75 186 119q108 43 249 43z
M651 858q-104 0 -167 -74q-62 -72 -62 -233q0 -158 60 -236q59 -77 169 -77q112 0 171 77q61 79 61 236q0 158 -64 233q-63 74 -168 74zM1116 1214h-309l-154 148l-151 -148h-309l286 324h350z" />
    <glyph glyph-name="otilde" unicode="&#xf5;" horiz-adv-x="1306" 
d="M653 1124q136 0 247 -44q109 -43 186 -122q78 -80 118 -183q41 -106 41 -228q0 -128 -41 -236q-39 -103 -118 -182q-76 -76 -186 -118t-247 -42q-143 0 -251 43t-185 120q-75 75 -116 182q-40 104 -40 233q0 128 40 232q41 107 117 183q75 75 186 119q108 43 249 43z
M651 858q-104 0 -167 -74q-62 -72 -62 -233q0 -158 60 -236q59 -77 169 -77q112 0 171 77q61 79 61 236q0 158 -64 233q-63 74 -168 74zM520 1528q57 0 102 -16t73 -32q49 -28 57 -33q24 -15 47 -15q28 0 49 15t39 52h180q-17 -136 -94 -212q-79 -77 -187 -77q-56 0 -101 16
q-48 17 -74 32q-37 21 -56 33q-26 16 -47 16q-29 0 -51 -16q-21 -15 -39 -54h-178q21 138 94 214q74 77 186 77z" />
    <glyph glyph-name="odieresis" unicode="&#xf6;" horiz-adv-x="1306" 
d="M653 1124q136 0 247 -44q109 -43 186 -122q78 -80 118 -183q41 -106 41 -228q0 -128 -41 -236q-39 -103 -118 -182q-76 -76 -186 -118t-247 -42q-143 0 -251 43t-185 120q-75 75 -116 182q-40 104 -40 233q0 128 40 232q41 107 117 183q75 75 186 119q108 43 249 43z
M651 858q-104 0 -167 -74q-62 -72 -62 -233q0 -158 60 -236q59 -77 169 -77q112 0 171 77q61 79 61 236q0 158 -64 233q-63 74 -168 74zM401 1575q39 0 70 -14q33 -15 57 -39q25 -25 40 -58q16 -35 16 -69q0 -35 -16 -70q-14 -31 -40 -57q-24 -24 -57 -39t-70 -15
q-35 0 -70 15t-59 39q-26 26 -40 57q-15 33 -15 70q0 36 15 69t40 58q24 24 59 39q32 14 70 14zM907 1575q39 0 71 -14q34 -15 58 -39q25 -25 40 -58q16 -35 16 -69q0 -35 -16 -70q-14 -31 -40 -57q-24 -24 -58 -39q-35 -15 -71 -15t-69 15q-34 15 -59 39q-25 23 -40 57
q-14 31 -14 70q0 38 14 69q16 36 40 58q25 24 59 39q31 14 69 14z" />
    <glyph glyph-name="divide" unicode="&#xf7;" 
d="M615 1242q38 0 78 -16q38 -15 66 -43q26 -26 44 -65q16 -35 16 -76q0 -42 -16 -77q-18 -39 -44 -64q-28 -26 -66 -43q-36 -16 -78 -16t-77 16q-36 17 -64 43q-26 25 -44 64q-17 37 -17 77q0 39 17 76q18 39 44 65q28 28 64 43q38 16 77 16zM1069 479h-909v283h909v-283z
M615 402q38 0 78 -16q38 -15 66 -43q27 -27 44 -64q16 -35 16 -77t-16 -77q-18 -39 -44 -64q-28 -26 -66 -43q-36 -16 -78 -16t-77 16q-36 17 -64 43q-26 25 -44 64q-17 37 -17 77t17 77t44 64q28 28 64 43q38 16 77 16z" />
    <glyph glyph-name="oslash" unicode="&#xf8;" horiz-adv-x="1306" 
d="M1059 973q86 -77 137 -190q49 -108 49 -236t-41 -236q-39 -103 -118 -182q-76 -76 -186 -118t-247 -42q-109 0 -207 31l-94 -164h-262l162 266q-92 78 -141 192q-50 115 -50 253q0 128 40 232q41 107 117 183q75 75 186 119q108 43 249 43q115 0 213 -37l97 160h254z
M651 858q-104 0 -169 -74q-64 -73 -64 -233q0 -121 35 -199l290 492q-35 14 -92 14zM571 248q39 -10 82 -10q111 0 172 77q62 79 62 236q0 112 -27 178z" />
    <glyph glyph-name="ugrave" unicode="&#xf9;" horiz-adv-x="1245" 
d="M1128 0h-329v133q-125 -164 -332 -164q-75 0 -142 23t-116 69t-77 120q-28 75 -28 173v742h345v-660q0 -98 35 -134q36 -38 108 -38q87 0 140 62q52 61 52 161v609h344v-1096zM772 1214h-250l-364 324h409z" />
    <glyph glyph-name="uacute" unicode="&#xfa;" horiz-adv-x="1245" 
d="M1128 0h-329v133q-125 -164 -332 -164q-75 0 -142 23t-116 69t-77 120q-28 75 -28 173v742h345v-660q0 -98 35 -134q36 -38 108 -38q87 0 140 62q52 61 52 161v609h344v-1096zM715 1214h-250l205 324h409z" />
    <glyph glyph-name="ucircumflex" unicode="&#xfb;" horiz-adv-x="1245" 
d="M1128 0h-329v133q-125 -164 -332 -164q-75 0 -142 23t-116 69t-77 120q-28 75 -28 173v742h345v-660q0 -98 35 -134q36 -38 108 -38q87 0 140 62q52 61 52 161v609h344v-1096zM1081 1214h-309l-154 148l-151 -148h-309l286 324h351z" />
    <glyph glyph-name="udieresis" unicode="&#xfc;" horiz-adv-x="1245" 
d="M1128 0h-329v133q-125 -164 -332 -164q-75 0 -142 23t-116 69t-77 120q-28 75 -28 173v742h345v-660q0 -98 35 -134q36 -38 108 -38q87 0 140 62q52 61 52 161v609h344v-1096zM367 1575q38 0 69 -14q35 -16 58 -39q25 -25 40 -58t15 -69q0 -37 -15 -70q-14 -31 -40 -57
q-23 -23 -58 -39q-33 -15 -69 -15q-37 0 -71 15t-58 39q-26 26 -40 57q-16 35 -16 70q0 34 16 69q15 33 40 58q24 24 58 39q32 14 71 14zM872 1575q39 0 71 -14q34 -15 58 -39q25 -25 40 -58q16 -35 16 -69q0 -35 -16 -70q-14 -31 -40 -57q-24 -24 -58 -39q-35 -15 -71 -15
t-69 15q-34 15 -59 39q-23 22 -39 57q-15 33 -15 70q0 36 15 69q17 37 39 58q25 24 59 39q31 14 69 14z" />
    <glyph glyph-name="yacute" unicode="&#xfd;" horiz-adv-x="1101" 
d="M784 -23q-23 -82 -57 -152q-33 -70 -85 -117q-52 -48 -129 -75q-74 -26 -187 -26q-99 0 -166 16v232q48 -5 63 -5h41q49 0 91 7q37 6 60 22q24 17 36 45q13 30 20 76h-135l-354 1096h389l188 -860l174 860h379zM651 1214h-250l205 324h410z" />
    <glyph glyph-name="thorn" unicode="&#xfe;" horiz-adv-x="1300" 
d="M459 995q102 129 307 129q102 0 189 -42q88 -42 150 -118q60 -73 98 -183q36 -105 36 -234q0 -131 -37 -236q-38 -107 -101 -182t-154 -118q-89 -42 -195 -42q-96 0 -170 31q-70 29 -123 84v-432h-344v1782h344v-439zM653 858q-98 0 -156 -76q-60 -78 -61 -235
q0 -159 61 -235q59 -74 158 -74q104 0 164 79t60 232q0 155 -59 232t-167 77z" />
    <glyph glyph-name="ydieresis" unicode="&#xff;" horiz-adv-x="1101" 
d="M784 -23q-23 -82 -57 -152q-33 -70 -85 -117q-52 -48 -129 -75q-74 -26 -187 -26q-99 0 -166 16v232q48 -5 63 -5h41q49 0 91 7q37 6 60 22q24 17 36 45q13 30 20 76h-135l-354 1096h389l188 -860l174 860h379zM303 1575q39 0 70 -14q33 -15 57 -39q25 -25 40 -58t15 -69
q0 -37 -15 -70q-14 -31 -40 -57q-24 -24 -57 -39t-70 -15t-71 15t-58 39q-26 26 -40 57q-15 33 -15 70q0 36 15 69t40 58q24 24 58 39q32 14 71 14zM809 1575q39 0 71 -14q34 -15 58 -39q25 -25 40 -58t15 -69q0 -37 -15 -70q-14 -31 -40 -57q-24 -24 -58 -39t-71 -15
t-70 15q-32 15 -58 39q-25 23 -40 57q-14 31 -14 70q0 38 14 69q16 36 40 58q26 24 58 39q31 14 70 14z" />
    <glyph glyph-name="Amacron" unicode="&#x100;" horiz-adv-x="1347" 
d="M918 209h-506l-58 -209h-366l458 1434h451l461 -1434h-383zM666 1165l-177 -673h353zM1055 1593h-764v230h764v-230z" />
    <glyph glyph-name="amacron" unicode="&#x101;" horiz-adv-x="1177" 
d="M596 1126q257 0 367 -91t110 -255v-536q0 -70 6 -127q6 -54 31 -117h-336q-27 45 -39 109q-58 -75 -137 -105q-82 -31 -178 -31q-84 0 -154 25q-64 23 -113 70q-47 46 -71 105q-25 62 -25 134q0 77 25 143q23 62 80 109q58 48 144 79q88 32 216 48l207 25v47
q0 74 -28 105q-27 30 -111 30q-78 0 -112 -30q-33 -29 -38 -97h-340q6 179 136 270q129 90 360 90zM602 487q-108 -17 -150 -50q-44 -35 -44 -93q0 -53 31 -83t93 -30q82 0 141 51q56 49 56 128v94zM987 1266h-764v229h764v-229z" />
    <glyph glyph-name="Abreve" unicode="&#x102;" horiz-adv-x="1347" 
d="M918 209h-506l-58 -209h-366l458 1434h451l461 -1434h-383zM666 1165l-177 -673h353zM1051 1888q-27 -158 -118 -246t-259 -88q-162 0 -256 88t-121 246h199q11 -57 56 -83q47 -28 122 -29q151 0 178 112h199z" />
    <glyph glyph-name="abreve" unicode="&#x103;" horiz-adv-x="1177" 
d="M596 1126q257 0 367 -91t110 -255v-536q0 -70 6 -127q6 -54 31 -117h-336q-27 45 -39 109q-58 -75 -137 -105q-82 -31 -178 -31q-84 0 -154 25q-64 23 -113 70q-47 46 -71 105q-25 62 -25 134q0 77 25 143q23 62 80 109q58 48 144 79q88 32 216 48l207 25v47
q0 74 -28 105q-27 30 -111 30q-78 0 -112 -30q-33 -29 -38 -97h-340q6 179 136 270q129 90 360 90zM602 487q-108 -17 -150 -50q-44 -35 -44 -93q0 -53 31 -83t93 -30q82 0 141 51q56 49 56 128v94zM983 1552q-27 -158 -118 -246q-92 -89 -259 -89q-161 0 -256 89
q-94 88 -121 246h199q22 -114 184 -114q144 0 172 114h199z" />
    <glyph glyph-name="Aogonek" unicode="&#x104;" horiz-adv-x="1347" 
d="M918 209h-506l-58 -209h-366l458 1434h451l461 -1434h-383zM666 1165l-177 -673h353zM1163 0q-102 -68 -135 -123q-33 -56 -33 -106q0 -41 26 -65q24 -23 85 -23q37 0 66 7q45 11 63 17l57 -168q-104 -49 -239 -49q-146 0 -231 61t-85 179q0 104 92 188q90 83 285 127z
" />
    <glyph glyph-name="aogonek" unicode="&#x105;" horiz-adv-x="1177" 
d="M596 1126q257 0 367 -91t110 -255v-536q0 -70 6 -127q6 -54 31 -117h-336q-27 45 -39 109q-58 -75 -137 -105q-82 -31 -178 -31q-84 0 -154 25q-64 23 -113 70q-47 46 -71 105q-25 62 -25 134q0 77 25 143q23 62 80 109q58 48 144 79q88 32 216 48l207 25v47
q0 74 -28 105q-27 30 -111 30q-78 0 -112 -30q-33 -29 -38 -97h-340q6 179 136 270q129 90 360 90zM602 487q-108 -17 -150 -50q-44 -35 -44 -93q0 -53 31 -83t93 -30q82 0 141 51q56 49 56 128v94zM952 0q-102 -68 -135 -123t-33 -106q0 -41 26 -65q24 -23 85 -23
q38 0 67 7q42 10 62 17l57 -168q-104 -49 -239 -49q-146 0 -231 61t-85 179q0 104 92 188q90 83 285 127z" />
    <glyph glyph-name="Cacute" unicode="&#x106;" horiz-adv-x="1519" 
d="M782 1470q105 0 200 -22q93 -21 182 -73q85 -49 154 -132t114 -199l-349 -88q-47 112 -115 164q-71 54 -184 54q-156 0 -248 -117q-92 -118 -92 -336q0 -216 90 -340q88 -121 254 -121q130 0 208 64t124 186l340 -102q-86 -222 -267 -333q-183 -112 -425 -112
q-131 0 -254 43q-125 44 -223 134q-99 92 -159 235q-60 144 -60 344q0 199 59 339q60 142 159 234q99 91 227 135q126 43 265 43zM905 1542h-260l211 322h424z" />
    <glyph glyph-name="cacute" unicode="&#x107;" horiz-adv-x="1185" 
d="M635 1124q195 0 320 -78q130 -81 198 -225l-297 -116q-57 153 -205 153q-102 0 -165 -74q-62 -72 -62 -233t61 -237t168 -76q93 0 141 49q47 48 74 121l295 -115q-74 -149 -201 -235q-131 -89 -327 -89q-135 0 -240 43q-107 44 -180 120t-114 182q-40 104 -40 233
q0 128 40 232q42 108 115 183t180 119q104 43 239 43zM735 1214h-250l205 324h410z" />
    <glyph glyph-name="Ccircumflex" unicode="&#x108;" horiz-adv-x="1519" 
d="M782 1470q105 0 200 -22q93 -21 182 -73q85 -49 154 -132t114 -199l-349 -88q-47 112 -115 164q-71 54 -184 54q-156 0 -248 -117q-92 -118 -92 -336q0 -216 90 -340q88 -121 254 -121q130 0 208 64t124 186l340 -102q-86 -222 -267 -333q-183 -112 -425 -112
q-131 0 -254 43q-125 44 -223 134q-99 92 -159 235q-60 144 -60 344q0 199 59 339q60 142 159 234q99 91 227 135q126 43 265 43zM1253 1542h-309l-153 129l-152 -129h-309l286 318h351z" />
    <glyph glyph-name="ccircumflex" unicode="&#x109;" horiz-adv-x="1185" 
d="M635 1124q195 0 320 -78q130 -81 198 -225l-297 -116q-57 153 -205 153q-102 0 -165 -74q-62 -72 -62 -233t61 -237t168 -76q93 0 141 49q47 48 74 121l295 -115q-74 -149 -201 -235q-131 -89 -327 -89q-135 0 -240 43q-107 44 -180 120t-114 182q-40 104 -40 233
q0 128 40 232q42 108 115 183t180 119q104 43 239 43zM1102 1214h-309l-154 148l-152 -148h-309l287 324h350z" />
    <glyph glyph-name="Cdotaccent" unicode="&#x10a;" horiz-adv-x="1519" 
d="M782 1470q105 0 200 -22q93 -21 182 -73q85 -49 154 -132t114 -199l-349 -88q-47 112 -115 164q-71 54 -184 54q-156 0 -248 -117q-92 -118 -92 -336q0 -216 90 -340q88 -121 254 -121q130 0 208 64t124 186l340 -102q-86 -222 -267 -333q-183 -112 -425 -112
q-131 0 -254 43q-125 44 -223 134q-99 92 -159 235q-60 144 -60 344q0 199 59 339q60 142 159 234q99 91 227 135q126 43 265 43zM791 1892q40 0 74 -14q36 -15 63 -39t43 -58q16 -33 16 -73t-16 -73q-16 -34 -43 -59q-26 -25 -63 -40q-34 -14 -74 -14q-41 0 -75 14
q-37 15 -63 40q-27 25 -43 59q-16 33 -16 73t16 73q16 34 43 58t63 39q34 14 75 14z" />
    <glyph glyph-name="cdotaccent" unicode="&#x10b;" horiz-adv-x="1185" 
d="M635 1124q195 0 320 -78q130 -81 198 -225l-297 -116q-57 153 -205 153q-102 0 -165 -74q-62 -72 -62 -233t61 -237t168 -76q93 0 141 49q47 48 74 121l295 -115q-74 -149 -201 -235q-131 -89 -327 -89q-135 0 -240 43q-107 44 -180 120t-114 182q-40 104 -40 233
q0 128 40 232q42 108 115 183t180 119q104 43 239 43zM639 1565q39 0 75 -15q34 -14 62 -39q27 -24 43 -58q17 -36 17 -73q0 -36 -17 -72q-17 -35 -43 -60q-27 -25 -62 -40q-34 -14 -75 -14t-75 14q-35 15 -62 40q-26 25 -43 60q-17 36 -17 72q0 37 17 73q16 34 43 58
q28 25 62 39q36 15 75 15z" />
    <glyph glyph-name="Ccaron" unicode="&#x10c;" horiz-adv-x="1519" 
d="M782 1470q105 0 200 -22q93 -21 182 -73q85 -49 154 -132t114 -199l-349 -88q-47 112 -115 164q-71 54 -184 54q-156 0 -248 -117q-92 -118 -92 -336q0 -216 90 -340q88 -121 254 -121q130 0 208 64t124 186l340 -102q-86 -222 -267 -333q-183 -112 -425 -112
q-131 0 -254 43q-125 44 -223 134q-99 92 -159 235q-60 144 -60 344q0 199 59 339q60 142 159 234q99 91 227 135q126 43 265 43zM967 1563h-351l-286 317h309l152 -131l153 131h309z" />
    <glyph glyph-name="ccaron" unicode="&#x10d;" horiz-adv-x="1185" 
d="M635 1124q195 0 320 -78q130 -81 198 -225l-297 -116q-57 153 -205 153q-102 0 -165 -74q-62 -72 -62 -233t61 -237t168 -76q93 0 141 49q47 48 74 121l295 -115q-74 -149 -201 -235q-131 -89 -327 -89q-135 0 -240 43q-107 44 -180 120t-114 182q-40 104 -40 233
q0 128 40 232q42 108 115 183t180 119q104 43 239 43zM815 1235h-350l-287 324h309l152 -146l154 146h309z" />
    <glyph glyph-name="Dcaron" unicode="&#x10e;" horiz-adv-x="1470" 
d="M618 1434q154 0 295 -36q142 -36 250 -119q109 -83 173 -216q65 -135 65 -326q0 -209 -64 -352q-63 -140 -166 -227q-103 -86 -230 -122t-259 -36h-549v1434h485zM494 1145v-856h186q64 0 125 18q59 17 110 68t80 136q31 90 31 226q0 191 -92 300q-92 108 -307 108h-133z
M795 1563h-351l-286 317h309l151 -131l154 131h309z" />
    <glyph glyph-name="dcaron" unicode="&#x10f;" horiz-adv-x="1548" 
d="M1186 0h-330v115q-61 -77 -141 -111q-84 -35 -174 -35q-111 0 -198 43q-89 44 -152 120q-61 73 -96 183q-34 105 -34 234q0 131 39 237q38 104 106 183q63 73 155 115q87 40 192 40q98 0 167 -28q70 -28 122 -82v420h344v-1434zM647 858q-109 0 -166 -78t-57 -233
q0 -154 57 -231q57 -76 166 -76q103 0 161 74t58 233t-60 235t-159 76zM1427 1208h-194l67 330h324z" />
    <glyph glyph-name="Dcroat" unicode="&#x110;" horiz-adv-x="1515" 
d="M664 1434q153 0 294 -36q142 -36 250 -119q109 -83 173 -216q65 -135 65 -326q0 -209 -64 -352q-63 -142 -165 -227q-102 -86 -231 -122q-128 -36 -259 -36h-549v627h-137v243h137v564h486zM725 289q63 0 125 18q61 18 111 68q49 49 79 136q31 90 31 226q0 191 -92 300
q-91 108 -307 108h-133v-275h284v-243h-284v-338h186z" />
    <glyph glyph-name="dcroat" unicode="&#x111;" horiz-adv-x="1329" 
d="M1321 1161h-135v-1161h-330v106q-57 -69 -135 -102t-170 -33q-112 0 -201 43q-91 44 -154 119q-67 79 -100 180q-35 107 -35 230q0 130 37 232q37 103 104 177q66 74 155 113t194 39q110 0 188 -36q80 -37 131 -95v188h-325v195h325v78h316v-78h135v-195zM643 240
q104 0 164 73q59 72 59 228q0 154 -61 225q-61 72 -162 72q-105 0 -162 -75t-57 -222q0 -150 58 -226q57 -75 161 -75z" />
    <glyph glyph-name="Emacron" unicode="&#x112;" horiz-adv-x="1218" 
d="M1122 1141h-626v-269h583v-282h-583v-297h645v-293h-1008v1434h989v-293zM1008 1593h-764v230h764v-230z" />
    <glyph glyph-name="emacron" unicode="&#x113;" horiz-adv-x="1224" 
d="M614 1124q129 0 232 -41t174 -118t109 -190q38 -112 38 -251v-61h-751q7 -121 72 -175q66 -55 169 -55q86 0 141 35q54 35 89 95l272 -130q-83 -126 -211 -194q-131 -70 -313 -70q-137 0 -242 43q-107 44 -180 120q-74 77 -113 182t-39 233t37 232q38 107 108 183
q69 75 174 119q102 43 234 43zM614 885q-78 0 -136 -50q-56 -49 -64 -165h403q-8 116 -60 165q-53 50 -143 50zM997 1266h-764v229h764v-229z" />
    <glyph glyph-name="Ebreve" unicode="&#x114;" horiz-adv-x="1218" 
d="M1122 1141h-626v-269h583v-282h-583v-297h645v-293h-1008v1434h989v-293zM1004 1888q-27 -158 -118 -246t-259 -88q-162 0 -256 88t-121 246h199q11 -57 56 -83q47 -28 122 -29q151 0 178 112h199z" />
    <glyph glyph-name="ebreve" unicode="&#x115;" horiz-adv-x="1224" 
d="M614 1124q129 0 232 -41t174 -118t109 -190q38 -112 38 -251v-61h-751q7 -121 72 -175q66 -55 169 -55q86 0 141 35q54 35 89 95l272 -130q-83 -126 -211 -194q-131 -70 -313 -70q-137 0 -242 43q-107 44 -180 120q-74 77 -113 182t-39 233t37 232q38 107 108 183
q69 75 174 119q102 43 234 43zM614 885q-78 0 -136 -50q-56 -49 -64 -165h403q-8 116 -60 165q-53 50 -143 50zM993 1552q-27 -159 -117 -246q-92 -89 -260 -89q-161 0 -256 89q-93 87 -120 246h198q22 -114 185 -114q143 0 172 114h198z" />
    <glyph glyph-name="Edotaccent" unicode="&#x116;" horiz-adv-x="1218" 
d="M1122 1141h-626v-269h583v-282h-583v-297h645v-293h-1008v1434h989v-293zM627 1892q40 0 74 -14q36 -15 63 -39t43 -58q16 -33 16 -73t-16 -73q-16 -34 -43 -59q-26 -25 -63 -40q-34 -14 -74 -14q-41 0 -75 14q-37 15 -63 40q-27 25 -43 59q-16 33 -16 73t16 73
q16 34 43 58t63 39q34 14 75 14z" />
    <glyph glyph-name="edotaccent" unicode="&#x117;" horiz-adv-x="1224" 
d="M614 1124q129 0 232 -41t174 -118t109 -190q38 -112 38 -251v-61h-751q7 -121 72 -175q66 -55 169 -55q86 0 141 35q54 35 89 95l272 -130q-83 -126 -211 -194q-131 -70 -313 -70q-137 0 -242 43q-107 44 -180 120q-74 77 -113 182t-39 233t37 232q38 107 108 183
q69 75 174 119q102 43 234 43zM614 885q-78 0 -136 -50q-56 -49 -64 -165h403q-8 116 -60 165q-53 50 -143 50zM616 1565q39 0 75 -15t63 -39t43 -58q16 -33 16 -73q0 -39 -16 -72q-17 -35 -43 -60t-63 -40q-34 -14 -75 -14q-40 0 -74 14q-37 15 -63 40t-43 60
q-16 33 -16 72q0 40 16 73q16 34 43 58t63 39t74 15z" />
    <glyph glyph-name="Eogonek" unicode="&#x118;" horiz-adv-x="1218" 
d="M1122 1141h-626v-269h583v-282h-583v-297h645v-293h-1008v1434h989v-293zM1044 0q-102 -68 -135 -123q-32 -54 -32 -106q0 -41 25 -65q24 -23 85 -23q38 0 67 7q42 10 62 17l58 -168q-104 -49 -240 -49q-146 0 -231 61t-85 179q0 103 93 188q91 83 284 127z" />
    <glyph glyph-name="eogonek" unicode="&#x119;" horiz-adv-x="1224" 
d="M614 1124q129 0 232 -41t174 -118t109 -190q38 -112 38 -251v-61h-751q7 -121 72 -175q66 -55 169 -55q86 0 141 35q54 35 89 95l272 -130q-83 -126 -211 -194q-131 -70 -313 -70q-137 0 -242 43q-107 44 -180 120q-74 77 -113 182t-39 233t37 232q38 107 108 183
q69 75 174 119q102 43 234 43zM614 885q-78 0 -136 -50q-56 -49 -64 -165h403q-8 116 -60 165q-53 50 -143 50zM846 0q-102 -68 -135 -123t-33 -106q0 -41 25 -65q24 -23 85 -23q38 0 67 7q45 11 63 17l57 -168q-104 -49 -240 -49q-145 0 -230 61t-85 179q0 104 92 188
q90 83 285 127z" />
    <glyph glyph-name="Ecaron" unicode="&#x11a;" horiz-adv-x="1218" 
d="M1122 1141h-626v-269h583v-282h-583v-297h645v-293h-1008v1434h989v-293zM803 1563h-350l-287 317h309l152 -131l153 131h310z" />
    <glyph glyph-name="ecaron" unicode="&#x11b;" horiz-adv-x="1224" 
d="M614 1124q129 0 232 -41t174 -118t109 -190q38 -112 38 -251v-61h-751q7 -121 72 -175q66 -55 169 -55q86 0 141 35q54 35 89 95l272 -130q-83 -126 -211 -194q-131 -70 -313 -70q-137 0 -242 43q-107 44 -180 120q-74 77 -113 182t-39 233t37 232q38 107 108 183
q69 75 174 119q102 43 234 43zM614 885q-78 0 -136 -50q-56 -49 -64 -165h403q-8 116 -60 165q-53 50 -143 50zM793 1235h-351l-286 324h309l151 -146l154 146h309z" />
    <glyph glyph-name="Gcircumflex" unicode="&#x11c;" horiz-adv-x="1529" 
d="M780 1470q218 0 384 -91q168 -92 263 -296l-327 -112q-46 106 -123 157q-78 52 -193 52q-166 0 -253 -121t-87 -342q0 -222 83 -343q83 -120 257 -120q129 0 213 67q82 66 82 185v43h-284v254h647v-803h-322v125q-150 -162 -399 -162q-120 0 -238 41q-116 40 -208 132
q-89 89 -147 234q-56 140 -56 345q0 199 57 341t156 234q101 93 226 136q129 44 269 44zM1227 1542h-309l-154 129l-152 -129h-309l287 318h350z" />
    <glyph glyph-name="gcircumflex" unicode="&#x11d;" horiz-adv-x="1232" 
d="M1202 936q-51 0 -88 -5q-26 -4 -65 -16q28 -37 40 -78q11 -39 11 -87q0 -74 -30 -140q-30 -65 -91 -113q-63 -49 -154 -76q-95 -28 -217 -28q-58 0 -112 8q-49 7 -99 25q-13 -17 -20 -30q-8 -16 -8 -31q0 -36 28 -54t109 -18h178q119 0 213 -25q90 -24 150 -69
q58 -43 89 -106q29 -58 29 -134q0 -164 -142 -258t-435 -94q-155 0 -260 21q-102 20 -167 59q-63 37 -88 88q-26 52 -26 110q0 144 158 213q-60 34 -84 83q-25 50 -25 102q0 59 38 112t102 94q-72 45 -114 114t-42 155q0 73 31 143q29 66 94 117q63 50 157 78q93 28 222 28
q95 0 165 -16q76 -17 130 -43q55 66 133 103q80 39 190 40v-272zM594 907q-84 0 -128 -39t-44 -104q0 -63 44 -101t126 -38q79 0 125 38q45 37 45 103t-43 103q-44 38 -125 38zM387 33q-55 -37 -55 -94q0 -25 10 -44q11 -20 37 -33q27 -14 75 -21q45 -7 121 -7q128 0 184 28
q54 27 54 79q0 53 -43 72q-45 20 -143 20h-240zM1057 1214h-309l-154 148l-152 -148h-309l287 324h350z" />
    <glyph glyph-name="Gbreve" unicode="&#x11e;" horiz-adv-x="1529" 
d="M780 1470q218 0 384 -91q168 -92 263 -296l-327 -112q-46 106 -123 157q-78 52 -193 52q-166 0 -253 -121t-87 -342q0 -222 83 -343q83 -120 257 -120q129 0 213 67q82 66 82 185v43h-284v254h647v-803h-322v125q-150 -162 -399 -162q-120 0 -238 41q-116 40 -208 132
q-89 89 -147 234q-56 140 -56 345q0 199 57 341t156 234q101 93 226 136q129 44 269 44zM1141 1888q-27 -158 -118 -246t-259 -88q-162 0 -256 88t-121 246h199q11 -57 56 -83q47 -28 122 -29q151 0 178 112h199z" />
    <glyph glyph-name="gbreve" unicode="&#x11f;" horiz-adv-x="1232" 
d="M1202 936q-51 0 -88 -5q-26 -4 -65 -16q28 -37 40 -78q11 -39 11 -87q0 -74 -30 -140q-30 -65 -91 -113q-63 -49 -154 -76q-95 -28 -217 -28q-58 0 -112 8q-49 7 -99 25q-13 -17 -20 -30q-8 -16 -8 -31q0 -36 28 -54t109 -18h178q119 0 213 -25q90 -24 150 -69
q58 -43 89 -106q29 -58 29 -134q0 -164 -142 -258t-435 -94q-155 0 -260 21q-102 20 -167 59q-63 37 -88 88q-26 52 -26 110q0 144 158 213q-60 34 -84 83q-25 50 -25 102q0 59 38 112t102 94q-72 45 -114 114t-42 155q0 73 31 143q29 66 94 117q63 50 157 78q93 28 222 28
q95 0 165 -16q76 -17 130 -43q55 66 133 103q80 39 190 40v-272zM594 907q-84 0 -128 -39t-44 -104q0 -63 44 -101t126 -38q79 0 125 38q45 37 45 103t-43 103q-44 38 -125 38zM387 33q-55 -37 -55 -94q0 -25 10 -44q11 -20 37 -33q27 -14 75 -21q45 -7 121 -7q128 0 184 28
q54 27 54 79q0 53 -43 72q-45 20 -143 20h-240zM971 1552q-27 -158 -118 -246q-92 -89 -259 -89q-161 0 -256 89q-94 88 -121 246h199q22 -114 184 -114q144 0 172 114h199z" />
    <glyph glyph-name="Gdotaccent" unicode="&#x120;" horiz-adv-x="1529" 
d="M780 1470q218 0 384 -91q168 -92 263 -296l-327 -112q-46 106 -123 157q-78 52 -193 52q-166 0 -253 -121t-87 -342q0 -222 83 -343q83 -120 257 -120q129 0 213 67q82 66 82 185v43h-284v254h647v-803h-322v125q-150 -162 -399 -162q-120 0 -238 41q-116 40 -208 132
q-89 89 -147 234q-56 140 -56 345q0 199 57 341t156 234q101 93 226 136q129 44 269 44zM764 1892q41 0 75 -14t62 -39q27 -24 43 -58q17 -36 17 -73t-17 -73q-16 -34 -43 -59t-62 -40q-34 -14 -75 -14t-75 14q-35 15 -62 40t-43 59q-17 36 -17 73t17 73q16 34 43 58
q28 25 62 39t75 14z" />
    <glyph glyph-name="gdotaccent" unicode="&#x121;" horiz-adv-x="1232" 
d="M1202 936q-51 0 -88 -5q-26 -4 -65 -16q28 -37 40 -78q11 -39 11 -87q0 -74 -30 -140q-30 -65 -91 -113q-63 -49 -154 -76q-95 -28 -217 -28q-58 0 -112 8q-49 7 -99 25q-13 -17 -20 -30q-8 -16 -8 -31q0 -36 28 -54t109 -18h178q119 0 213 -25q90 -24 150 -69
q58 -43 89 -106q29 -58 29 -134q0 -164 -142 -258t-435 -94q-155 0 -260 21q-102 20 -167 59q-63 37 -88 88q-26 52 -26 110q0 144 158 213q-60 34 -84 83q-25 50 -25 102q0 59 38 112t102 94q-72 45 -114 114t-42 155q0 73 31 143q29 66 94 117q63 50 157 78q93 28 222 28
q95 0 165 -16q76 -17 130 -43q55 66 133 103q80 39 190 40v-272zM594 907q-84 0 -128 -39t-44 -104q0 -63 44 -101t126 -38q79 0 125 38q45 37 45 103t-43 103q-44 38 -125 38zM387 33q-55 -37 -55 -94q0 -25 10 -44q11 -20 37 -33q27 -14 75 -21q45 -7 121 -7q128 0 184 28
q54 27 54 79q0 53 -43 72q-45 20 -143 20h-240zM594 1565q39 0 75 -15q34 -14 62 -39q27 -24 43 -58q17 -36 17 -73q0 -36 -17 -72q-17 -35 -43 -60q-27 -25 -62 -40q-34 -14 -75 -14t-75 14q-35 15 -62 40q-26 25 -43 60q-17 36 -17 72q0 37 17 73q16 34 43 58q28 25 62 39
q36 15 75 15z" />
    <glyph glyph-name="Gcommaaccent" unicode="&#x122;" horiz-adv-x="1529" 
d="M780 1470q218 0 384 -91q168 -92 263 -296l-327 -112q-46 106 -123 157q-78 52 -193 52q-166 0 -253 -121t-87 -342q0 -222 83 -343q83 -120 257 -120q129 0 213 67q82 66 82 185v43h-284v254h647v-803h-322v125q-150 -162 -399 -162q-120 0 -238 41q-116 40 -208 132
q-89 89 -147 234q-56 140 -56 345q0 199 57 341t156 234q101 93 226 136q129 44 269 44zM784 -115q81 0 125 -50q43 -49 43 -118q0 -50 -16 -101q-15 -49 -44 -103q-28 -54 -65 -102q-46 -61 -79 -95l-130 59q36 59 55 105q20 47 32 117q-49 32 -66 64q-18 35 -18 75
q0 61 47 105t116 44z" />
    <glyph glyph-name="gcommaaccent" unicode="&#x123;" horiz-adv-x="1232" 
d="M1202 936q-51 0 -88 -5q-26 -4 -65 -16q28 -37 40 -78q11 -39 11 -87q0 -74 -30 -140q-30 -65 -91 -113q-63 -49 -154 -76q-95 -28 -217 -28q-58 0 -112 8q-49 7 -99 25q-13 -17 -20 -30q-8 -16 -8 -31q0 -36 28 -54t109 -18h178q119 0 213 -25q90 -24 150 -69
q58 -43 89 -106q29 -58 29 -134q0 -164 -142 -258t-435 -94q-155 0 -260 21q-102 20 -167 59q-63 37 -88 88q-26 52 -26 110q0 144 158 213q-60 34 -84 83q-25 50 -25 102q0 59 38 112t102 94q-72 45 -114 114t-42 155q0 73 31 143q29 66 94 117q63 50 157 78q93 28 222 28
q95 0 165 -16q76 -17 130 -43q55 66 133 103q80 39 190 40v-272zM594 907q-84 0 -128 -39t-44 -104q0 -63 44 -101t126 -38q79 0 125 38q45 37 45 103t-43 103q-44 38 -125 38zM387 33q-55 -37 -55 -94q0 -25 10 -44q11 -20 37 -33q27 -14 75 -21q45 -7 121 -7q128 0 184 28
q54 27 54 79q0 53 -43 72q-45 20 -143 20h-240zM594 1210q-80 0 -125 51q-43 49 -43 117q0 51 16 102q15 49 44 103q27 50 65 101q46 61 80 96l129 -60q-34 -56 -54 -104q-20 -47 -32 -117q48 -31 65 -64q19 -36 19 -75q0 -62 -47 -106t-117 -44z" />
    <glyph glyph-name="Hcircumflex" unicode="&#x124;" horiz-adv-x="1503" 
d="M1370 0h-362v596h-512v-596h-363v1434h363v-543h512v543h362v-1434zM1214 1542h-309l-153 129l-152 -129h-309l287 318h350z" />
    <glyph glyph-name="hcircumflex" unicode="&#x125;" horiz-adv-x="1257" 
d="M459 963q61 79 139 121t186 42q175 0 271 -106t96 -305v-715h-344v623q0 109 -33 161q-34 54 -119 54q-88 0 -142 -66t-54 -176v-596h-344v1434h344v-471zM1106 1542h-309l-154 129l-151 -129h-310l287 318h350z" />
    <glyph glyph-name="Hbar" unicode="&#x126;" horiz-adv-x="1581" 
d="M1536 1069h-135v-1069h-363v596h-512v-596h-362v1069h-121v201h121v164h362v-164h512v164h363v-164h135v-201zM1038 1069h-512v-178h512v178z" />
    <glyph glyph-name="hbar" unicode="&#x127;" horiz-adv-x="1271" 
d="M799 1104q174 0 270 -107t96 -305v-692h-344v580q0 123 -33 180t-118 57q-89 0 -143 -66t-54 -178v-573h-344v1161h-135v195h135v78h317v-78h328v-195h-328v-239q60 94 152 138q93 44 201 44z" />
    <glyph glyph-name="Itilde" unicode="&#x128;" horiz-adv-x="843" 
d="M774 1153h-174v-872h174v-281h-711v281h175v872h-175v281h711v-281zM285 1855q59 0 101 -15q43 -15 74 -33q7 -4 19 -10.5t21 -12t16 -9.5q26 -16 47 -16q27 0 49 16q21 15 39 52h180q-17 -136 -94 -212q-79 -77 -186 -77q-59 0 -101 15q-43 15 -74 33q-49 28 -57 33
q-24 15 -47 15q-30 0 -51 -15t-39 -54h-178q21 138 94 214t187 76z" />
    <glyph glyph-name="itilde" unicode="&#x129;" horiz-adv-x="575" 
d="M459 0h-344v1096h344v-1096zM154 1528q56 0 101 -16q48 -17 74 -32q37 -21 56 -33q24 -15 47 -15q28 0 49 15t39 52h180q-17 -136 -94 -212q-79 -77 -186 -77q-57 0 -102 16t-73 32q-49 28 -57 33q-26 16 -47 16q-29 0 -51 -16q-21 -15 -39 -54h-178q21 138 94 214
q74 77 187 77z" />
    <glyph glyph-name="Imacron" unicode="&#x12a;" horiz-adv-x="843" 
d="M774 1153h-174v-872h174v-281h-711v281h175v872h-175v281h711v-281zM799 1593h-764v230h764v-230z" />
    <glyph glyph-name="imacron" unicode="&#x12b;" horiz-adv-x="575" 
d="M459 0h-344v1096h344v-1096zM668 1266h-764v229h764v-229z" />
    <glyph glyph-name="Ibreve" unicode="&#x12c;" horiz-adv-x="843" 
d="M774 1153h-174v-872h174v-281h-711v281h175v872h-175v281h711v-281zM795 1888q-27 -158 -118 -246t-259 -88q-162 0 -256 88t-121 246h199q11 -57 56 -83q47 -28 122 -29q151 0 178 112h199z" />
    <glyph glyph-name="ibreve" unicode="&#x12d;" horiz-adv-x="575" 
d="M459 0h-344v1096h344v-1096zM664 1552q-27 -158 -118 -246q-92 -89 -259 -89q-161 0 -256 89q-94 88 -121 246h199q22 -114 184 -114q143 0 172 114h199z" />
    <glyph glyph-name="Iogonek" unicode="&#x12e;" horiz-adv-x="843" 
d="M774 1153h-174v-872h174v-281h-711v281h175v872h-175v281h711v-281zM528 0q-102 -68 -135 -123q-33 -56 -33 -106q0 -41 26 -65q24 -23 85 -23q38 0 67 7q42 10 62 17l57 -168q-104 -49 -239 -49q-146 0 -231 61t-85 179q0 103 93 188q91 83 284 127z" />
    <glyph glyph-name="iogonek" unicode="&#x12f;" horiz-adv-x="575" 
d="M459 0h-344v1096h344v-1096zM287 1565q38 0 74 -15t63 -39t43 -58q16 -33 16 -73q0 -39 -16 -72q-17 -35 -43 -60t-63 -40q-34 -14 -74 -14q-41 0 -75 14q-35 15 -62 40q-28 26 -44 60q-16 33 -16 72q0 40 16 73t44 58t62 39q36 15 75 15zM459 0q-102 -68 -135 -123
q-33 -56 -33 -106q0 -41 25 -65q24 -23 85 -23q38 0 67 7q42 10 62 17l58 -168q-104 -49 -240 -49q-145 0 -230 61t-85 179q0 104 92 188q90 83 285 127z" />
    <glyph glyph-name="Idotaccent" unicode="&#x130;" horiz-adv-x="843" 
d="M774 1153h-174v-872h174v-281h-711v281h175v872h-175v281h711v-281zM418 1892q41 0 75 -14t62 -39q27 -24 43 -58q16 -33 16 -73t-16 -73q-16 -34 -43 -59t-62 -40q-34 -14 -75 -14t-75 14q-35 15 -62 40t-43 59q-17 36 -17 73t17 73q16 34 43 58q28 25 62 39t75 14z" />
    <glyph glyph-name="dotlessi" unicode="&#x131;" horiz-adv-x="575" 
d="M459 0h-344v1096h344v-1096z" />
    <glyph glyph-name="IJ" unicode="&#x132;" horiz-adv-x="1718" 
d="M774 1153h-174v-872h174v-281h-711v281h175v872h-175v281h711v-281zM1602 483q0 -108 -25 -203q-24 -90 -82 -156q-56 -63 -153 -100q-94 -36 -238 -36q-58 0 -106 3q-49 3 -101 9v299q38 -2 56 -3t57 -1q71 0 111 11q44 12 71 36q26 23 37 65q10 39 10 99v928h363v-951z
" />
    <glyph glyph-name="ij" unicode="&#x133;" horiz-adv-x="1171" 
d="M1055 -12q0 -103 -30 -175q-30 -73 -81 -119q-50 -46 -117 -67q-63 -20 -137 -20q-63 0 -98 4q-40 5 -74 12v244q22 -2 25 -2h14q39 0 71 8q29 7 48 31t26 62q9 49 9 106v1024h344v-1108zM883 1565q38 0 74 -15t63 -39t43 -58q16 -33 16 -73q0 -39 -16 -72
q-17 -35 -43 -60t-63 -40q-34 -14 -74 -14q-41 0 -75 14q-37 15 -63 40t-43 60q-16 33 -16 72q0 40 16 73q16 34 43 58t63 39t75 15zM459 0h-344v1096h344v-1096zM287 1565q38 0 74 -15t63 -39t43 -58q16 -33 16 -73q0 -39 -16 -72q-17 -35 -43 -60t-63 -40q-34 -14 -74 -14
q-41 0 -75 14q-35 15 -62 40q-28 26 -44 60q-16 33 -16 72q0 40 16 73t44 58t62 39q36 15 75 15z" />
    <glyph glyph-name="Jcircumflex" unicode="&#x134;" horiz-adv-x="854" 
d="M737 483q0 -111 -24 -203q-24 -90 -82 -156q-56 -63 -153 -100q-95 -36 -238 -36q-58 0 -106 3q-49 3 -101 9v299q38 -2 56 -3t56 -1q72 0 112 11q44 12 71 36q26 23 37 65q10 39 10 99v928h362v-951zM1018 1542h-309l-154 129l-152 -129h-309l287 318h350z" />
    <glyph glyph-name="jcircumflex" unicode="&#x135;" horiz-adv-x="575" 
d="M459 -12q0 -103 -30 -175q-30 -73 -81 -119q-50 -46 -117 -67q-63 -20 -137 -20q-63 0 -98 4q-40 5 -74 12v244q22 -2 25 -2h14q39 0 71 8q29 7 48 31t26 62q9 49 9 106v1024h344v-1108zM750 1214h-310l-153 148l-152 -148h-309l287 324h350z" />
    <glyph glyph-name="Kcommaaccent" unicode="&#x136;" horiz-adv-x="1425" 
d="M651 604l-155 -174v-430h-363v1434h363v-582l493 582h422l-510 -582l549 -852h-426zM707 -115q80 0 124 -50q43 -49 43 -118q0 -50 -16 -101q-15 -49 -44 -103q-31 -58 -64 -102q-43 -57 -80 -95l-129 59q32 54 54 105q20 47 32 117q-49 32 -66 64q-18 35 -18 75
q0 61 47 105t117 44z" />
    <glyph glyph-name="kcommaaccent" unicode="&#x137;" horiz-adv-x="1236" 
d="M459 698l379 398h393l-414 -414l430 -682h-397l-266 444l-125 -125v-319h-344v1434h344v-736zM612 -115q81 0 125 -50q43 -49 43 -118q0 -50 -16 -101q-15 -49 -44 -103q-28 -54 -65 -102q-43 -57 -80 -95l-129 59q36 59 55 105q18 43 31 117q-48 31 -65 64
q-18 35 -18 75q0 61 47 105t116 44z" />
    <glyph glyph-name="kgreenlandic" unicode="&#x138;" horiz-adv-x="1236" 
d="M817 672l430 -672h-395l-266 440l-127 -129v-311h-344v1096h344v-410l366 410h406z" />
    <glyph glyph-name="Lacute" unicode="&#x139;" horiz-adv-x="1130" 
d="M496 307h608v-307h-971v1434h363v-1127zM428 1542h-260l211 322h424z" />
    <glyph glyph-name="lacute" unicode="&#x13a;" horiz-adv-x="618" 
d="M449 360q0 -27 2 -57q1 -22 11 -36q9 -13 27 -18q20 -5 52 -5h16q3 0 25 2v-242q-36 -9 -75 -13q-48 -5 -97 -5q-149 0 -227 77q-79 78 -79 250v1121h345v-1074zM391 1542h-260l211 322h424z" />
    <glyph glyph-name="Lcommaaccent" unicode="&#x13b;" horiz-adv-x="1130" 
d="M496 307h608v-307h-971v1434h363v-1127zM612 -115q81 0 125 -50q43 -49 43 -118q0 -50 -16 -101q-15 -49 -44 -103q-28 -54 -65 -102q-43 -57 -80 -95l-129 59q36 59 55 105q18 43 31 117q-48 31 -65 64q-18 35 -18 75q0 61 47 105t116 44z" />
    <glyph glyph-name="lcommaaccent" unicode="&#x13c;" horiz-adv-x="618" 
d="M449 360q0 -27 2 -57q1 -22 11 -36q9 -13 27 -18q20 -5 52 -5h16q3 0 25 2v-242q-36 -9 -75 -13q-48 -5 -97 -5q-149 0 -227 77q-79 78 -79 250v1121h345v-1074zM354 -115q81 0 125 -50q43 -49 43 -118q0 -50 -16 -101q-15 -49 -44 -103q-28 -54 -65 -102
q-43 -57 -80 -95l-129 59q36 59 55 105q18 43 31 117q-48 31 -65 64q-19 36 -19 75q0 60 48 105q47 44 116 44z" />
    <glyph glyph-name="Lcaron" unicode="&#x13d;" horiz-adv-x="1130" 
d="M496 307h608v-307h-971v1434h363v-1127zM770 1208h-195l68 330h324z" />
    <glyph glyph-name="lcaron" unicode="&#x13e;" horiz-adv-x="802" 
d="M449 360q0 -27 2 -57q1 -22 11 -36q9 -13 27 -18q20 -5 52 -5h16q3 0 25 2v-242q-36 -9 -75 -13q-48 -5 -97 -5q-149 0 -227 77q-79 78 -79 250v1121h345v-1074zM684 1208h-195l68 330h324z" />
    <glyph glyph-name="Ldot" unicode="&#x13f;" horiz-adv-x="1130" 
d="M496 307h608v-307h-971v1434h363v-1127zM891 975q41 0 75 -14t62 -39q26 -23 43 -59q16 -33 16 -72q0 -40 -16 -73q-17 -35 -43 -60q-27 -25 -62 -40q-34 -14 -75 -14t-75 14q-35 15 -62 40q-26 25 -43 60q-17 36 -17 73q0 36 17 72t43 59q28 25 62 39t75 14z" />
    <glyph glyph-name="ldot" unicode="&#x140;" horiz-adv-x="800" 
d="M449 360q0 -27 2 -57q1 -22 11 -36q9 -13 27 -18q20 -5 52 -5h16q3 0 25 2v-242q-36 -9 -75 -13q-48 -5 -97 -5q-149 0 -227 77q-79 78 -79 250v1121h345v-1074zM677 891q34 0 60 -11q30 -13 50 -31t34 -47q13 -26 13 -58t-13 -58q-14 -28 -34 -48q-19 -19 -50 -32
q-26 -11 -60 -11t-60 11q-31 13 -50 32q-20 20 -34 48q-13 26 -13 58t13 58q14 29 34 47t50 31q26 11 60 11z" />
    <glyph glyph-name="Lslash" unicode="&#x141;" horiz-adv-x="1183" 
d="M1149 307v-307h-971v504l-137 -74v248l137 74v682h363v-490l288 154v-246l-288 -154v-391h608z" />
    <glyph glyph-name="lslash" unicode="&#x142;" horiz-adv-x="647" 
d="M469 684v-324q0 -27 2 -57q1 -22 11 -36q9 -13 28 -18q20 -5 51 -5h17q2 0 24 2v-242q-36 -9 -75 -13q-48 -5 -97 -5q-148 0 -226 77q-79 78 -79 250v185l-100 -56v232l100 55v705h344v-519l156 86v-231z" />
    <glyph glyph-name="Nacute" unicode="&#x143;" horiz-adv-x="1495" 
d="M1362 0h-426l-481 897v-897h-322v1434h430l479 -914v914h320v-1434zM862 1542h-260l211 322h424z" />
    <glyph glyph-name="nacute" unicode="&#x144;" horiz-adv-x="1257" 
d="M788 1126q175 0 269 -106t94 -305v-715h-344v616q0 113 -33 167q-34 55 -119 55q-88 0 -142 -66t-54 -176v-596h-344v1096h329v-146q62 92 149 134t195 42zM768 1214h-250l205 324h410z" />
    <glyph glyph-name="Ncommaaccent" unicode="&#x145;" horiz-adv-x="1495" 
d="M1362 0h-426l-481 897v-897h-322v1434h430l479 -914v914h320v-1434zM741 -115q81 0 125 -50q43 -49 43 -118q0 -50 -16 -101q-15 -49 -44 -103q-28 -54 -65 -102q-46 -61 -79 -95l-130 59q36 59 55 105q20 47 32 117q-49 32 -66 64q-18 35 -18 75q0 61 47 105t116 44z
" />
    <glyph glyph-name="ncommaaccent" unicode="&#x146;" horiz-adv-x="1257" 
d="M788 1126q175 0 269 -106t94 -305v-715h-344v616q0 113 -33 167q-34 55 -119 55q-88 0 -142 -66t-54 -176v-596h-344v1096h329v-146q62 92 149 134t195 42zM623 -115q81 0 125 -50q43 -49 43 -118q0 -47 -17 -101q-15 -49 -44 -103q-31 -58 -64 -102q-43 -57 -80 -95
l-129 59q32 54 54 105q20 47 32 117q-49 32 -66 64q-18 35 -18 75q0 61 47 105t117 44z" />
    <glyph glyph-name="Ncaron" unicode="&#x147;" horiz-adv-x="1495" 
d="M1362 0h-426l-481 897v-897h-322v1434h430l479 -914v914h320v-1434zM924 1563h-351l-286 317h309l152 -131l153 131h309z" />
    <glyph glyph-name="ncaron" unicode="&#x148;" horiz-adv-x="1257" 
d="M788 1126q175 0 269 -106t94 -305v-715h-344v616q0 113 -33 167q-34 55 -119 55q-88 0 -142 -66t-54 -176v-596h-344v1096h329v-146q62 92 149 134t195 42zM848 1235h-350l-287 324h309l152 -146l153 146h310z" />
    <glyph glyph-name="napostrophe" unicode="&#x149;" horiz-adv-x="1886" 
d="M1417 1126q175 0 269 -106t94 -305v-715h-344v616q0 113 -33 167q-34 55 -119 55q-88 0 -142 -66q-55 -67 -55 -176v-596h-344v1096h330v-146q62 92 149 134t195 42zM298 1566q95 0 151 -59q58 -61 58 -153q0 -138 -69 -271q-68 -131 -173 -236l-170 91q42 65 69 129
q26 60 33 142q-46 32 -75 72q-27 37 -27 102q0 37 15 70q15 34 42 59q26 25 64 40q35 14 82 14z" />
    <glyph glyph-name="Eng" unicode="&#x14a;" horiz-adv-x="1495" 
d="M1362 1434v-1434q0 -389 -469 -389q-61 0 -111 3t-102 9v227q46 -2 68 -3t65 -1q54 0 110 6q43 5 66 22q26 20 33 47q8 32 8 79h-94l-481 897v-897h-322v1434h430l479 -914v914h320z" />
    <glyph glyph-name="eng" unicode="&#x14b;" horiz-adv-x="1257" 
d="M788 1126q175 0 269 -106t94 -305v-748q0 -97 -30 -164t-81 -111q-53 -45 -116 -65t-138 -20q-63 0 -98 4q-40 5 -74 12v244q22 -2 23 -2h18q40 0 70 8q28 7 47 31q20 25 27 62q8 43 8 106v544q0 113 -33 167q-34 55 -119 55q-88 0 -142 -66t-54 -176v-596h-344v1096h329
v-146q62 92 149 134t195 42z" />
    <glyph glyph-name="Omacron" unicode="&#x14c;" horiz-adv-x="1611" 
d="M807 1470q138 0 264 -39q131 -41 236 -129q103 -87 169 -234q64 -143 64 -353q0 -193 -60 -334q-61 -143 -162 -235q-102 -93 -234 -138t-277 -45q-132 0 -264 41q-131 41 -236 132q-104 90 -170 235q-65 142 -65 348q0 197 60 339t162 234q103 92 234 135q132 43 279 43
zM807 1174q-81 0 -147 -30t-114 -87t-75 -143t-27 -193q0 -217 93 -340q91 -121 270 -121q76 0 143 29q65 28 114 86q50 59 76 142q27 86 27 196q0 215 -90 338t-270 123zM1186 1593h-764v230h764v-230z" />
    <glyph glyph-name="omacron" unicode="&#x14d;" horiz-adv-x="1306" 
d="M653 1124q136 0 247 -44q109 -43 186 -122q78 -80 118 -183q41 -106 41 -228q0 -128 -41 -236q-39 -103 -118 -182q-76 -76 -186 -118t-247 -42q-143 0 -251 43t-185 120q-75 75 -116 182q-40 104 -40 233q0 128 40 232q41 107 117 183q75 75 186 119q108 43 249 43z
M651 858q-104 0 -167 -74q-62 -72 -62 -233q0 -158 60 -236q59 -77 169 -77q112 0 171 77q61 79 61 236q0 158 -64 233q-63 74 -168 74zM1034 1266h-764v229h764v-229z" />
    <glyph glyph-name="Obreve" unicode="&#x14e;" horiz-adv-x="1611" 
d="M807 1470q138 0 264 -39q131 -41 236 -129q103 -87 169 -234q64 -143 64 -353q0 -193 -60 -334q-61 -143 -162 -235q-102 -93 -234 -138t-277 -45q-132 0 -264 41q-131 41 -236 132q-104 90 -170 235q-65 142 -65 348q0 197 60 339t162 234q103 92 234 135q132 43 279 43
zM807 1174q-81 0 -147 -30t-114 -87t-75 -143t-27 -193q0 -217 93 -340q91 -121 270 -121q76 0 143 29q65 28 114 86q50 59 76 142q27 86 27 196q0 215 -90 338t-270 123zM1182 1888q-27 -158 -118 -246t-259 -88q-162 0 -256 88t-121 246h199q11 -57 56 -83q47 -28 122 -29
q151 0 178 112h199z" />
    <glyph glyph-name="obreve" unicode="&#x14f;" horiz-adv-x="1306" 
d="M653 1124q136 0 247 -44q109 -43 186 -122q78 -80 118 -183q41 -106 41 -228q0 -128 -41 -236q-39 -103 -118 -182q-76 -76 -186 -118t-247 -42q-143 0 -251 43t-185 120q-75 75 -116 182q-40 104 -40 233q0 128 40 232q41 107 117 183q75 75 186 119q108 43 249 43z
M651 858q-104 0 -167 -74q-62 -72 -62 -233q0 -158 60 -236q59 -77 169 -77q112 0 171 77q61 79 61 236q0 158 -64 233q-63 74 -168 74zM1030 1552q-27 -158 -118 -246q-92 -89 -259 -89q-161 0 -256 89q-94 88 -121 246h199q23 -114 184 -114q143 0 172 114h199z" />
    <glyph glyph-name="Ohungarumlaut" unicode="&#x150;" horiz-adv-x="1611" 
d="M807 1470q138 0 264 -39q131 -41 236 -129q103 -87 169 -234q64 -143 64 -353q0 -193 -60 -334q-61 -143 -162 -235q-102 -93 -234 -138t-277 -45q-132 0 -264 41q-131 41 -236 132q-104 90 -170 235q-65 142 -65 348q0 197 60 339t162 234q103 92 234 135q132 43 279 43
zM807 1174q-81 0 -147 -30t-114 -87t-75 -143t-27 -193q0 -217 93 -340q91 -121 270 -121q76 0 143 29q65 28 114 86q50 59 76 142q27 86 27 196q0 215 -90 338t-270 123zM686 1540h-235l190 352h356zM1110 1540h-235l208 352h355z" />
    <glyph glyph-name="ohungarumlaut" unicode="&#x151;" horiz-adv-x="1306" 
d="M653 1124q136 0 247 -44q109 -43 186 -122q78 -80 118 -183q41 -106 41 -228q0 -128 -41 -236q-39 -103 -118 -182q-76 -76 -186 -118t-247 -42q-143 0 -251 43t-185 120q-75 75 -116 182q-40 104 -40 233q0 128 40 232q41 107 117 183q75 75 186 119q108 43 249 43z
M651 858q-104 0 -167 -74q-62 -72 -62 -233q0 -158 60 -236q59 -77 169 -77q112 0 171 77q61 79 61 236q0 158 -64 233q-63 74 -168 74zM528 1214h-237l188 347h359zM952 1214h-237l207 347h356z" />
    <glyph glyph-name="OE" unicode="&#x152;" horiz-adv-x="2019" 
d="M807 1470q67 0 138 -9t132 -27h846v-293h-606v-271h563v-278h-563v-299h625v-293h-885q-126 -37 -250 -37q-132 0 -264 41q-131 41 -236 132q-104 90 -170 235q-65 142 -65 348q0 197 60 339t162 234q103 92 234 135q132 43 279 43zM807 1176q-81 0 -147 -30
q-67 -30 -114 -88q-48 -58 -75 -144t-27 -193q0 -218 93 -341q92 -122 270 -122q37 0 77 5q34 4 70 20v872q-60 21 -147 21z" />
    <glyph glyph-name="oe" unicode="&#x153;" horiz-adv-x="2050" 
d="M1462 1126q121 0 221 -41q98 -40 167 -115q68 -74 106 -183q37 -107 37 -242v-88h-752q12 -119 74 -173q63 -55 166 -55q90 0 143 36q54 37 92 91l269 -131q-84 -126 -212 -191q-127 -65 -307 -65q-141 0 -243 50q-101 50 -164 128q-68 -79 -171 -128q-105 -50 -245 -50
q-138 0 -245 43q-106 43 -182 120q-74 75 -115 182q-40 104 -40 233q0 128 40 232q42 109 116 183q76 76 185 119q108 43 247 43q140 0 243 -47q100 -46 167 -129q67 80 164 129q98 49 239 49zM1442 877q-85 0 -135 -47t-66 -146h397q-12 98 -62 145q-51 48 -134 48z
M651 858q-106 0 -168 -74q-61 -73 -61 -233q0 -159 59 -236t170 -77q109 0 170 77q62 79 62 236q0 158 -64 233q-63 74 -168 74z" />
    <glyph glyph-name="Racute" unicode="&#x154;" horiz-adv-x="1370" 
d="M700 1434q160 0 271 -34q113 -35 184 -94t106 -143q33 -79 33 -180q0 -289 -286 -401l372 -582h-428l-299 522h-157v-522h-363v1434h567zM496 1147v-352h211q95 0 155 39t60 141q0 87 -54 130q-52 42 -151 42h-221zM778 1542h-260l211 322h424z" />
    <glyph glyph-name="racute" unicode="&#x155;" horiz-adv-x="847" 
d="M737 1126q43 0 86 -6v-327q-40 2 -45 2h-22q-58 0 -116 -16q-53 -15 -94 -56q-40 -39 -64 -113q-23 -69 -23 -184v-426h-344v1096h329v-176q56 112 133 160q74 46 160 46zM561 1214h-250l205 324h410z" />
    <glyph glyph-name="Rcommaaccent" unicode="&#x156;" horiz-adv-x="1370" 
d="M700 1434q160 0 271 -34q113 -35 184 -94t106 -143q33 -79 33 -180q0 -289 -286 -401l372 -582h-428l-299 522h-157v-522h-363v1434h567zM496 1147v-352h211q95 0 155 39t60 141q0 87 -54 130q-52 42 -151 42h-221zM686 -115q81 0 125 -50q43 -49 43 -118q0 -50 -16 -101
q-15 -49 -44 -103q-28 -54 -65 -102q-43 -57 -80 -95l-129 59q32 54 54 105q20 47 32 117q-48 31 -65 64q-19 36 -19 75q0 61 47 105t117 44z" />
    <glyph glyph-name="rcommaaccent" unicode="&#x157;" horiz-adv-x="847" 
d="M737 1126q43 0 86 -6v-327q-40 2 -45 2h-22q-58 0 -116 -16q-53 -15 -94 -56q-40 -39 -64 -113q-23 -69 -23 -184v-426h-344v1096h329v-176q56 112 133 160q74 46 160 46zM281 -115q81 0 125 -50q43 -49 43 -118q0 -47 -17 -101q-15 -49 -44 -103q-31 -58 -64 -102
q-43 -57 -80 -95l-129 59q32 54 54 105q20 47 32 117q-49 32 -66 64q-18 35 -18 75q0 61 47 105t117 44z" />
    <glyph glyph-name="Rcaron" unicode="&#x158;" horiz-adv-x="1370" 
d="M700 1434q160 0 271 -34q113 -35 184 -94t106 -143q33 -79 33 -180q0 -289 -286 -401l372 -582h-428l-299 522h-157v-522h-363v1434h567zM496 1147v-352h211q95 0 155 39t60 141q0 87 -54 130q-52 42 -151 42h-221zM840 1563h-351l-286 317h309l152 -131l153 131h309z
" />
    <glyph glyph-name="rcaron" unicode="&#x159;" horiz-adv-x="847" 
d="M737 1126q43 0 86 -6v-327q-40 2 -45 2h-22q-58 0 -116 -16q-53 -15 -94 -56q-40 -39 -64 -113q-23 -69 -23 -184v-426h-344v1096h329v-176q56 112 133 160q74 46 160 46zM641 1235h-350l-287 324h309l152 -146l153 146h310z" />
    <glyph glyph-name="Sacute" unicode="&#x15a;" horiz-adv-x="1361" 
d="M692 -37q-214 0 -382 71q-166 70 -283 195l227 215q90 -87 197 -136q105 -48 249 -48q113 0 181 37q69 37 69 104q0 33 -12 59t-48 47q-39 23 -102 40q-67 18 -172 39q-133 24 -228 61q-98 37 -162 90q-64 52 -96 128t-32 175q0 102 42 181q42 80 118 135t183 85
q104 29 237 29q220 0 369 -71q151 -72 251 -182l-235 -199q-62 64 -152 112q-91 48 -227 48q-106 0 -161 -35q-54 -35 -54 -94q0 -32 12 -56t47 -44q34 -19 98 -36q55 -14 162 -32q276 -47 406 -152q129 -105 129 -303q0 -114 -46 -200t-129 -145q-81 -57 -199 -88
q-115 -30 -257 -30zM807 1542h-260l211 322h424z" />
    <glyph glyph-name="sacute" unicode="&#x15b;" horiz-adv-x="1122" 
d="M578 1124q160 0 279 -46q123 -48 198 -117l-168 -189q-70 54 -143 82q-70 27 -152 27t-117 -23t-35 -59q0 -20 10 -37q9 -15 35 -28q25 -12 77 -25q58 -14 134 -29q198 -38 290 -121q93 -84 93 -233q0 -83 -33 -146q-34 -66 -100 -112q-68 -48 -161 -73q-96 -26 -218 -26
q-189 0 -318 50q-125 49 -224 135l163 198q85 -73 171 -103q85 -30 167 -30q98 0 145 24q46 24 46 66q0 22 -7 37t-32 31q-19 12 -74 27q-51 14 -133 30q-198 38 -292 117q-95 80 -95 225q0 83 38 150q37 65 104 109q68 45 157 67q88 22 195 22zM680 1214h-250l205 324h409z
" />
    <glyph glyph-name="Scircumflex" unicode="&#x15c;" horiz-adv-x="1361" 
d="M692 -37q-214 0 -382 71q-166 70 -283 195l227 215q90 -87 197 -136q105 -48 249 -48q113 0 181 37q69 37 69 104q0 33 -12 59t-48 47q-39 23 -102 40q-67 18 -172 39q-133 24 -228 61q-98 37 -162 90q-64 52 -96 128t-32 175q0 102 42 181q42 80 118 135t183 85
q104 29 237 29q220 0 369 -71q151 -72 251 -182l-235 -199q-62 64 -152 112q-91 48 -227 48q-106 0 -161 -35q-54 -35 -54 -94q0 -32 12 -56t47 -44q34 -19 98 -36q55 -14 162 -32q276 -47 406 -152q129 -105 129 -303q0 -114 -46 -200t-129 -145q-81 -57 -199 -88
q-115 -30 -257 -30zM1155 1542h-309l-154 129l-151 -129h-310l287 318h350z" />
    <glyph glyph-name="scircumflex" unicode="&#x15d;" horiz-adv-x="1122" 
d="M578 1124q160 0 279 -46q123 -48 198 -117l-168 -189q-70 54 -143 82q-70 27 -152 27t-117 -23t-35 -59q0 -20 10 -37q9 -15 35 -28q25 -12 77 -25q58 -14 134 -29q198 -38 290 -121q93 -84 93 -233q0 -83 -33 -146q-34 -66 -100 -112q-68 -48 -161 -73q-96 -26 -218 -26
q-189 0 -318 50q-125 49 -224 135l163 198q85 -73 171 -103q85 -30 167 -30q98 0 145 24q46 24 46 66q0 22 -7 37t-32 31q-19 12 -74 27q-51 14 -133 30q-198 38 -292 117q-95 80 -95 225q0 83 38 150q37 65 104 109q68 45 157 67q88 22 195 22zM1047 1214h-310l-153 148
l-152 -148h-309l287 324h350z" />
    <glyph glyph-name="Scedilla" unicode="&#x15e;" horiz-adv-x="1361" 
d="M692 -37q-214 0 -382 71q-166 70 -283 195l227 215q90 -87 197 -136q105 -48 249 -48q113 0 181 37q69 37 69 104q0 33 -12 59t-48 47q-39 23 -102 40q-67 18 -172 39q-133 24 -228 61q-98 37 -162 90q-64 52 -96 128t-32 175q0 102 42 181q42 80 118 135t183 85
q104 29 237 29q220 0 369 -71q151 -72 251 -182l-235 -199q-62 64 -152 112q-91 48 -227 48q-106 0 -161 -35q-54 -35 -54 -94q0 -32 12 -56t47 -44q34 -19 98 -36q55 -14 162 -32q276 -47 406 -152q129 -105 129 -303q0 -114 -46 -200t-129 -145q-81 -57 -199 -88
q-115 -30 -257 -30zM782 -88q110 -10 172 -60t62 -137q0 -111 -90 -169q-89 -58 -238 -58q-87 0 -150 16q-66 17 -122 45l76 162q34 -14 79 -26q42 -11 86 -11q38 0 66 11q27 11 27 43q0 44 -52 58q-49 13 -161 13l32 219h215z" />
    <glyph glyph-name="scedilla" unicode="&#x15f;" horiz-adv-x="1122" 
d="M578 1124q160 0 279 -46q123 -48 198 -117l-168 -189q-70 54 -143 82q-70 27 -152 27t-117 -23t-35 -59q0 -20 10 -37q9 -15 35 -28q25 -12 77 -25q58 -14 134 -29q198 -38 290 -121q93 -84 93 -233q0 -83 -33 -146q-34 -66 -100 -112q-68 -48 -161 -73q-96 -26 -218 -26
q-189 0 -318 50q-125 49 -224 135l163 198q85 -73 171 -103q85 -30 167 -30q98 0 145 24q46 24 46 66q0 22 -7 37t-32 31q-19 12 -74 27q-51 14 -133 30q-198 38 -292 117q-95 80 -95 225q0 83 38 150q37 65 104 109q68 45 157 67q88 22 195 22zM639 -88q110 -10 172 -60
q61 -49 61 -137q0 -111 -90 -169q-89 -58 -237 -58q-88 0 -151 16q-66 17 -122 45l76 162q32 -14 80 -26q42 -11 86 -11q38 0 66 11q26 10 26 43q0 44 -51 58q-49 13 -162 13l33 219h215z" />
    <glyph glyph-name="Scaron" unicode="&#x160;" horiz-adv-x="1361" 
d="M692 -37q-214 0 -382 71q-166 70 -283 195l227 215q90 -87 197 -136q105 -48 249 -48q113 0 181 37q69 37 69 104q0 33 -12 59t-48 47q-39 23 -102 40q-67 18 -172 39q-133 24 -228 61q-98 37 -162 90q-64 52 -96 128t-32 175q0 102 42 181q42 80 118 135t183 85
q104 29 237 29q220 0 369 -71q151 -72 251 -182l-235 -199q-62 64 -152 112q-91 48 -227 48q-106 0 -161 -35q-54 -35 -54 -94q0 -32 12 -56t47 -44q34 -19 98 -36q55 -14 162 -32q276 -47 406 -152q129 -105 129 -303q0 -114 -46 -200t-129 -145q-81 -57 -199 -88
q-115 -30 -257 -30zM868 1563h-350l-287 317h310l151 -131l154 131h309z" />
    <glyph glyph-name="scaron" unicode="&#x161;" horiz-adv-x="1122" 
d="M578 1124q160 0 279 -46q123 -48 198 -117l-168 -189q-70 54 -143 82q-70 27 -152 27t-117 -23t-35 -59q0 -20 10 -37q9 -15 35 -28q25 -12 77 -25q58 -14 134 -29q198 -38 290 -121q93 -84 93 -233q0 -83 -33 -146q-34 -66 -100 -112q-68 -48 -161 -73q-96 -26 -218 -26
q-189 0 -318 50q-125 49 -224 135l163 198q85 -73 171 -103q85 -30 167 -30q98 0 145 24q46 24 46 66q0 22 -7 37t-32 31q-19 12 -74 27q-51 14 -133 30q-198 38 -292 117q-95 80 -95 225q0 83 38 150q37 65 104 109q68 45 157 67q88 22 195 22zM760 1235h-350l-287 324h309
l152 -146l153 146h310z" />
    <glyph glyph-name="Tcommaaccent" unicode="&#x162;" horiz-adv-x="1191" 
d="M1174 1137h-398v-1137h-362v1137h-398v297h1158v-297zM707 -88q110 -10 172 -60q61 -49 61 -137q0 -111 -90 -169q-89 -58 -238 -58q-87 0 -150 16q-66 17 -122 45l76 162q32 -14 80 -26q42 -11 86 -11q37 0 65 11q27 11 27 43q0 44 -51 58q-49 13 -162 13l33 219h215z
" />
    <glyph glyph-name="tcommaaccent" unicode="&#x163;" horiz-adv-x="819" 
d="M508 1069h256v-242h-256v-450q0 -67 26 -101q25 -32 97 -32q38 0 76 5q34 4 73 15v-258q-46 -15 -115 -26q-66 -11 -133 -11q-105 0 -175 24q-71 24 -113 69q-44 47 -62 111t-18 149v505h-148v242h148v283h344v-283zM584 -88q110 -10 172 -60q61 -49 61 -137
q0 -111 -90 -169q-89 -58 -238 -58q-87 0 -150 16q-66 17 -122 45l76 162q32 -14 80 -26q42 -11 86 -11q37 0 65 11q27 11 27 43q0 44 -51 58q-49 13 -162 13l33 219h215z" />
    <glyph glyph-name="Tcaron" unicode="&#x164;" horiz-adv-x="1191" 
d="M1174 1137h-398v-1137h-362v1137h-398v297h1158v-297zM772 1563h-350l-287 317h309l152 -131l154 131h309z" />
    <glyph glyph-name="tcaron" unicode="&#x165;" horiz-adv-x="819" 
d="M508 1069h256v-242h-256v-450q0 -67 26 -101q25 -32 97 -32q38 0 76 5q34 4 73 15v-258q-46 -15 -115 -26q-66 -11 -133 -11q-105 0 -175 24q-71 24 -113 69q-44 47 -62 111t-18 149v505h-148v242h148v283h344v-283zM760 1208h-195l68 330h323z" />
    <glyph glyph-name="Tbar" unicode="&#x166;" horiz-adv-x="1191" 
d="M989 696h-217v-696h-362v696h-209v234h209v207h-398v297h1157v-297h-397v-207h217v-234z" />
    <glyph glyph-name="tbar" unicode="&#x167;" horiz-adv-x="819" 
d="M631 244q38 0 76 5q34 4 73 15v-258q-46 -15 -115 -26q-66 -11 -133 -11q-105 0 -175 24q-71 24 -113 69q-44 47 -62 111t-18 149v200h-141v223h141v82h-148v242h148v283h344v-283h256v-242h-256v-82h237v-223h-237v-145q0 -67 26 -101q25 -32 97 -32z" />
    <glyph glyph-name="Utilde" unicode="&#x168;" horiz-adv-x="1458" 
d="M1341 543q0 -130 -36 -231q-38 -107 -113 -183q-77 -79 -192 -122q-117 -44 -273 -44q-160 0 -277 44q-116 44 -191 123q-74 79 -109 184q-35 107 -35 229v891h362v-889q0 -147 60 -216t192 -69q133 0 193 72q59 71 59 213v889h360v-891zM596 1855q59 0 101 -15
q43 -15 74 -33q7 -4 19 -10.5t21 -12t16 -9.5q26 -16 47 -16q28 0 50 16q21 15 39 52h180q-17 -136 -94 -212q-79 -77 -187 -77q-59 0 -101 15q-43 15 -74 33q-37 21 -56 33q-24 15 -47 15q-31 0 -52 -15q-20 -14 -38 -54h-179q21 137 95 214q73 76 186 76z" />
    <glyph glyph-name="utilde" unicode="&#x169;" horiz-adv-x="1245" 
d="M1128 0h-329v133q-125 -164 -332 -164q-75 0 -142 23t-116 69t-77 120q-28 75 -28 173v742h345v-660q0 -98 35 -134q36 -38 108 -38q87 0 140 62q52 61 52 161v609h344v-1096zM485 1528q57 0 102 -16t73 -32q49 -28 57 -33q24 -15 47 -15q28 0 49 15t39 52h180
q-17 -136 -94 -212q-79 -77 -186 -77q-57 0 -102 16t-73 32q-49 28 -57 33q-26 16 -47 16q-29 0 -51 -16q-21 -15 -39 -54h-178q21 138 94 214q74 77 186 77z" />
    <glyph glyph-name="Umacron" unicode="&#x16a;" horiz-adv-x="1458" 
d="M1341 543q0 -130 -36 -231q-38 -107 -113 -183q-77 -79 -192 -122q-117 -44 -273 -44q-160 0 -277 44q-116 44 -191 123q-74 79 -109 184q-35 107 -35 229v891h362v-889q0 -147 60 -216t192 -69q133 0 193 72q59 71 59 213v889h360v-891zM1110 1593h-764v230h764v-230z
" />
    <glyph glyph-name="umacron" unicode="&#x16b;" horiz-adv-x="1245" 
d="M1128 0h-329v133q-125 -164 -332 -164q-75 0 -142 23t-116 69t-77 120q-28 75 -28 173v742h345v-660q0 -98 35 -134q36 -38 108 -38q87 0 140 62q52 61 52 161v609h344v-1096zM999 1266h-763v229h763v-229z" />
    <glyph glyph-name="Ubreve" unicode="&#x16c;" horiz-adv-x="1458" 
d="M1341 543q0 -130 -36 -231q-38 -107 -113 -183q-77 -79 -192 -122q-117 -44 -273 -44q-160 0 -277 44q-116 44 -191 123q-74 79 -109 184q-35 107 -35 229v891h362v-889q0 -147 60 -216t192 -69q133 0 193 72q59 71 59 213v889h360v-891zM1106 1888q-27 -158 -118 -246
t-259 -88q-162 0 -256 88t-121 246h199q11 -57 56 -83q47 -28 122 -29q151 0 178 112h199z" />
    <glyph glyph-name="ubreve" unicode="&#x16d;" horiz-adv-x="1245" 
d="M1128 0h-329v133q-125 -164 -332 -164q-75 0 -142 23t-116 69t-77 120q-28 75 -28 173v742h345v-660q0 -98 35 -134q36 -38 108 -38q87 0 140 62q52 61 52 161v609h344v-1096zM995 1552q-27 -159 -117 -246q-92 -89 -259 -89q-162 0 -257 89q-93 87 -120 246h198
q22 -114 185 -114q143 0 172 114h198z" />
    <glyph glyph-name="Uring" unicode="&#x16e;" horiz-adv-x="1458" 
d="M1341 543q0 -130 -36 -231q-38 -107 -113 -183q-77 -79 -192 -122q-117 -44 -273 -44q-160 0 -277 44q-116 44 -191 123q-74 79 -109 184q-35 107 -35 229v891h362v-889q0 -147 60 -216t192 -69q133 0 193 72q59 71 59 213v889h360v-891zM729 2073q59 0 113 -20
q56 -21 94 -56q40 -37 64 -89q24 -53 24 -116q0 -64 -24 -115q-25 -53 -63 -88q-39 -36 -94 -56t-114 -20q-61 0 -115 20q-56 21 -94 56q-40 37 -64 88t-24 115t24 116t64 89q38 36 95 56q55 20 114 20zM727 1890q-37 0 -62 -25q-26 -26 -26 -73q0 -48 26 -72t62 -24
q37 0 63 24q25 24 25 72t-25 73t-63 25z" />
    <glyph glyph-name="uring" unicode="&#x16f;" horiz-adv-x="1245" 
d="M1128 0h-329v133q-125 -164 -332 -164q-75 0 -142 23t-116 69t-77 120q-28 75 -28 173v742h345v-660q0 -98 35 -134q36 -38 108 -38q87 0 140 62q52 61 52 161v609h344v-1096zM618 1757q62 0 113 -19q54 -20 94 -57q42 -39 65 -88t23 -114q0 -66 -23 -115
q-24 -51 -64 -88q-39 -36 -94 -56t-114 -20q-60 0 -114 20q-56 21 -94 56q-42 39 -65 88t-23 115q0 65 23 114t65 88q40 37 95 57q53 19 113 19zM616 1575q-35 0 -62 -25q-26 -24 -26 -71q0 -48 26 -72q27 -25 62 -25q36 0 63 25q26 24 26 72q0 47 -26 71q-27 25 -63 25z
" />
    <glyph glyph-name="Uhungarumlaut" unicode="&#x170;" horiz-adv-x="1458" 
d="M1341 543q0 -130 -36 -231q-38 -107 -113 -183q-77 -79 -192 -122q-117 -44 -273 -44q-160 0 -277 44q-116 44 -191 123q-74 79 -109 184q-35 107 -35 229v891h362v-889q0 -147 60 -216t192 -69q133 0 193 72q59 71 59 213v889h360v-891zM610 1540h-235l190 352h357z
M1034 1540h-235l209 352h354z" />
    <glyph glyph-name="uhungarumlaut" unicode="&#x171;" horiz-adv-x="1245" 
d="M1128 0h-329v133q-125 -164 -332 -164q-75 0 -142 23t-116 69t-77 120q-28 75 -28 173v742h345v-660q0 -98 35 -134q36 -38 108 -38q87 0 140 62q52 61 52 161v609h344v-1096zM494 1214h-238l188 347h359zM918 1214h-238l207 347h356z" />
    <glyph glyph-name="Uogonek" unicode="&#x172;" horiz-adv-x="1458" 
d="M1341 543q0 -130 -36 -231q-38 -107 -113 -183q-77 -79 -192 -122q-117 -44 -273 -44q-160 0 -277 44q-116 44 -191 123q-74 79 -109 184q-35 107 -35 229v891h362v-889q0 -147 60 -216t192 -69q133 0 193 72q59 71 59 213v889h360v-891zM981 0q-102 -68 -135 -123
t-33 -106q0 -41 26 -65q24 -23 85 -23q37 0 66 7q45 11 63 17l57 -168q-104 -49 -240 -49q-145 0 -230 61t-85 179q0 104 92 188q90 83 285 127z" />
    <glyph glyph-name="uogonek" unicode="&#x173;" horiz-adv-x="1245" 
d="M1128 0h-329v133q-125 -164 -332 -164q-75 0 -142 23t-116 69t-77 120q-28 75 -28 173v742h345v-660q0 -98 35 -134q36 -38 108 -38q87 0 140 62q52 61 52 161v609h344v-1096zM979 0q-102 -68 -135 -123t-33 -106q0 -41 26 -65q24 -23 85 -23q37 0 66 7q45 11 63 17
l57 -168q-104 -49 -240 -49q-145 0 -230 61t-85 179q0 104 92 188q90 83 285 127z" />
    <glyph glyph-name="Wcircumflex" unicode="&#x174;" horiz-adv-x="1789" 
d="M1499 0h-409l-183 1044l-168 -1044h-420l-321 1434h385l160 -1086l178 1086h375l190 -1074l133 1074h369zM1372 1542h-309l-154 129l-151 -129h-309l286 318h350z" />
    <glyph glyph-name="wcircumflex" unicode="&#x175;" horiz-adv-x="1646" 
d="M1368 0h-397l-146 791l-159 -791h-396l-272 1096h369l116 -783l148 783h381l157 -783l121 783h355zM1288 1214h-309l-154 148l-151 -148h-309l286 324h350z" />
    <glyph glyph-name="Ycircumflex" unicode="&#x176;" horiz-adv-x="1275" 
d="M811 563v-563h-360v559l-490 875h410l264 -588l268 588h397zM1100 1542h-309l-154 129l-152 -129h-309l287 318h350z" />
    <glyph glyph-name="ycircumflex" unicode="&#x177;" horiz-adv-x="1101" 
d="M784 -23q-23 -82 -57 -152q-33 -70 -85 -117q-52 -48 -129 -75q-74 -26 -187 -26q-99 0 -166 16v232q48 -5 63 -5h41q49 0 91 7q37 6 60 22q24 17 36 45q13 30 20 76h-135l-354 1096h389l188 -860l174 860h379zM1018 1214h-309l-154 148l-152 -148h-309l287 324h350z" />
    <glyph glyph-name="Ydieresis" unicode="&#x178;" horiz-adv-x="1275" 
d="M811 563v-563h-360v559l-490 875h410l264 -588l268 588h397zM385 1903q37 0 70 -15t57 -39q26 -26 40 -57q15 -33 15 -70q0 -36 -15 -69t-40 -58q-24 -24 -57 -39q-31 -14 -70 -14t-71 14q-34 15 -58 39q-25 25 -40 58t-15 69q0 37 15 70q14 31 40 57q24 24 58 39t71 15z
M891 1903q37 0 71 -15t58 -39q26 -26 40 -57q15 -33 15 -70q0 -36 -15 -69t-40 -58q-24 -24 -58 -39q-32 -14 -71 -14t-70 14q-32 15 -58 39q-24 22 -40 58q-14 31 -14 69q0 39 14 70q15 34 40 57q26 24 58 39q33 15 70 15z" />
    <glyph glyph-name="Zacute" unicode="&#x179;" horiz-adv-x="1251" 
d="M1165 1155l-682 -864h709v-291h-1161v274l690 877h-647v283h1091v-279zM727 1542h-260l211 322h424z" />
    <glyph glyph-name="zacute" unicode="&#x17a;" horiz-adv-x="1005" 
d="M934 836l-494 -560h514v-276h-934v256l500 567h-452v273h866v-260zM586 1214h-250l205 324h409z" />
    <glyph glyph-name="Zdotaccent" unicode="&#x17b;" horiz-adv-x="1251" 
d="M1165 1155l-682 -864h709v-291h-1161v274l690 877h-647v283h1091v-279zM612 1892q41 0 75 -14q36 -15 63 -39t43 -58q16 -33 16 -73t-16 -73q-16 -34 -43 -59q-26 -25 -63 -40q-34 -14 -75 -14q-40 0 -74 14q-37 15 -63 40q-27 25 -43 59q-16 33 -16 73t16 73
q16 34 43 58t63 39q34 14 74 14z" />
    <glyph glyph-name="zdotaccent" unicode="&#x17c;" horiz-adv-x="1005" 
d="M934 836l-494 -560h514v-276h-934v256l500 567h-452v273h866v-260zM489 1565q39 0 75 -15t63 -39t43 -58q16 -33 16 -73q0 -39 -16 -72q-17 -35 -43 -60t-63 -40q-34 -14 -75 -14q-40 0 -74 14q-37 15 -63 40t-43 60q-16 33 -16 72q0 40 16 73q16 34 43 58t63 39t74 15z
" />
    <glyph glyph-name="Zcaron" unicode="&#x17d;" horiz-adv-x="1251" 
d="M1165 1155l-682 -864h709v-291h-1161v274l690 877h-647v283h1091v-279zM788 1563h-350l-286 317h309l151 -131l154 131h309z" />
    <glyph glyph-name="zcaron" unicode="&#x17e;" horiz-adv-x="1005" 
d="M934 836l-494 -560h514v-276h-934v256l500 567h-452v273h866v-260zM666 1235h-351l-286 324h309l151 -146l154 146h309z" />
    <glyph glyph-name="longs" unicode="&#x17f;" horiz-adv-x="755" 
d="M545 1464q53 0 111 -8q54 -8 120 -24v-240q-43 11 -84 16q-33 4 -71 4q-59 0 -86 -18t-27 -72v-1122h-344v827h-148v242h148v86q0 137 90 223q91 86 291 86z" />
    <glyph glyph-name="uni018F" unicode="&#x18f;" horiz-adv-x="1533" 
d="M762 1470q136 0 265 -44q127 -43 224 -136q97 -92 155 -234q58 -141 58 -337q0 -197 -57 -339t-154 -236t-221 -137q-126 -44 -258 -44q-147 0 -276 48q-130 48 -224 147t-148 248q-54 150 -54 354v59h1024q-33 367 -330 367q-220 0 -328 -209l-340 102q52 110 123 184
q68 71 158 120q84 45 182 67q91 20 201 20zM758 244q137 0 218 75q82 76 111 236h-653q7 -151 101 -232q91 -79 223 -79z" />
    <glyph glyph-name="florin" unicode="&#x192;" horiz-adv-x="698" 
d="M479 1468q79 0 145 -13q68 -13 124 -30v-239q-42 11 -94 21q-55 10 -97 10q-60 0 -88 -19q-27 -18 -27 -70v-55h260v-242h-260v-829q0 -105 -29 -175q-30 -73 -81 -119q-48 -44 -117 -66q-66 -21 -137 -21q-59 0 -98 3q-37 3 -74 14v243q22 -2 24 -2h15q38 0 70 8
q29 7 48 31q20 25 27 63q8 43 8 103v747h-147v242h147v101q0 136 90 216q88 78 291 78z" />
    <glyph glyph-name="uni01CD" unicode="&#x1cd;" horiz-adv-x="1347" 
d="M918 209h-506l-58 -209h-366l458 1434h451l461 -1434h-383zM666 1165l-177 -673h353zM850 1563h-350l-287 317h309l152 -131l153 131h310z" />
    <glyph glyph-name="uni01CE" unicode="&#x1ce;" horiz-adv-x="1177" 
d="M596 1126q257 0 367 -91t110 -255v-536q0 -70 6 -127q6 -54 31 -117h-336q-27 45 -39 109q-58 -75 -137 -105q-82 -31 -178 -31q-84 0 -154 25q-64 23 -113 70q-47 46 -71 105q-25 62 -25 134q0 77 25 143q23 62 80 109q58 48 144 79q88 32 216 48l207 25v47
q0 74 -28 105q-27 30 -111 30q-78 0 -112 -30q-33 -29 -38 -97h-340q6 179 136 270q129 90 360 90zM602 487q-108 -17 -150 -50q-44 -35 -44 -93q0 -53 31 -83t93 -30q82 0 141 51q56 49 56 128v94zM782 1235h-350l-287 324h310l151 -146l154 146h309z" />
    <glyph glyph-name="uni01CF" unicode="&#x1cf;" horiz-adv-x="843" 
d="M774 1153h-174v-872h174v-281h-711v281h175v872h-175v281h711v-281zM594 1563h-350l-287 317h309l152 -131l153 131h310z" />
    <glyph glyph-name="uni01D0" unicode="&#x1d0;" horiz-adv-x="575" 
d="M459 0h-344v1096h344v-1096zM463 1235h-350l-287 324h309l152 -146l153 146h310z" />
    <glyph glyph-name="uni01D1" unicode="&#x1d1;" horiz-adv-x="1611" 
d="M807 1470q138 0 264 -39q131 -41 236 -129q103 -87 169 -234q64 -143 64 -353q0 -193 -60 -334q-61 -143 -162 -235q-102 -93 -234 -138t-277 -45q-132 0 -264 41q-131 41 -236 132q-104 90 -170 235q-65 142 -65 348q0 197 60 339t162 234q103 92 234 135q132 43 279 43
zM807 1174q-81 0 -147 -30t-114 -87t-75 -143t-27 -193q0 -217 93 -340q91 -121 270 -121q76 0 143 29q65 28 114 86q50 59 76 142q27 86 27 196q0 215 -90 338t-270 123zM981 1563h-350l-287 317h309l152 -131l153 131h310z" />
    <glyph glyph-name="uni01D2" unicode="&#x1d2;" horiz-adv-x="1306" 
d="M653 1124q136 0 247 -44q109 -43 186 -122q78 -80 118 -183q41 -106 41 -228q0 -128 -41 -236q-39 -103 -118 -182q-76 -76 -186 -118t-247 -42q-143 0 -251 43t-185 120q-75 75 -116 182q-40 104 -40 233q0 128 40 232q41 107 117 183q75 75 186 119q108 43 249 43z
M651 858q-104 0 -167 -74q-62 -72 -62 -233q0 -158 60 -236q59 -77 169 -77q112 0 171 77q61 79 61 236q0 158 -64 233q-63 74 -168 74zM829 1235h-350l-286 324h309l151 -146l154 146h309z" />
    <glyph glyph-name="uni01D3" unicode="&#x1d3;" horiz-adv-x="1458" 
d="M1341 543q0 -130 -36 -231q-38 -107 -113 -183q-77 -79 -192 -122q-117 -44 -273 -44q-160 0 -277 44q-116 44 -191 123q-74 79 -109 184q-35 107 -35 229v891h362v-889q0 -147 60 -216t192 -69q133 0 193 72q59 71 59 213v889h360v-891zM905 1563h-350l-287 317h310
l151 -131l154 131h309z" />
    <glyph glyph-name="uni01D4" unicode="&#x1d4;" horiz-adv-x="1245" 
d="M1128 0h-329v133q-125 -164 -332 -164q-75 0 -142 23t-116 69t-77 120q-28 75 -28 173v742h345v-660q0 -98 35 -134q36 -38 108 -38q87 0 140 62q52 61 52 161v609h344v-1096zM795 1235h-351l-286 324h309l151 -146l154 146h309z" />
    <glyph glyph-name="Aringacute" unicode="&#x1fa;" horiz-adv-x="1347" 
d="M918 209h-506l-58 -209h-366l458 1434h451l461 -1434h-383zM666 1165l-177 -673h353zM674 2073q58 0 112 -20q58 -21 95 -56q40 -37 64 -89q24 -53 24 -116q0 -64 -24 -115q-25 -53 -63 -88q-38 -36 -95 -56q-55 -20 -113 -20q-61 0 -115 20q-56 21 -94 56q-42 39 -65 88
t-23 115t23 116t65 89q38 36 95 56q55 20 114 20zM672 1890q-38 0 -63 -25t-25 -73t25 -72t63 -24q37 0 62 24q26 24 26 72q0 47 -26 73q-25 25 -62 25zM788 2130h-260l211 321h424z" />
    <glyph glyph-name="aringacute" unicode="&#x1fb;" horiz-adv-x="1177" 
d="M596 1126q257 0 367 -91t110 -255v-536q0 -70 6 -127q6 -54 31 -117h-336q-27 45 -39 109q-58 -75 -137 -105q-82 -31 -178 -31q-84 0 -154 25q-64 23 -113 70q-47 46 -71 105q-25 62 -25 134q0 77 25 143q23 62 80 109q58 48 144 79q88 32 216 48l207 25v47
q0 74 -28 105q-27 30 -111 30q-78 0 -112 -30q-33 -29 -38 -97h-340q6 179 136 270q129 90 360 90zM602 487q-108 -17 -150 -50q-44 -35 -44 -93q0 -53 31 -83t93 -30q82 0 141 51q56 49 56 128v94zM606 1757q62 0 113 -19q54 -20 94 -57q42 -39 65 -88t23 -114
q0 -66 -23 -115q-24 -51 -64 -88q-39 -36 -94 -56t-114 -20q-60 0 -114 20q-58 21 -95 56q-40 37 -64 88t-24 115q0 63 24 114t64 88t96 57q53 19 113 19zM604 1575q-35 0 -62 -25q-26 -24 -26 -71q0 -48 26 -72q27 -25 62 -25q36 0 63 25q25 24 25 72q0 47 -25 71
q-27 25 -63 25zM702 1827h-249l204 323h410z" />
    <glyph glyph-name="AEacute" unicode="&#x1fc;" horiz-adv-x="1931" 
d="M1790 1141h-645l41 -269h565v-282h-522l45 -297h618v-293h-940l-28 207h-492l-82 -207h-383l621 1434h1202v-293zM537 487h352l-90 670zM1243 1542h-260l211 322h424z" />
    <glyph glyph-name="aeacute" unicode="&#x1fd;" horiz-adv-x="1857" 
d="M1251 1124q126 0 229 -41q101 -40 173 -118q71 -77 109 -190q38 -112 38 -251v-61h-747q7 -121 71 -175q64 -55 164 -55q86 0 142 35t90 94l272 -129q-83 -126 -211 -194q-131 -70 -311 -70q-274 0 -414 193q-61 -82 -159 -136q-95 -53 -251 -53q-188 0 -289 93
q-100 92 -100 237q0 77 25 146q23 64 80 113q57 50 144 79q88 30 216 45l232 25q3 15 9 43q2 9 11 43q-11 53 -55 74q-47 22 -123 22q-84 0 -118 -30q-33 -29 -38 -97h-340q6 180 128 270t352 90q72 0 131 -8q55 -7 94 -24q38 -16 67 -39t54 -54q52 53 133 88q82 35 192 35z
M1253 885q-78 0 -136 -50q-56 -49 -64 -165h403q-8 116 -60 165q-53 50 -143 50zM588 485q-93 -12 -137 -45q-43 -33 -43 -98q0 -111 127 -111q39 0 80 13q42 13 67 32q26 20 48 46q19 24 24 47q-9 60 -10 78q-1 20 -1 59zM1024 1214h-250l205 324h410z" />
    <glyph glyph-name="Oslashacute" unicode="&#x1fe;" horiz-adv-x="1611" 
d="M1327 1278q96 -92 155 -229q58 -135 58 -334q0 -193 -60 -334q-61 -143 -162 -235q-102 -93 -234 -138t-277 -45q-72 0 -144 12q-75 13 -143 39l-121 -198h-288l204 317q-110 91 -177 237q-66 144 -66 349q0 197 60 339t162 234q103 92 234 135q132 43 279 43
q85 0 161 -14q82 -15 156 -47l90 145h287zM807 1174q-81 0 -147 -30t-114 -87t-75 -143t-27 -193q0 -211 72 -322l469 738q-73 37 -178 37zM807 260q76 0 143 29q65 28 114 86q50 59 76 142q27 86 27 196q0 178 -53 286l-452 -716q64 -23 145 -23zM920 1542h-261l211 322
h424z" />
    <glyph glyph-name="oslashacute" unicode="&#x1ff;" horiz-adv-x="1306" 
d="M1059 973q86 -77 137 -190q49 -108 49 -236t-41 -236q-39 -103 -118 -182q-76 -76 -186 -118t-247 -42q-109 0 -207 31l-94 -164h-262l162 266q-92 78 -141 192q-50 115 -50 253q0 128 40 232q41 107 117 183q75 75 186 119q108 43 249 43q115 0 213 -37l97 160h254z
M651 858q-104 0 -169 -74q-64 -73 -64 -233q0 -121 35 -199l290 492q-35 14 -92 14zM571 248q39 -10 82 -10q111 0 172 77q62 79 62 236q0 112 -27 178zM750 1214h-250l205 324h409z" />
    <glyph glyph-name="Scommaaccent" unicode="&#x218;" horiz-adv-x="1361" 
d="M692 -37q-214 0 -382 71q-166 70 -283 195l227 215q90 -87 197 -136q105 -48 249 -48q113 0 181 37q69 37 69 104q0 33 -12 59t-48 47q-39 23 -102 40q-67 18 -172 39q-133 24 -228 61q-98 37 -162 90q-64 52 -96 128t-32 175q0 102 42 181q42 80 118 135t183 85
q104 29 237 29q220 0 369 -71q151 -72 251 -182l-235 -199q-62 64 -152 112q-91 48 -227 48q-106 0 -161 -35q-54 -35 -54 -94q0 -32 12 -56t47 -44q34 -19 98 -36q55 -14 162 -32q276 -47 406 -152q129 -105 129 -303q0 -114 -46 -200t-129 -145q-81 -57 -199 -88
q-115 -30 -257 -30zM690 -115q81 0 125 -50q43 -49 43 -118q0 -50 -16 -101q-15 -49 -44 -103q-28 -54 -65 -102q-43 -57 -80 -95l-129 59q36 59 55 105q18 43 31 117q-48 31 -65 64q-19 36 -19 75q0 61 47 105t117 44z" />
    <glyph glyph-name="scommaaccent" unicode="&#x219;" horiz-adv-x="1122" 
d="M578 1124q160 0 279 -46q123 -48 198 -117l-168 -189q-70 54 -143 82q-70 27 -152 27t-117 -23t-35 -59q0 -20 10 -37q9 -15 35 -28q25 -12 77 -25q58 -14 134 -29q198 -38 290 -121q93 -84 93 -233q0 -83 -33 -146q-34 -66 -100 -112q-68 -48 -161 -73q-96 -26 -218 -26
q-189 0 -318 50q-125 49 -224 135l163 198q85 -73 171 -103q85 -30 167 -30q98 0 145 24q46 24 46 66q0 22 -7 37t-32 31q-19 12 -74 27q-51 14 -133 30q-198 38 -292 117q-95 80 -95 225q0 83 38 150q37 65 104 109q68 45 157 67q88 22 195 22zM547 -115q81 0 125 -50
q43 -49 43 -118q0 -47 -17 -101q-15 -49 -44 -103q-31 -58 -64 -102q-43 -57 -80 -95l-129 59q32 54 54 105q20 47 32 117q-49 32 -66 64q-18 35 -18 75q0 61 47 105t117 44z" />
    <glyph glyph-name="uni021A" unicode="&#x21a;" horiz-adv-x="1191" 
d="M1174 1137h-398v-1137h-362v1137h-398v297h1158v-297zM614 -115q81 0 125 -50q43 -49 43 -118q0 -50 -16 -101q-15 -49 -44 -103q-28 -54 -65 -102q-46 -61 -79 -95l-129 59q32 54 54 105q20 47 32 117q-49 32 -66 64q-18 35 -18 75q0 61 47 105t116 44z" />
    <glyph glyph-name="uni021B" unicode="&#x21b;" horiz-adv-x="819" 
d="M508 1069h256v-242h-256v-450q0 -67 26 -101q25 -32 97 -32q38 0 76 5q34 4 73 15v-258q-46 -15 -115 -26q-66 -11 -133 -11q-105 0 -175 24q-71 24 -113 69q-44 47 -62 111t-18 149v505h-148v242h148v283h344v-283zM492 -115q80 0 124 -50q43 -49 43 -118
q0 -50 -16 -101q-15 -49 -44 -103q-31 -58 -64 -102q-43 -57 -80 -95l-129 59q32 54 54 105q20 47 32 117q-49 32 -66 64q-18 35 -18 75q0 61 47 105t117 44z" />
    <glyph glyph-name="uni0237" unicode="&#x237;" horiz-adv-x="575" 
d="M459 -12q0 -103 -30 -175q-30 -73 -81 -119q-50 -46 -117 -67q-63 -20 -137 -20q-63 0 -98 4q-40 5 -74 12v244q22 -2 25 -2h14q39 0 71 8q29 7 48 31t26 62q9 49 9 106v1024h344v-1108z" />
    <glyph glyph-name="uni0259" unicode="&#x259;" horiz-adv-x="1224" 
d="M631 -29q-129 0 -232 41q-101 40 -174 119q-71 77 -109 190q-38 112 -38 250v62h751q-7 121 -72 175t-169 54q-85 0 -140 -35q-57 -36 -90 -94l-272 129q84 127 211 195q129 69 313 69q137 0 242 -43q108 -44 180 -119q73 -76 113 -183q39 -105 39 -232q0 -129 -37 -233
q-38 -106 -108 -182q-71 -76 -174 -120q-102 -43 -234 -43zM631 211q78 0 136 50q57 50 65 165h-404q8 -116 60 -165q53 -50 143 -50z" />
    <glyph glyph-name="uni02BB" unicode="&#x2bb;" horiz-adv-x="630" 
d="M324 912q-95 0 -151 59q-57 60 -57 153q0 140 68 271q66 128 174 236l169 -91q-39 -60 -68 -129q-26 -60 -33 -142q47 -33 75 -71q26 -36 26 -103q0 -39 -14 -70q-15 -32 -42 -58q-26 -24 -65 -40q-38 -15 -82 -15z" />
    <glyph glyph-name="afii57929" unicode="&#x2bc;" horiz-adv-x="628" 
d="M306 1566q95 0 151 -59q58 -61 58 -153q0 -140 -68 -271q-66 -128 -174 -236l-169 91q39 60 68 129q26 60 33 142q-46 32 -75 72q-26 36 -26 102q0 39 14 70q15 34 42 59q26 25 64 40q35 14 82 14z" />
    <glyph glyph-name="circumflex" unicode="&#x2c6;" horiz-adv-x="1046" 
d="M985 1214h-309l-154 148l-151 -148h-310l287 324h350z" />
    <glyph glyph-name="caron" unicode="&#x2c7;" horiz-adv-x="1046" 
d="M698 1235h-350l-287 324h310l151 -146l154 146h309z" />
    <glyph glyph-name="breve" unicode="&#x2d8;" horiz-adv-x="876" 
d="M815 1552q-27 -158 -118 -246q-92 -89 -259 -89q-161 0 -256 89q-94 88 -121 246h199q22 -114 184 -114q144 0 172 114h199z" />
    <glyph glyph-name="dotaccent" unicode="&#x2d9;" horiz-adv-x="516" 
d="M264 1565q39 0 75 -15q34 -14 62 -39q27 -24 43 -58q17 -36 17 -73q0 -36 -17 -72q-17 -35 -43 -60q-27 -25 -62 -40q-34 -14 -75 -14t-75 14q-35 15 -62 40q-26 25 -43 60q-16 33 -16 72q0 40 16 73q16 34 43 58q28 25 62 39q36 15 75 15z" />
    <glyph glyph-name="ring" unicode="&#x2da;" horiz-adv-x="714" 
d="M358 1757q62 0 113 -19q54 -20 94 -57q42 -39 65 -88t23 -114q0 -66 -23 -115q-24 -51 -64 -88q-39 -36 -94 -56t-114 -20q-60 0 -114 20q-56 21 -94 56q-42 39 -65 88q-24 51 -24 115q0 63 24 114q23 49 65 88q40 37 95 57q53 19 113 19zM356 1575q-35 0 -62 -25
q-26 -24 -26 -71q0 -48 26 -72q27 -25 62 -25q36 0 63 25q25 24 25 72q0 47 -25 71q-27 25 -63 25z" />
    <glyph glyph-name="ogonek" unicode="&#x2db;" horiz-adv-x="673" 
d="M485 0q-102 -68 -135 -123q-33 -56 -33 -106q0 -41 26 -65q24 -23 85 -23q38 0 67 7q42 10 62 17l57 -168q-104 -49 -239 -49q-146 0 -231 61t-85 179q0 103 93 188q91 83 284 127z" />
    <glyph glyph-name="tilde" unicode="&#x2dc;" horiz-adv-x="950" 
d="M342 1528q56 0 101 -16q48 -17 74 -32q37 -21 56 -33q24 -15 48 -15q28 0 49 15t39 52h180q-17 -136 -94 -212q-79 -77 -187 -77q-56 0 -101 16q-48 17 -74 32q-37 21 -56 33q-26 16 -47 16q-29 0 -51 -16q-21 -15 -39 -54h-179q21 137 95 214t186 77z" />
    <glyph glyph-name="hungarumlaut" unicode="&#x2dd;" horiz-adv-x="1110" 
d="M299 1214h-238l189 347h358zM723 1214h-238l207 347h357z" />
    <glyph glyph-name="gravecomb" unicode="&#x300;" horiz-adv-x="2" 
d="M-80 1214h-250l-364 324h409z" />
    <glyph glyph-name="acutecomb" unicode="&#x301;" horiz-adv-x="2" 
d="M-418 1214h-250l205 324h410z" />
    <glyph glyph-name="uni0302" unicode="&#x302;" horiz-adv-x="2" 
d="M-61 1214h-310l-153 148l-152 -148h-309l287 324h350z" />
    <glyph glyph-name="tildecomb" unicode="&#x303;" horiz-adv-x="2" 
d="M-608 1528q56 0 101 -16q48 -17 74 -32q37 -21 56 -33q24 -15 47 -15q28 0 49 15t39 52h181q-17 -135 -95 -212q-79 -77 -186 -77q-56 0 -101 16q-48 17 -74 32q-37 21 -56 33q-26 16 -48 16q-29 0 -51 -16q-21 -15 -39 -54h-178q21 138 94 214q74 77 187 77z" />
    <glyph glyph-name="uni0304" unicode="&#x304;" horiz-adv-x="2" 
d="M-61 1266h-764v229h764v-229z" />
    <glyph glyph-name="uni0306" unicode="&#x306;" horiz-adv-x="2" 
d="M-61 1552q-27 -158 -118 -246q-92 -89 -259 -89q-161 0 -256 89q-94 88 -121 246h199q22 -114 184 -114q144 0 172 114h199z" />
    <glyph glyph-name="uni0307" unicode="&#x307;" horiz-adv-x="2" 
d="M-252 1565q39 0 75 -15q34 -14 62 -39q27 -24 43 -58q17 -36 17 -73q0 -36 -17 -72q-17 -35 -43 -60q-27 -25 -62 -40q-34 -14 -75 -14t-75 14q-35 15 -62 40q-26 25 -43 60q-17 36 -17 72q0 37 17 73q16 34 43 58q28 25 62 39q36 15 75 15z" />
    <glyph glyph-name="uni0308" unicode="&#x308;" horiz-adv-x="2" 
d="M-760 1575q39 0 70 -14q33 -15 57 -39q25 -25 40 -58t15 -69q0 -37 -15 -70q-14 -31 -40 -57q-24 -24 -57 -39t-70 -15q-36 0 -70 15q-35 15 -59 39q-26 26 -40 57q-15 33 -15 70q0 36 15 69t40 58q24 24 59 39q32 14 70 14zM-254 1575q39 0 71 -14q34 -15 58 -39
q25 -25 40 -58t15 -69q0 -37 -15 -70q-14 -31 -40 -57q-24 -24 -58 -39t-71 -15t-70 15q-32 15 -58 39q-25 23 -40 57q-14 31 -14 70q0 38 14 69q16 36 40 58q26 24 58 39q31 14 70 14z" />
    <glyph glyph-name="uni030A" unicode="&#x30a;" horiz-adv-x="2" 
d="M-356 1757q61 0 112 -19q54 -20 94 -57q42 -39 65 -88q24 -51 24 -114q0 -64 -24 -115q-25 -53 -63 -88q-38 -36 -95 -56q-55 -20 -113 -20q-61 0 -115 20q-56 21 -94 56q-42 39 -65 88t-23 115q0 65 23 114t65 88q40 37 95 57q53 19 114 19zM-358 1575q-36 0 -63 -25
q-25 -24 -25 -71q0 -48 25 -72q27 -25 63 -25q35 0 62 25q26 24 26 72q0 47 -26 71q-27 25 -62 25z" />
    <glyph glyph-name="uni030B" unicode="&#x30b;" horiz-adv-x="2" 
d="M-811 1214h-238l189 347h358zM-387 1214h-238l207 347h357z" />
    <glyph glyph-name="uni030C" unicode="&#x30c;" horiz-adv-x="2" 
d="M-348 1235h-350l-287 324h309l152 -146l153 146h310z" />
    <glyph glyph-name="uni0326" unicode="&#x326;" horiz-adv-x="2" 
d="M-229 -115q81 0 125 -50q43 -49 43 -118q0 -47 -17 -101q-15 -49 -44 -103q-31 -58 -64 -102q-43 -57 -80 -95l-129 59q32 54 54 105q20 47 32 117q-49 32 -66 64q-18 35 -18 75q0 61 47 105t117 44z" />
    <glyph glyph-name="uni0327" unicode="&#x327;" horiz-adv-x="2" 
d="M-293 -88q110 -10 172 -60t62 -137q0 -110 -91 -169q-89 -58 -237 -58q-88 0 -151 16t-121 45l75 162q32 -14 80 -26q42 -11 86 -11q38 0 66 11q26 10 26 43q0 44 -51 58q-49 13 -162 13l33 219h215z" />
    <glyph glyph-name="uni0328" unicode="&#x328;" horiz-adv-x="2" 
d="M-188 0q-104 -69 -136 -123t-32 -106q0 -41 25 -65q24 -23 85 -23q38 0 67 7q42 10 62 17l58 -168q-104 -49 -240 -49q-145 0 -230 61t-85 179q0 104 92 188q91 83 284 127z" />
    <glyph glyph-name="Delta" unicode="&#x394;" horiz-adv-x="1347" 
d="M1358 0h-1368l456 1434h453zM903 281l-235 886l-238 -886h473z" />
    <glyph glyph-name="Omega" unicode="&#x3a9;" horiz-adv-x="1611" 
d="M807 1470q143 0 273 -40t235 -131q103 -89 164 -228q61 -138 61 -336q0 -171 -57 -282t-154 -179h191v-274h-582v274q62 21 105 64q47 47 72 102q29 64 40 132q12 72 12 155q0 219 -97 332q-98 115 -263 115q-159 0 -261 -113t-102 -332q0 -77 13 -155q11 -68 40 -132
q26 -58 71 -103q44 -43 108 -65v-274h-584v274h205q-105 66 -166 178q-59 108 -59 283q0 193 60 332t162 228q103 89 234 132q132 43 279 43z" />
    <glyph glyph-name="mu" unicode="&#x3bc;" horiz-adv-x="1255" 
d="M1139 0h-330v119q-45 -76 -104 -106q-61 -31 -127 -31q-91 0 -146 51v-381h-317v1444h344v-645q0 -107 36 -148t107 -41q88 0 140 63q53 64 53 162v609h344v-1096z" />
    <glyph glyph-name="pi" unicode="&#x3c0;" horiz-adv-x="1331" 
d="M1276 827h-152v-827h-329v827h-260v-827h-330v827h-152v269h1223v-269z" />
    <glyph glyph-name="Wgrave" unicode="&#x1e80;" horiz-adv-x="1789" 
d="M1499 0h-409l-183 1044l-168 -1044h-420l-321 1434h385l160 -1086l178 1086h375l190 -1074l133 1074h369zM1069 1542h-260l-375 322h424z" />
    <glyph glyph-name="wgrave" unicode="&#x1e81;" horiz-adv-x="1646" 
d="M1368 0h-397l-146 791l-159 -791h-396l-272 1096h369l116 -783l148 783h381l157 -783l121 783h355zM979 1214h-250l-364 324h409z" />
    <glyph glyph-name="Wacute" unicode="&#x1e82;" horiz-adv-x="1789" 
d="M1499 0h-409l-183 1044l-168 -1044h-420l-321 1434h385l160 -1086l178 1086h375l190 -1074l133 1074h369zM1024 1542h-260l211 322h424z" />
    <glyph glyph-name="wacute" unicode="&#x1e83;" horiz-adv-x="1646" 
d="M1368 0h-397l-146 791l-159 -791h-396l-272 1096h369l116 -783l148 783h381l157 -783l121 783h355zM922 1214h-250l205 324h409z" />
    <glyph glyph-name="Wdieresis" unicode="&#x1e84;" horiz-adv-x="1789" 
d="M1499 0h-409l-183 1044l-168 -1044h-420l-321 1434h385l160 -1086l178 1086h375l190 -1074l133 1074h369zM657 1903q37 0 70 -15t57 -39q26 -26 40 -57q16 -35 16 -70q0 -34 -16 -69q-15 -33 -40 -58q-24 -24 -57 -39q-31 -14 -70 -14q-38 0 -70 14q-35 15 -59 39
q-25 25 -40 58t-15 69q0 37 15 70q14 31 40 57q24 24 59 39q34 15 70 15zM1163 1903q37 0 71 -15t58 -39q26 -26 40 -57q16 -35 16 -70q0 -34 -16 -69q-15 -33 -40 -58q-24 -24 -58 -39q-32 -14 -71 -14q-38 0 -69 14q-34 15 -59 39q-24 22 -40 58q-14 31 -14 69q0 39 14 70
q15 34 40 57q25 24 59 39q33 15 69 15z" />
    <glyph glyph-name="wdieresis" unicode="&#x1e85;" horiz-adv-x="1646" 
d="M1368 0h-397l-146 791l-159 -791h-396l-272 1096h369l116 -783l148 783h381l157 -783l121 783h355zM573 1575q39 0 70 -14q33 -15 57 -39q25 -25 40 -58q16 -35 16 -69q0 -35 -16 -70q-14 -31 -40 -57q-24 -24 -57 -39t-70 -15q-35 0 -70 15t-59 39q-26 26 -40 57
q-15 33 -15 70q0 36 15 69t40 58q24 24 59 39q32 14 70 14zM1079 1575q39 0 71 -14q34 -15 58 -39q25 -25 40 -58q16 -35 16 -69q0 -35 -16 -70q-14 -31 -40 -57q-24 -24 -58 -39t-71 -15q-36 0 -69 15q-34 15 -59 39q-25 23 -40 57q-14 31 -14 70q0 38 14 69q16 36 40 58
q25 24 59 39q31 14 69 14z" />
    <glyph glyph-name="uni1E9E" unicode="&#x1e9e;" horiz-adv-x="1460" 
d="M918 -39q-48 0 -89 3q-38 3 -80 9q-41 6 -81 18q-56 17 -88 29l71 248q45 -22 92 -30q56 -9 105 -9q37 0 76 11t64 33q27 24 45 59q18 34 18 84q0 98 -78 150t-258 87v193l246 274q-47 31 -100 49q-57 19 -134 19q-115 0 -182 -64q-66 -63 -66 -215v-909h-364v926
q0 256 158 401q160 146 454 146q198 0 354 -75t273 -210l-297 -346q75 -23 140 -60q69 -39 117 -90q49 -52 80 -123q29 -67 29 -157q0 -100 -33 -179q-34 -82 -100 -142q-67 -61 -160 -95q-96 -35 -212 -35z" />
    <glyph glyph-name="Ygrave" unicode="&#x1ef2;" horiz-adv-x="1275" 
d="M811 563v-563h-360v559l-490 875h410l264 -588l268 588h397zM797 1542h-260l-375 322h424z" />
    <glyph glyph-name="ygrave" unicode="&#x1ef3;" horiz-adv-x="1101" 
d="M784 -23q-23 -82 -57 -152q-33 -70 -85 -117q-52 -48 -129 -75q-74 -26 -187 -26q-99 0 -166 16v232q48 -5 63 -5h41q49 0 91 7q37 6 60 22q24 17 36 45q13 30 20 76h-135l-354 1096h389l188 -860l174 860h379zM709 1214h-250l-365 324h410z" />
    <glyph glyph-name="uni2007" unicode="&#x2007;" horiz-adv-x="1335" 
 />
    <glyph glyph-name="uni2008" unicode="&#x2008;" horiz-adv-x="643" 
 />
    <glyph glyph-name="uni200B" unicode="&#x200b;" horiz-adv-x="0" 
 />
    <glyph glyph-name="figuredash" unicode="&#x2012;" 
d="M1155 418h-1079v282h1079v-282z" />
    <glyph glyph-name="endash" unicode="&#x2013;" horiz-adv-x="1161" 
d="M1087 494h-1011v282h1011v-282z" />
    <glyph glyph-name="emdash" unicode="&#x2014;" horiz-adv-x="1421" 
d="M1348 494h-1272v282h1272v-282z" />
    <glyph glyph-name="quoteleft" unicode="&#x2018;" horiz-adv-x="630" 
d="M324 912q-95 0 -151 59q-57 60 -57 153q0 140 68 271q66 128 174 236l169 -91q-39 -60 -68 -129q-26 -60 -33 -142q47 -33 75 -71q26 -36 26 -103q0 -39 -14 -70q-15 -32 -42 -58q-26 -24 -65 -40q-38 -15 -82 -15z" />
    <glyph glyph-name="quoteright" unicode="&#x2019;" horiz-adv-x="628" 
d="M306 1566q95 0 151 -59q58 -61 58 -153q0 -140 -68 -271q-66 -128 -174 -236l-169 91q39 60 68 129q26 60 33 142q-46 32 -75 72q-26 36 -26 102q0 39 14 70q15 34 42 59q26 25 64 40q35 14 82 14z" />
    <glyph glyph-name="quotesinglbase" unicode="&#x201a;" horiz-adv-x="628" 
d="M306 376q95 0 151 -59q58 -61 58 -153q0 -140 -68 -271q-66 -128 -174 -236l-169 91q39 60 68 129q26 60 33 142q-46 32 -75 72q-26 36 -26 102q0 39 14 70q15 34 42 59q26 25 64 40q35 14 82 14z" />
    <glyph glyph-name="quotedblleft" unicode="&#x201c;" horiz-adv-x="1107" 
d="M802 912q-95 0 -151 59q-58 61 -58 153q0 140 68 271q66 128 174 236l169 -91q-39 -60 -68 -129q-26 -60 -33 -142q47 -33 75 -71q26 -36 26 -103q0 -39 -14 -70q-15 -32 -42 -58q-26 -25 -64 -40t-82 -15zM322 912q-95 0 -151 59q-57 60 -57 153q0 140 68 271
q66 128 174 236l169 -91q-39 -60 -68 -129q-26 -60 -33 -142q47 -33 75 -71q26 -36 26 -103q0 -39 -14 -70q-15 -32 -42 -58q-26 -24 -65 -40q-37 -15 -82 -15z" />
    <glyph glyph-name="quotedblright" unicode="&#x201d;" horiz-adv-x="1107" 
d="M306 1566q95 0 151 -59q58 -61 58 -153q0 -140 -68 -271q-66 -128 -174 -236l-169 91q39 60 68 129q26 60 33 142q-46 32 -75 72q-26 36 -26 102q0 39 14 70q15 34 42 59q26 25 64 40q35 14 82 14zM786 1566q95 0 151 -59q57 -60 57 -153q0 -140 -68 -271
q-66 -128 -174 -236l-169 91q39 60 68 129q26 60 33 142q-46 32 -75 72q-26 36 -26 102q0 39 14 70q15 34 42 59q26 24 65 40q35 14 82 14z" />
    <glyph glyph-name="quotedblbase" unicode="&#x201e;" horiz-adv-x="1107" 
d="M306 376q95 0 151 -59q58 -61 58 -153q0 -140 -68 -271q-66 -128 -174 -236l-169 91q39 60 68 129q26 60 33 142q-46 32 -75 72q-26 36 -26 102q0 39 14 70q15 34 42 59q26 25 64 40q35 14 82 14zM786 376q95 0 151 -59q57 -60 57 -153q0 -140 -68 -271
q-66 -128 -174 -236l-169 91q39 60 68 129q25 60 33 143q-47 33 -75 71q-26 36 -26 102q0 39 14 70q15 34 42 59q26 24 65 40q35 14 82 14z" />
    <glyph glyph-name="dagger" unicode="&#x2020;" horiz-adv-x="1325" 
d="M831 1096h328v-273h-328v-1163h-339v1163h-328v273h328v338h339v-338z" />
    <glyph glyph-name="daggerdbl" unicode="&#x2021;" horiz-adv-x="1325" 
d="M831 1047h328v-275h-328v-428h328v-274h-328v-410h-339v410h-328v274h328v428h-328v275h328v387h339v-387z" />
    <glyph glyph-name="bullet" unicode="&#x2022;" horiz-adv-x="753" 
d="M375 868q55 0 105 -21q49 -21 87 -59t60 -86t22 -104q0 -54 -22 -102t-60 -86t-87 -59q-50 -21 -105 -21t-105 21q-47 20 -86 59q-37 37 -58 86q-22 52 -22 102q0 52 22 104q21 49 58 86q39 39 86 59q50 21 105 21z" />
    <glyph glyph-name="uni2023" unicode="&#x2023;" horiz-adv-x="784" 
d="M125 326v532l532 -266z" />
    <glyph glyph-name="ellipsis" unicode="&#x2026;" horiz-adv-x="1816" 
d="M303 359q39 0 75 -15q38 -16 63 -41q26 -26 43 -63q16 -35 16 -74q0 -40 -16 -75q-16 -36 -43 -61q-27 -26 -63 -42q-35 -16 -75 -16t-75 16q-34 16 -62 42q-27 25 -43 61q-16 35 -16 75q0 39 16 74q17 37 43 63t62 41t75 15zM907 359q39 0 75 -15q38 -16 63 -41
q26 -26 43 -63q16 -35 16 -74q0 -40 -16 -75q-16 -36 -43 -61q-27 -26 -63 -42q-35 -16 -75 -16t-75 16q-34 16 -62 42q-27 25 -43 61q-16 35 -16 75q0 39 16 74q17 37 43 63t62 41t75 15zM1515 359q39 0 75 -15q39 -16 64 -41q24 -24 42 -63q16 -35 16 -74q0 -40 -16 -75
q-17 -38 -42 -61q-26 -25 -64 -42q-35 -16 -75 -16t-75 16q-34 16 -62 42q-27 25 -43 61q-16 35 -16 75q0 39 16 74q17 37 43 63t62 41t75 15z" />
    <glyph glyph-name="perthousand" unicode="&#x2030;" horiz-adv-x="2996" 
d="M459 1470q90 0 165 -30q74 -30 128 -91q53 -61 83 -149q29 -86 29 -205q0 -126 -29 -213q-29 -88 -83 -148q-52 -58 -128 -87t-165 -29q-88 0 -166 29q-77 29 -129 87q-54 60 -83 148q-30 90 -30 213q0 117 30 205t83 149q54 61 128 91q75 30 167 30zM739 -25h-247
l886 1483h248zM459 1278q-92 0 -128 -74t-36 -207q0 -145 36 -217q35 -71 128 -71q88 0 125 71t37 217q0 134 -37 207q-38 74 -125 74zM1665 920q87 0 165 -31q74 -30 128 -91q52 -60 83 -150q30 -89 30 -206q0 -123 -30 -213q-29 -88 -83 -148q-52 -58 -128 -87t-165 -29
q-88 0 -166 29q-77 28 -129 87q-54 60 -83 148q-30 90 -30 213q0 118 30 206q31 90 83 150q54 61 128 91q78 31 167 31zM2537 920q87 0 165 -31q74 -29 129 -91q53 -59 84 -150q30 -89 30 -206q0 -123 -30 -213q-29 -88 -83 -148q-52 -58 -128 -87t-167 -29q-88 0 -164 29
t-128 87q-54 60 -83 148q-30 90 -30 213q0 118 30 206q31 90 83 150q54 61 128 91q77 31 164 31zM1665 725q-92 0 -128 -72t-36 -207q0 -146 36 -216t128 -70q88 0 125 70t37 214q0 137 -37 208q-38 73 -125 73zM2537 725q-89 0 -125 -72t-36 -207q0 -146 36 -216t125 -70
q90 0 127 70t37 214q0 137 -37 208q-38 73 -127 73z" />
    <glyph glyph-name="guilsinglleft" unicode="&#x2039;" horiz-adv-x="638" 
d="M586 934l-209 -365l209 -364l-205 -146l-326 363v295l326 362z" />
    <glyph glyph-name="guilsinglright" unicode="&#x203a;" horiz-adv-x="638" 
d="M586 717v-295l-326 -363l-205 146l209 364l-209 365l205 145z" />
    <glyph glyph-name="uni203D" unicode="&#x203d;" horiz-adv-x="1110" 
d="M565 1462q121 0 215 -30q93 -29 159 -85q63 -53 97 -125q33 -70 33 -151q0 -83 -28 -145q-27 -60 -68 -104q-40 -43 -88 -77q-65 -46 -88 -64q-43 -34 -69 -68q-28 -37 -28 -85v-45h-276l-35 545v123q-32 -25 -52 -60q-22 -38 -38 -81l-268 82q24 72 70 139
q48 69 112 119q69 53 154 82q89 30 198 30zM643 848q8 9 21 24.5t19 22.5q20 23 35 47q14 22 25 51q11 28 11 62q0 93 -90 127v-154zM565 362q41 0 78 -15t65 -43t44 -63t16 -77t-16 -77q-15 -33 -44 -62q-26 -26 -65 -43t-78 -17q-40 0 -77 17q-35 16 -62 43t-43 62t-16 77
t16 77q17 37 43 63q29 29 62 43q36 15 77 15z" />
    <glyph glyph-name="fraction" unicode="&#x2044;" horiz-adv-x="561" 
d="M-39 -25h-248l887 1483h248z" />
    <glyph glyph-name="uni2070" unicode="&#x2070;" horiz-adv-x="819" 
d="M408 1565q173 0 271 -116q97 -115 97 -339q0 -231 -97 -344q-98 -115 -271 -115q-172 0 -270 115q-97 113 -97 344q0 224 96 339q96 116 271 116zM408 1372q-73 0 -97 -64t-24 -194q0 -129 24 -200q24 -70 97 -70q69 0 96 70q26 68 26 200t-26 194q-27 64 -96 64z" />
    <glyph glyph-name="uni2074" unicode="&#x2074;" horiz-adv-x="819" 
d="M684 1004h107v-195h-107v-133h-235v133h-424v201l348 526h311v-532zM256 1004h193v294z" />
    <glyph glyph-name="uni2075" unicode="&#x2075;" horiz-adv-x="819" 
d="M702 1350h-370l-23 -144q45 36 89 47q50 13 94 13q53 0 107 -20t93 -56q43 -40 66 -90q24 -52 24 -119q0 -72 -24 -132q-25 -62 -74 -105q-51 -45 -121 -68q-75 -25 -166 -25q-148 0 -238 64q-89 64 -122 151l217 70q19 -54 58 -76q40 -22 87 -22q70 0 103 38t33 85
q0 52 -34 82t-95 30q-49 0 -79 -17q-32 -18 -48 -40l-211 31l71 489h590z" />
    <glyph glyph-name="uni2076" unicode="&#x2076;" horiz-adv-x="819" 
d="M434 1565q117 0 199 -49t123 -142l-205 -67q-11 31 -43 52q-29 19 -72 19q-71 0 -112 -53t-56 -176q21 30 48 51q26 20 58 33q28 11 58 16q25 4 53 4q57 0 110 -18t93 -55q43 -40 66 -90q24 -52 24 -123q0 -75 -27 -134q-26 -57 -76 -99q-47 -40 -114 -61
q-69 -22 -139 -22q-72 0 -144 22q-67 21 -121 71q-52 49 -84 136t-32 214q0 106 29 195q29 88 81 149q53 62 123 94q72 33 160 33zM422 1063q-47 0 -78 -29t-31 -82q0 -56 33 -83t70 -27q42 0 77 27q33 26 33 87q0 47 -25 76q-26 31 -79 31z" />
    <glyph glyph-name="uni2077" unicode="&#x2077;" horiz-adv-x="819" 
d="M758 1339q-68 -79 -114 -145q-47 -68 -84 -146q-34 -73 -58 -166q-23 -91 -35 -206h-260q16 137 48 240q31 101 74 179q42 76 92 134q49 57 105 108h-256v-98h-209v297h697v-197z" />
    <glyph glyph-name="uni2078" unicode="&#x2078;" horiz-adv-x="819" 
d="M406 651q-108 0 -181 24q-77 25 -120 60q-44 36 -66 82q-21 45 -21 88q0 72 39 129q40 58 123 88q-67 45 -90 97q-22 50 -22 104q0 50 20 91q21 44 63 78q40 33 105 53t150 20q88 0 152 -21q68 -22 107 -53q40 -31 62 -74q21 -41 21 -84q0 -41 -26 -95q-26 -53 -97 -87
q46 -20 83 -42q33 -20 53 -48q19 -27 27 -59q9 -38 9 -72q0 -45 -19 -97q-19 -51 -63 -91q-44 -39 -121 -65q-78 -26 -188 -26zM453 1212q35 29 47 55q12 25 12 48q0 36 -28 56t-74 20q-44 0 -74 -19q-29 -18 -29 -57q0 -32 23 -53q21 -20 80 -37zM408 844q78 0 107 26
q30 27 30 60q0 42 -33 62t-109 42l-71 19q-64 -53 -64 -117q0 -48 39 -70q38 -22 101 -22z" />
    <glyph glyph-name="uni2079" unicode="&#x2079;" horiz-adv-x="819" 
d="M381 647q-123 0 -206 50q-84 50 -124 128l205 82q33 -78 129 -78q77 0 118 58q41 57 48 180q-21 -30 -48 -51q-22 -17 -57 -32q-23 -10 -58 -15q-27 -4 -54 -4q-58 0 -110 18q-53 18 -93 55q-41 38 -65 90q-25 55 -25 123q0 71 28 132q27 59 76 99q47 38 115 60
q66 21 139 21t145 -22q66 -20 121 -72q53 -50 83 -135q30 -86 30 -212q0 -221 -98 -347q-99 -128 -299 -128zM397 1155q47 0 79 29t32 82q0 55 -32 82q-30 26 -70 26q-44 0 -78 -27q-35 -27 -35 -85q0 -47 25 -76q26 -31 79 -31z" />
    <glyph glyph-name="uni207A" unicode="&#x207a;" horiz-adv-x="806" 
d="M514 1171h203v-190h-203v-201h-223v201h-203v190h203v203h223v-203z" />
    <glyph glyph-name="uni207B" unicode="&#x207b;" horiz-adv-x="806" 
d="M717 981h-629v190h629v-190z" />
    <glyph glyph-name="uni207C" unicode="&#x207c;" horiz-adv-x="806" 
d="M717 1133h-629v192h629v-192zM717 827h-629v193h629v-193z" />
    <glyph glyph-name="uni2080" unicode="&#x2080;" horiz-adv-x="819" 
d="M408 543q173 0 271 -116q97 -115 97 -339q0 -231 -97 -344q-98 -115 -271 -115q-172 0 -270 115q-97 113 -97 344q0 224 96 339q96 116 271 116zM408 350q-73 0 -97 -64t-24 -194q0 -129 24 -200q24 -70 97 -70q69 0 96 70q26 68 26 200t-26 194q-27 64 -96 64z" />
    <glyph glyph-name="uni2081" unicode="&#x2081;" horiz-adv-x="819" 
d="M127 -152h213v340h-221v164h14q67 0 117 13q49 13 76 34q28 22 44 52q14 27 19 63h193v-666h168v-194h-623v194z" />
    <glyph glyph-name="uni2082" unicode="&#x2082;" horiz-adv-x="819" 
d="M412 543q77 0 140 -21t105 -56q43 -36 66 -84q22 -47 22 -103q0 -71 -20 -125q-22 -59 -66 -109q-47 -53 -113 -99q-73 -51 -163 -98h373v-194h-695v188q92 63 205 145q78 57 131 108q49 48 70 88q20 39 20 85q0 41 -20 62q-21 22 -64 22t-68 -31q-26 -32 -26 -110h-248
q0 69 22 132q22 62 64 106q44 45 109 69q69 25 156 25z" />
    <glyph glyph-name="uni2083" unicode="&#x2083;" horiz-adv-x="819" 
d="M420 539q162 0 247 -69t85 -167q0 -77 -45 -124q-44 -45 -117 -68q35 -5 73 -22q29 -13 60 -40q27 -24 42 -59q15 -34 15 -80q0 -131 -99 -206t-269 -75q-144 0 -244 65q-98 64 -127 189l227 54q16 -56 50 -84q37 -31 96 -31q52 0 83 24t31 74q0 48 -33 71t-89 23h-91
v176h72q14 0 42 4q20 3 38 11q16 7 28 24q11 15 11 43q0 41 -29 59q-27 17 -65 17q-44 0 -76 -19t-49 -73l-232 37q27 108 123 177t242 69z" />
    <glyph glyph-name="uni2084" unicode="&#x2084;" horiz-adv-x="819" 
d="M684 -18h107v-195h-107v-133h-235v133h-424v201l348 526h311v-532zM256 -18h193v294z" />
    <glyph glyph-name="uni2085" unicode="&#x2085;" horiz-adv-x="819" 
d="M702 328h-370l-23 -144q45 36 89 47q50 13 94 13q53 0 107 -20t93 -56q43 -40 66 -90q24 -53 24 -119q0 -72 -24 -132q-25 -62 -74 -105q-51 -45 -121 -68q-75 -25 -166 -25q-148 0 -238 64q-89 64 -122 151l217 70q19 -54 58 -76q40 -22 87 -22q70 0 103 38q33 37 33 85
q0 53 -34 83q-33 29 -95 29q-49 0 -79 -17q-32 -18 -48 -40l-211 31l71 489h590z" />
    <glyph glyph-name="uni2086" unicode="&#x2086;" horiz-adv-x="819" 
d="M434 543q117 0 199 -49t123 -142l-205 -67q-11 31 -43 52q-29 19 -72 19q-71 0 -112 -53t-56 -176q21 30 48 51q26 20 58 33q28 11 58 16q25 4 53 4q57 0 110 -18t93 -55q43 -40 66 -90q24 -52 24 -123q0 -75 -27 -134q-26 -57 -76 -99q-47 -40 -114 -61
q-69 -22 -139 -22q-72 0 -144 22q-67 21 -121 71q-52 49 -84 136t-32 214q0 106 29 195q29 88 81 149q53 62 123 94q72 33 160 33zM422 41q-47 0 -78 -29t-31 -82q0 -56 33 -83t70 -27q42 0 77 27q33 26 33 87q0 47 -25 76q-26 31 -79 31z" />
    <glyph glyph-name="uni2087" unicode="&#x2087;" horiz-adv-x="819" 
d="M758 317q-68 -79 -114 -145q-47 -68 -84 -146q-34 -73 -58 -166q-23 -91 -35 -206h-260q16 139 48 241q31 99 74 178q42 76 92 134q49 57 105 108h-256v-98h-209v297h697v-197z" />
    <glyph glyph-name="uni2088" unicode="&#x2088;" horiz-adv-x="819" 
d="M406 -371q-108 0 -181 24q-77 25 -120 60q-44 36 -66 82q-21 45 -21 88q0 72 39 129q40 58 123 88q-67 45 -90 97q-22 50 -22 104q0 50 20 91q21 44 63 78q40 33 105 53t150 20q88 0 152 -21q68 -22 107 -53q40 -31 62 -74q21 -41 21 -84q0 -41 -26 -95q-26 -53 -97 -87
q46 -20 83 -42q33 -20 53 -48q20 -27 27 -58q9 -38 9 -73q0 -45 -19 -97q-19 -51 -63 -91q-44 -39 -121 -65q-78 -26 -188 -26zM453 190q35 29 47 55q12 25 12 48q0 36 -28 56t-74 20q-44 0 -74 -19q-29 -18 -29 -57q0 -32 23 -53q21 -20 80 -37zM408 -178q78 0 107 26
q30 27 30 60q0 42 -33 62t-109 42l-71 19q-64 -53 -64 -117q0 -48 39 -70q38 -22 101 -22z" />
    <glyph glyph-name="uni2089" unicode="&#x2089;" horiz-adv-x="819" 
d="M381 -375q-123 0 -206 50q-84 50 -124 128l205 82q33 -78 129 -78q77 0 118 58q41 57 48 180q-21 -30 -48 -51q-22 -17 -57 -32q-23 -10 -58 -15q-27 -4 -54 -4q-58 0 -110 18q-53 18 -93 55q-41 38 -65 90q-25 55 -25 123q0 71 28 132q27 59 76 99q47 38 115 60
q66 21 139 21t145 -22q66 -20 121 -72q53 -50 83 -135t30 -212q0 -221 -98 -347q-99 -128 -299 -128zM397 133q47 0 79 29t32 82q0 55 -32 82q-30 26 -70 26q-44 0 -78 -27q-35 -27 -35 -85q0 -47 25 -76q26 -31 79 -31z" />
    <glyph glyph-name="uni208A" unicode="&#x208a;" horiz-adv-x="806" 
d="M514 170h203v-190h-203v-201h-223v201h-203v190h203v203h223v-203z" />
    <glyph glyph-name="uni208B" unicode="&#x208b;" horiz-adv-x="806" 
d="M717 -20h-629v190h629v-190z" />
    <glyph glyph-name="uni208C" unicode="&#x208c;" horiz-adv-x="806" 
d="M717 125h-629v192h629v-192zM717 -180h-629v192h629v-192z" />
    <glyph glyph-name="uni208D" unicode="&#x208d;" horiz-adv-x="614" 
d="M498 614q-41 -78 -65 -135q-26 -62 -42 -121q-15 -55 -23 -120q-8 -66 -8 -138q0 -71 8 -137q8 -67 23 -121q16 -59 42 -121q21 -51 65 -137h-176q-101 130 -146 257q-47 132 -47 259q0 125 47 257q45 127 146 257h176z" />
    <glyph glyph-name="uni208E" unicode="&#x208e;" horiz-adv-x="614" 
d="M305 614q101 -130 146 -257q47 -132 47 -257q0 -130 -46 -259q-46 -130 -145 -257h-178q44 86 65 137q26 62 42 121q15 54 23 121q7 57 7 137q0 81 -7 138q-8 65 -23 120q-16 59 -42 121q-24 57 -65 135h176z" />
    <glyph glyph-name="Euro" unicode="&#x20ac;" horiz-adv-x="1351" 
d="M874 1470q268 0 447 -161l-102 -273q-67 73 -143 114q-74 40 -173 40q-115 0 -188 -65q-73 -66 -103 -187h562l-60 -176h-526v-90h499l-59 -176h-422q27 -122 93 -185t202 -63q60 0 108 12q45 11 88 32q37 18 71 42q49 35 57 41v-301q-76 -49 -166 -79q-96 -32 -213 -32
q-112 0 -213 30t-180 94q-81 66 -137 166q-56 99 -80 243h-205l59 176h133v90h-176l59 176h136q28 139 88 238q60 98 145 165q84 66 187 98q100 31 212 31z" />
    <glyph glyph-name="uni20B9" unicode="&#x20b9;" 
d="M1124 1253h-290q47 -39 74 -86q28 -49 40 -100h176v-176h-172q-16 -82 -60 -142q-46 -63 -102 -102q-58 -41 -123 -63q-64 -22 -122 -27h-29l508 -557h-424l-494 543v223h246q168 0 215 125h-461v176h474q-16 96 -86 141q-69 45 -168 45h-220v181h1018v-181z" />
    <glyph glyph-name="uni20BA" unicode="&#x20ba;" 
d="M1137 489q-6 -111 -51 -209q-44 -95 -123 -164q-80 -69 -193 -107q-114 -38 -256 -38q-94 0 -161 7q-75 8 -126 18v598l-137 -74v176l137 74v119l-137 -72v176l137 72v369h344v-187l344 180v-176l-344 -180v-119l344 185v-176l-344 -185v-534h17q119 0 180 68
q62 69 78 179h291z" />
    <glyph glyph-name="uni20BD" unicode="&#x20bd;" 
d="M453 522v-90h397v-174h-397v-258h-363v258h-100v174h100v90h-100v273h100v639h559q289 0 428 -120q140 -120 140 -335q0 -228 -146 -342q-147 -115 -420 -115h-198zM453 795h186q38 0 78 8q37 7 64 27t44 56q17 37 17 91q0 86 -51 125t-144 39h-194v-346z" />
    <glyph glyph-name="afii61248" unicode="&#x2105;" horiz-adv-x="1843" 
d="M582 -25h-248l887 1483h247zM449 1411q115 0 192 -47q74 -45 119 -133l-178 -74q-34 88 -123 88q-63 0 -100 -43t-37 -135q0 -94 36 -136q38 -44 101 -44q56 0 85 28q28 26 44 70l176 -72q-40 -88 -119 -141t-196 -53q-83 0 -148 25q-66 26 -111 72q-43 45 -68 111
q-24 65 -24 140q0 72 25 138q23 60 70 109q44 45 109 71q66 26 147 26zM1384 674q85 0 152 -27q68 -27 114 -73q47 -47 70 -108q25 -66 25 -136q0 -158 -96 -253q-97 -95 -265 -95q-87 0 -153 25q-67 25 -114 72q-46 46 -70 110q-25 67 -25 141q0 72 25 138q24 63 70 109
q45 45 114 71t153 26zM1382 508q-63 0 -100 -43t-37 -135q0 -90 36 -135t101 -45q66 0 103 45q37 44 37 135t-38 135q-37 43 -102 43z" />
    <glyph glyph-name="afii61289" unicode="&#x2113;" 
d="M748 -37q-109 0 -185 31q-73 30 -120 80q-45 48 -65 110q-20 63 -20 123v60l-90 -95l-96 156l182 180v486q0 178 98 278q97 98 279 98q155 0 233 -75t78 -209q0 -84 -24 -162q-23 -73 -70 -154q-41 -70 -108 -151q-60 -73 -140 -156v-178q0 -88 37 -124t107 -36
q28 0 70 6q39 6 85 23v-244q-115 -47 -251 -47zM698 836q48 66 85 153q36 85 36 168q0 48 -12 73t-43 25q-29 0 -47 -31q-19 -33 -19 -110v-278z" />
    <glyph glyph-name="afii61352" unicode="&#x2116;" horiz-adv-x="2457" 
d="M1937 750q-87 0 -153 25q-68 25 -114 72q-48 48 -71 110q-24 65 -24 141t24 139t71 110q45 45 114 71t153 26q85 0 152 -27t114 -74q46 -46 70 -109q25 -66 25 -136q0 -158 -96 -253q-97 -95 -265 -95zM1438 0h-426l-482 895v-895h-321v1434h430l479 -916v916h320v-1434z
M1935 918q65 0 103 45q37 44 37 137q0 91 -38 134q-38 42 -102 42q-63 0 -100 -42q-37 -41 -37 -134q0 -92 36 -137t101 -45zM1604 641h669v-190h-669v190z" />
    <glyph glyph-name="uni2117" unicode="&#x2117;" horiz-adv-x="1843" 
d="M924 -37q-169 0 -310 57t-243 159q-103 103 -160 239t-57 297t57 297t160 239t243 161t310 58q169 0 309 -58t243 -161q100 -100 158 -239t58 -297t-58 -297t-158 -239q-102 -102 -243 -159t-309 -57zM924 119q134 0 244 48t186 130t116 189q41 109 41 229q0 117 -41 228
t-116 192t-186 131q-108 49 -244 49q-138 0 -250 -50q-109 -48 -187 -133q-72 -78 -115 -192q-40 -107 -40 -225t40 -225q42 -111 115 -190q77 -83 187 -132t250 -49zM627 1137h344q173 0 262 -69q88 -69 88 -196q0 -55 -18 -104q-17 -47 -61 -86q-39 -35 -108 -57
q-66 -21 -161 -21h-131v-289h-215v822zM973 764q57 0 90 23q35 24 35 83q0 48 -33 72q-34 25 -86 25h-137v-203h131z" />
    <glyph glyph-name="uni2120" unicode="&#x2120;" horiz-adv-x="2457" 
d="M637 1454q138 0 236 -40q102 -42 167 -105l-165 -135q-40 35 -95 62q-58 28 -139 28q-56 0 -90 -20q-33 -20 -33 -48q0 -16 7 -27q7 -12 29 -24q23 -13 58 -23q32 -9 99 -22q172 -33 254 -94t82 -183q0 -74 -30 -128t-84 -90t-128 -54q-78 -19 -160 -19q-130 0 -247 41
q-116 41 -195 123l176 140q54 -52 118 -82q67 -31 152 -31q69 0 105 20q37 21 37 58q0 15 -8 28t-27 24q-16 9 -60 21q-47 13 -100 23q-167 34 -252 98q-84 63 -84 189q0 60 28 111t77 85q52 36 118 55q67 19 154 19zM2243 545h-240l-29 622l-157 -622h-254l-156 620
l-29 -620h-235l53 889h352l146 -629l143 629h352z" />
    <glyph glyph-name="trademark" unicode="&#x2122;" horiz-adv-x="2048" 
d="M848 1231h-262v-686h-250v686h-264v203h776v-203zM1966 545h-237l-29 622l-158 -622h-256l-156 620l-28 -620h-236l54 889h352l145 -629l144 629h352z" />
    <glyph glyph-name="uni2126" unicode="&#x2126;" horiz-adv-x="1632" 
d="M817 1470q144 0 274 -40q128 -39 234 -131q103 -89 164 -228q61 -138 61 -336q0 -171 -57 -282t-154 -179h191v-274h-582v274q64 22 106 64q46 46 71 102q29 64 40 132q13 78 13 155q0 217 -98 332t-263 115q-159 0 -261 -113q-101 -111 -101 -332q0 -83 12 -155
q11 -68 40 -132q25 -56 72 -103q44 -44 107 -65v-274h-584v274h205q-105 66 -166 178q-59 108 -59 283q0 193 60 332t162 228t235 132q132 43 278 43z" />
    <glyph glyph-name="estimated" unicode="&#x212e;" horiz-adv-x="1935" 
d="M967 1466q166 0 313 -56q148 -56 263 -159q113 -101 181 -243t68 -314h-1346v-446q31 -47 92 -86q59 -38 130 -63q76 -27 150 -38q80 -12 151 -12t148 12q73 11 148 37q65 22 132 63q59 36 104 89h119q-112 -133 -275 -208t-378 -75q-176 0 -327 56t-261 154
q-109 97 -173 236q-63 137 -63 298t65 300q64 136 177 239q113 102 262 159q150 57 320 57zM969 1384q-181 0 -313 -54q-133 -54 -210 -152v-402h1043v402q-83 92 -213 150q-125 56 -307 56z" />
    <glyph glyph-name="uni2150" unicode="&#x2150;" horiz-adv-x="2138" 
d="M760 -25h-248l887 1483h248zM2077 664q-64 -74 -114 -146q-47 -68 -84 -146q-34 -73 -58 -166q-23 -91 -35 -206h-260q16 139 48 241q31 99 74 178q42 76 92 134q54 62 105 109h-256v-99h-209v297h697v-196zM127 768h213v340h-221v164h14q71 0 117 12q47 12 76 35t44 51
q14 27 19 64h193v-666h168v-195h-623v195z" />
    <glyph glyph-name="uni2151" unicode="&#x2151;" horiz-adv-x="2076" 
d="M760 -25h-248l887 1483h248zM1638 -27q-120 0 -205 51q-84 50 -124 128l204 81q33 -77 129 -77q78 0 118 57t48 180q-21 -30 -48 -51q-24 -18 -56 -32q-23 -10 -58 -15q-27 -4 -55 -4q-57 0 -109 18t-93 56q-43 40 -66 90q-25 55 -25 123q0 71 28 132q26 56 77 98
q47 38 115 60q66 21 139 21q72 0 144 -22q67 -21 121 -71q53 -50 83 -136q31 -88 31 -211q0 -221 -99 -348q-99 -128 -299 -128zM1655 481q47 0 79 29q31 28 31 82q0 55 -31 82q-30 26 -71 26q-43 0 -78 -27t-35 -85q0 -45 26 -76t79 -31zM127 768h213v340h-221v164h14
q71 0 117 12q47 12 76 35t44 51q14 27 19 64h193v-666h168v-195h-623v195z" />
    <glyph glyph-name="uni2152" unicode="&#x2152;" horiz-adv-x="2875" 
d="M760 -25h-248l887 1483h248zM1364 195h213v340h-221v163h14q67 0 117 13q49 13 76 34q28 22 44 52q14 27 19 63h193v-665h168v-195h-623v195zM2464 889q173 0 271 -116q97 -115 97 -339q0 -231 -97 -344q-98 -115 -271 -115q-172 0 -270 115q-97 113 -97 344
q0 224 96 339q96 116 271 116zM2464 696q-73 0 -97 -64t-24 -194q0 -128 24 -199t97 -71q69 0 96 71q27 70 27 199t-27 194q-27 64 -96 64zM127 768h213v340h-221v164h14q71 0 117 12q47 12 76 35t44 51q14 27 19 64h193v-666h168v-195h-623v195z" />
    <glyph glyph-name="onethird" unicode="&#x2153;" horiz-adv-x="2076" 
d="M760 -25h-248l887 1483h248zM1677 885q162 0 247 -69t85 -167q0 -78 -45 -124q-44 -45 -117 -68q35 -5 73 -22q29 -13 60 -40q27 -24 42 -59q16 -37 16 -80q0 -130 -100 -206q-99 -75 -269 -75q-144 0 -244 65q-98 64 -127 189l228 54q16 -56 50 -84q37 -31 95 -31
q50 0 83 25q32 24 32 73q0 47 -34 71q-33 23 -89 23h-90v177h72q21 0 42 3q19 3 37 11q16 7 28 24q11 15 11 43q0 41 -28 59q-27 17 -66 17q-44 0 -76 -19t-49 -73l-231 37q27 108 123 177t241 69zM127 768h213v340h-221v164h14q71 0 117 12q47 12 76 35t44 51q14 27 19 64
h193v-666h168v-195h-623v195z" />
    <glyph glyph-name="twothirds" unicode="&#x2154;" horiz-adv-x="2076" 
d="M760 -25h-248l887 1483h248zM1677 885q162 0 247 -69t85 -167q0 -78 -45 -124q-44 -45 -117 -68q35 -5 73 -22q29 -13 60 -40q27 -24 42 -59q16 -37 16 -80q0 -130 -100 -206q-99 -75 -269 -75q-144 0 -244 65q-98 64 -127 189l228 54q16 -56 50 -84q37 -31 95 -31
q50 0 83 25q32 24 32 73q0 47 -34 71q-33 23 -89 23h-90v177h72q21 0 42 3q19 3 37 11q16 7 28 24q11 15 11 43q0 41 -28 59q-27 17 -66 17q-44 0 -76 -19t-49 -73l-231 37q27 108 123 177t241 69zM412 1462q80 0 140 -20t105 -57q44 -37 66 -83q22 -47 22 -104
q0 -71 -20 -125q-21 -57 -66 -108q-49 -55 -113 -100q-68 -47 -163 -97h373v-195h-695v189q115 78 205 144q74 54 131 109q49 48 70 88q20 39 20 85q0 40 -20 61q-21 23 -64 23q-42 0 -68 -32t-26 -110h-248q0 70 22 133q21 61 64 105q45 47 109 70q66 24 156 24z" />
    <glyph glyph-name="uni2155" unicode="&#x2155;" horiz-adv-x="2097" 
d="M760 -25h-248l887 1483h248zM1980 674h-370l-23 -144q47 37 89 48q46 12 93 12q54 0 108 -20t93 -56q43 -40 66 -90q24 -53 24 -119q0 -72 -24 -132t-74 -104q-53 -46 -121 -69q-75 -25 -166 -25q-148 0 -238 64q-89 64 -122 151l217 70q19 -54 58 -76q40 -22 87 -22
q70 0 103 38q32 36 32 85q0 54 -33 83t-96 29q-48 0 -78 -17q-34 -19 -49 -40l-210 31l71 489h590zM127 768h213v340h-221v164h14q71 0 117 12q47 12 76 35t44 51q14 27 19 64h193v-666h168v-195h-623v195z" />
    <glyph glyph-name="uni2156" unicode="&#x2156;" horiz-adv-x="2097" 
d="M760 -25h-248l887 1483h248zM1980 674h-370l-23 -144q47 37 89 48q46 12 93 12q54 0 108 -20t93 -56q43 -40 66 -90q24 -53 24 -119q0 -72 -24 -132t-74 -104q-53 -46 -121 -69q-75 -25 -166 -25q-148 0 -238 64q-89 64 -122 151l217 70q19 -54 58 -76q40 -22 87 -22
q70 0 103 38q32 36 32 85q0 54 -33 83t-96 29q-48 0 -78 -17q-34 -19 -49 -40l-210 31l71 489h590zM412 1462q80 0 140 -20t105 -57q43 -36 66 -84q22 -47 22 -103q0 -71 -20 -125q-21 -57 -66 -108q-49 -55 -113 -100q-68 -47 -163 -97h373v-195h-695v189q115 78 205 144
q74 54 131 109q49 48 70 88q20 39 20 85q0 40 -20 61q-21 23 -64 23q-42 0 -68 -32t-26 -110h-248q0 70 22 133q21 61 64 105q45 47 109 70q66 24 156 24z" />
    <glyph glyph-name="uni2157" unicode="&#x2157;" horiz-adv-x="2015" 
d="M678 -25h-248l887 1483h248zM1898 674h-370l-23 -144q47 37 89 48q46 12 94 12q53 0 107 -20t93 -56q43 -40 66 -90q24 -53 24 -119q0 -72 -24 -132t-74 -104q-53 -46 -121 -69q-75 -25 -166 -25q-148 0 -238 64q-89 64 -122 151l217 70q19 -54 58 -76q40 -22 87 -22
q70 0 103 38t33 85q0 53 -34 83q-33 29 -95 29q-49 0 -79 -17q-32 -18 -48 -40l-211 31l71 489h590zM420 1458q163 0 247 -68q85 -69 85 -167q0 -77 -45 -124t-117 -69q38 -6 73 -21q29 -13 60 -40q26 -23 42 -60q15 -35 15 -80q0 -130 -99 -205t-269 -75q-146 0 -244 64
t-127 190l227 53q16 -56 50 -84q37 -31 96 -31q50 0 83 25q31 24 31 74q0 47 -33 70q-35 24 -89 24h-91v176h72q21 0 42 3q20 3 38 11q15 7 28 25q11 15 11 43q0 40 -29 58q-28 18 -65 18q-42 0 -76 -20q-32 -19 -49 -72l-232 36q27 109 123 178q95 68 242 68z" />
    <glyph glyph-name="uni2158" unicode="&#x2158;" horiz-adv-x="2076" 
d="M739 -25h-247l886 1483h248zM1960 674h-371l-22 -144q47 37 89 48q46 12 93 12q54 0 108 -20t93 -56q41 -38 65 -90q25 -55 25 -119q0 -69 -25 -132q-24 -60 -74 -104q-53 -47 -120 -69q-75 -25 -166 -25q-149 0 -239 64q-89 64 -122 151l217 70q18 -53 59 -76
q40 -22 87 -22q69 0 102 38t33 85q0 53 -34 83q-33 29 -95 29q-49 0 -79 -17q-32 -18 -48 -40l-211 31l72 489h590zM684 901h107v-194h-107v-134h-235v134h-424v200l348 527h311v-533zM256 901h193v295z" />
    <glyph glyph-name="uni2159" unicode="&#x2159;" horiz-adv-x="2056" 
d="M760 -25h-248l887 1483h248zM1671 889q117 0 199 -49t123 -142l-205 -67q-11 31 -43 52q-29 19 -72 19q-71 0 -112 -53t-56 -176q21 30 48 51q26 20 58 33q28 11 58 16q32 5 53 5q55 0 110 -19q53 -18 93 -55q43 -40 66 -90q24 -53 24 -123q0 -75 -27 -134
q-26 -57 -76 -99q-47 -40 -114 -61q-69 -22 -139 -22q-73 0 -145 22q-64 20 -120 72q-52 49 -84 135q-32 87 -32 214q0 106 29 195q29 88 81 149q53 62 123 94q72 33 160 33zM1659 387q-47 0 -78 -29t-31 -82q0 -55 33 -82q34 -28 70 -28q41 0 77 28q33 26 33 87
q0 46 -25 75q-26 31 -79 31zM127 768h213v340h-221v164h14q71 0 117 12q47 12 76 35t44 51q14 27 19 64h193v-666h168v-195h-623v195z" />
    <glyph glyph-name="uni215A" unicode="&#x215a;" horiz-adv-x="1974" 
d="M678 -25h-248l887 1483h248zM1589 889q117 0 199 -49t123 -142l-205 -67q-11 31 -43 52q-29 19 -72 19q-71 0 -112 -53t-56 -176q21 30 48 51q26 20 58 33q28 11 58 16q32 5 53 5q55 0 110 -19q53 -18 93 -55q43 -40 66 -90q24 -53 24 -123q0 -75 -27 -134
q-26 -57 -76 -99q-47 -40 -114 -61q-69 -22 -139 -22q-72 0 -144 22q-66 20 -121 72q-52 49 -84 135q-32 87 -32 214q0 106 29 195q29 88 81 149t124 94t159 33zM1577 387q-47 0 -78 -29t-31 -82q0 -55 33 -82q34 -28 70 -28q41 0 77 28q33 26 33 87q0 46 -25 75
q-26 31 -79 31zM702 1247h-370l-23 -143q45 36 89 47q47 12 94 12q56 0 107 -19q53 -20 93 -57q43 -40 66 -90q24 -53 24 -118q0 -73 -24 -133t-74 -104q-53 -46 -121 -69q-72 -24 -166 -24q-149 0 -238 63t-122 152l217 70q19 -54 58 -76q41 -23 87 -23q70 0 103 38
q33 37 33 85q0 53 -34 83q-35 30 -96 30q-47 0 -78 -18q-32 -18 -48 -40l-211 31l71 490h590z" />
    <glyph glyph-name="oneeighth" unicode="&#x215b;" horiz-adv-x="2076" 
d="M760 -25h-248l887 1483h248zM1663 -25q-107 0 -180 24q-77 25 -120 60q-46 37 -67 82q-20 43 -20 88q0 72 39 129q40 58 123 88q-67 45 -90 97t-23 104q0 47 21 91q22 45 62 78t105 53t150 20q89 0 153 -21q66 -21 106 -53q42 -33 63 -74q20 -39 20 -84q0 -41 -26 -95
q-26 -53 -97 -87q46 -20 83 -42q33 -20 53 -48q21 -29 28 -58q8 -34 8 -73q0 -48 -18 -97q-18 -48 -64 -90q-45 -41 -121 -66q-78 -26 -188 -26zM1710 537q35 29 47 54t12 48q0 37 -27 56q-28 20 -75 20q-44 0 -74 -19q-28 -18 -28 -57q0 -32 22 -53q21 -20 80 -37z
M1665 168q78 0 108 27q29 26 29 59q0 42 -33 62q-34 20 -108 42l-72 19q-63 -52 -63 -117q0 -47 39 -70q38 -22 100 -22zM127 768h213v340h-221v164h14q71 0 117 12q47 12 76 35t44 51q14 27 19 64h193v-666h168v-195h-623v195z" />
    <glyph glyph-name="threeeighths" unicode="&#x215c;" horiz-adv-x="1994" 
d="M678 -25h-248l887 1483h248zM1581 -25q-107 0 -180 24q-77 25 -120 60q-46 37 -67 82q-20 43 -20 88q0 72 39 129q40 58 123 88q-67 45 -90 97t-23 104q0 47 21 91q22 45 62 78q39 32 106 53q65 20 149 20q89 0 153 -21q66 -21 106 -53q42 -33 63 -74q20 -39 20 -84
q0 -41 -26 -95q-26 -53 -97 -87q46 -20 83 -42q33 -20 53 -48q21 -29 28 -58q8 -34 8 -73q0 -48 -18 -97q-18 -48 -64 -90q-45 -41 -121 -66q-78 -26 -188 -26zM1628 537q35 29 47 54q13 28 13 48q0 36 -28 56t-75 20q-44 0 -74 -19q-28 -18 -28 -57q0 -32 22 -53
q21 -20 80 -37zM1583 168q78 0 108 27q29 26 29 59q0 43 -32 62q-33 20 -109 42l-72 19q-63 -52 -63 -117q0 -47 39 -70q38 -22 100 -22zM420 1458q163 0 247 -68q85 -69 85 -167q0 -77 -45 -124t-117 -69q38 -6 73 -21q29 -13 60 -40q26 -23 42 -60q15 -35 15 -80
q0 -130 -99 -205t-269 -75q-146 0 -244 64t-127 190l227 53q16 -56 50 -84q37 -31 96 -31q50 0 83 25q31 24 31 74q0 47 -33 70q-35 24 -89 24h-91v176h72q21 0 42 3q20 3 38 11q15 7 28 25q11 15 11 43q0 40 -29 58q-28 18 -65 18q-42 0 -76 -20q-32 -19 -49 -72l-232 36
q27 109 123 178q95 68 242 68z" />
    <glyph glyph-name="fiveeighths" unicode="&#x215d;" horiz-adv-x="1994" 
d="M678 -25h-248l887 1483h248zM1581 -25q-107 0 -180 24q-77 25 -120 60q-46 37 -67 82q-20 43 -20 88q0 72 39 129q40 58 123 88q-67 45 -90 97t-23 104q0 47 21 91q22 45 62 78q39 32 106 53q65 20 149 20q89 0 153 -21q66 -21 106 -53q42 -33 63 -74q20 -39 20 -84
q0 -41 -26 -95q-26 -53 -97 -87q46 -20 83 -42q33 -20 53 -48q21 -29 28 -58q8 -34 8 -73q0 -48 -18 -97q-18 -48 -64 -90q-45 -41 -121 -66q-78 -26 -188 -26zM1628 537q35 29 47 54q13 28 13 48q0 36 -28 56t-75 20q-44 0 -74 -19q-28 -18 -28 -57q0 -32 22 -53
q21 -20 80 -37zM1583 168q78 0 108 27q29 26 29 59q0 43 -32 62q-33 20 -109 42l-72 19q-63 -52 -63 -117q0 -47 39 -70q38 -22 100 -22zM702 1247h-370l-23 -143q45 36 89 47q47 12 94 12q56 0 107 -19q53 -20 93 -57q43 -40 66 -90q24 -53 24 -118q0 -73 -24 -133
t-74 -104q-53 -46 -121 -69q-72 -24 -166 -24q-149 0 -238 63t-122 152l217 70q19 -54 58 -76q41 -23 87 -23q70 0 103 38q33 37 33 85q0 53 -34 83q-35 30 -96 30q-47 0 -78 -18q-32 -18 -48 -40l-211 31l71 490h590z" />
    <glyph glyph-name="seveneighths" unicode="&#x215e;" horiz-adv-x="1892" 
d="M575 -25h-247l886 1483h248zM1479 -25q-107 0 -181 24q-75 24 -119 60q-46 37 -67 82q-20 43 -20 88q0 73 38 129q40 58 123 88q-67 45 -90 97q-22 50 -22 104q0 50 20 91q21 44 63 78q40 33 105 53t150 20q87 0 152 -21q68 -22 107 -53q40 -31 62 -74q21 -41 21 -84
q0 -41 -26 -95q-26 -53 -97 -87q46 -20 83 -42q33 -20 53 -48q21 -29 28 -58q8 -34 8 -73q0 -45 -19 -97q-18 -49 -63 -90t-121 -66q-78 -26 -188 -26zM1526 537q35 29 47 54t12 48q0 37 -27 56q-28 20 -75 20q-44 0 -74 -19q-29 -18 -29 -57q0 -32 23 -53q21 -20 80 -37z
M1481 168q77 0 107 27t30 59q0 42 -33 62q-34 20 -108 42l-72 19q-64 -53 -64 -117q0 -47 39 -70q38 -22 101 -22zM758 1237q-68 -79 -114 -145t-84 -147q-34 -73 -58 -166q-23 -91 -35 -206h-260q16 139 48 241q31 99 74 178q42 76 92 134q54 62 105 109h-256v-98h-209v297
h697v-197z" />
    <glyph glyph-name="uni215F" unicode="&#x215f;" horiz-adv-x="1359" 
d="M760 -25h-248l887 1483h248zM127 768h213v340h-221v164h14q71 0 117 12q47 12 76 35t44 51q14 27 19 64h193v-666h168v-195h-623v195z" />
    <glyph glyph-name="uni2189" unicode="&#x2189;" horiz-adv-x="1974" 
d="M657 -25h-247l886 1483h248zM1575 885q161 0 247 -69q85 -69 85 -167q0 -78 -45 -124q-44 -45 -117 -68q35 -5 73 -22q29 -13 60 -40q27 -24 42 -59t15 -80q0 -131 -99 -206t-269 -75q-144 0 -244 65q-98 64 -127 189l227 54q16 -54 51 -84q37 -31 95 -31q50 0 83 25
q31 24 31 73q0 48 -33 71t-89 23h-91v177h72q21 0 42 3q20 3 38 11q16 7 28 24q11 15 11 43q0 41 -29 59q-27 17 -65 17q-44 0 -76 -19t-49 -73l-232 37q27 108 123 177t242 69zM408 1462q174 0 271 -115t97 -339q0 -231 -97 -344q-98 -115 -271 -115q-172 0 -270 115
q-97 113 -97 344q0 224 96 339t271 115zM408 1270q-73 0 -97 -65t-24 -193q0 -130 24 -200q24 -71 97 -71q69 0 96 71q26 68 26 200q0 131 -26 193q-27 65 -96 65z" />
    <glyph glyph-name="arrowleft" unicode="&#x2190;" horiz-adv-x="1843" 
d="M1057 1200l-383 -393h979v-266h-979l383 -394l-219 -188l-645 715l645 715z" />
    <glyph glyph-name="arrowup" unicode="&#x2191;" horiz-adv-x="1843" 
d="M1640 793l-184 -207l-383 362v-948h-303v948l-383 -362l-184 207l719 645z" />
    <glyph glyph-name="arrowright" unicode="&#x2192;" horiz-adv-x="1843" 
d="M1653 674l-645 -715l-220 188l383 394h-978v266h978l-383 393l220 189z" />
    <glyph glyph-name="arrowdown" unicode="&#x2193;" horiz-adv-x="1843" 
d="M1073 391l383 363l184 -207l-718 -647l-719 647l184 207l383 -363v946h303v-946z" />
    <glyph glyph-name="arrowboth" unicode="&#x2194;" horiz-adv-x="2621" 
d="M2435 674l-645 -715l-221 188l383 394h-1284l383 -394l-220 -188l-645 715l645 715l220 -189l-383 -393h1284l-383 393l221 189z" />
    <glyph glyph-name="arrowupdn" unicode="&#x2195;" horiz-adv-x="1843" 
d="M1640 1159l-184 -198l-385 364v-1253l385 364l184 -198l-718 -648l-719 648l184 198l385 -364v1253l-385 -364l-184 198l719 647z" />
    <glyph glyph-name="uni2196" unicode="&#x2196;" horiz-adv-x="1869" 
d="M1384 1001l-557 3l705 -711l-205 -199l-694 701l-2 -547l-293 12l51 963l979 53z" />
    <glyph glyph-name="uni2197" unicode="&#x2197;" horiz-adv-x="1869" 
d="M1481 1223l51 -963l-293 -12l-2 547l-694 -701l-205 199l704 711l-557 -3l17 275z" />
    <glyph glyph-name="uni2198" unicode="&#x2198;" horiz-adv-x="1869" 
d="M1237 508l2 545l293 -13l-51 -962l-979 -53l-17 274l557 -2l-704 711l205 198z" />
    <glyph glyph-name="uni2199" unicode="&#x2199;" horiz-adv-x="1869" 
d="M1532 1008l-705 -711l557 2l-16 -274l-979 53l-51 962l293 13l2 -545l694 698z" />
    <glyph glyph-name="partialdiff" unicode="&#x2202;" horiz-adv-x="1325" 
d="M260 1468q484 0 736 -203q253 -204 253 -616q0 -183 -46 -312q-47 -131 -127 -213q-83 -85 -191 -121q-112 -38 -242 -38t-236 34q-108 35 -184 97q-75 61 -118 156q-42 92 -42 209q0 124 40 214q39 88 107 150q65 59 151 89q85 30 178 30q118 0 205 -37q91 -39 145 -110
q-10 117 -55 194q-46 79 -124 125q-81 47 -192 68q-107 20 -258 20v264zM645 676q-113 0 -167 -63t-54 -156q0 -109 62 -167q64 -59 167 -59q101 0 158 59q57 58 57 163q0 104 -62 163q-63 60 -161 60z" />
    <glyph glyph-name="emptyset" unicode="&#x2205;" horiz-adv-x="1843" 
d="M1421 1278q119 -107 184 -249q66 -144 66 -314q0 -159 -58 -294q-59 -136 -160 -238q-101 -101 -238 -158q-139 -58 -291 -58q-109 0 -211 29q-99 28 -187 82l-84 -113h-192l153 207q-108 102 -170 242q-61 138 -61 301q0 161 59 295q60 137 161 238t239 160
q135 58 293 58q104 0 195 -25q89 -25 177 -73l74 100h193zM430 715q0 -98 35 -185q35 -86 94 -151l584 784q-103 54 -219 54q-106 0 -195 -40q-92 -41 -157 -108q-67 -68 -104 -159q-38 -93 -38 -195zM924 217q102 0 192 39q93 40 157 106q67 68 104 159q38 93 38 194
q0 107 -39 198q-40 93 -108 160l-590 -790q55 -32 116 -49q60 -17 130 -17z" />
    <glyph glyph-name="uni2206" unicode="&#x2206;" horiz-adv-x="1347" 
d="M1358 0h-1368l456 1434h453zM903 281l-235 886l-238 -886h473z" />
    <glyph glyph-name="product" unicode="&#x220f;" horiz-adv-x="1325" 
d="M1266 1167h-142v-1167h-344v1167h-233v-1167h-344v1167h-142v267h1205v-267z" />
    <glyph glyph-name="summation" unicode="&#x2211;" 
d="M1135 1167h-637l336 -323v-215l-340 -357h641v-272h-1043v250l463 485l-463 447v252h1043v-267z" />
    <glyph glyph-name="minus" unicode="&#x2212;" 
d="M1069 455h-909v282h909v-282z" />
    <glyph glyph-name="uni2215" unicode="&#x2215;" 
d="M295 -25h-248l887 1483h248z" />
    <glyph glyph-name="uni2219" unicode="&#x2219;" 
d="M612 868q56 0 106 -21q49 -21 87 -59q37 -36 59 -86q23 -51 23 -104q0 -51 -23 -102q-22 -50 -59 -86q-38 -38 -87 -59q-50 -21 -106 -21q-54 0 -104 21q-47 20 -86 59q-37 37 -58 86q-22 52 -22 102q0 52 22 104q21 49 58 86q39 39 86 59q50 21 104 21z" />
    <glyph glyph-name="radical" unicode="&#x221a;" 
d="M1511 1509h-393l-409 -1509h-373l-381 1069h340l207 -727l372 1434h637v-267z" />
    <glyph glyph-name="infinity" unicode="&#x221e;" horiz-adv-x="1882" 
d="M1343 995q112 0 196 -34q82 -33 143 -97q58 -61 88 -144q30 -82 30 -177t-33 -178t-93 -143q-61 -61 -147 -95q-88 -35 -196 -35q-136 0 -228 62q-91 62 -159 174q-73 -105 -166 -171q-92 -65 -239 -65q-109 0 -196 35q-84 34 -143 96q-58 61 -88 144t-30 178t33 177
q33 83 93 143q62 62 147 96q86 34 196 34q137 0 228 -61t159 -176q44 61 77 97q45 48 88 75q49 31 107 48q57 17 133 17zM584 733q-67 0 -114 -46q-48 -47 -48 -142q0 -96 44 -143q43 -46 109 -46q43 0 75 18q35 20 57 46q27 32 43 67q12 26 34 80q-30 67 -75 116
q-45 50 -125 50zM1307 731q-45 0 -75 -17q-34 -19 -56 -47q-25 -31 -44 -68q-16 -32 -34 -79q29 -65 76 -116q45 -50 124 -50q67 0 114 46q48 46 48 143q0 95 -44 142q-43 46 -109 46z" />
    <glyph glyph-name="integral" unicode="&#x222b;" horiz-adv-x="614" 
d="M553 1745q68 0 124 -10q54 -10 99 -23v-262q-18 6 -77 20q-46 11 -91 11q-56 0 -94 -23q-37 -22 -37 -82v-1470q0 -154 -103 -248t-304 -94q-78 0 -135 10t-101 23v260q40 -12 78 -20q44 -9 90 -9q53 0 92 24t39 93v1472q0 148 108 238t312 90z" />
    <glyph glyph-name="congruent" unicode="&#x2245;" 
d="M1075 627h-909v282h909v-282zM1075 162h-909v282h909v-282zM440 1446q68 0 120 -19q53 -19 91 -39q15 -8 40.5 -21.5t35.5 -18.5q36 -19 72 -19q62 0 102 37q44 40 70 82l172 -150q-22 -43 -60 -89q-34 -42 -79 -73q-46 -32 -99 -52q-51 -19 -117 -19q-65 0 -116 18
q-50 18 -92 41q-45 25 -77 41q-38 19 -73 19q-62 0 -102 -37q-43 -40 -70 -84l-172 151q26 50 58 88q33 41 78 73q42 30 99 51q55 20 119 20z" />
    <glyph glyph-name="approxequal" unicode="&#x2248;" 
d="M440 1036q71 0 120 -18q46 -17 91 -40q15 -8 40.5 -21.5t35.5 -18.5q35 -18 72 -18q63 0 102 36q44 40 70 82l172 -149q-22 -43 -60 -89q-36 -44 -79 -74t-99 -51q-54 -20 -117 -20q-62 0 -116 19q-50 18 -92 41q-45 25 -77 41q-36 18 -73 18q-62 0 -102 -37
q-43 -40 -70 -84l-172 152q25 47 58 87q36 43 78 74q42 30 99 51q53 19 119 19zM440 616q71 0 120 -18q46 -17 91 -40q15 -8 40.5 -21.5t35.5 -18.5q35 -18 72 -18q62 0 102 37q45 42 70 81l172 -149q-22 -43 -60 -89q-36 -44 -79 -74t-99 -51q-51 -19 -117 -19
q-65 0 -116 18q-50 18 -92 41q-45 25 -77 41q-36 18 -73 18q-62 0 -102 -37q-43 -40 -70 -84l-172 152q25 47 58 87q36 43 78 74q42 30 99 51q53 19 119 19z" />
    <glyph glyph-name="uni2259" unicode="&#x2259;" 
d="M1004 1096h-283l-113 149l-114 -149h-283l264 338h273zM1069 711h-909v282h909v-282zM1069 246h-909v282h909v-282z" />
    <glyph glyph-name="notequal" unicode="&#x2260;" 
d="M776 711l-110 -183h403v-282h-571l-131 -217h-205l131 217h-133v282h303l108 183h-411v282h581l123 203h203l-121 -203h123v-282h-293z" />
    <glyph glyph-name="lessequal" unicode="&#x2264;" 
d="M1069 975l-602 -148l602 -149v-340l-909 305v367l909 305v-340zM1069 0h-909v283h909v-283z" />
    <glyph glyph-name="greaterequal" unicode="&#x2265;" 
d="M1069 1010v-367l-909 -305v340l602 149l-602 148v340zM1069 0h-909v283h909v-283z" />
    <glyph glyph-name="dotmath" unicode="&#x22c5;" 
d="M612 836q41 0 83 -17q40 -17 70 -46q29 -29 47 -68q17 -37 17 -82t-17 -82q-19 -42 -47 -68q-29 -28 -70 -46q-38 -17 -83 -17t-82 17q-38 18 -68 46q-28 26 -47 68q-18 39 -18 82t18 82t47 68q30 30 68 46q40 17 82 17z" />
    <glyph glyph-name="uni2460" unicode="&#x2460;" horiz-adv-x="1843" 
d="M652 502h194v310h-201v148h13q56 0 106 12q44 11 69 31q27 22 40 47q14 26 17 58h175v-606h153v-176h-566v176zM924 1470q169 0 309 -58t243 -161q100 -100 158 -239t58 -297t-58 -297t-158 -239q-102 -102 -243 -159t-309 -57q-169 0 -310 57t-243 159
q-103 103 -160 239t-57 297t57 297t160 239t243 161t310 58zM924 1315q-137 0 -245 -49q-111 -50 -186 -131q-77 -83 -119 -192t-42 -228q0 -121 42 -229q41 -104 119 -189q76 -82 186 -130t245 -48q134 0 244 48t186 130t116 189q41 109 41 229q0 117 -41 228t-116 192
t-186 131q-108 49 -244 49z" />
    <glyph glyph-name="uni2461" unicode="&#x2461;" horiz-adv-x="1843" 
d="M925 1134q68 0 128 -19q55 -17 95 -51q39 -33 60 -77q21 -43 21 -94q0 -58 -19 -113q-17 -50 -60 -99q-41 -47 -103 -90q-68 -47 -148 -89h339v-176h-631v171q131 90 186 131q71 52 119 99q45 43 63 80q19 38 19 77q0 34 -19 56q-17 20 -57 20q-39 0 -63 -28
q-23 -27 -23 -100h-225q0 66 19 120q19 55 59 96q39 40 99 63q61 23 141 23zM924 1470q169 0 309 -58t243 -161q100 -100 158 -239t58 -297t-58 -297t-158 -239q-102 -102 -243 -159t-309 -57q-169 0 -310 57t-243 159q-103 103 -160 239t-57 297t57 297t160 239t243 161
t310 58zM924 1315q-137 0 -245 -49q-111 -50 -186 -131q-77 -83 -119 -192t-42 -228q0 -121 42 -229q41 -104 119 -189q76 -82 186 -130t245 -48q134 0 244 48t186 130t116 189q41 109 41 229q0 117 -41 228t-116 192t-186 131q-108 49 -244 49z" />
    <glyph glyph-name="uni2462" unicode="&#x2462;" horiz-adv-x="1843" 
d="M933 1130q146 0 224 -63q77 -62 77 -151q0 -70 -41 -113q-39 -40 -106 -62q34 -6 66 -20t55 -36q25 -23 38 -54q14 -33 14 -73q0 -120 -90 -187q-91 -68 -245 -68q-130 0 -221 59t-116 172l207 49q14 -50 45 -77q32 -28 87 -28q46 0 75 23t29 67q0 42 -31 64
q-30 21 -80 21h-82v160h65q19 0 38 3q20 3 34 10t25 23t11 39q0 36 -26 53q-25 16 -60 16q-39 0 -69 -18q-29 -17 -44 -66l-211 33q23 97 112 161q87 63 220 63zM924 1470q169 0 309 -58t243 -161q100 -100 158 -239t58 -297t-58 -297t-158 -239q-102 -102 -243 -159
t-309 -57q-169 0 -310 57t-243 159q-103 103 -160 239t-57 297t57 297t160 239t243 161t310 58zM924 1315q-137 0 -245 -49q-111 -50 -186 -131q-77 -83 -119 -192t-42 -228q0 -121 42 -229q41 -104 119 -189q76 -82 186 -130t245 -48q134 0 244 48t186 130t116 189
q41 109 41 229q0 117 -41 228t-116 192t-186 131q-108 49 -244 49z" />
    <glyph glyph-name="uni2463" unicode="&#x2463;" horiz-adv-x="1843" 
d="M1150 623h97v-176h-97v-121h-214v121h-385v182l316 479h283v-485zM761 623h175v269zM924 1470q169 0 309 -58t243 -161q100 -100 158 -239t58 -297t-58 -297t-158 -239q-102 -102 -243 -159t-309 -57q-169 0 -310 57t-243 159q-103 103 -160 239t-57 297t57 297t160 239
t243 161t310 58zM924 1315q-137 0 -245 -49q-111 -50 -186 -131q-77 -83 -119 -192t-42 -228q0 -121 42 -229q41 -104 119 -189q76 -82 186 -130t245 -48q134 0 244 48t186 130t116 189q41 109 41 229q0 117 -41 228t-116 192t-186 131q-108 49 -244 49z" />
    <glyph glyph-name="uni2464" unicode="&#x2464;" horiz-adv-x="1843" 
d="M1185 938h-337l-20 -130q41 33 81 43q44 11 85 11q49 0 97 -18q47 -18 85 -51q37 -32 60 -82q22 -47 22 -108q0 -66 -22 -120q-22 -55 -67 -95q-43 -39 -110 -62q-66 -23 -151 -23q-135 0 -217 58q-80 56 -111 138l198 63q16 -48 53 -69q34 -20 79 -20q63 0 93 34
q30 35 30 77q0 48 -31 76q-30 27 -87 27q-43 0 -71 -16q-31 -18 -44 -36l-192 28l65 445h537zM924 1470q169 0 309 -58t243 -161q100 -100 158 -239t58 -297t-58 -297t-158 -239q-102 -102 -243 -159t-309 -57q-169 0 -310 57t-243 159q-103 103 -160 239t-57 297t57 297
t160 239t243 161t310 58zM924 1315q-137 0 -245 -49q-111 -50 -186 -131q-77 -83 -119 -192t-42 -228q0 -121 42 -229q41 -104 119 -189q76 -82 186 -130t245 -48q134 0 244 48t186 130t116 189q41 109 41 229q0 117 -41 228t-116 192t-186 131q-108 49 -244 49z" />
    <glyph glyph-name="uni2465" unicode="&#x2465;" horiz-adv-x="1843" 
d="M933 1134q106 0 181 -45q74 -45 112 -129l-187 -61q-10 29 -39 47q-28 18 -65 18q-65 0 -102 -48t-51 -160q17 27 44 46q31 22 52 30q32 13 53 15q34 4 49 4q50 0 99 -17q46 -16 85 -50q37 -32 60 -82q22 -47 22 -112q0 -71 -25 -122q-26 -53 -69 -89q-45 -37 -103 -56
q-62 -20 -127 -20q-66 0 -131 20q-61 19 -110 65q-47 44 -76 123t-29 194q0 97 26 178q26 80 73 135q48 56 113 86q64 30 145 30zM922 677q-42 0 -71 -26q-28 -25 -28 -74t30 -75q31 -26 64 -26q38 0 69 26t31 79q0 42 -23 69t-72 27zM924 1470q169 0 309 -58t243 -161
q100 -100 158 -239t58 -297t-58 -297t-158 -239q-102 -102 -243 -159t-309 -57q-169 0 -310 57t-243 159q-103 103 -160 239t-57 297t57 297t160 239t243 161t310 58zM924 1315q-137 0 -245 -49q-111 -50 -186 -131q-77 -83 -119 -192t-42 -228q0 -121 42 -229
q41 -104 119 -189q76 -82 186 -130t245 -48q134 0 244 48t186 130t116 189q41 109 41 229q0 117 -41 228t-116 192t-186 131q-108 49 -244 49z" />
    <glyph glyph-name="uni2466" unicode="&#x2466;" horiz-adv-x="1843" 
d="M1246 929q-58 -66 -103 -132q-46 -66 -77 -133q-31 -66 -53 -151q-20 -78 -31 -187h-237q15 124 44 218q27 87 67 162q34 63 84 122q49 57 95 99h-232v-89h-190v270h633v-179zM924 1470q169 0 309 -58t243 -161q100 -100 158 -239t58 -297t-58 -297t-158 -239
q-102 -102 -243 -159t-309 -57q-169 0 -310 57t-243 159q-103 103 -160 239t-57 297t57 297t160 239t243 161t310 58zM924 1315q-137 0 -245 -49q-111 -50 -186 -131q-77 -83 -119 -192t-42 -228q0 -121 42 -229q41 -104 119 -189q76 -82 186 -130t245 -48q134 0 244 48
t186 130t116 189q41 109 41 229q0 117 -41 228t-116 192t-186 131q-108 49 -244 49z" />
    <glyph glyph-name="uni2467" unicode="&#x2467;" horiz-adv-x="1843" 
d="M920 303q-93 0 -164 22q-65 20 -109 55q-43 34 -61 74q-18 41 -18 80q0 66 35 117t112 80q-60 40 -82 88q-21 47 -21 95q0 40 19 83q17 38 57 70q39 31 96 49t136 18q76 0 138 -19q60 -19 97 -48q40 -32 57 -67q18 -38 18 -77q0 -40 -23 -86q-24 -48 -88 -79
q39 -16 75 -39q33 -21 49 -43q17 -23 25 -53q7 -27 7 -67q0 -42 -17 -88t-57 -82q-38 -34 -110 -59q-69 -24 -171 -24zM962 813q33 26 43 50q11 25 11 43q0 34 -25 52q-24 17 -68 17q-42 0 -67 -16q-26 -17 -26 -53q0 -30 21 -48q22 -19 72 -33zM921 478q71 0 98 24t27 54
q0 39 -30 57q-28 17 -98 38l-66 17q-57 -48 -57 -106q0 -43 35 -63q36 -21 91 -21zM924 1470q169 0 309 -58t243 -161q100 -100 158 -239t58 -297t-58 -297t-158 -239q-102 -102 -243 -159t-309 -57q-169 0 -310 57t-243 159q-103 103 -160 239t-57 297t57 297t160 239
t243 161t310 58zM924 1315q-137 0 -245 -49q-111 -50 -186 -131q-77 -83 -119 -192t-42 -228q0 -121 42 -229q41 -104 119 -189q76 -82 186 -130t245 -48q134 0 244 48t186 130t116 189q41 109 41 229q0 117 -41 228t-116 192t-186 131q-108 49 -244 49z" />
    <glyph glyph-name="uni2468" unicode="&#x2468;" horiz-adv-x="1843" 
d="M897 301q-110 0 -187 46q-75 45 -113 116l187 75q30 -71 117 -71q71 0 107 52q37 53 44 164q-17 -27 -44 -46t-51 -29q-27 -11 -53 -14q-36 -4 -50 -4q-50 0 -99 17q-46 16 -85 50q-37 32 -60 82q-22 47 -22 112q0 69 25 120q26 54 70 89q48 38 104 55q63 19 127 19
q66 0 131 -20q61 -19 110 -65q46 -43 75 -123q28 -77 28 -193q0 -199 -89 -315q-90 -117 -272 -117zM912 763q43 0 72 26t29 75q0 50 -29 74t-64 24q-40 0 -71 -25q-32 -26 -32 -77q0 -42 23 -69q24 -28 72 -28zM924 1470q169 0 309 -58t243 -161q100 -100 158 -239t58 -297
t-58 -297t-158 -239q-102 -102 -243 -159t-309 -57q-169 0 -310 57t-243 159q-103 103 -160 239t-57 297t57 297t160 239t243 161t310 58zM924 1315q-137 0 -245 -49q-111 -50 -186 -131q-77 -83 -119 -192t-42 -228q0 -121 42 -229q41 -104 119 -189q76 -82 186 -130
t245 -48q134 0 244 48t186 130t116 189q41 109 41 229q0 117 -41 228t-116 192t-186 131q-108 49 -244 49z" />
    <glyph glyph-name="uni24EA" unicode="&#x24ea;" horiz-adv-x="1843" 
d="M921 1134q158 0 247 -106q88 -104 88 -308q0 -208 -88 -312q-88 -105 -247 -105q-155 0 -244 105q-89 106 -89 312q0 202 88 308t245 106zM921 959q-64 0 -87 -59q-22 -57 -22 -176q0 -118 22 -181q23 -65 87 -65t88 65t24 181q0 118 -24 176q-24 59 -88 59zM924 1470
q169 0 309 -58t243 -161q100 -100 158 -239t58 -297t-58 -297t-158 -239q-102 -102 -243 -159t-309 -57q-169 0 -310 57t-243 159q-103 103 -160 239t-57 297t57 297t160 239t243 161t310 58zM924 1315q-137 0 -245 -49q-111 -50 -186 -131q-77 -83 -119 -192t-42 -228
q0 -121 42 -229q41 -104 119 -189q76 -82 186 -130t245 -48q134 0 244 48t186 130t116 189q41 109 41 229q0 117 -41 228t-116 192t-186 131q-108 49 -244 49z" />
    <glyph glyph-name="uni24FF" unicode="&#x24ff;" horiz-adv-x="1843" 
d="M924 -37q-169 0 -310 57t-243 159q-103 103 -160 239t-57 297t57 297t160 239t243 161t310 58q169 0 309 -58t243 -161q100 -100 158 -239t58 -297t-58 -297t-158 -239q-102 -102 -243 -159t-309 -57zM922 303q158 0 246 105q89 106 89 313q0 203 -89 309
q-88 105 -246 105t-246 -105q-88 -104 -88 -309q0 -207 89 -313q89 -105 245 -105zM922 479q-65 0 -88 65q-23 66 -23 181t23 176q22 60 88 60q63 0 87 -60q23 -57 23 -176t-23 -181q-24 -65 -87 -65z" />
    <glyph glyph-name="filledbox" unicode="&#x25a0;" 
d="M1001 930v-776h-776v776h776z" />
    <glyph glyph-name="H22073" unicode="&#x25a1;" 
d="M1001 930v-776h-776v776h776zM457 385h313v313h-313v-313z" />
    <glyph glyph-name="uni25B3" unicode="&#x25b3;" horiz-adv-x="1843" 
d="M926 1452l712 -1452h-1433zM1200 252l-274 596l-283 -596h557z" />
    <glyph glyph-name="uni25B4" unicode="&#x25b4;" 
d="M1001 154h-776l387 776z" />
    <glyph glyph-name="uni25B8" unicode="&#x25b8;" 
d="M225 154v776l776 -389z" />
    <glyph glyph-name="uni25BD" unicode="&#x25bd;" horiz-adv-x="1843" 
d="M926 -18l712 1452h-1433zM1200 1182l-274 -596l-283 596h557z" />
    <glyph glyph-name="uni25BE" unicode="&#x25be;" 
d="M225 930h776l-389 -776z" />
    <glyph glyph-name="uni25C2" unicode="&#x25c2;" 
d="M1001 930v-776l-776 387z" />
    <glyph glyph-name="uni25C6" unicode="&#x25c6;" 
d="M1147 545l-533 -570l-532 570l532 559z" />
    <glyph glyph-name="uni25C7" unicode="&#x25c7;" 
d="M1147 545l-533 -570l-532 570l532 559zM395 547l219 -246l220 246l-220 229z" />
    <glyph glyph-name="lozenge" unicode="&#x25ca;" 
d="M1194 739l-387 -739h-387l-385 735l387 699h383zM373 737l243 -512l238 510l-242 479z" />
    <glyph glyph-name="circle" unicode="&#x25cb;" 
d="M616 55q-102 0 -192 39t-158 107q-67 67 -106 157t-39 193q0 102 39 192q40 93 106 157q69 67 158 106q88 38 192 38q105 0 193 -38q90 -39 157 -106q65 -65 105 -157q39 -90 39 -192q0 -103 -39 -193q-39 -89 -105 -157t-157 -107q-90 -39 -193 -39zM616 311q43 0 82 18
q41 19 68 50q28 32 46 76q17 41 17 96q0 54 -17 95q-19 46 -46 76t-68 49q-37 17 -82 17q-90 0 -153 -66q-64 -67 -64 -171q0 -53 18 -96q18 -45 47 -76q29 -32 68 -50t84 -18z" />
    <glyph glyph-name="H18533" unicode="&#x25cf;" 
d="M616 55q-102 0 -192 39t-158 107q-67 67 -106 157t-39 193q0 102 39 192q40 93 106 157q69 67 158 106q88 38 192 38q105 0 193 -38q90 -39 157 -106q65 -65 105 -157q39 -90 39 -192q0 -103 -39 -193q-39 -89 -105 -157t-157 -107q-90 -39 -193 -39z" />
    <glyph glyph-name="uni2605" unicode="&#x2605;" horiz-adv-x="1843" 
d="M1413 -20l-495 362l-496 -362l164 573l-412 399l545 -59l192 567l197 -569l559 59l-416 -403z" />
    <glyph glyph-name="uni2610" unicode="&#x2610;" horiz-adv-x="1843" 
d="M205 1434h1433v-1434h-1433v1434zM1366 272v889h-889v-889h889z" />
    <glyph glyph-name="uni2611" unicode="&#x2611;" horiz-adv-x="1843" 
d="M205 1434h1433v-1434h-1433v1434zM1366 272v889h-889v-889h889zM1289 1083l-346 -716h-205l-168 356h197l76 -176l257 536h189z" />
    <glyph glyph-name="uni2612" unicode="&#x2612;" horiz-adv-x="1843" 
d="M205 1434h1433v-1434h-1433v1434zM1366 272v889h-889v-889h889zM1050 697l163 -324h-228l-77 153l-144 -207h-229l275 407l-162 328h222l87 -171l153 216h229z" />
    <glyph glyph-name="uni2620" unicode="&#x2620;" 
d="M614 264q-33 0 -75 5q-32 4 -72 16l-68 133q-36 22 -48 35q-13 14 -19 43v86q-42 48 -53 104q-11 58 -11 105q0 67 27 124q28 60 73 100q45 41 109 65q63 24 137 24q75 0 138 -24q64 -24 109 -65q45 -40 73 -100q27 -57 27 -124q0 -47 -11 -105q-11 -56 -53 -104v-86
q-6 -29 -19 -43q-10 -11 -49 -35l-67 -133q-40 -12 -72 -16q-42 -5 -76 -5zM166 530q-34 -22 -56 -30t-44 -8q-21 0 -38 13q-18 13 -18 42q0 21 16 45q14 21 58 26l6 15q-11 11 -18 25q-9 18 -9 34q0 23 17 42q16 18 49 18q43 0 61 -33q19 -34 23 -86l70 -41v-119zM946 592
l70 41q5 54 22 86q18 33 62 33q32 0 49 -18q16 -17 16 -42q0 -18 -8 -34q-7 -14 -18 -25l6 -15q44 -5 58 -26q16 -24 16 -45q0 -29 -18 -42q-17 -13 -38 -13q-22 0 -44 8t-56 30l-117 -57v119zM449 584q35 0 58 20t23 55q0 36 -23 58t-58 22q-34 0 -57 -22t-23 -58
q0 -35 23 -55t57 -20zM780 584q34 0 57 20t23 55q0 36 -23 58t-57 22q-35 0 -58 -22q-24 -23 -24 -58q0 -34 24 -55q23 -20 58 -20zM543 422q22 0 37 7t34 7q20 0 35 -7t37 -7v59q-12 34 -30 62q-20 30 -42 30t-42 -30q-16 -24 -29 -62v-59zM184 66q-33 0 -49 17t-16 42
q0 18 8 34q7 14 18 25l-6 15q-44 5 -58 26q-15 23 -15 45q0 29 17 42q19 14 38 14t44 -9q22 -8 56 -30l146 78l51 -97l-150 -84q-5 -54 -22 -86t-62 -32zM1044 66q-44 0 -61 32q-19 34 -23 86l-149 84l51 97l146 -78q34 22 56 30q25 9 44 9t38 -14q17 -13 17 -42
q0 -22 -15 -45q-14 -21 -58 -26l-7 -15q13 -13 19 -25q8 -16 8 -34q0 -25 -16 -42t-50 -17z" />
    <glyph glyph-name="smileface" unicode="&#x263a;" 
d="M616 -35q-123 0 -228 45t-183 123q-79 79 -122 183q-44 106 -44 229q0 119 44 225q42 102 122 182q78 78 183 123t228 45q124 0 229 -45q106 -45 182 -123q79 -80 121 -182q44 -106 44 -225q0 -123 -44 -229q-42 -102 -121 -184q-76 -79 -182 -123t-229 -44zM618 137
q74 0 146 28q70 27 121 80q53 55 82 128q30 76 30 172t-30 171q-29 72 -82 127q-51 53 -121 80q-69 27 -146 27q-80 0 -149 -27t-122 -80q-54 -54 -83 -127q-31 -78 -31 -171t31 -172q29 -74 83 -128q53 -53 122 -80q72 -28 149 -28zM446 602q-49 0 -79 30q-31 31 -31 77
q0 40 31 71t79 31t79 -31q30 -30 30 -71q0 -47 -30 -77t-79 -30zM776 602q-50 0 -80 30t-30 77q0 41 30 71q31 31 80 31q48 0 79 -31q30 -30 30 -71q0 -47 -30 -77t-79 -30zM614 209q-69 0 -122 23q-58 25 -97 64q-41 41 -66 92q-26 54 -32 108h129q22 -71 66 -114
q46 -44 122 -44q77 0 123 44q44 43 66 114h129q-6 -54 -32 -108q-25 -51 -66 -92q-39 -39 -97 -64q-53 -23 -123 -23z" />
    <glyph glyph-name="invsmileface" unicode="&#x263b;" 
d="M616 -35q-123 0 -228 45t-183 123q-79 79 -122 183q-44 106 -44 229q0 119 44 225q42 102 122 182q78 78 183 123t228 45q124 0 229 -45q106 -45 182 -123q79 -80 121 -182q44 -106 44 -225q0 -123 -44 -229q-42 -102 -121 -184q-76 -79 -182 -123t-229 -44zM434 602
q49 0 79 30t30 77q0 41 -30 71q-31 31 -79 31q-49 0 -80 -31q-30 -30 -30 -71q0 -47 30 -77t80 -30zM793 602q48 0 78 30t30 77q0 41 -30 71q-31 31 -78 31q-49 0 -80 -31t-31 -71q0 -46 31 -77q30 -30 80 -30zM614 166q70 0 123 23q58 25 97 64q41 41 66 92q26 54 32 108
h-129q-22 -71 -66 -114q-46 -44 -123 -44q-76 0 -122 44q-44 43 -66 114h-129q6 -54 32 -108q25 -51 66 -92q39 -39 97 -64q53 -23 122 -23z" />
    <glyph glyph-name="sun" unicode="&#x263c;" 
d="M700 870q50 -8 93 -34l180 182l123 -123l-183 -182q12 -21 20 -39q8 -19 13 -43h246v-168h-240q-4 -15 -14 -45q-7 -22 -20 -41l178 -178l-123 -121l-170 172q-47 -31 -103 -43v-223h-170v223q-49 11 -100 41l-168 -170l-123 121l176 176q-14 17 -22 41q-9 27 -14 47
h-236v168h242q8 46 34 84l-180 180l123 123l178 -180q18 9 43 19q20 8 47 13v236h170v-236zM614 705q-63 0 -111 -45q-46 -43 -46 -121q0 -79 46 -122q47 -44 111 -44q66 0 113 44t47 122q0 77 -47 121q-48 45 -113 45z" />
    <glyph glyph-name="female" unicode="&#x2640;" 
d="M711 346h188v-172h-188v-174h-176v174h-193v172h193v100q-58 12 -110 43q-47 28 -87 75q-34 40 -57 100q-21 55 -21 116q0 72 27 135q28 66 74 110q47 45 113 73q62 26 140 26q77 0 139 -26q65 -27 112 -73q48 -46 75 -110q27 -63 27 -135q0 -60 -20 -114
q-21 -57 -53 -97q-34 -42 -81 -73q-47 -30 -102 -45v-105zM465 780q0 -66 42 -110q42 -43 107 -43q66 0 108 43q42 44 42 110q0 68 -42 112t-108 44q-65 0 -107 -44t-42 -112z" />
    <glyph glyph-name="male" unicode="&#x2642;" 
d="M1159 571l-151 -22l-39 301l-248 -303q30 -41 48 -93q17 -50 17 -110q0 -74 -27 -137q-26 -61 -75 -110q-45 -45 -113 -71q-67 -26 -139 -26q-74 0 -138 27q-68 29 -113 72q-48 46 -75 110q-26 61 -26 135t26 135q27 64 75 110q47 45 113 73q62 26 140 26q89 0 160 -37
l254 303l-326 -22v145l561 19zM432 188q66 0 108 43t42 113q0 68 -42 111t-108 43q-65 0 -107 -43t-42 -111q0 -70 42 -113t107 -43z" />
    <glyph glyph-name="spade" unicode="&#x2660;" 
d="M205 92q91 0 157 10q72 11 117 43q47 34 73 97q26 64 26 168q-44 -72 -100 -102q-55 -29 -134 -29q-91 0 -146 53t-55 147q0 72 33 141t94 142q62 74 149 158q73 70 195 184q150 -140 196 -184q82 -79 148 -158q63 -76 95 -142q32 -67 32 -141q0 -95 -54 -147
q-55 -53 -146 -53q-79 0 -134 29q-56 30 -100 102q0 -104 26 -168q26 -63 73 -97q45 -32 116 -43q66 -10 158 -10l41 -92h-901z" />
    <glyph glyph-name="club" unicode="&#x2663;" 
d="M205 92q91 0 157 10q72 11 117 43q47 34 73 97q26 64 26 168q-43 -72 -97 -104q-53 -32 -125 -32q-100 0 -167 65q-66 65 -66 169q0 101 61 161q62 60 158 60q48 0 72 -6q22 -6 65 -23q-43 37 -76 81q-34 46 -34 122q0 98 67 158q66 59 178 59q113 0 179 -59
q67 -60 67 -158q0 -75 -35 -122t-75 -81q43 17 65 23q24 6 72 6q95 0 157 -60t62 -161q0 -104 -67 -169t-167 -65q-74 0 -127 32q-54 32 -94 104q0 -104 26 -168q26 -63 73 -97q45 -32 116 -43q66 -10 158 -10l41 -92h-901z" />
    <glyph glyph-name="heart" unicode="&#x2665;" 
d="M889 1104q112 0 185 -68t73 -186q0 -91 -37 -171q-38 -81 -106 -166q-69 -85 -168 -177q-203 -188 -222 -205q-48 44 -125.5 116t-95.5 89q-97 90 -168 176q-68 83 -106 166q-37 81 -37 172q0 118 73 186t185 68q107 0 167 -51q59 -51 107 -138q47 86 108 138
q60 51 167 51z" />
    <glyph glyph-name="diamond" unicode="&#x2666;" 
d="M1065 545l-451 -570l-450 570l450 559z" />
    <glyph glyph-name="musicalnote" unicode="&#x266a;" 
d="M840 1053q106 -52 153 -128t47 -165q0 -56 -19 -104q-23 -58 -40 -91l-92 43q4 16 6 35q2 24 2 39q0 71 -23 123q-23 53 -81 86l-39 24v-659q0 -80 -27 -134t-70 -88t-96 -49q-56 -16 -104 -16q-103 0 -164 43q-62 44 -62 121q0 40 20 75q18 32 51 57q31 24 74 36
q42 12 87 12q35 0 73 -6q40 -6 62 -16v805h156z" />
    <glyph glyph-name="musicalnotedbl" unicode="&#x266b;" 
d="M1161 350q0 -63 -20 -113q-22 -54 -60 -91q-39 -38 -93 -60q-55 -23 -122 -23q-108 0 -164 40q-57 40 -57 116q0 37 19 72q18 32 50 57q33 25 73 38t92 13q47 0 75 -7q38 -9 54 -17v510l-424 -107v-518q0 -138 -78 -215q-77 -76 -225 -76q-99 0 -160 43q-62 44 -62 121
q0 40 20 75q19 33 53 57q35 24 76 36q42 12 89 12q35 0 71 -6q35 -6 58 -18v717l735 192v-848z" />
    </font>
</defs>
</svg>
