<?xml version="1.0" standalone="no"?>
<!DOCTYPE svg PUBLIC "-//W3C//DTD SVG 1.1//EN" "http://www.w3.org/Graphics/SVG/1.1/DTD/svg11.dtd" >
<svg xmlns="http://www.w3.org/2000/svg" xmlns:xlink="http://www.w3.org/1999/xlink" version="1.1">
<metadata>
Created by FontForge 20201107 at Sat Sep  7 20:18:41 2024
 By 
2015 published by Monotype GmbH
</metadata>
<defs>
<font id="RealTextLight" horiz-adv-x="1228" >
  <font-face 
    font-family="Real Text"
    font-weight="300"
    font-stretch="normal"
    units-per-em="2048"
    panose-1="2 11 5 4 2 1 1 1 1 2"
    ascent="1638"
    descent="-410"
    x-height="1065"
    cap-height="1434"
    bbox="-837 -537 2834 2281"
    underline-thickness="102"
    underline-position="-255"
    unicode-range="U+0020-FEFF"
  />
<missing-glyph 
d="M1087 -328h-946v1762h946v-1762zM266 1323v-1540h695v1540h-695z" />
    <glyph glyph-name="f_f.liga" unicode="ff" 
d="M1096 1356q-111 0 -153 -49t-42 -142v-100h332v-94h-332v-971h-123v971h-452v-971h-123v971h-154v94h154v100q0 57 17 104q19 51 56 90q36 38 104 63q64 24 157 24q66 0 137 -13q69 -13 172 -61q34 37 92 60q56 22 143 22q60 0 110 -10q53 -10 93 -27v-98q-30 13 -87 26
q-48 11 -101 11zM778 1171q0 62 19 121q-73 34 -139 48q-67 14 -117 14q-117 0 -166 -52t-49 -145v-92h452v106z" />
    <glyph glyph-name="f_f_i.liga" unicode="ffi" horiz-adv-x="1642" 
d="M1473 1065v-1065h-123v971h-453v-971h-123v971h-448v-971h-123v971h-154v94h154v100q0 57 17 104q18 50 58 90q38 38 103 63q63 24 156 24q70 0 139 -14q72 -15 174 -62q41 40 105 62q63 22 159 22q69 0 138 -15q66 -14 114 -32v-100q-58 25 -124 38q-55 11 -114 11
q-126 0 -178 -49q-53 -50 -53 -142v-100h576zM774 1182q0 58 21 108q-72 33 -138 45q-68 13 -114 13q-118 0 -168 -50q-49 -49 -49 -141v-92h448v117z" />
    <glyph glyph-name="f_f_j.liga" unicode="ffj" horiz-adv-x="1644" 
d="M1473 1065v-1126q0 -80 -25 -139q-23 -56 -65 -91q-41 -35 -90 -50q-50 -15 -103 -15q-22 0 -54 2q-23 1 -46 6v98q15 -1 28 -3q8 -1 29 -1q50 0 86 10q35 10 63 36q26 25 40 71q14 47 14 114v994h-453v-971h-123v971h-448v-971h-123v971h-154v94h154v100q0 57 17 104
q18 50 58 90q38 38 103 63q63 24 156 24q70 0 139 -14q72 -15 174 -62q41 40 105 62q63 22 159 22q69 0 138 -15q66 -14 114 -32v-100q-58 25 -124 38q-55 11 -114 11q-126 0 -178 -49q-53 -50 -53 -142v-100h576zM774 1182q0 58 21 108q-72 33 -138 45q-68 13 -114 13
q-118 0 -168 -50q-49 -49 -49 -141v-92h448v117z" />
    <glyph glyph-name="f_j.liga" unicode="fj" horiz-adv-x="1073" 
d="M543 1454q69 0 138 -15q66 -14 114 -32v-100q-58 25 -124 38q-55 11 -114 11q-126 0 -178 -49q-53 -50 -53 -142v-100h575v-1126q0 -82 -24 -139q-23 -56 -65 -91q-41 -35 -90 -50q-50 -15 -104 -15q-22 0 -54 2q-23 1 -46 6v98q18 -2 29 -3q8 -1 28 -1q51 0 87 10
q35 10 63 36q26 25 40 71q13 43 13 114v994h-452v-971h-123v971h-154v94h154v117q0 50 18 100q17 48 59 88t104 62q63 22 159 22z" />
    <glyph glyph-name="f_f_l.liga" unicode="ffl" horiz-adv-x="1724" 
d="M1583 94q23 0 33 1q24 2 37 5v-100q-18 -3 -52 -7q-25 -3 -55 -3q-211 0 -211 250v1085q-41 11 -99 21q-56 10 -120 10q-120 0 -169 -49q-50 -50 -50 -142v-100h287v-94h-287v-971h-123v971h-448v-971h-123v971h-154v94h154v100q0 57 17 104q18 50 58 90q38 38 103 63
q63 24 156 24q68 0 138 -14q72 -14 175 -62q40 40 100 62t152 22q70 0 127 -10q52 -9 106 -23l123 6v-1167q0 -87 23 -127q23 -39 102 -39zM774 1182q0 58 21 108q-72 33 -138 45q-68 13 -114 13q-118 0 -168 -50q-49 -49 -49 -141v-92h448v117z" />
    <glyph glyph-name="f_l.liga" unicode="fl" horiz-adv-x="1153" 
d="M530 1454q70 0 127 -10q56 -10 107 -23l123 6v-1167q0 -89 22 -127q23 -39 103 -39q22 0 32 1q24 2 37 5v-100q-18 -3 -52 -7q-25 -3 -54 -3q-211 0 -211 250v1085q-40 11 -99 21q-56 10 -120 10q-120 0 -169 -49q-50 -50 -50 -142v-100h286v-94h-286v-971h-123v971h-154
v94h154v117q0 53 17 100q18 49 58 88q42 40 101 62q60 22 151 22z" />
    <glyph glyph-name="f_i.liga" unicode="fi" horiz-adv-x="1071" 
d="M543 1454q69 0 138 -15q66 -14 114 -32v-100q-58 25 -124 38q-55 11 -114 11q-126 0 -178 -49q-53 -50 -53 -142v-100h575v-1065h-123v971h-452v-971h-123v971h-154v94h154v117q0 50 18 100q17 48 59 88t104 62q63 22 159 22z" />
    <glyph glyph-name=".notdef" 
d="M1087 -328h-946v1762h946v-1762zM266 1323v-1540h695v1540h-695z" />
    <glyph glyph-name=".null" horiz-adv-x="0" 
 />
    <glyph glyph-name="nonmarkingreturn" horiz-adv-x="682" 
 />
    <glyph glyph-name="space" unicode=" " horiz-adv-x="544" 
 />
    <glyph glyph-name="exclam" unicode="!" horiz-adv-x="524" 
d="M328 963l-23 -562h-88l-22 562v477h133v-477zM262 166q38 0 65 -27t27 -63q0 -39 -27 -66q-26 -26 -65 -26q-38 0 -64 26q-28 28 -28 66t28 64t64 26z" />
    <glyph glyph-name="quotedbl" unicode="&#x22;" horiz-adv-x="860" 
d="M291 934h-109v532h109v-532zM680 934h-109v532h109v-532z" />
    <glyph glyph-name="numbersign" unicode="#" 
d="M930 946l-74 -506h172v-92h-184l-51 -348h-105l51 348h-319l-51 -348h-105l51 348h-168v92h181l73 506h-172v92h185l51 355h104l-51 -355h320l51 355h104l-51 -355h170v-92h-182zM825 946h-319l-74 -506h320z" />
    <glyph glyph-name="dollar" unicode="$" horiz-adv-x="1277" 
d="M713 1458q166 -10 282 -79q121 -71 187 -162l-99 -70q-24 37 -57 70q-34 34 -82 62q-49 29 -106 47q-62 20 -129 26v-555q139 -27 229 -63q91 -36 149 -86q58 -51 82 -114q25 -67 25 -147q0 -85 -31 -159q-30 -73 -90 -128q-60 -56 -150 -88t-210 -37v-278h-99v278
q-68 1 -148 19q-73 16 -143 45q-64 27 -130 73q-64 45 -109 105l92 78q79 -99 190 -150q117 -54 253 -61v614q-240 46 -352 143q-109 94 -109 249q0 81 31 146q32 66 92 116q60 49 143 76q86 28 190 32v248h99v-250zM618 1354q-161 -6 -248 -76q-85 -69 -85 -184
q0 -59 16 -101q16 -43 55 -77q38 -33 104 -58q71 -26 158 -43v539zM709 82q173 7 264 89q90 81 90 210q0 58 -14 101q-15 46 -54 84q-41 39 -108 67q-68 28 -178 51v-602z" />
    <glyph glyph-name="percent" unicode="%" horiz-adv-x="2076" 
d="M473 1458q76 0 141 -26q69 -28 120 -83q52 -57 84 -144q32 -88 32 -208q0 -121 -32 -211q-31 -88 -84 -145q-52 -57 -120 -84t-141 -27t-142 27q-68 27 -121 84q-54 58 -83 145q-31 91 -31 211q0 118 31 208q30 86 83 144q51 56 121 83q66 26 142 26zM647 -25h-106
l886 1483h107zM473 1370q-118 0 -193 -91t-75 -282q0 -194 76 -285t192 -91q117 0 192 90q74 89 74 286q0 194 -74 283q-75 90 -192 90zM1606 907q76 0 141 -26q67 -27 120 -84t83 -145q30 -87 30 -208q0 -124 -30 -212q-29 -87 -83 -145q-51 -55 -120 -83q-67 -27 -141 -27
t-143 27q-70 27 -121 83q-53 57 -84 145q-31 87 -31 212q0 122 31 208q32 89 84 145q53 57 121 84q66 26 143 26zM1604 817q-119 0 -194 -90t-75 -281q0 -196 76 -287t193 -91q116 0 191 90t75 284q0 192 -75 284q-75 91 -191 91z" />
    <glyph glyph-name="ampersand" unicode="&#x26;" horiz-adv-x="1419" 
d="M594 -20q-98 0 -183 26q-90 27 -159 80q-70 53 -113 135t-43 191q0 72 25 138q24 62 64 110q39 47 93 85q51 37 109 64q-60 57 -91 90q-41 44 -63 80t-35 79q-12 40 -12 87q0 72 29 133q27 58 78 99q50 41 117 62q68 21 147 21q83 0 148 -22q64 -22 111 -63
q46 -40 70 -92q23 -50 23 -109q0 -50 -12 -97q-12 -48 -51 -94q-37 -45 -109 -96q-70 -50 -182 -101l494 -460q40 82 61 195q20 111 25 224h118q-5 -168 -32 -280t-93 -215q88 -80 151 -115q55 -31 114 -47l-41 -108q-41 8 -72 22q-33 15 -66 36q-24 16 -69 53
q-37 31 -84 75q-100 -106 -216 -146q-117 -40 -251 -40zM489 852q94 41 149 76q63 40 93 73q35 37 48 78q14 42 14 88q0 38 -17 75q-16 35 -47 63q-28 25 -75 43q-42 16 -97 16q-119 0 -183 -61q-65 -62 -65 -154q0 -39 9 -72q8 -29 31 -67q24 -39 55 -73q43 -47 85 -85z
M600 88q121 0 220 35q98 35 167 113l-532 505q-45 -23 -87 -51q-44 -30 -75 -68q-32 -39 -52 -93t-20 -117q0 -72 28 -134q27 -60 78 -103q48 -41 119 -64t154 -23z" />
    <glyph glyph-name="quotesingle" unicode="'" horiz-adv-x="471" 
d="M291 934h-109v532h109v-532z" />
    <glyph glyph-name="parenleft" unicode="(" horiz-adv-x="557" 
d="M496 1597q-61 -123 -105 -235q-47 -118 -76 -234q-31 -123 -47 -243q-16 -121 -16 -264q0 -144 16 -265q16 -118 47 -242q28 -111 76 -234q45 -116 105 -234h-97q-127 226 -203 477q-75 247 -75 498q0 249 75 498q76 252 203 478h97z" />
    <glyph glyph-name="parenright" unicode=")" horiz-adv-x="557" 
d="M61 1597q61 -123 105 -235q47 -118 76 -234q31 -123 47 -243q16 -121 16 -264q0 -144 -16 -265q-16 -118 -47 -242q-28 -111 -76 -234q-45 -116 -105 -234h97q127 226 203 477q75 247 75 498q0 249 -75 498q-76 252 -203 478h-97z" />
    <glyph glyph-name="asterisk" unicode="*" horiz-adv-x="940" 
d="M508 1153l293 111l35 -113l-301 -72l206 -243l-100 -72l-170 268l-166 -272l-100 67l203 252l-306 72l37 113l291 -111l-20 313h116z" />
    <glyph glyph-name="plus" unicode="+" 
d="M674 653h334v-110h-334v-338h-121v338h-332v110h332v338h121v-338z" />
    <glyph glyph-name="comma" unicode="," horiz-adv-x="516" 
d="M258 166q39 0 66 -27q26 -26 26 -67q0 -80 -43 -182q-45 -106 -114 -193l-66 31q39 70 61 141q21 69 27 129q-49 27 -49 78q0 36 27 63t65 27z" />
    <glyph glyph-name="hyphen" unicode="-" horiz-adv-x="737" 
d="M629 569h-523v111h523v-111z" />
    <glyph glyph-name="period" unicode="." horiz-adv-x="516" 
d="M258 166q38 0 65 -27t27 -63q0 -39 -27 -66q-26 -26 -65 -26q-38 0 -64 26q-28 28 -28 66t28 64t64 26z" />
    <glyph glyph-name="slash" unicode="/" horiz-adv-x="1064" 
d="M221 -328h-100l721 1915h100z" />
    <glyph glyph-name="zero" unicode="0" horiz-adv-x="1226" 
d="M614 1194q114 0 212 -42q97 -42 169 -121q74 -81 113 -192q41 -115 41 -257q0 -143 -41 -255t-113 -190q-73 -79 -169 -119q-99 -41 -212 -41t-212 41q-96 40 -169 119q-71 76 -112 190q-41 112 -41 255q0 142 41 257q40 112 112 192q72 79 169 121q98 42 212 42z
M612 1092q-89 0 -165 -35q-75 -35 -128 -101q-54 -67 -83 -160q-31 -98 -31 -214t31 -212q30 -94 83 -157q52 -62 128 -97q74 -34 165 -34q88 0 163 33t129 96q55 64 85 157q31 96 31 214q0 115 -31 213q-29 92 -85 160t-129 102q-76 35 -163 35z" />
    <glyph glyph-name="one" unicode="1" horiz-adv-x="980" 
d="M150 104h339v693h-331v96h82q82 0 131 13q52 14 82 45t45 85q14 48 20 131h94v-1063h312v-104h-774v104z" />
    <glyph glyph-name="two" unicode="2" horiz-adv-x="1146" 
d="M588 1190q96 0 173 -27q80 -28 130 -74q54 -49 82 -116q28 -66 28 -150q0 -95 -42 -184q-43 -91 -126 -174q-84 -84 -215 -174q-127 -87 -301 -187h709v-104h-895v100q210 130 338 217q139 95 230 181q90 86 131 160q42 76 42 159q0 134 -78 202t-206 68q-82 0 -141 -25
t-102 -68q-42 -42 -63 -95q-22 -55 -22 -108h-127q1 65 33 141q30 72 87 129q58 58 140 93q84 36 195 36z" />
    <glyph glyph-name="three" unicode="3" horiz-adv-x="1148" 
d="M575 1194q107 0 189 -27q83 -27 137 -74q56 -48 83 -115q28 -68 28 -144q0 -67 -21 -124q-22 -60 -57 -99q-37 -41 -87 -67q-52 -27 -108 -34q56 -11 113 -33q58 -24 102 -70q47 -48 73 -111q28 -67 28 -146q0 -106 -38 -190q-36 -80 -105 -139q-64 -55 -155 -86
q-89 -30 -190 -30q-93 0 -176 27q-84 28 -146 75q-66 51 -110 121q-43 69 -65 162l118 29q29 -137 126 -224q94 -85 253 -85q74 0 140 21q62 20 114 64q49 42 78 105q29 64 29 150q0 147 -89 227t-231 80h-149v94h133q64 0 115 16q54 17 93 50t63 86t24 124q0 130 -86 199
q-87 70 -228 70q-143 0 -230 -75q-88 -76 -116 -196l-118 21q16 75 51 133q40 68 96 111q60 47 139 75q81 29 180 29z" />
    <glyph glyph-name="four" unicode="4" horiz-adv-x="1224" 
d="M926 104h245v-104h-245v-266h-121v266h-717v109l684 1058h154v-1063zM215 104h590v920z" />
    <glyph glyph-name="five" unicode="5" horiz-adv-x="1204" 
d="M1006 1063h-652l-61 -475q77 88 171 121q90 32 181 32q93 0 173 -34q79 -34 142 -98q63 -65 98 -152q36 -90 36 -201q0 -119 -35 -222q-34 -101 -101 -174q-69 -75 -158 -114q-94 -41 -210 -41q-104 0 -188 31q-77 28 -139 78q-58 46 -94 103t-54 108l112 34
q16 -46 44 -88q30 -45 75 -81q44 -35 108 -58q62 -22 140 -22q89 0 156 32q69 33 118 91q48 57 76 140q27 81 27 177q0 92 -27 164q-26 70 -74 121q-44 47 -109 75q-63 27 -136 27q-110 0 -196 -43q-88 -44 -159 -143l-106 14l94 700h764z" />
    <glyph glyph-name="six" unicode="6" horiz-adv-x="1191" 
d="M637 1423q147 0 245 -70t154 -206l-108 -35q-38 97 -110 154t-181 57q-189 0 -288 -173t-116 -478q22 51 62 98q41 49 90 82q50 34 114 55q63 21 134 21q94 0 178 -32q80 -31 141 -93q59 -60 94 -149q33 -83 33 -197q0 -110 -33 -195q-35 -88 -97 -151q-66 -66 -150 -100
q-89 -36 -195 -36q-105 0 -194 37q-90 38 -156 111q-64 71 -102 184q-37 110 -37 256q0 419 138 639q138 221 384 221zM610 825q-80 0 -144 -29q-68 -31 -116 -79q-51 -51 -77 -115q-27 -66 -27 -139q0 -82 25 -151q25 -70 72 -123q45 -50 112 -81q66 -30 147 -30
q82 0 144 26q67 28 112 76q48 51 73 120t25 157q0 81 -24 149q-23 65 -69 117q-43 49 -108 76q-62 26 -145 26z" />
    <glyph glyph-name="seven" unicode="7" horiz-adv-x="978" 
d="M954 1063q-124 -153 -223 -311q-95 -151 -167 -314q-69 -157 -117 -333q-45 -169 -70 -371h-129q27 211 77 392q48 174 124 338q72 156 171 305q100 150 218 292h-680v-162h-109v268h905v-104z" />
    <glyph glyph-name="eight" unicode="8" horiz-adv-x="1216" 
d="M604 1423q120 0 203 -31t137 -82t78 -114q25 -66 25 -125q0 -66 -25 -119q-24 -51 -65 -89q-41 -37 -90 -63q-49 -25 -101 -42q162 -51 260 -143q94 -88 94 -232q0 -65 -24 -137q-23 -69 -85 -131q-58 -58 -160 -100q-98 -40 -247 -40q-138 0 -233 37q-97 38 -158 96
q-63 60 -89 130q-28 75 -28 143q0 145 88 240t242 133q-136 50 -199 126t-63 191q0 62 23 122q24 62 77 114q52 50 136 84q80 32 204 32zM604 1325q-82 0 -142 -21q-58 -20 -99 -58q-40 -37 -59 -82t-19 -95q0 -109 81 -167q81 -59 238 -99l58 -15q116 45 190 114t74 167
q0 47 -18 93q-18 47 -56 82q-40 37 -100 59t-148 22zM543 717q-153 -29 -238 -111q-86 -83 -86 -221q0 -58 24 -113t71 -98t120 -70q69 -26 170 -26q113 0 188 30t120 75q46 47 66 102q19 54 19 104q0 71 -28 117q-29 47 -82 82q-53 34 -129 60t-168 54z" />
    <glyph glyph-name="nine" unicode="9" horiz-adv-x="1193" 
d="M592 1194q104 0 194 -36q91 -37 156 -107q63 -69 102 -182q37 -108 37 -257q0 -466 -130 -687q-131 -222 -398 -222q-153 0 -261 66q-109 66 -171 188l104 47q46 -93 128 -146t200 -53q103 0 182 51q75 48 125 140q50 91 74 218q25 134 31 284q-21 -53 -61 -105
q-37 -48 -90 -85q-50 -34 -117 -56q-65 -21 -138 -21q-95 0 -178 33q-81 32 -141 94q-61 62 -95 150q-34 87 -34 199t34 199q34 88 99 154q63 65 151 99q90 35 197 35zM594 1092q-77 0 -143 -27q-67 -27 -114 -76q-48 -50 -75 -121q-26 -69 -26 -161q0 -85 23 -150
q24 -67 69 -117q45 -49 109 -76q67 -28 147 -28q78 0 147 32t115 84q48 54 74 119t26 140q0 85 -25 154q-26 72 -72 121q-49 52 -111 78q-67 28 -144 28z" />
    <glyph glyph-name="colon" unicode=":" horiz-adv-x="516" 
d="M258 956q39 0 65 -26q27 -27 27 -64q0 -38 -27 -65t-65 -27q-37 0 -64 27q-28 28 -28 65q0 39 28 65q26 25 64 25zM258 166q38 0 65 -27t27 -63q0 -39 -27 -66q-26 -26 -65 -26q-38 0 -64 26q-28 28 -28 66t28 64t64 26z" />
    <glyph glyph-name="semicolon" unicode=";" horiz-adv-x="516" 
d="M258 166q39 0 66 -27q26 -26 26 -67q0 -80 -43 -182q-45 -106 -114 -193l-66 31q39 70 61 141q21 69 27 129q-49 27 -49 78q0 36 27 63t65 27zM258 956q39 0 65 -26q27 -27 27 -64q0 -38 -27 -65t-65 -27q-37 0 -64 27q-28 28 -28 65q0 39 28 65q26 25 64 25z" />
    <glyph glyph-name="less" unicode="&#x3c;" 
d="M995 905l-682 -313l682 -316v-118l-762 362v144l762 360v-119z" />
    <glyph glyph-name="equal" unicode="=" 
d="M1008 776h-787v111h787v-111zM1008 356h-787v109h787v-109z" />
    <glyph glyph-name="greater" unicode="&#x3e;" 
d="M995 664v-144l-762 -362v118l682 316l-682 313v119z" />
    <glyph glyph-name="question" unicode="?" horiz-adv-x="1062" 
d="M549 1450q127 0 208 -37q83 -38 132 -91q47 -51 69 -117q21 -63 21 -115q0 -87 -28 -149q-27 -60 -69 -105q-44 -47 -91 -80q-52 -36 -92 -72q-43 -39 -69 -83q-28 -48 -28 -112v-88h-123v111q0 66 28 119q27 51 68 92q32 32 89 78q52 42 88 78q41 41 68 89q28 50 28 115
q0 55 -18 101q-19 49 -53 83q-35 35 -92 56q-54 20 -132 20q-79 0 -139 -24q-58 -23 -104 -63q-43 -37 -72 -86q-27 -46 -43 -93l-115 35q15 50 49 109q33 57 92 110q56 50 138 85q80 34 190 34zM543 166q37 0 64 -27q28 -28 28 -63q0 -38 -28 -66q-26 -26 -64 -26
q-39 0 -65 26q-27 27 -27 66t27 64q28 26 65 26z" />
    <glyph glyph-name="at" unicode="@" horiz-adv-x="2111" 
d="M1120 1460q187 0 339 -58q151 -58 260 -162q107 -102 166 -245q59 -142 59 -309q0 -106 -27 -217q-26 -109 -80 -202q-52 -91 -132 -148q-81 -58 -181 -58q-75 0 -118 31q-42 30 -64 72t-26 80q-1 12 -3.5 31.5t-3.5 25.5q-24 -67 -64 -115q-39 -46 -88 -76
q-48 -29 -103 -43q-56 -14 -110 -14q-79 0 -145 30q-67 30 -111 82q-47 54 -70 126q-24 73 -24 162q0 136 41 248q41 113 108 190q66 76 157 121q87 43 187 43q39 0 83 -9q42 -9 82 -31q39 -22 69 -59q30 -38 45 -94l25 146h108l-98 -578q-7 -41 -8 -84q-2 -52 9 -89
q12 -42 39 -72q26 -29 81 -29q70 0 126 46q55 45 96 121q40 73 61 171q22 101 22 198q0 144 -50 270q-48 120 -143 214q-91 89 -223 141q-131 51 -293 51q-187 0 -338 -62q-154 -63 -263 -177q-110 -115 -171 -272q-61 -158 -61 -353q0 -176 52 -316q53 -141 148 -241
q96 -101 235 -155q138 -54 310 -54q124 0 215 18q84 17 195 54l33 -91q-52 -17 -110 -33q-58 -17 -105 -26q-53 -11 -107 -15q-62 -5 -123 -5q-192 0 -350 60q-156 59 -271 173q-114 112 -177 272q-62 156 -62 357q0 214 71 391q71 178 197 302q130 128 302 196
q176 69 382 69zM1096 950q-88 0 -156 -40q-71 -42 -119 -107q-49 -66 -76 -159q-26 -88 -26 -193q0 -137 64 -216t184 -79q64 0 123 25q58 25 107 81q48 55 81 146q33 90 45 219q8 102 -9 160q-19 65 -51 99q-33 35 -78 50q-41 14 -89 14z" />
    <glyph glyph-name="A" unicode="A" horiz-adv-x="1241" 
d="M965 299h-695l-100 -299h-131l502 1434h164l499 -1434h-139zM307 410h621l-310 917z" />
    <glyph glyph-name="B" unicode="B" horiz-adv-x="1288" 
d="M874 774q161 -21 246 -120q86 -100 86 -246q0 -90 -30 -165q-29 -73 -95 -128t-157 -84q-98 -31 -222 -31h-520v1434h451q255 0 376 -92q119 -91 119 -263q0 -131 -71 -206q-72 -77 -183 -99zM307 1323v-506h414q122 0 201 67q77 65 77 189q0 250 -354 250h-338zM709 111
q173 0 268 80q96 81 96 221q0 78 -25 134q-24 54 -71 93q-44 37 -107 55q-65 19 -133 19h-430v-602h402z" />
    <glyph glyph-name="C" unicode="C" horiz-adv-x="1441" 
d="M748 1460q81 0 161 -19q81 -19 158 -66t139 -122q66 -81 105 -188l-125 -35q-61 166 -177 241q-115 75 -264 75q-105 0 -195 -40q-94 -41 -158 -119q-67 -81 -104 -197q-38 -120 -38 -271q0 -159 38 -279q37 -116 104 -197q66 -79 158 -117q93 -38 195 -38q171 0 290 85
t179 261l123 -41q-38 -113 -99 -190q-66 -83 -140 -130q-82 -52 -168 -75q-94 -25 -185 -25q-105 0 -215 37q-109 37 -201 124q-91 87 -150 230q-58 141 -58 355q0 196 53 338t141 230q89 89 201 131q113 42 232 42z" />
    <glyph glyph-name="D" unicode="D" horiz-adv-x="1402" 
d="M580 1434q146 0 275 -41q127 -40 223 -127q95 -86 151 -217q55 -129 55 -312q0 -214 -58 -355q-58 -140 -152 -227q-93 -85 -209 -120q-117 -35 -228 -35h-455v1434h398zM305 1321v-1208h330q93 0 184 27t166 99q76 73 121 191q47 123 47 307q0 135 -38 244
q-37 106 -110 184q-70 74 -180 116q-105 40 -243 40h-277z" />
    <glyph glyph-name="E" unicode="E" horiz-adv-x="1157" 
d="M1018 1323h-711v-537h668v-110h-668v-565h729v-111h-854v1434h836v-111z" />
    <glyph glyph-name="F" unicode="F" horiz-adv-x="1089" 
d="M995 1323h-688v-563h641v-113h-641v-647h-125v1434h813v-111z" />
    <glyph glyph-name="G" unicode="G" horiz-adv-x="1484" 
d="M745 1460q95 0 174 -20q82 -21 155 -65t130 -113q60 -72 99 -170l-113 -45q-123 303 -447 303q-108 0 -198 -42q-91 -42 -156 -124q-64 -79 -102 -201q-37 -117 -37 -274q0 -162 37 -277q37 -116 103 -194t157 -116t196 -38q85 0 171 28q84 28 148 87q64 60 103 151
q39 92 39 223v45h-407v111h530v-729h-123v256q-63 -142 -190 -212q-128 -71 -279 -71q-108 0 -215 37q-109 38 -197 123q-90 87 -146 226t-56 350q0 197 54 339t141 234q87 91 200 135q111 43 229 43z" />
    <glyph glyph-name="H" unicode="H" horiz-adv-x="1404" 
d="M1225 0h-125v690h-793v-690h-125v1434h125v-633h793v633h125v-1434z" />
    <glyph glyph-name="I" unicode="I" horiz-adv-x="704" 
d="M629 1325h-213v-1216h213v-109h-551v109h213v1216h-213v109h551v-109z" />
    <glyph glyph-name="J" unicode="J" horiz-adv-x="790" 
d="M633 383q0 -91 -18 -163q-19 -76 -60 -124q-45 -52 -114 -79q-71 -27 -175 -27q-62 0 -105 4q-81 8 -102 10v113q11 -1 36.5 -3.5t38.5 -4.5q40 -5 77 -5q84 0 143 17q57 16 91 52q34 35 49 90q14 50 14 132v1039h125v-1051z" />
    <glyph glyph-name="K" unicode="K" horiz-adv-x="1280" 
d="M545 745l-238 -274v-471h-125v1434h125v-795l682 795h152l-514 -596l610 -838h-147z" />
    <glyph glyph-name="L" unicode="L" horiz-adv-x="1064" 
d="M307 113h692v-113h-817v1434h125v-1321z" />
    <glyph glyph-name="M" unicode="M" horiz-adv-x="1658" 
d="M1542 0h-123l-145 1319l-371 -1319h-141l-383 1319l-139 -1319h-123l151 1434h201l367 -1287l350 1287h200z" />
    <glyph glyph-name="N" unicode="N" horiz-adv-x="1404" 
d="M1225 0h-135l-787 1219v-1219h-121v1434h129l791 -1237v1237h123v-1434z" />
    <glyph glyph-name="O" unicode="O" horiz-adv-x="1521" 
d="M762 1460q105 0 219 -38q112 -37 207 -125q94 -87 154 -229q61 -145 61 -353q0 -200 -56 -339q-57 -142 -147 -230q-90 -89 -205 -131q-114 -42 -233 -42q-104 0 -220 38q-113 37 -207 125t-154 230q-60 143 -60 353q0 199 55 339t147 229q93 90 205 131q114 42 234 42z
M760 1350q-108 0 -200 -40q-93 -40 -162 -120q-67 -77 -108 -198q-40 -117 -40 -273q0 -160 40 -277q41 -121 108 -198q69 -80 162 -120q92 -40 200 -40q105 0 197 40q95 41 163 120q72 83 111 197q41 120 41 274q0 159 -40 276q-41 119 -110 199q-68 79 -163 120
q-92 40 -199 40z" />
    <glyph glyph-name="P" unicode="P" horiz-adv-x="1245" 
d="M649 1434q137 0 234 -35q94 -34 157 -95q62 -60 89 -139q28 -81 28 -164q0 -96 -31 -181q-30 -83 -92 -143q-61 -60 -155 -94q-93 -34 -224 -34h-348v-549h-125v1434h467zM666 657q165 0 263 86q97 85 97 258q0 143 -88 232q-89 90 -274 90h-357v-666h359z" />
    <glyph glyph-name="Q" unicode="Q" horiz-adv-x="1527" 
d="M762 1460q105 0 219 -38q112 -37 207 -125q94 -87 154 -229q61 -145 61 -353q0 -225 -75 -377q-76 -153 -198 -244q52 -52 132 -95q79 -42 194 -69l-51 -127q-123 37 -219 101q-94 63 -150 135q-135 -66 -274 -66q-104 0 -220 38q-113 37 -207 125t-154 230
q-60 143 -60 353q0 199 55 339t147 229q93 90 205 131q114 42 234 42zM760 1346q-108 0 -200 -40q-94 -41 -162 -118q-67 -76 -108 -196q-40 -117 -40 -273q0 -160 40 -277q41 -120 108 -197q68 -79 162 -118q93 -39 200 -39q105 0 197 40q95 42 163 118q72 82 111 195
q41 120 41 274q0 159 -40 276q-40 118 -110 198q-68 78 -163 118q-93 39 -199 39z" />
    <glyph glyph-name="R" unicode="R" horiz-adv-x="1249" 
d="M631 1434q129 0 227 -32q97 -32 158 -87t91 -129t30 -158q0 -71 -21 -137t-64 -118q-41 -49 -111 -89q-64 -37 -159 -49l406 -635h-146l-389 616h-348v-616h-123v1434h449zM305 1323v-600h363q159 0 248 80q90 81 90 225q0 141 -92 218t-271 77h-338z" />
    <glyph glyph-name="S" unicode="S" horiz-adv-x="1269" 
d="M633 -27q-76 0 -158 14t-156 43q-80 31 -142 75q-69 49 -118 112l91 78q87 -104 208 -157q123 -54 277 -54q189 0 296 82t107 215q0 65 -18 114t-67 89q-47 38 -132 67q-83 28 -215 51q-233 37 -353 126q-120 88 -120 255q0 84 35 154q35 69 98 119q64 50 155 77t204 27
q98 0 178 -19q83 -20 147 -53q66 -35 118 -79q48 -41 89 -97l-96 -69q-25 34 -66 74q-34 33 -92 66q-52 30 -122 48q-73 19 -156 19q-173 0 -269 -72t-96 -191q0 -57 22 -103q22 -45 70 -77q50 -34 131 -57q84 -24 203 -45q261 -45 372 -147t111 -271q0 -90 -32 -164
t-101 -131q-68 -56 -168 -87q-102 -32 -235 -32z" />
    <glyph glyph-name="T" unicode="T" horiz-adv-x="1171" 
d="M1102 1323h-455v-1323h-123v1323h-454v111h1032v-111z" />
    <glyph glyph-name="U" unicode="U" horiz-adv-x="1345" 
d="M1190 500q0 -97 -27 -190q-27 -92 -87 -169q-58 -74 -160 -122q-98 -46 -244 -46q-149 0 -249 47q-99 47 -158 122q-59 76 -83 169q-24 95 -24 189v934h125v-930q0 -96 22 -171q22 -76 71 -132q48 -56 122 -86q76 -31 176 -31q98 0 174 31q74 30 122 86q47 54 71 133
q24 78 24 170v930h125v-934z" />
    <glyph glyph-name="V" unicode="V" horiz-adv-x="1142" 
d="M659 0h-163l-457 1434h135l406 -1319l399 1319h127z" />
    <glyph glyph-name="W" unicode="W" horiz-adv-x="1689" 
d="M1309 0h-148l-307 1270l-291 -1270h-153l-361 1434h131l307 -1303l297 1303h142l309 -1299l285 1299h122z" />
    <glyph glyph-name="X" unicode="X" horiz-adv-x="1243" 
d="M1206 0h-151l-439 676l-430 -676h-147l500 770l-433 664h148l364 -568l359 568h145l-428 -656z" />
    <glyph glyph-name="Y" unicode="Y" horiz-adv-x="1210" 
d="M674 590v-590h-125v588l-506 846h141l428 -729l420 729h137z" />
    <glyph glyph-name="Z" unicode="Z" horiz-adv-x="1214" 
d="M1110 1327l-874 -1214h888v-113h-1050v100l878 1223h-817v111h975v-107z" />
    <glyph glyph-name="bracketleft" unicode="[" horiz-adv-x="614" 
d="M522 1518h-268v-1766h268v-102h-391v1968h391v-100z" />
    <glyph glyph-name="backslash" unicode="\" horiz-adv-x="1064" 
d="M942 -328h-100l-721 1915h98z" />
    <glyph glyph-name="bracketright" unicode="]" horiz-adv-x="614" 
d="M92 1518h268v-1766h-268v-102h391v1968h-391v-100z" />
    <glyph glyph-name="asciicircum" unicode="^" 
d="M1053 698h-133l-312 654l-309 -654h-127l377 762h127z" />
    <glyph glyph-name="underscore" unicode="_" horiz-adv-x="1095" 
d="M1100 -242h-1104v111h1104v-111z" />
    <glyph glyph-name="grave" unicode="`" horiz-adv-x="483" 
d="M422 1214h-107l-254 271h162z" />
    <glyph glyph-name="a" unicode="a" horiz-adv-x="1114" 
d="M557 1083q117 0 193 -24q73 -23 120 -70t64 -109q18 -64 18 -147v-442q0 -105 7 -168q8 -69 28 -123h-127q-11 35 -19 83q-9 51 -10 79q-46 -73 -142 -128q-95 -54 -236 -54q-91 0 -154 23q-66 24 -110 65t-66 97q-23 58 -23 122q0 142 102 231q103 89 335 119l292 39v47
q0 70 -10 117q-10 48 -41 82q-29 32 -84 49q-51 16 -139 16q-159 0 -225 -63t-68 -170h-121q4 152 108 241q103 88 308 88zM571 547q-179 -24 -262 -83q-82 -58 -82 -171q0 -89 58 -150q56 -59 190 -59q76 0 142 23q68 24 112 62q48 42 74 92q26 51 26 114v207z" />
    <glyph glyph-name="b" unicode="b" horiz-adv-x="1226" 
d="M295 856q47 95 137 161t225 66q111 0 195 -40q85 -40 145 -112t90 -173q31 -104 31 -223q0 -115 -32 -219q-31 -99 -92 -176q-58 -73 -145 -117q-85 -43 -192 -43q-76 0 -133 17q-62 19 -103 47q-45 31 -76 68q-32 39 -50 81v-193h-123v1434h123v-578zM637 979
q-73 0 -140 -31q-64 -30 -111 -89t-72 -143t-25 -194q0 -115 26 -194q27 -82 74 -137q45 -52 110 -80q63 -27 136 -27q80 0 147 32q65 31 112 90t71 141q24 83 24 185q0 203 -89 325t-263 122z" />
    <glyph glyph-name="c" unicode="c" horiz-adv-x="1130" 
d="M606 1083q155 0 263 -71q110 -73 163 -187l-108 -45q-42 94 -120 146q-80 53 -192 53q-85 0 -155 -32q-71 -33 -118 -91q-48 -60 -75 -142q-26 -79 -26 -184q0 -98 24 -180q22 -77 72 -141q45 -58 116 -92q69 -33 156 -33q76 0 127 19t93 53q41 34 69 76q26 39 49 94
l109 -47q-52 -127 -163 -214q-109 -85 -288 -85q-121 0 -211 43q-92 44 -154 116q-64 74 -95 174q-31 99 -31 215q0 124 33 222q35 103 99 176t155 115q92 42 208 42z" />
    <glyph glyph-name="d" unicode="d" horiz-adv-x="1226" 
d="M1055 0h-123v207q-25 -49 -56 -86q-38 -44 -80 -73q-47 -32 -104 -50t-125 -18q-111 0 -195 40t-144 114q-57 71 -88 173q-29 97 -29 219q0 120 30 222t90 177q58 73 146 116q85 42 196 42q138 0 228 -60t131 -151v562h123v-1434zM590 979q-86 0 -152 -33t-110 -92
q-46 -61 -68 -142t-22 -184q0 -100 21 -182q20 -80 65 -140q44 -60 108 -90q67 -32 154 -32q75 0 141 30t112 88q44 56 72 142q27 84 27 195t-27 193q-28 85 -72 138q-46 55 -111 82q-64 27 -138 27z" />
    <glyph glyph-name="e" unicode="e" horiz-adv-x="1161" 
d="M594 1083q114 0 202 -44q85 -43 146 -117q58 -71 89 -173q30 -99 30 -210v-31h-823q0 -98 25 -174q25 -77 74 -135t118 -88q71 -31 159 -31q114 0 196 50t134 132l103 -55q-70 -109 -181 -170q-108 -60 -256 -60q-118 0 -214 45q-94 44 -156 118q-65 77 -97 177
q-32 99 -32 220q0 113 30 212q30 98 92 174q59 72 152 117q89 43 209 43zM592 983q-84 0 -149 -30q-64 -30 -108 -80q-46 -53 -69 -118q-23 -67 -28 -149h696q-5 83 -28 150q-26 74 -66 120q-44 50 -106 78q-64 29 -142 29z" />
    <glyph glyph-name="f" unicode="f" horiz-adv-x="653" 
d="M506 1454q59 0 109 -10q54 -11 94 -27v-98q-30 13 -87 26q-48 11 -102 11q-110 0 -152 -49t-42 -142v-100h331v-94h-331v-971h-123v971h-154v94h154v106q0 59 14 107q15 52 49 90q34 39 93 63q56 23 147 23z" />
    <glyph glyph-name="g" unicode="g" horiz-adv-x="1134" 
d="M1081 1022q-65 0 -111 -15q-42 -14 -83 -51q42 -44 62 -100q20 -57 20 -117q0 -154 -113 -243q-112 -88 -307 -88q-64 0 -124 12q-61 12 -114 41q-29 -24 -47 -50q-18 -25 -18 -59q0 -54 39 -85q38 -31 116 -31h238q112 0 195 -22q80 -21 129 -60q47 -37 71 -91
q23 -52 23 -112q0 -143 -131 -227q-130 -84 -359 -84q-135 0 -224 22q-87 21 -147 61q-57 37 -81 90q-25 55 -25 113q0 72 45 132q46 62 137 102q-64 22 -99 66q-34 43 -34 104q0 93 107 170q-53 41 -87 100t-34 139q0 67 27 130q28 65 79 110q54 48 133 76q78 28 181 28
q87 0 155 -18t119 -51q45 59 108 88q67 31 154 31v-111zM547 991q-147 0 -224 -72t-77 -178q0 -116 83 -179q81 -62 216 -62q147 0 225 62q80 63 80 179q0 107 -74 179q-72 71 -229 71zM369 135q-94 -40 -130 -90t-36 -106q0 -46 18 -83q18 -38 62 -65q41 -26 112 -41
q64 -14 172 -14q175 0 272 55t97 154q0 93 -73 142q-72 48 -263 48h-231z" />
    <glyph glyph-name="h" unicode="h" horiz-adv-x="1167" 
d="M295 864q46 97 136 158q91 61 216 61q181 0 271 -105t90 -298v-680h-123v649q0 152 -58 242q-57 88 -204 88q-64 0 -125 -26q-60 -25 -105 -75q-43 -47 -71 -124q-27 -74 -27 -170v-584h-123v1434h123v-570z" />
    <glyph glyph-name="i" unicode="i" horiz-adv-x="464" 
d="M295 0h-123v1065h123v-1065zM233 1458q36 0 60 -24t24 -60q0 -34 -24 -58t-60 -24q-35 0 -59 24t-24 58q0 36 24 60t59 24z" />
    <glyph glyph-name="j" unicode="j" horiz-adv-x="464" 
d="M295 -61q0 -80 -25 -139q-24 -57 -64 -91q-41 -35 -90 -50q-50 -15 -104 -15q-25 0 -55 2q-23 2 -45 6v98q18 -2 29 -3q8 -1 28 -1q50 0 86 10q37 10 64 36q26 25 40 71q13 43 13 114v1088h123v-1126zM233 1458q36 0 60 -24t24 -60q0 -34 -24 -58t-60 -24q-35 0 -59 24
t-24 58q0 36 24 60t59 24z" />
    <glyph glyph-name="k" unicode="k" horiz-adv-x="1081" 
d="M295 502l565 563h154l-422 -416l452 -649h-143l-393 569l-213 -211v-358h-123v1434h123v-932z" />
    <glyph glyph-name="l" unicode="l" horiz-adv-x="550" 
d="M285 260q0 -90 23 -127q24 -39 102 -39q23 0 33 1q26 3 38 5v-100q-11 -2 -53 -7q-24 -3 -55 -3q-211 0 -211 250v1194h123v-1174z" />
    <glyph glyph-name="m" unicode="m" horiz-adv-x="1810" 
d="M1303 1083q177 0 262 -105q86 -106 86 -298v-680h-123v614q0 181 -53 273t-197 92q-62 0 -119 -26q-55 -25 -97 -75q-41 -49 -66 -124q-23 -70 -23 -172v-582h-123v592q0 192 -53 290q-52 97 -195 97q-60 0 -117 -26q-54 -25 -98 -75t-68 -124t-24 -172v-582h-123v1065
h123v-191q47 101 135 155t195 54q141 0 216 -68q77 -69 99 -177q51 128 149 187q97 58 214 58z" />
    <glyph glyph-name="n" unicode="n" horiz-adv-x="1167" 
d="M647 1083q181 0 271 -105t90 -298v-680h-123v639q0 158 -58 250q-57 90 -204 90q-64 0 -125 -26q-60 -25 -105 -75q-43 -47 -71 -124q-27 -74 -27 -170v-584h-123v1065h123v-201q51 109 144 164q92 55 208 55z" />
    <glyph glyph-name="o" unicode="o" horiz-adv-x="1218" 
d="M610 1083q119 0 209 -43q96 -46 157 -118q64 -76 99 -177q35 -102 35 -215q0 -120 -33 -222q-33 -101 -96 -175q-64 -74 -157 -115q-94 -41 -214 -41t-212 43q-93 44 -156 117q-64 75 -98 175q-33 98 -33 218q0 123 33 221q34 101 99 175q64 73 157 115t210 42zM608 979
q-85 0 -154 -33q-70 -33 -117 -91q-49 -60 -74 -140q-25 -81 -25 -183q0 -100 24 -183q23 -79 72 -142q45 -58 116 -92q69 -33 158 -33q91 0 160 33q72 34 117 91q47 59 71 141q25 86 25 185q0 97 -26 181q-25 81 -73 141q-46 58 -118 92q-69 33 -156 33z" />
    <glyph glyph-name="p" unicode="p" horiz-adv-x="1224" 
d="M659 1083q108 0 192 -40q85 -40 143 -112q59 -73 89 -173q31 -104 31 -219q0 -117 -31 -222q-30 -102 -90 -177q-59 -74 -144 -117t-196 -43q-136 0 -226 59q-92 60 -132 154v-521h-123v1393h123v-205q22 44 57 85q35 42 81 71q50 32 103 49q57 18 123 18zM639 979
q-156 0 -253 -118t-97 -335q0 -118 26 -197q28 -86 73 -138t110 -80q63 -27 135 -27q164 0 259 122t95 333q0 98 -21 179q-20 77 -66 139q-44 59 -109 90q-67 32 -152 32z" />
    <glyph glyph-name="q" unicode="q" horiz-adv-x="1226" 
d="M571 1083q141 0 231 -59q91 -60 130 -150v191h123v-1393h-123v535q-25 -49 -56 -86q-38 -44 -80 -73q-47 -32 -104 -50t-125 -18q-111 0 -195 40t-144 114q-57 71 -88 173q-29 97 -29 219q0 120 30 222t90 177q59 74 145 116t195 42zM590 979q-86 0 -152 -33t-110 -92
q-46 -61 -68 -142t-22 -184q0 -100 21 -182q20 -80 65 -140q44 -60 108 -90q67 -32 154 -32q75 0 141 30t112 88q44 56 72 142q27 84 27 195q0 113 -27 195q-28 86 -72 137q-47 54 -111 81t-138 27z" />
    <glyph glyph-name="r" unicode="r" horiz-adv-x="757" 
d="M631 1083q24 0 38 -1q28 -2 40 -5v-127q-24 4 -43 4h-29q-67 0 -129 -21t-109 -74t-75 -138q-29 -87 -29 -215v-506h-123v1065h123v-234q47 132 139 192t197 60z" />
    <glyph glyph-name="s" unicode="s" horiz-adv-x="1050" 
d="M518 1083q140 0 235 -36q97 -37 175 -107l-76 -74q-133 117 -334 117q-133 0 -203 -50q-69 -49 -69 -128q0 -44 16 -73t53 -53q37 -23 97 -40q58 -16 147 -31q96 -16 174 -39t127 -59q52 -38 77 -90q26 -54 26 -129q0 -64 -29 -122q-28 -56 -85 -98q-60 -44 -139 -67
q-82 -24 -192 -24q-149 0 -267 45t-198 131l80 77q69 -74 169 -112q96 -37 214 -37q165 0 242 58q78 58 78 145q0 48 -17 84q-17 35 -56 60t-106 43q-64 18 -163 34q-198 29 -284 100q-87 72 -87 193q0 127 105 205q104 77 290 77z" />
    <glyph glyph-name="t" unicode="t" horiz-adv-x="731" 
d="M326 1065h327v-94h-327v-688q0 -91 39 -145t147 -54q46 0 96 8q42 7 82 19v-101q-40 -12 -92 -21q-51 -9 -111 -9q-81 0 -137 21q-54 20 -88 59q-32 36 -46 92q-13 51 -13 114v705h-154v94h154v287h123v-287z" />
    <glyph glyph-name="u" unicode="u" horiz-adv-x="1161" 
d="M991 0h-123v188q-46 -91 -137 -150q-89 -58 -213 -58q-172 0 -264 96q-92 97 -92 282v707h123v-680q0 -152 60 -224q61 -73 198 -73q65 0 125 24t103 70q44 47 71 119q26 69 26 170v594h123v-1065z" />
    <glyph glyph-name="v" unicode="v" horiz-adv-x="1007" 
d="M575 0h-145l-387 1065h135l326 -938l334 938h127z" />
    <glyph glyph-name="w" unicode="w" horiz-adv-x="1570" 
d="M1198 0h-147l-265 905l-264 -905h-145l-324 1065h135l265 -928l262 928h141l270 -926l265 926h127z" />
    <glyph glyph-name="x" unicode="x" horiz-adv-x="1003" 
d="M580 580l387 -580h-144l-321 485l-320 -485h-143l387 573l-334 492h146l266 -399l266 399h141z" />
    <glyph glyph-name="y" unicode="y" horiz-adv-x="995" 
d="M588 -41q-24 -71 -49 -126q-27 -58 -67 -101q-42 -45 -95 -68q-55 -24 -135 -24q-34 0 -62 3q-36 4 -53 7v100q27 -5 46 -6q26 -2 46 -2q59 0 100 18t70 53t48 81q22 52 38 106h-39l-393 1065h135l340 -967l307 967h129z" />
    <glyph glyph-name="z" unicode="z" horiz-adv-x="952" 
d="M872 967l-655 -861h662v-106h-816v94l658 867h-594v104h745v-98z" />
    <glyph glyph-name="braceleft" unicode="{" horiz-adv-x="614" 
d="M541 1518h-21q-93 0 -130 -48q-36 -46 -36 -124v-517q0 -49 -15 -85q-14 -33 -38 -59q-22 -24 -49 -37q-27 -14 -45 -15q9 -3 45 -17q26 -12 49 -36t38 -61q15 -36 15 -83v-512q0 -78 36 -125t130 -47h21v-100h-45q-124 0 -194 67q-71 68 -71 183v516q0 94 -33 130
q-36 39 -100 46v78q65 7 100 45q33 36 33 131v520q0 114 71 182t194 68h45v-100z" />
    <glyph glyph-name="bar" unicode="|" horiz-adv-x="614" 
d="M352 -328h-92v1913h92v-1913z" />
    <glyph glyph-name="braceright" unicode="}" horiz-adv-x="614" 
d="M74 1518h20q93 0 130 -48q36 -46 36 -124v-517q0 -49 15 -85q14 -33 38 -59q21 -23 50 -37q27 -14 45 -15q-9 -3 -45 -17q-28 -12 -50 -36q-23 -24 -38 -61q-15 -36 -15 -83v-512q0 -78 -36 -125t-130 -47h-20v-100h45q123 0 193 67q71 68 71 183v516q0 93 34 130
q36 39 99 46v78q-64 7 -99 45q-34 37 -34 131v520q0 114 -71 182t-193 68h-45v-100z" />
    <glyph glyph-name="asciitilde" unicode="~" 
d="M451 754q57 0 104 -19q46 -19 83 -42q36 -23 74 -42q36 -18 74 -18q58 0 102 32q46 34 75 78l69 -59q-18 -32 -40 -56q-25 -28 -54 -50q-28 -21 -71 -37q-41 -15 -89 -15q-56 0 -104 19q-42 17 -84 41q-43 25 -74 41q-35 18 -74 18q-57 0 -101 -32q-46 -34 -75 -78
l-69 59q18 30 40 57q24 29 54 51q29 22 70 37t90 15z" />
    <glyph glyph-name="uni00A0" unicode="&#xa0;" horiz-adv-x="544" 
 />
    <glyph glyph-name="exclamdown" unicode="&#xa1;" horiz-adv-x="524" 
d="M262 1079q39 0 65 -26q27 -27 27 -66t-27 -64q-28 -26 -65 -26q-36 0 -64 26t-28 64q0 37 28 65q27 27 64 27zM328 150v-478h-133v478l22 518h88z" />
    <glyph glyph-name="cent" unicode="&#xa2;" 
d="M1081 279q-52 -126 -152 -206q-101 -80 -261 -91v-287h-84v287q-108 8 -190 53q-79 44 -136 118q-56 72 -83 169q-28 100 -28 206q0 111 29 210q29 98 84 170q58 75 137 118q81 44 187 55v287h84v-285q139 -10 243 -79t152 -179l-96 -41q-41 90 -117 142q-77 53 -186 59
v-907q130 10 205 78q74 67 112 159zM266 530q0 -191 80 -315q79 -122 242 -137v907q-158 -17 -240 -136t-82 -319z" />
    <glyph glyph-name="sterling" unicode="&#xa3;" horiz-adv-x="1351" 
d="M774 1460q85 0 147 -23q65 -24 112 -64q50 -42 80 -91q33 -53 50 -108l-116 -33q-26 89 -91 154q-63 63 -186 63q-63 0 -120 -22q-55 -21 -92 -60q-37 -38 -58 -93q-21 -54 -21 -118v-334h494v-80h-494v-299q0 -90 -18 -145q-18 -54 -84 -98h764v-109h-899l-15 96
q45 18 72 42q24 22 41 55q13 26 18 68q4 33 4 87v303h-172v80h172v340q0 75 26 147q25 69 76 123q50 53 128 86t182 33z" />
    <glyph glyph-name="currency" unicode="&#xa4;" horiz-adv-x="1269" 
d="M365 930q53 41 121 63q71 23 149 23q158 0 270 -86l205 207l74 -76l-203 -205q41 -53 65 -122q23 -66 23 -154q0 -90 -23 -156q-25 -71 -65 -123l203 -205l-74 -73l-207 204q-53 -41 -121 -62q-71 -22 -145 -22q-78 0 -150 22q-69 21 -122 62l-205 -207l-74 74l205 207
q-88 110 -88 279q0 164 86 276l-205 207l74 76zM633 915q-146 0 -231 -88t-85 -247q0 -160 85 -248t233 -88q147 0 232 88t85 248q0 157 -86 246t-233 89z" />
    <glyph glyph-name="yen" unicode="&#xa5;" horiz-adv-x="1255" 
d="M737 680h301v-76h-344v-217h344v-78h-344v-309h-125v309h-346v78h346v217h-346v76h303l-463 754h142l430 -717l418 717h137z" />
    <glyph glyph-name="brokenbar" unicode="&#xa6;" horiz-adv-x="614" 
d="M352 829h-92v756h92v-756zM352 -328h-92v756h92v-756z" />
    <glyph glyph-name="section" unicode="&#xa7;" 
d="M623 1452q129 0 224 -36t173 -105l-74 -78q-68 59 -145 88q-82 31 -178 31q-130 0 -204 -54q-73 -53 -73 -133q0 -45 14 -74q15 -32 51 -56q34 -22 94 -41q45 -14 146 -31q199 -30 311 -105q109 -73 109 -219q0 -85 -51 -149q-50 -64 -143 -132q69 -39 99 -93t30 -126
q0 -65 -29 -120t-81 -92q-54 -38 -126 -59q-77 -22 -164 -22q-139 0 -241 42q-101 42 -179 112l74 76q63 -58 151 -93q84 -34 195 -34q134 0 205 52q72 53 72 134q0 42 -16 74q-15 29 -50 54q-32 22 -93 41q-52 16 -146 32q-200 33 -310 106t-110 220q0 84 48 148
q49 66 146 132q-129 76 -129 217q0 133 108 213q109 80 292 80zM434 903q-83 -65 -120 -116q-35 -48 -35 -119q0 -95 82 -150q81 -55 278 -88q17 -3 86 -16q35 -7 70 -19q9 8 65 61q26 25 48 55q20 27 30 57q10 29 10 65q0 91 -83 148q-81 56 -277 89q-26 4 -85 16
q-48 10 -69 17z" />
    <glyph glyph-name="dieresis" unicode="&#xa8;" horiz-adv-x="722" 
d="M141 1427q35 0 58 -23q24 -24 24 -56q0 -33 -24 -57q-23 -23 -58 -23q-33 0 -56 23q-24 24 -24 57q0 32 24 56q23 23 56 23zM580 1427q34 0 57 -23q25 -25 25 -56q0 -32 -25 -57q-23 -23 -57 -23t-57 23t-23 57q0 33 23 56t57 23z" />
    <glyph glyph-name="copyright" unicode="&#xa9;" horiz-adv-x="1843" 
d="M924 1460q154 0 288 -58q136 -59 236 -159q102 -102 158 -236q57 -137 57 -292q0 -156 -57 -291t-158 -236q-99 -99 -236 -157t-288 -58q-154 0 -291 58q-136 57 -237 157q-99 98 -159 236q-59 136 -59 291q0 154 59 292q59 137 159 236q102 101 237 159q134 58 291 58z
M924 1386q-141 0 -261 -52q-124 -54 -212 -143q-91 -93 -143 -214q-52 -122 -52 -262q0 -141 52 -261q53 -122 143 -212q91 -91 212 -143q120 -52 261 -52t261 52q122 53 211 143q89 91 140 212q51 122 51 261t-51 262q-50 121 -140 214q-86 89 -211 143q-120 52 -261 52z
M922 1165q79 0 133 -20q59 -22 97 -54q42 -35 66 -77q26 -44 42 -88l-82 -23q-11 33 -32 71q-18 32 -50 59q-30 25 -74 42q-45 17 -100 17q-134 0 -216 -96q-81 -94 -81 -281q0 -82 19 -149q20 -72 56 -119q38 -50 93 -77q58 -28 127 -28q110 0 175 54q64 53 97 143l80 -29
q-16 -39 -47 -86q-28 -42 -72 -79t-101 -57q-61 -22 -134 -22q-94 0 -165 36q-72 37 -119 97q-49 63 -73 143q-24 81 -24 173q0 127 33 209q36 89 89 139q58 55 124 78q69 24 139 24z" />
    <glyph glyph-name="ordfeminine" unicode="&#xaa;" horiz-adv-x="849" 
d="M424 1458q91 0 146 -17q62 -19 95 -51q35 -33 50 -82q14 -45 14 -110v-342q0 -67 5 -122q4 -49 20 -91h-113q-11 29 -15 58q-5 33 -5 44q-38 -46 -108 -82q-69 -36 -173 -36q-132 0 -198 66t-66 167q0 111 77 177q77 67 250 89l215 27v37q0 45 -8 82q-7 33 -29 58
q-19 22 -60 35q-34 11 -99 11q-110 0 -157 -45q-45 -44 -50 -121h-109q4 117 84 183q78 65 234 65zM436 1049q-131 -17 -188 -60q-58 -44 -58 -121q0 -64 41 -107q41 -42 134 -42q113 0 183 60t70 149v143z" />
    <glyph glyph-name="guillemotleft" unicode="&#xab;" horiz-adv-x="952" 
d="M453 920l-203 -347l203 -356l-66 -43l-252 336v127l252 328zM819 920l-203 -347l203 -356l-65 -43l-252 336v127l252 328z" />
    <glyph glyph-name="logicalnot" unicode="&#xac;" 
d="M1008 188h-123v355h-664v110h787v-465z" />
    <glyph glyph-name="uni00AD" unicode="&#xad;" horiz-adv-x="737" 
d="M629 569h-523v111h523v-111z" />
    <glyph glyph-name="registered" unicode="&#xae;" horiz-adv-x="1843" 
d="M924 1460q154 0 288 -58q136 -59 236 -159q102 -102 158 -236q57 -137 57 -292q0 -156 -57 -291t-158 -236q-99 -99 -236 -157t-288 -58q-154 0 -291 58q-136 57 -237 157q-99 98 -159 236q-59 136 -59 291q0 154 59 292q59 137 159 236q102 101 237 159q134 58 291 58z
M924 1386q-141 0 -261 -52q-124 -54 -212 -143q-91 -93 -143 -214q-52 -122 -52 -262q0 -141 52 -261q53 -122 143 -212q91 -91 212 -143q120 -52 261 -52t261 52q122 53 211 143q89 91 140 212q51 122 51 261t-51 262q-50 121 -140 214q-86 89 -211 143q-120 52 -261 52z
M946 1165q145 0 223 -66t78 -186q0 -96 -59 -161q-60 -66 -158 -76l236 -377h-92l-230 367h-209v-367h-82v866h293zM735 1096v-361h228q93 0 146 48q52 48 52 132q0 88 -56 134q-58 47 -155 47h-215z" />
    <glyph glyph-name="macron" unicode="&#xaf;" horiz-adv-x="739" 
d="M678 1298h-617v93h617v-93z" />
    <glyph glyph-name="degree" unicode="&#xb0;" horiz-adv-x="1017" 
d="M510 1450q69 0 135 -24q69 -25 116 -69q51 -48 80 -112t29 -151q0 -86 -29 -150t-80 -110q-49 -45 -116 -69q-66 -24 -135 -24t-135 24q-67 24 -116 69q-52 47 -81 111q-31 68 -31 151t31 151q29 64 81 111q47 43 116 68q66 24 135 24zM510 1358q-46 0 -92 -17
q-47 -17 -80 -49q-36 -34 -56 -82q-22 -52 -22 -114q0 -63 22 -115q20 -48 56 -82q33 -32 80 -49q44 -16 92 -16q49 0 91 16q45 17 79 48q35 32 56 81q22 52 22 115t-22 115q-21 50 -56 83q-33 32 -79 49q-45 17 -91 17z" />
    <glyph glyph-name="plusminus" unicode="&#xb1;" 
d="M678 653h334v-110h-334v-285h-121v285h-332v110h332v338h121v-338zM999 37h-784v110h784v-110z" />
    <glyph glyph-name="uni00B2" unicode="&#xb2;" horiz-adv-x="819" 
d="M414 1554q138 0 215 -68q78 -69 78 -181q0 -139 -121 -272q-124 -136 -332 -263h471v-94h-631v92q236 156 363 288q123 128 123 242q0 78 -44 120t-128 42q-92 0 -139 -51q-45 -50 -50 -129h-119q0 51 20 102q19 50 58 88q40 40 97 62t139 22z" />
    <glyph glyph-name="uni00B3" unicode="&#xb3;" horiz-adv-x="819" 
d="M416 1554q145 0 223 -63t78 -162q0 -78 -51 -129q-50 -50 -134 -61q84 -10 146 -62q65 -52 65 -151q0 -62 -24 -111q-23 -47 -70 -83q-44 -34 -105 -52q-60 -18 -132 -18q-135 0 -221 61q-87 61 -115 166l110 24q18 -67 76 -112q56 -43 150 -43q87 0 146 43q60 43 60 129
q0 78 -53 119t-137 41h-98v86h88q72 0 124 34t52 107q0 70 -50 108q-49 37 -130 37q-84 0 -136 -40q-53 -41 -69 -105l-111 18q23 93 105 156q83 63 213 63z" />
    <glyph glyph-name="acute" unicode="&#xb4;" horiz-adv-x="483" 
d="M170 1214h-109l199 271h162z" />
    <glyph glyph-name="uni00B5" unicode="&#xb5;" horiz-adv-x="1171" 
d="M1001 0h-122v246q-33 -136 -117 -203q-85 -68 -205 -68q-209 0 -262 181v-484h-123v1393h123v-680q0 -299 262 -299q65 0 124 24q60 25 102 71q45 50 70 120q26 73 26 170v594h122v-1065z" />
    <glyph glyph-name="paragraph" unicode="&#xb6;" horiz-adv-x="1247" 
d="M1059 -328h-74v1694h-336v-1694h-76v1006q-88 1 -162 34q-74 32 -124 84q-53 55 -80 117q-29 67 -29 138q0 75 28 147q27 69 80 122q54 54 130 83q81 31 178 31h465v-1762z" />
    <glyph glyph-name="periodcentered" unicode="&#xb7;" horiz-adv-x="516" 
d="M258 692q39 0 65 -26q27 -27 27 -64q0 -38 -27 -65t-65 -27q-37 0 -64 27q-28 28 -28 65q0 39 28 65q26 25 64 25z" />
    <glyph glyph-name="cedilla" unicode="&#xb8;" horiz-adv-x="569" 
d="M291 -109q107 -7 165 -53q56 -44 56 -112q0 -86 -67 -136q-65 -49 -175 -49q-54 0 -112 14q-59 14 -97 37l39 68q35 -23 76 -32q40 -9 82 -9q67 0 110 26q42 25 42 81q0 62 -60 83t-160 21l27 176h76z" />
    <glyph glyph-name="uni00B9" unicode="&#xb9;" horiz-adv-x="819" 
d="M168 770h225v528h-219v82h49q53 0 91 8q37 8 57 25t29 48q10 33 14 75h96v-766h197v-94h-539v94z" />
    <glyph glyph-name="ordmasculine" unicode="&#xba;" horiz-adv-x="931" 
d="M465 1458q88 0 160 -33q71 -33 120 -89q50 -57 76 -132q27 -76 27 -162q0 -88 -26 -166q-26 -79 -73 -133q-49 -56 -120 -86q-72 -30 -164 -30t-161 31q-71 32 -120 88q-48 55 -74 133t-26 163q0 87 26 165t74 132q50 55 120 87q72 32 161 32zM465 1366q-125 0 -196 -87
q-70 -86 -70 -235t68 -236q69 -89 198 -89q130 0 199 89q69 88 69 236q0 147 -71 234q-72 88 -197 88z" />
    <glyph glyph-name="guillemotright" unicode="&#xbb;" horiz-adv-x="952" 
d="M813 637v-127l-254 -336l-63 43l202 356l-202 347l63 45zM457 637v-127l-254 -336l-64 43l203 356l-203 347l64 45z" />
    <glyph glyph-name="onequarter" unicode="&#xbc;" horiz-adv-x="1837" 
d="M618 -25h-106l887 1483h106zM1647 287h145v-94h-145v-193h-115v193h-469v98l434 569h150v-573zM1180 287h352v452zM168 668h225v528h-219v82h49q57 0 91 7q35 7 57 26q20 17 29 48q10 33 14 75h96v-766h197v-95h-539v95z" />
    <glyph glyph-name="onehalf" unicode="&#xbd;" horiz-adv-x="1939" 
d="M618 -25h-106l887 1483h106zM1534 879q137 0 215 -69t78 -181q0 -139 -121 -272q-124 -136 -332 -263h471v-94h-631v92q236 156 363 288q123 127 123 243q0 77 -44 119t-128 42q-92 0 -138 -51t-51 -129h-118q0 55 19 103q20 49 58 88q38 38 98 61t138 23zM168 668h225
v528h-219v82h49q57 0 91 7q35 7 57 26q20 17 29 48q10 33 14 75h96v-766h197v-95h-539v95z" />
    <glyph glyph-name="threequarters" unicode="&#xbe;" horiz-adv-x="1755" 
d="M537 -25h-107l887 1483h106zM1565 287h145v-94h-145v-193h-115v193h-469v98l434 569h150v-573zM1098 287h352v452zM416 1452q145 0 223 -63t78 -162q0 -78 -51 -129q-52 -52 -134 -62q85 -11 146 -61q65 -52 65 -152q0 -61 -24 -110q-23 -47 -70 -83q-44 -34 -105 -52
q-63 -19 -132 -19q-133 0 -221 62q-87 61 -115 165l110 25q18 -69 76 -113q56 -43 150 -43q87 0 146 43q60 44 60 129q0 78 -53 119t-137 41h-98v86h88q71 0 124 35q52 34 52 106q0 71 -50 109q-49 37 -130 37q-84 0 -136 -40q-53 -41 -69 -106l-111 19q23 93 105 156
q83 63 213 63z" />
    <glyph glyph-name="questiondown" unicode="&#xbf;" horiz-adv-x="1062" 
d="M518 1081q39 0 65 -25q27 -26 27 -65q0 -38 -27 -65t-65 -27q-37 0 -64 27q-28 28 -28 63q0 38 28 66q26 26 64 26zM584 580q0 -66 -28 -119q-26 -49 -69 -92q-39 -39 -89 -78q-55 -43 -89 -77q-42 -42 -68 -90q-28 -51 -28 -116q0 -56 17 -100q19 -48 55 -83t92 -56
q55 -21 133 -21q76 0 139 25q60 24 104 62q43 37 71 85t44 92l115 -35q-15 -48 -49 -108q-34 -59 -92 -111q-56 -50 -140 -85q-79 -33 -188 -33q-129 0 -208 36q-82 37 -132 92q-49 53 -70 117q-20 60 -20 117q0 86 28 148q26 58 69 104q44 47 91 80q52 36 92 72
q44 40 69 82q28 48 28 112v76h123v-96z" />
    <glyph glyph-name="Agrave" unicode="&#xc0;" horiz-adv-x="1241" 
d="M965 299h-695l-100 -299h-131l502 1434h164l499 -1434h-139zM307 410h621l-310 917zM696 1542h-106l-260 266h168z" />
    <glyph glyph-name="Aacute" unicode="&#xc1;" horiz-adv-x="1241" 
d="M965 299h-695l-100 -299h-131l502 1434h164l499 -1434h-139zM307 410h621l-310 917zM664 1542h-109l199 266h168z" />
    <glyph glyph-name="Acircumflex" unicode="&#xc2;" horiz-adv-x="1241" 
d="M965 299h-695l-100 -299h-131l502 1434h164l499 -1434h-139zM307 410h621l-310 917zM952 1563h-116l-213 178l-211 -178h-119l270 256h121z" />
    <glyph glyph-name="Atilde" unicode="&#xc3;" horiz-adv-x="1241" 
d="M965 299h-695l-100 -299h-131l502 1434h164l499 -1434h-139zM307 410h621l-310 917zM496 1774q52 0 87 -18q34 -18 60 -38q11 -8 29.5 -21.5t21.5 -16.5q23 -17 60 -17q41 0 65 24q25 25 45 72h80q-17 -80 -67 -132q-51 -52 -129 -52q-56 0 -89 17q-38 20 -60 38
q-7 6 -50 38q-24 18 -60 18q-41 0 -66 -24t-46 -73h-78q16 78 67 132q50 53 130 53z" />
    <glyph glyph-name="Adieresis" unicode="&#xc4;" horiz-adv-x="1241" 
d="M965 299h-695l-100 -299h-131l502 1434h164l499 -1434h-139zM307 410h621l-310 917zM403 1755q35 0 58 -23q24 -24 24 -57q0 -32 -24 -56t-58 -24q-32 0 -56 24q-23 23 -23 56q0 34 23 57t56 23zM842 1755q34 0 57 -23q25 -25 25 -57q0 -31 -25 -56q-24 -24 -57 -24
t-57 24q-23 23 -23 56q0 34 23 57t57 23z" />
    <glyph glyph-name="Aring" unicode="&#xc5;" horiz-adv-x="1241" 
d="M965 299h-695l-100 -299h-131l502 1434h164l499 -1434h-139zM307 410h621l-310 917zM623 1956q45 0 90 -17q40 -15 75 -47q34 -31 53 -72t19 -94q0 -52 -19 -93q-18 -39 -53 -71q-33 -30 -75 -46q-45 -17 -90 -17q-47 0 -92 17q-44 17 -76 46q-35 32 -53 71
q-19 41 -19 93q0 53 19 94t53 72t76 47q45 17 92 17zM623 1882q-61 0 -108 -42q-46 -42 -46 -114q0 -71 46 -111t108 -40q59 0 105 40t46 111q0 72 -46 114t-105 42z" />
    <glyph glyph-name="AE" unicode="&#xc6;" horiz-adv-x="1949" 
d="M1759 1323h-790l84 -537h678v-110h-662l88 -563h713v-113h-828l-43 295h-690l-157 -295h-136l772 1434h971v-111zM362 403h621l-133 914z" />
    <glyph glyph-name="Ccedilla" unicode="&#xc7;" horiz-adv-x="1441" 
d="M748 1460q81 0 161 -19q81 -19 158 -66t139 -122q66 -81 105 -188l-125 -35q-61 166 -177 241q-115 75 -264 75q-105 0 -195 -40q-94 -41 -158 -119q-67 -81 -104 -197q-38 -120 -38 -271q0 -159 38 -279q37 -116 104 -197q66 -79 158 -117q93 -38 195 -38q171 0 290 85
t179 261l123 -41q-38 -113 -99 -190q-66 -83 -140 -130q-82 -52 -168 -75q-94 -25 -185 -25q-105 0 -215 37q-109 37 -201 124q-91 87 -150 230q-58 141 -58 355q0 196 53 338t141 230q89 89 201 131q113 42 232 42zM772 -109q107 -7 165 -53q56 -44 56 -112q0 -86 -66 -136
q-65 -49 -175 -49q-55 0 -113 14q-57 14 -96 37l39 68q36 -23 75 -32q41 -9 82 -9q67 0 110 26q42 25 42 81q0 62 -60 83t-159 21l26 176h76z" />
    <glyph glyph-name="Egrave" unicode="&#xc8;" horiz-adv-x="1157" 
d="M1018 1323h-711v-537h668v-110h-668v-565h729v-111h-854v1434h836v-111zM686 1542h-106l-261 266h168z" />
    <glyph glyph-name="Eacute" unicode="&#xc9;" horiz-adv-x="1157" 
d="M1018 1323h-711v-537h668v-110h-668v-565h729v-111h-854v1434h836v-111zM653 1542h-108l198 266h168z" />
    <glyph glyph-name="Ecircumflex" unicode="&#xca;" horiz-adv-x="1157" 
d="M1018 1323h-711v-537h668v-110h-668v-565h729v-111h-854v1434h836v-111zM942 1563h-117l-213 178l-211 -178h-118l270 256h121z" />
    <glyph glyph-name="Edieresis" unicode="&#xcb;" horiz-adv-x="1157" 
d="M1018 1323h-711v-537h668v-110h-668v-565h729v-111h-854v1434h836v-111zM393 1755q35 0 58 -23q24 -24 24 -57q0 -32 -24 -56t-58 -24q-32 0 -56 24t-24 56q0 33 24 57q23 23 56 23zM831 1755q35 0 58 -23q24 -24 24 -57q0 -32 -24 -56t-58 -24q-32 0 -56 24
q-23 23 -23 56q0 34 23 57t56 23z" />
    <glyph glyph-name="Igrave" unicode="&#xcc;" horiz-adv-x="704" 
d="M629 1325h-213v-1216h213v-109h-551v109h213v1216h-213v109h551v-109zM426 1542h-107l-260 266h168z" />
    <glyph glyph-name="Iacute" unicode="&#xcd;" horiz-adv-x="704" 
d="M629 1325h-213v-1216h213v-109h-551v109h213v1216h-213v109h551v-109zM393 1542h-108l198 266h168z" />
    <glyph glyph-name="Icircumflex" unicode="&#xce;" horiz-adv-x="704" 
d="M629 1325h-213v-1216h213v-109h-551v109h213v1216h-213v109h551v-109zM682 1563h-117l-213 178l-211 -178h-118l270 256h121z" />
    <glyph glyph-name="Idieresis" unicode="&#xcf;" horiz-adv-x="704" 
d="M629 1325h-213v-1216h213v-109h-551v109h213v1216h-213v109h551v-109zM133 1755q34 0 57 -23q25 -25 25 -57q0 -31 -25 -56q-24 -24 -57 -24q-32 0 -56 24t-24 56q0 33 24 57q23 23 56 23zM571 1755q35 0 58 -23q24 -24 24 -57q0 -32 -24 -56t-58 -24q-32 0 -56 24
q-23 23 -23 56q0 34 23 57t56 23z" />
    <glyph glyph-name="Eth" unicode="&#xd0;" horiz-adv-x="1458" 
d="M635 1434q146 0 275 -41t224 -127q94 -85 150 -217q55 -129 55 -312q0 -214 -58 -355q-58 -140 -152 -227q-93 -86 -208 -120q-117 -35 -229 -35h-454v707h-183v86h183v641h397zM690 113q94 0 185 27q89 26 165 99t121 191q47 123 47 307q0 135 -38 244q-37 106 -110 184
q-70 75 -179 116q-105 40 -244 40h-277v-528h433v-86h-433v-594h330z" />
    <glyph glyph-name="Ntilde" unicode="&#xd1;" horiz-adv-x="1404" 
d="M1225 0h-135l-787 1219v-1219h-121v1434h129l791 -1237v1237h123v-1434zM575 1774q53 0 88 -18q34 -18 60 -38q11 -8 29 -21.5l22 -16.5q23 -17 60 -17q41 0 65 24q25 25 45 72h80q-16 -79 -68 -132q-51 -52 -129 -52q-55 0 -88 17q-38 20 -60 38q-7 6 -50 38
q-24 18 -60 18q-41 0 -66 -24t-46 -73h-78q17 79 66 132q50 53 130 53z" />
    <glyph glyph-name="Ograve" unicode="&#xd2;" horiz-adv-x="1521" 
d="M762 1460q105 0 219 -38q112 -37 207 -125q94 -87 154 -229q61 -145 61 -353q0 -200 -56 -339q-57 -142 -147 -230q-90 -89 -205 -131q-114 -42 -233 -42q-104 0 -220 38q-113 37 -207 125t-154 230q-60 143 -60 353q0 199 55 339t147 229q93 90 205 131q114 42 234 42z
M760 1350q-108 0 -200 -40q-93 -40 -162 -120q-67 -77 -108 -198q-40 -117 -40 -273q0 -160 40 -277q41 -121 108 -198q69 -80 162 -120q92 -40 200 -40q105 0 197 40q95 41 163 120q72 83 111 197q41 120 41 274q0 159 -40 276q-41 119 -110 199q-68 79 -163 120
q-92 40 -199 40zM834 1542h-107l-260 266h168z" />
    <glyph glyph-name="Oacute" unicode="&#xd3;" horiz-adv-x="1521" 
d="M762 1460q105 0 219 -38q112 -37 207 -125q94 -87 154 -229q61 -145 61 -353q0 -200 -56 -339q-57 -142 -147 -230q-90 -89 -205 -131q-114 -42 -233 -42q-104 0 -220 38q-113 37 -207 125t-154 230q-60 143 -60 353q0 199 55 339t147 229q93 90 205 131q114 42 234 42z
M760 1350q-108 0 -200 -40q-93 -40 -162 -120q-67 -77 -108 -198q-40 -117 -40 -273q0 -160 40 -277q41 -121 108 -198q69 -80 162 -120q92 -40 200 -40q105 0 197 40q95 41 163 120q72 83 111 197q41 120 41 274q0 159 -40 276q-41 119 -110 199q-68 79 -163 120
q-92 40 -199 40zM801 1542h-109l199 266h168z" />
    <glyph glyph-name="Ocircumflex" unicode="&#xd4;" horiz-adv-x="1521" 
d="M762 1460q105 0 219 -38q112 -37 207 -125q94 -87 154 -229q61 -145 61 -353q0 -200 -56 -339q-57 -142 -147 -230q-90 -89 -205 -131q-114 -42 -233 -42q-104 0 -220 38q-113 37 -207 125t-154 230q-60 143 -60 353q0 199 55 339t147 229q93 90 205 131q114 42 234 42z
M760 1350q-108 0 -200 -40q-93 -40 -162 -120q-67 -77 -108 -198q-40 -117 -40 -273q0 -160 40 -277q41 -121 108 -198q69 -80 162 -120q92 -40 200 -40q105 0 197 40q95 41 163 120q72 83 111 197q41 120 41 274q0 159 -40 276q-41 119 -110 199q-68 79 -163 120
q-92 40 -199 40zM1090 1563h-117l-213 178l-211 -178h-119l270 256h121z" />
    <glyph glyph-name="Otilde" unicode="&#xd5;" horiz-adv-x="1521" 
d="M762 1460q105 0 219 -38q112 -37 207 -125q94 -87 154 -229q61 -145 61 -353q0 -200 -56 -339q-57 -142 -147 -230q-90 -89 -205 -131q-114 -42 -233 -42q-104 0 -220 38q-113 37 -207 125t-154 230q-60 143 -60 353q0 199 55 339t147 229q93 90 205 131q114 42 234 42z
M760 1350q-108 0 -200 -40q-93 -40 -162 -120q-67 -77 -108 -198q-40 -117 -40 -273q0 -160 40 -277q41 -121 108 -198q69 -80 162 -120q92 -40 200 -40q105 0 197 40q95 41 163 120q72 83 111 197q41 120 41 274q0 159 -40 276q-41 119 -110 199q-68 79 -163 120
q-92 40 -199 40zM633 1774q53 0 87 -18t60 -38q11 -8 29.5 -21.5t21.5 -16.5q23 -17 60 -17q41 0 65 24q25 25 45 72h80q-17 -80 -67 -132q-51 -52 -129 -52q-55 0 -88 17q-41 21 -61 38q-7 6 -50 38q-24 18 -59 18q-41 0 -67 -24q-25 -24 -46 -73h-78q16 78 67 132
q50 53 130 53z" />
    <glyph glyph-name="Odieresis" unicode="&#xd6;" horiz-adv-x="1521" 
d="M762 1460q105 0 219 -38q112 -37 207 -125q94 -87 154 -229q61 -145 61 -353q0 -200 -56 -339q-57 -142 -147 -230q-90 -89 -205 -131q-114 -42 -233 -42q-104 0 -220 38q-113 37 -207 125t-154 230q-60 143 -60 353q0 199 55 339t147 229q93 90 205 131q114 42 234 42z
M760 1350q-108 0 -200 -40q-93 -40 -162 -120q-67 -77 -108 -198q-40 -117 -40 -273q0 -160 40 -277q41 -121 108 -198q69 -80 162 -120q92 -40 200 -40q105 0 197 40q95 41 163 120q72 83 111 197q41 120 41 274q0 159 -40 276q-41 119 -110 199q-68 79 -163 120
q-92 40 -199 40zM541 1755q34 0 57 -23q25 -25 25 -57q0 -31 -25 -56q-24 -24 -57 -24t-57 24q-23 23 -23 56q0 34 23 57t57 23zM979 1755q34 0 57 -23q25 -25 25 -57q0 -31 -25 -56q-24 -24 -57 -24q-32 0 -56 24t-24 56q0 33 24 57q23 23 56 23z" />
    <glyph glyph-name="multiply" unicode="&#xd7;" 
d="M989 877l-299 -297l299 -297l-76 -78l-299 297l-297 -297l-77 78l299 297l-299 297l77 77l297 -297l299 297z" />
    <glyph glyph-name="Oslash" unicode="&#xd8;" horiz-adv-x="1521" 
d="M1200 1286q91 -89 147 -227q56 -137 56 -344q0 -200 -56 -339q-57 -142 -147 -230q-90 -89 -205 -131q-114 -42 -233 -42q-82 0 -171 23q-85 22 -169 74l-156 -254h-112l196 307q-100 85 -165 231q-64 144 -64 365q0 199 55 339t147 229q93 90 205 131q114 42 234 42
q93 0 184 -26q97 -28 180 -86l131 206h109zM250 719q0 -170 45 -293t123 -201l647 1020q-132 103 -305 103q-108 0 -200 -40q-94 -41 -162 -119q-67 -77 -108 -197q-40 -117 -40 -273zM760 86q105 0 197 40q96 42 163 119q73 84 111 196q41 120 41 274q0 155 -39 273
q-38 117 -107 196l-643 -1016q118 -82 277 -82z" />
    <glyph glyph-name="Ugrave" unicode="&#xd9;" horiz-adv-x="1345" 
d="M1190 500q0 -97 -27 -190q-27 -92 -87 -169q-58 -74 -160 -122q-98 -46 -244 -46q-149 0 -249 47q-99 47 -158 122q-59 76 -83 169q-24 95 -24 189v934h125v-930q0 -96 22 -171q22 -76 71 -132q48 -56 122 -86q76 -31 176 -31q98 0 174 31q74 30 122 86q47 54 71 133
q24 78 24 170v930h125v-934zM745 1542h-106l-260 266h168z" />
    <glyph glyph-name="Uacute" unicode="&#xda;" horiz-adv-x="1345" 
d="M1190 500q0 -97 -27 -190q-27 -92 -87 -169q-58 -74 -160 -122q-98 -46 -244 -46q-149 0 -249 47q-99 47 -158 122q-59 76 -83 169q-24 95 -24 189v934h125v-930q0 -96 22 -171q22 -76 71 -132q48 -56 122 -86q76 -31 176 -31q98 0 174 31q74 30 122 86q47 54 71 133
q24 78 24 170v930h125v-934zM713 1542h-109l199 266h168z" />
    <glyph glyph-name="Ucircumflex" unicode="&#xdb;" horiz-adv-x="1345" 
d="M1190 500q0 -97 -27 -190q-27 -92 -87 -169q-58 -74 -160 -122q-98 -46 -244 -46q-149 0 -249 47q-99 47 -158 122q-59 76 -83 169q-24 95 -24 189v934h125v-930q0 -96 22 -171q22 -76 71 -132q48 -56 122 -86q76 -31 176 -31q98 0 174 31q74 30 122 86q47 54 71 133
q24 78 24 170v930h125v-934zM1001 1563h-116l-213 178l-211 -178h-119l270 256h121z" />
    <glyph glyph-name="Udieresis" unicode="&#xdc;" horiz-adv-x="1345" 
d="M1190 500q0 -97 -27 -190q-27 -92 -87 -169q-58 -74 -160 -122q-98 -46 -244 -46q-149 0 -249 47q-99 47 -158 122q-59 76 -83 169q-24 95 -24 189v934h125v-930q0 -96 22 -171q22 -76 71 -132q48 -56 122 -86q76 -31 176 -31q98 0 174 31q74 30 122 86q47 54 71 133
q24 78 24 170v930h125v-934zM453 1755q34 0 57 -23q25 -25 25 -57q0 -31 -25 -56q-24 -24 -57 -24t-57 24q-23 23 -23 56q0 34 23 57t57 23zM891 1755q34 0 57 -23q25 -25 25 -57q0 -31 -25 -56q-24 -24 -57 -24q-32 0 -56 24t-24 56q0 33 24 57q23 23 56 23z" />
    <glyph glyph-name="Yacute" unicode="&#xdd;" horiz-adv-x="1210" 
d="M674 590v-590h-125v588l-506 846h141l428 -729l420 729h137zM649 1542h-108l198 266h168z" />
    <glyph glyph-name="Thorn" unicode="&#xde;" horiz-adv-x="1245" 
d="M307 1176h342q138 0 234 -36q94 -35 157 -98q62 -62 89 -141q28 -82 28 -166q0 -94 -31 -179q-30 -82 -92 -144q-64 -64 -155 -97q-93 -34 -224 -34h-348v-281h-125v1434h125v-258zM307 1065v-676h357q168 0 264 87t96 259q0 67 -22 130q-22 62 -66 106q-45 45 -114 69
q-72 25 -160 25h-355z" />
    <glyph glyph-name="germandbls" unicode="&#xdf;" horiz-adv-x="1191" 
d="M567 1454q97 0 166 -24t114 -66q44 -41 65 -93q22 -55 22 -110q0 -77 -34 -126q-38 -55 -74 -88q-13 -12 -37 -35t-36 -34q-34 -31 -34 -71q0 -37 31 -62q33 -26 75 -46q70 -33 100 -46q53 -24 99 -65t76 -103t30 -155q0 -67 -22 -129q-22 -63 -71 -113q-47 -48 -122 -79
q-71 -29 -176 -29t-183 28t-146 90l67 78q57 -51 115 -71q60 -21 143 -21q135 0 203 69q68 70 68 177q0 76 -30 123t-76 78q-51 34 -98 56q-61 28 -99 50q-46 27 -75 63q-30 38 -30 97q0 57 34 97t74 77q34 31 73 79q34 41 34 107q0 91 -64 143q-66 54 -182 54
q-146 0 -209 -84t-63 -213v-1057h-123v1057q0 82 24 154q25 75 71 127q49 56 123 85q78 31 177 31z" />
    <glyph glyph-name="agrave" unicode="&#xe0;" horiz-adv-x="1114" 
d="M557 1083q117 0 193 -24q73 -23 120 -70t64 -109q18 -64 18 -147v-442q0 -105 7 -168q8 -69 28 -123h-127q-11 35 -19 83q-9 51 -10 79q-46 -73 -142 -128q-95 -54 -236 -54q-91 0 -154 23q-66 24 -110 65t-66 97q-23 58 -23 122q0 142 102 231q103 89 335 119l292 39v47
q0 70 -10 117q-10 48 -41 82q-29 32 -84 49q-51 16 -139 16q-159 0 -225 -63t-68 -170h-121q4 152 108 241q103 88 308 88zM571 547q-179 -24 -262 -83q-82 -58 -82 -171q0 -89 58 -150q56 -59 190 -59q76 0 142 23q68 24 112 62q48 42 74 92q26 51 26 114v207zM631 1217
h-107l-254 270h162z" />
    <glyph glyph-name="aacute" unicode="&#xe1;" horiz-adv-x="1114" 
d="M557 1083q117 0 193 -24q73 -23 120 -70t64 -109q18 -64 18 -147v-442q0 -105 7 -168q8 -69 28 -123h-127q-11 35 -19 83q-9 51 -10 79q-46 -73 -142 -128q-95 -54 -236 -54q-91 0 -154 23q-66 24 -110 65t-66 97q-23 58 -23 122q0 142 102 231q103 89 335 119l292 39v47
q0 70 -10 117q-10 48 -41 82q-29 32 -84 49q-51 16 -139 16q-159 0 -225 -63t-68 -170h-121q4 152 108 241q103 88 308 88zM571 547q-179 -24 -262 -83q-82 -58 -82 -171q0 -89 58 -150q56 -59 190 -59q76 0 142 23q68 24 112 62q48 42 74 92q26 51 26 114v207zM598 1217
h-109l199 270h162z" />
    <glyph glyph-name="acircumflex" unicode="&#xe2;" horiz-adv-x="1114" 
d="M557 1083q117 0 193 -24q73 -23 120 -70t64 -109q18 -64 18 -147v-442q0 -105 7 -168q8 -69 28 -123h-127q-11 35 -19 83q-9 51 -10 79q-46 -73 -142 -128q-95 -54 -236 -54q-91 0 -154 23q-66 24 -110 65t-66 97q-23 58 -23 122q0 142 102 231q103 89 335 119l292 39v47
q0 70 -10 117q-10 48 -41 82q-29 32 -84 49q-51 16 -139 16q-159 0 -225 -63t-68 -170h-121q4 152 108 241q103 88 308 88zM571 547q-179 -24 -262 -83q-82 -58 -82 -171q0 -89 58 -150q56 -59 190 -59q76 0 142 23q68 24 112 62q48 42 74 92q26 51 26 114v207zM891 1229
h-117l-213 182l-211 -182h-119l271 262h121z" />
    <glyph glyph-name="atilde" unicode="&#xe3;" horiz-adv-x="1114" 
d="M557 1083q117 0 193 -24q73 -23 120 -70t64 -109q18 -64 18 -147v-442q0 -105 7 -168q8 -69 28 -123h-127q-11 35 -19 83q-9 51 -10 79q-46 -73 -142 -128q-95 -54 -236 -54q-91 0 -154 23q-66 24 -110 65t-66 97q-23 58 -23 122q0 142 102 231q103 89 335 119l292 39v47
q0 70 -10 117q-10 48 -41 82q-29 32 -84 49q-51 16 -139 16q-159 0 -225 -63t-68 -170h-121q4 152 108 241q103 88 308 88zM571 547q-179 -24 -262 -83q-82 -58 -82 -171q0 -89 58 -150q56 -59 190 -59q76 0 142 23q68 24 112 62q48 42 74 92q26 51 26 114v207zM434 1446
q52 0 87 -18q41 -21 61 -37q11 -8 29.5 -21.5t21.5 -16.5q24 -18 59 -18q42 0 66 24t45 73h80q-17 -80 -68 -133q-51 -52 -129 -52q-54 0 -88 18q-38 20 -60 38q-10 8 -28 20.5t-23 16.5q-24 18 -59 18q-42 0 -67 -24q-26 -24 -46 -72h-77q16 80 66 132q49 52 130 52z" />
    <glyph glyph-name="adieresis" unicode="&#xe4;" horiz-adv-x="1114" 
d="M557 1083q117 0 193 -24q73 -23 120 -70t64 -109q18 -64 18 -147v-442q0 -105 7 -168q8 -69 28 -123h-127q-11 35 -19 83q-9 51 -10 79q-46 -73 -142 -128q-95 -54 -236 -54q-91 0 -154 23q-66 24 -110 65t-66 97q-23 58 -23 122q0 142 102 231q103 89 335 119l292 39v47
q0 70 -10 117q-10 48 -41 82q-29 32 -84 49q-51 16 -139 16q-159 0 -225 -63t-68 -170h-121q4 152 108 241q103 88 308 88zM571 547q-179 -24 -262 -83q-82 -58 -82 -171q0 -89 58 -150q56 -59 190 -59q76 0 142 23q68 24 112 62q48 42 74 92q26 51 26 114v207zM342 1430
q33 0 57 -24q25 -25 25 -56q0 -32 -25 -57q-23 -23 -57 -23q-33 0 -56 23q-24 24 -24 57q0 32 24 56t56 24zM780 1430q34 0 58 -24t24 -56q0 -33 -24 -57q-23 -23 -58 -23q-33 0 -56 23q-24 24 -24 57q0 32 24 56t56 24z" />
    <glyph glyph-name="aring" unicode="&#xe5;" horiz-adv-x="1114" 
d="M557 1083q117 0 193 -24q73 -23 120 -70t64 -109q18 -64 18 -147v-442q0 -105 7 -168q8 -69 28 -123h-127q-11 35 -19 83q-9 51 -10 79q-46 -73 -142 -128q-95 -54 -236 -54q-91 0 -154 23q-66 24 -110 65t-66 97q-23 58 -23 122q0 142 102 231q103 89 335 119l292 39v47
q0 70 -10 117q-10 48 -41 82q-29 32 -84 49q-51 16 -139 16q-159 0 -225 -63t-68 -170h-121q4 152 108 241q103 88 308 88zM571 547q-179 -24 -262 -83q-82 -58 -82 -171q0 -89 58 -150q56 -59 190 -59q76 0 142 23q68 24 112 62q48 42 74 92q26 51 26 114v207zM561 1659
q47 0 90 -18t76 -48q32 -29 52 -72t20 -94q0 -50 -20 -93q-19 -41 -52 -71q-32 -29 -76 -46q-45 -17 -90 -17q-46 0 -91 17t-77 46q-33 30 -52 71t-19 93q0 53 19 94q20 43 52 72q33 30 77 48t91 18zM561 1583q-61 0 -107 -42t-46 -114q0 -71 46 -111t107 -40q60 0 106 40
t46 111q0 72 -46 114t-106 42z" />
    <glyph glyph-name="ae" unicode="&#xe6;" horiz-adv-x="1861" 
d="M1294 1083q114 0 202 -44q85 -43 146 -117q60 -73 90 -173q29 -96 29 -210v-31h-823q1 -91 27 -174q24 -78 72 -135q49 -59 117 -88q71 -31 159 -31q116 0 196 50t133 130l103 -53q-72 -110 -179 -170q-108 -60 -255 -60q-157 0 -263 71t-161 181q-43 -105 -146 -177
q-102 -72 -278 -72q-95 0 -160 23q-67 24 -113 65q-45 40 -67 97q-23 58 -23 122q0 144 103 235q102 90 334 119l294 37q5 39 25 100q-10 45 -27 84q-17 41 -49 67q-35 28 -86 43q-53 15 -137 15q-83 0 -137 -16q-55 -16 -90 -47q-35 -30 -50 -74q-17 -48 -18 -96h-121
q4 152 107 241q101 88 311 88q102 0 168 -18q64 -18 104 -48q40 -31 59 -67q22 -42 32 -71q17 33 52 71q34 37 82 67q49 31 107 48q60 18 131 18zM571 551q-182 -22 -263 -84q-81 -61 -81 -174q0 -90 60 -150q59 -59 192 -59q76 0 139 21q62 21 112 58q48 36 77 83t35 98
q-13 54 -17 92q-4 39 -4 82v31q0 11 2 33zM1292 983q-84 0 -148 -30q-66 -31 -109 -81q-44 -52 -68 -120q-24 -70 -29 -150h696q-5 88 -27 152q-24 70 -67 120q-45 53 -105 80q-64 29 -143 29z" />
    <glyph glyph-name="ccedilla" unicode="&#xe7;" horiz-adv-x="1130" 
d="M606 1083q155 0 263 -71q110 -73 163 -187l-108 -45q-42 94 -120 146q-80 53 -192 53q-85 0 -155 -32q-71 -33 -118 -91q-48 -60 -75 -142q-26 -79 -26 -184q0 -98 24 -180q22 -77 72 -141q45 -58 116 -92q69 -33 156 -33q76 0 127 19t93 53q41 34 69 76q26 39 49 94
l109 -47q-52 -127 -163 -214q-109 -85 -288 -85q-121 0 -211 43q-92 44 -154 116q-64 74 -95 174q-31 99 -31 215q0 124 33 222q35 103 99 176t155 115q92 42 208 42zM629 -109q107 -7 165 -53q56 -44 56 -112q0 -86 -67 -136q-65 -49 -175 -49q-54 0 -112 14q-59 14 -97 37
l39 68q35 -23 76 -32t82 -9q67 0 110 26q42 25 42 81q0 62 -60 83t-160 21l27 176h76z" />
    <glyph glyph-name="egrave" unicode="&#xe8;" horiz-adv-x="1161" 
d="M594 1083q114 0 202 -44q85 -43 146 -117q58 -71 89 -173q30 -99 30 -210v-31h-823q0 -98 25 -174q25 -77 74 -135t118 -88q71 -31 159 -31q114 0 196 50t134 132l103 -55q-70 -109 -181 -170q-108 -60 -256 -60q-118 0 -214 45q-94 44 -156 118q-65 77 -97 177
q-32 99 -32 220q0 113 30 212q30 98 92 174q59 72 152 117q89 43 209 43zM592 983q-84 0 -149 -30q-64 -30 -108 -80q-46 -53 -69 -118q-23 -67 -28 -149h696q-5 83 -28 150q-26 74 -66 120q-44 50 -106 78q-64 29 -142 29zM655 1214h-106l-254 271h162z" />
    <glyph glyph-name="eacute" unicode="&#xe9;" horiz-adv-x="1161" 
d="M594 1083q114 0 202 -44q85 -43 146 -117q58 -71 89 -173q30 -99 30 -210v-31h-823q0 -98 25 -174q25 -77 74 -135t118 -88q71 -31 159 -31q114 0 196 50t134 132l103 -55q-70 -109 -181 -170q-108 -60 -256 -60q-118 0 -214 45q-94 44 -156 118q-65 77 -97 177
q-32 99 -32 220q0 113 30 212q30 98 92 174q59 72 152 117q89 43 209 43zM592 983q-84 0 -149 -30q-64 -30 -108 -80q-46 -53 -69 -118q-23 -67 -28 -149h696q-5 83 -28 150q-26 74 -66 120q-44 50 -106 78q-64 29 -142 29zM623 1214h-109l199 271h161z" />
    <glyph glyph-name="ecircumflex" unicode="&#xea;" horiz-adv-x="1161" 
d="M594 1083q114 0 202 -44q85 -43 146 -117q58 -71 89 -173q30 -99 30 -210v-31h-823q0 -98 25 -174q25 -77 74 -135t118 -88q71 -31 159 -31q114 0 196 50t134 132l103 -55q-70 -109 -181 -170q-108 -60 -256 -60q-118 0 -214 45q-94 44 -156 118q-65 77 -97 177
q-32 99 -32 220q0 113 30 212q30 98 92 174q59 72 152 117q89 43 209 43zM592 983q-84 0 -149 -30q-64 -30 -108 -80q-46 -53 -69 -118q-23 -67 -28 -149h696q-5 83 -28 150q-26 74 -66 120q-44 50 -106 78q-64 29 -142 29zM915 1227h-116l-213 182l-211 -182h-119l270 262
h121z" />
    <glyph glyph-name="edieresis" unicode="&#xeb;" horiz-adv-x="1161" 
d="M594 1083q114 0 202 -44q85 -43 146 -117q58 -71 89 -173q30 -99 30 -210v-31h-823q0 -98 25 -174q25 -77 74 -135t118 -88q71 -31 159 -31q114 0 196 50t134 132l103 -55q-70 -109 -181 -170q-108 -60 -256 -60q-118 0 -214 45q-94 44 -156 118q-65 77 -97 177
q-32 99 -32 220q0 113 30 212q30 98 92 174q59 72 152 117q89 43 209 43zM592 983q-84 0 -149 -30q-64 -30 -108 -80q-46 -53 -69 -118q-23 -67 -28 -149h696q-5 83 -28 150q-26 74 -66 120q-44 50 -106 78q-64 29 -142 29zM367 1427q34 0 57 -23q25 -25 25 -56
q0 -32 -25 -57q-23 -23 -57 -23t-57 23t-23 57q0 33 23 56t57 23zM805 1427q34 0 57 -23q25 -25 25 -56q0 -32 -25 -57q-23 -23 -57 -23q-33 0 -56 23q-24 24 -24 57q0 32 24 56q23 23 56 23z" />
    <glyph glyph-name="igrave" unicode="&#xec;" horiz-adv-x="464" 
d="M295 0h-123v1065h123v-1065zM303 1217h-106l-254 270h161z" />
    <glyph glyph-name="iacute" unicode="&#xed;" horiz-adv-x="464" 
d="M295 0h-123v1065h123v-1065zM270 1217h-108l198 270h162z" />
    <glyph glyph-name="icircumflex" unicode="&#xee;" horiz-adv-x="464" 
d="M295 0h-123v1065h123v-1065zM563 1229h-117l-213 182l-210 -182h-119l270 262h121z" />
    <glyph glyph-name="idieresis" unicode="&#xef;" horiz-adv-x="464" 
d="M295 0h-123v1065h123v-1065zM14 1430q34 0 58 -24t24 -56q0 -33 -24 -57q-23 -23 -58 -23q-33 0 -56 23q-24 24 -24 57q0 32 24 56t56 24zM453 1430q33 0 57 -24q25 -25 25 -56q0 -32 -25 -57q-23 -23 -57 -23t-57 23t-23 57q0 33 23 56q24 24 57 24z" />
    <glyph glyph-name="eth" unicode="&#xf0;" horiz-adv-x="1177" 
d="M705 1362q179 -88 271 -278q91 -188 91 -509q0 -149 -36 -262q-35 -111 -99 -188q-63 -76 -152 -114q-90 -38 -192 -38q-107 0 -197 35q-85 33 -150 100q-62 64 -97 153q-33 85 -33 198q0 111 34 198q33 85 96 151q58 61 143 95q83 33 181 33q149 0 247 -68t138 -172
q-15 229 -89 368t-212 212l-106 -168h-105l129 201q-53 20 -129 33q-65 11 -147 16l20 92q179 -11 312 -55l94 147h102zM586 78q78 0 144 29t109 81q42 51 67 128q24 75 24 165q0 77 -24 141q-25 66 -68 111q-46 48 -110 73q-63 25 -144 25q-167 0 -258 -103
q-93 -105 -93 -269q0 -177 97 -280q95 -101 256 -101z" />
    <glyph glyph-name="ntilde" unicode="&#xf1;" horiz-adv-x="1167" 
d="M647 1083q181 0 271 -105t90 -298v-680h-123v639q0 158 -58 250q-57 90 -204 90q-64 0 -125 -26q-60 -25 -105 -75q-43 -47 -71 -124q-27 -74 -27 -170v-584h-123v1065h123v-201q51 109 144 164q92 55 208 55zM500 1446q52 0 87 -18q38 -20 60 -37q11 -8 29.5 -21.5
t21.5 -16.5q24 -18 60 -18q41 0 65 24t45 73h80q-17 -81 -67 -133q-51 -52 -129 -52q-54 0 -88 18q-41 21 -61 38q-10 8 -28.5 21.5t-21.5 15.5q-24 18 -59 18q-42 0 -67 -24q-26 -24 -46 -72h-78q16 78 67 132q49 52 130 52z" />
    <glyph glyph-name="ograve" unicode="&#xf2;" horiz-adv-x="1218" 
d="M610 1083q119 0 209 -43q96 -46 157 -118q64 -76 99 -177q35 -102 35 -215q0 -120 -33 -222q-33 -101 -96 -175q-64 -74 -157 -115q-94 -41 -214 -41t-212 43q-93 44 -156 117q-64 75 -98 175q-33 98 -33 218q0 123 33 221q34 101 99 175q64 73 157 115t210 42zM608 979
q-85 0 -154 -33q-70 -33 -117 -91q-49 -60 -74 -140q-25 -81 -25 -183q0 -100 24 -183q23 -79 72 -142q45 -58 116 -92q69 -33 158 -33q91 0 160 33q72 34 117 91q47 59 71 141q25 86 25 185q0 97 -26 181q-25 81 -73 141q-46 58 -118 92q-69 33 -156 33zM678 1217h-107
l-254 270h162z" />
    <glyph glyph-name="oacute" unicode="&#xf3;" horiz-adv-x="1218" 
d="M610 1083q119 0 209 -43q96 -46 157 -118q64 -76 99 -177q35 -102 35 -215q0 -120 -33 -222q-33 -101 -96 -175q-64 -74 -157 -115q-94 -41 -214 -41t-212 43q-93 44 -156 117q-64 75 -98 175q-33 98 -33 218q0 123 33 221q34 101 99 175q64 73 157 115t210 42zM608 979
q-85 0 -154 -33q-70 -33 -117 -91q-49 -60 -74 -140q-25 -81 -25 -183q0 -100 24 -183q23 -79 72 -142q45 -58 116 -92q69 -33 158 -33q91 0 160 33q72 34 117 91q47 59 71 141q25 86 25 185q0 97 -26 181q-25 81 -73 141q-46 58 -118 92q-69 33 -156 33zM645 1217h-108
l198 270h162z" />
    <glyph glyph-name="ocircumflex" unicode="&#xf4;" horiz-adv-x="1218" 
d="M610 1083q119 0 209 -43q96 -46 157 -118q64 -76 99 -177q35 -102 35 -215q0 -120 -33 -222q-33 -101 -96 -175q-64 -74 -157 -115q-94 -41 -214 -41t-212 43q-93 44 -156 117q-64 75 -98 175q-33 98 -33 218q0 123 33 221q34 101 99 175q64 73 157 115t210 42zM608 979
q-85 0 -154 -33q-70 -33 -117 -91q-49 -60 -74 -140q-25 -81 -25 -183q0 -100 24 -183q23 -79 72 -142q45 -58 116 -92q69 -33 158 -33q91 0 160 33q72 34 117 91q47 59 71 141q25 86 25 185q0 97 -26 181q-25 81 -73 141q-46 58 -118 92q-69 33 -156 33zM938 1229h-117
l-213 182l-211 -182h-118l270 262h121z" />
    <glyph glyph-name="otilde" unicode="&#xf5;" horiz-adv-x="1218" 
d="M610 1083q119 0 209 -43q96 -46 157 -118q64 -76 99 -177q35 -102 35 -215q0 -120 -33 -222q-33 -101 -96 -175q-64 -74 -157 -115q-94 -41 -214 -41t-212 43q-93 44 -156 117q-64 75 -98 175q-33 98 -33 218q0 123 33 221q34 101 99 175q64 73 157 115t210 42zM608 979
q-85 0 -154 -33q-70 -33 -117 -91q-49 -60 -74 -140q-25 -81 -25 -183q0 -100 24 -183q23 -79 72 -142q45 -58 116 -92q69 -33 158 -33q91 0 160 33q72 34 117 91q47 59 71 141q25 86 25 185q0 97 -26 181q-25 81 -73 141q-46 58 -118 92q-69 33 -156 33zM481 1446
q53 0 87 -18q41 -21 61 -37q11 -8 29.5 -21.5t21.5 -16.5q24 -18 59 -18q42 0 66 24t45 73h80q-17 -80 -68 -133q-51 -52 -129 -52q-53 0 -88 18q-38 20 -60 38q-10 8 -28.5 21.5t-21.5 15.5q-24 18 -60 18q-41 0 -66 -24q-26 -24 -46 -72h-78q17 80 66 132t130 52z" />
    <glyph glyph-name="odieresis" unicode="&#xf6;" horiz-adv-x="1218" 
d="M610 1083q119 0 209 -43q96 -46 157 -118q64 -76 99 -177q35 -102 35 -215q0 -120 -33 -222q-33 -101 -96 -175q-64 -74 -157 -115q-94 -41 -214 -41t-212 43q-93 44 -156 117q-64 75 -98 175q-33 98 -33 218q0 123 33 221q34 101 99 175q64 73 157 115t210 42zM608 979
q-85 0 -154 -33q-70 -33 -117 -91q-49 -60 -74 -140q-25 -81 -25 -183q0 -100 24 -183q23 -79 72 -142q45 -58 116 -92q69 -33 158 -33q91 0 160 33q72 34 117 91q47 59 71 141q25 86 25 185q0 97 -26 181q-25 81 -73 141q-46 58 -118 92q-69 33 -156 33zM389 1430
q33 0 57 -24q25 -25 25 -56q0 -32 -25 -57q-23 -23 -57 -23q-33 0 -56 23q-24 24 -24 57q0 32 24 56t56 24zM827 1430q34 0 58 -24t24 -56q0 -33 -24 -57q-23 -23 -58 -23q-33 0 -56 23t-23 57q0 33 23 56q24 24 56 24z" />
    <glyph glyph-name="divide" unicode="&#xf7;" 
d="M614 1079q39 0 65 -26q28 -28 28 -64q0 -37 -28 -65q-27 -27 -65 -27q-37 0 -64 27q-28 28 -28 65q0 39 28 65q26 25 64 25zM1008 543h-785v110h785v-110zM614 297q38 0 65 -27q28 -28 28 -63q0 -38 -28 -66q-26 -26 -65 -26q-38 0 -64 26q-28 28 -28 66t28 64t64 26z
" />
    <glyph glyph-name="oslash" unicode="&#xf8;" horiz-adv-x="1218" 
d="M940 958q83 -77 126 -187q44 -112 44 -241q0 -120 -33 -222q-33 -101 -96 -175q-64 -74 -157 -115q-94 -41 -214 -41q-132 0 -239 58l-127 -209h-113l162 260q-90 76 -136 190q-46 113 -46 254q0 123 33 221q34 101 99 175q64 73 157 115t210 42q141 0 252 -69l119 194
h106zM608 979q-85 0 -154 -33q-70 -33 -117 -91q-49 -60 -74 -140q-25 -81 -25 -183q0 -224 118 -346l451 734q-42 29 -90 44q-50 15 -109 15zM422 131q38 -22 86 -36q45 -13 100 -13q91 0 160 33q72 34 117 91q47 59 71 141q25 86 25 185q0 98 -28 185q-26 80 -81 143z" />
    <glyph glyph-name="ugrave" unicode="&#xf9;" horiz-adv-x="1161" 
d="M991 0h-123v188q-46 -91 -137 -150q-89 -58 -213 -58q-172 0 -264 96q-92 97 -92 282v707h123v-680q0 -152 60 -224q61 -73 198 -73q65 0 125 24t103 70q44 47 71 119q26 69 26 170v594h123v-1065zM643 1214h-106l-254 271h161z" />
    <glyph glyph-name="uacute" unicode="&#xfa;" horiz-adv-x="1161" 
d="M991 0h-123v188q-46 -91 -137 -150q-89 -58 -213 -58q-172 0 -264 96q-92 97 -92 282v707h123v-680q0 -152 60 -224q61 -73 198 -73q65 0 125 24t103 70q44 47 71 119q26 69 26 170v594h123v-1065zM610 1214h-108l198 271h162z" />
    <glyph glyph-name="ucircumflex" unicode="&#xfb;" horiz-adv-x="1161" 
d="M991 0h-123v188q-46 -91 -137 -150q-89 -58 -213 -58q-172 0 -264 96q-92 97 -92 282v707h123v-680q0 -152 60 -224q61 -73 198 -73q65 0 125 24t103 70q44 47 71 119q26 69 26 170v594h123v-1065zM903 1227h-117l-213 182l-211 -182h-118l270 262h121z" />
    <glyph glyph-name="udieresis" unicode="&#xfc;" horiz-adv-x="1161" 
d="M991 0h-123v188q-46 -91 -137 -150q-89 -58 -213 -58q-172 0 -264 96q-92 97 -92 282v707h123v-680q0 -152 60 -224q61 -73 198 -73q65 0 125 24t103 70q44 47 71 119q26 69 26 170v594h123v-1065zM354 1427q35 0 58 -23q24 -24 24 -56q0 -33 -24 -57q-23 -23 -58 -23
q-33 0 -56 23q-24 24 -24 57q0 32 24 56q23 23 56 23zM793 1427q34 0 57 -23q24 -24 24 -56q0 -33 -24 -57q-23 -23 -57 -23t-57 23t-23 57q0 33 23 56t57 23z" />
    <glyph glyph-name="yacute" unicode="&#xfd;" horiz-adv-x="995" 
d="M588 -41q-24 -71 -49 -126q-27 -58 -67 -101q-42 -45 -95 -68q-55 -24 -135 -24q-34 0 -62 3q-36 4 -53 7v100q27 -5 46 -6q26 -2 46 -2q59 0 100 18t70 53t48 81q22 52 38 106h-39l-393 1065h135l340 -967l307 967h129zM535 1214h-109l199 271h161z" />
    <glyph glyph-name="thorn" unicode="&#xfe;" horiz-adv-x="1226" 
d="M295 860q22 44 57 85q35 42 81 71q49 32 104 49q57 18 122 18q110 0 194 -40q85 -40 143 -112q59 -73 89 -173q31 -104 31 -221t-32 -221q-31 -100 -90 -176q-57 -73 -143 -117q-85 -43 -192 -43q-142 0 -232 59q-92 60 -132 154v-521h-123v1762h123v-574zM637 979
q-73 0 -140 -31q-64 -30 -111 -89t-72 -142q-25 -82 -25 -193q0 -116 26 -195q27 -84 74 -138q45 -52 110 -80q63 -27 136 -27q164 0 259 122t95 329q0 101 -22 182q-21 79 -67 140q-44 59 -109 90q-67 32 -154 32z" />
    <glyph glyph-name="ydieresis" unicode="&#xff;" horiz-adv-x="995" 
d="M588 -41q-24 -71 -49 -126q-27 -58 -67 -101q-42 -45 -95 -68q-55 -24 -135 -24q-34 0 -62 3q-36 4 -53 7v100q27 -5 46 -6q26 -2 46 -2q59 0 100 18t70 53t48 81q22 52 38 106h-39l-393 1065h135l340 -967l307 967h129zM279 1427q34 0 57 -23q24 -24 24 -56
q0 -33 -24 -57q-23 -23 -57 -23t-57 23t-23 57q0 33 23 56t57 23zM717 1427q34 0 57 -23q25 -25 25 -56q0 -32 -25 -57q-23 -23 -57 -23t-57 23t-23 57q0 33 23 56t57 23z" />
    <glyph glyph-name="Amacron" unicode="&#x100;" horiz-adv-x="1241" 
d="M965 299h-695l-100 -299h-131l502 1434h164l499 -1434h-139zM307 410h621l-310 917zM930 1626h-617v92h617v-92z" />
    <glyph glyph-name="amacron" unicode="&#x101;" horiz-adv-x="1114" 
d="M557 1083q117 0 193 -24q73 -23 120 -70t64 -109q18 -64 18 -147v-442q0 -105 7 -168q8 -69 28 -123h-127q-11 35 -19 83q-9 51 -10 79q-46 -73 -142 -128q-95 -54 -236 -54q-91 0 -154 23q-66 24 -110 65t-66 97q-23 58 -23 122q0 142 102 231q103 89 335 119l292 39v47
q0 70 -10 117q-10 48 -41 82q-29 32 -84 49q-51 16 -139 16q-159 0 -225 -63t-68 -170h-121q4 152 108 241q103 88 308 88zM571 547q-179 -24 -262 -83q-82 -58 -82 -171q0 -89 58 -150q56 -59 190 -59q76 0 142 23q68 24 112 62q48 42 74 92q26 51 26 114v207zM868 1300
h-616v93h616v-93z" />
    <glyph glyph-name="Abreve" unicode="&#x102;" horiz-adv-x="1241" 
d="M965 299h-695l-100 -299h-131l502 1434h164l499 -1434h-139zM307 410h621l-310 917zM918 1804q-12 -104 -87 -181q-73 -75 -208 -75t-209 75q-74 76 -86 181h78q12 -72 69 -120t148 -48q90 0 147 48q58 48 68 120h80z" />
    <glyph glyph-name="abreve" unicode="&#x103;" horiz-adv-x="1114" 
d="M557 1083q117 0 193 -24q73 -23 120 -70t64 -109q18 -64 18 -147v-442q0 -105 7 -168q8 -69 28 -123h-127q-11 35 -19 83q-9 51 -10 79q-46 -73 -142 -128q-95 -54 -236 -54q-91 0 -154 23q-66 24 -110 65t-66 97q-23 58 -23 122q0 142 102 231q103 89 335 119l292 39v47
q0 70 -10 117q-10 48 -41 82q-29 32 -84 49q-51 16 -139 16q-159 0 -225 -63t-68 -170h-121q4 152 108 241q103 88 308 88zM571 547q-179 -24 -262 -83q-82 -58 -82 -171q0 -89 58 -150q56 -59 190 -59q76 0 142 23q68 24 112 62q48 42 74 92q26 51 26 114v207zM856 1485
q-6 -52 -28 -101q-21 -46 -58 -82q-40 -38 -89 -58q-53 -21 -120 -21t-120 21q-49 20 -89 58q-37 36 -58 82q-22 49 -28 101h78q12 -71 70 -123q57 -51 147 -51q91 0 148 51q56 50 67 123h80z" />
    <glyph glyph-name="Aogonek" unicode="&#x104;" horiz-adv-x="1241" 
d="M965 299h-695l-100 -299h-131l502 1434h164l499 -1434h-139zM307 410h621l-310 917zM1143 0q-121 -52 -175 -118q-53 -65 -53 -130q0 -63 40 -93q41 -30 114 -30q35 0 80 9q35 7 65 18l29 -72q-45 -18 -93 -27q-53 -10 -95 -10q-113 0 -179 49q-65 48 -65 146
q0 96 87 172t228 117z" />
    <glyph glyph-name="aogonek" unicode="&#x105;" horiz-adv-x="1114" 
d="M557 1083q117 0 193 -24q73 -23 120 -70t64 -109q18 -64 18 -147v-442q0 -105 7 -168q8 -69 28 -123h-127q-11 35 -19 83q-9 51 -10 79q-46 -73 -142 -128q-95 -54 -236 -54q-91 0 -154 23q-66 24 -110 65t-66 97q-23 58 -23 122q0 142 102 231q103 89 335 119l292 39v47
q0 70 -10 117q-10 48 -41 82q-29 32 -84 49q-51 16 -139 16q-159 0 -225 -63t-68 -170h-121q4 152 108 241q103 88 308 88zM571 547q-179 -24 -262 -83q-82 -58 -82 -171q0 -89 58 -150q56 -59 190 -59q76 0 142 23q68 24 112 62q48 42 74 92q26 51 26 114v207zM948 0
q-121 -52 -175 -118q-52 -64 -52 -130q0 -63 40 -93q41 -30 113 -30q35 0 80 9q38 8 66 18l29 -72q-44 -18 -94 -27q-53 -10 -95 -10q-113 0 -179 49q-65 48 -65 146q0 96 87 172t229 117z" />
    <glyph glyph-name="Cacute" unicode="&#x106;" horiz-adv-x="1441" 
d="M748 1460q81 0 161 -19q81 -19 158 -66t139 -122q66 -81 105 -188l-125 -35q-61 166 -177 241q-115 75 -264 75q-105 0 -195 -40q-94 -41 -158 -119q-67 -81 -104 -197q-38 -120 -38 -271q0 -159 38 -279q37 -116 104 -197q66 -79 158 -117q93 -38 195 -38q171 0 290 85
t179 261l123 -41q-38 -113 -99 -190q-66 -83 -140 -130q-82 -52 -168 -75q-94 -25 -185 -25q-105 0 -215 37q-109 37 -201 124q-91 87 -150 230q-58 141 -58 355q0 196 53 338t141 230q89 89 201 131q113 42 232 42zM791 1542h-109l199 266h168z" />
    <glyph glyph-name="cacute" unicode="&#x107;" horiz-adv-x="1130" 
d="M606 1083q155 0 263 -71q110 -73 163 -187l-108 -45q-42 94 -120 146q-80 53 -192 53q-85 0 -155 -32q-71 -33 -118 -91q-48 -60 -75 -142q-26 -79 -26 -184q0 -98 24 -180q22 -77 72 -141q45 -58 116 -92q69 -33 156 -33q76 0 127 19t93 53q41 34 69 76q26 39 49 94
l109 -47q-52 -127 -163 -214q-109 -85 -288 -85q-121 0 -211 43q-92 44 -154 116q-64 74 -95 174q-31 99 -31 215q0 124 33 222q35 103 99 176t155 115q92 42 208 42zM643 1214h-108l198 271h162z" />
    <glyph glyph-name="Ccircumflex" unicode="&#x108;" horiz-adv-x="1441" 
d="M748 1460q81 0 161 -19q81 -19 158 -66t139 -122q66 -81 105 -188l-125 -35q-61 166 -177 241q-115 75 -264 75q-105 0 -195 -40q-94 -41 -158 -119q-67 -81 -104 -197q-38 -120 -38 -271q0 -159 38 -279q37 -116 104 -197q66 -79 158 -117q93 -38 195 -38q171 0 290 85
t179 261l123 -41q-38 -113 -99 -190q-66 -83 -140 -130q-82 -52 -168 -75q-94 -25 -185 -25q-105 0 -215 37q-109 37 -201 124q-91 87 -150 230q-58 141 -58 355q0 196 53 338t141 230q89 89 201 131q113 42 232 42zM1079 1563h-116l-213 178l-211 -178h-119l270 256h121z
" />
    <glyph glyph-name="ccircumflex" unicode="&#x109;" horiz-adv-x="1130" 
d="M606 1083q155 0 263 -71q110 -73 163 -187l-108 -45q-42 94 -120 146q-80 53 -192 53q-85 0 -155 -32q-71 -33 -118 -91q-48 -60 -75 -142q-26 -79 -26 -184q0 -98 24 -180q22 -77 72 -141q45 -58 116 -92q69 -33 156 -33q76 0 127 19t93 53q41 34 69 76q26 39 49 94
l109 -47q-52 -127 -163 -214q-109 -85 -288 -85q-121 0 -211 43q-92 44 -154 116q-64 74 -95 174q-31 99 -31 215q0 124 33 222q35 103 99 176t155 115q92 42 208 42zM936 1227h-117l-213 182l-211 -182h-119l271 262h121z" />
    <glyph glyph-name="Cdotaccent" unicode="&#x10a;" horiz-adv-x="1441" 
d="M748 1460q81 0 161 -19q81 -19 158 -66t139 -122q66 -81 105 -188l-125 -35q-61 166 -177 241q-115 75 -264 75q-105 0 -195 -40q-94 -41 -158 -119q-67 -81 -104 -197q-38 -120 -38 -271q0 -159 38 -279q37 -116 104 -197q66 -79 158 -117q93 -38 195 -38q171 0 290 85
t179 261l123 -41q-38 -113 -99 -190q-66 -83 -140 -130q-82 -52 -168 -75q-94 -25 -185 -25q-105 0 -215 37q-109 37 -201 124q-91 87 -150 230q-58 141 -58 355q0 196 53 338t141 230q89 89 201 131q113 42 232 42zM750 1784q34 0 59 -25t25 -59t-25 -59q-23 -23 -59 -23
q-37 0 -60 23q-24 24 -24 59t24 59q25 25 60 25z" />
    <glyph glyph-name="cdotaccent" unicode="&#x10b;" horiz-adv-x="1130" 
d="M606 1083q155 0 263 -71q110 -73 163 -187l-108 -45q-42 94 -120 146q-80 53 -192 53q-85 0 -155 -32q-71 -33 -118 -91q-48 -60 -75 -142q-26 -79 -26 -184q0 -98 24 -180q22 -77 72 -141q45 -58 116 -92q69 -33 156 -33q76 0 127 19t93 53q41 34 69 76q26 39 49 94
l109 -47q-52 -127 -163 -214q-109 -85 -288 -85q-121 0 -211 43q-92 44 -154 116q-64 74 -95 174q-31 99 -31 215q0 124 33 222q35 103 99 176t155 115q92 42 208 42zM606 1456q36 0 60 -24t24 -60q0 -34 -24 -58t-60 -24q-35 0 -59 24q-25 25 -25 58q0 35 25 60
q24 24 59 24z" />
    <glyph glyph-name="Ccaron" unicode="&#x10c;" horiz-adv-x="1441" 
d="M748 1460q81 0 161 -19q81 -19 158 -66t139 -122q66 -81 105 -188l-125 -35q-61 166 -177 241q-115 75 -264 75q-105 0 -195 -40q-94 -41 -158 -119q-67 -81 -104 -197q-38 -120 -38 -271q0 -159 38 -279q37 -116 104 -197q66 -79 158 -117q93 -38 195 -38q171 0 290 85
t179 261l123 -41q-38 -113 -99 -190q-66 -83 -140 -130q-82 -52 -168 -75q-94 -25 -185 -25q-105 0 -215 37q-109 37 -201 124q-91 87 -150 230q-58 141 -58 355q0 196 53 338t141 230q89 89 201 131q113 42 232 42zM811 1571h-121l-270 258h119l211 -178l213 178h116z" />
    <glyph glyph-name="ccaron" unicode="&#x10d;" horiz-adv-x="1130" 
d="M606 1083q155 0 263 -71q110 -73 163 -187l-108 -45q-42 94 -120 146q-80 53 -192 53q-85 0 -155 -32q-71 -33 -118 -91q-48 -60 -75 -142q-26 -79 -26 -184q0 -98 24 -180q22 -77 72 -141q45 -58 116 -92q69 -33 156 -33q76 0 127 19t93 53q41 34 69 76q26 39 49 94
l109 -47q-52 -127 -163 -214q-109 -85 -288 -85q-121 0 -211 43q-92 44 -154 116q-64 74 -95 174q-31 99 -31 215q0 124 33 222q35 103 99 176t155 115q92 42 208 42zM668 1243h-121l-271 262h119l211 -182l213 182h117z" />
    <glyph glyph-name="Dcaron" unicode="&#x10e;" horiz-adv-x="1402" 
d="M580 1434q146 0 275 -41q127 -40 223 -127q95 -86 151 -217q55 -129 55 -312q0 -214 -58 -355q-58 -140 -152 -227q-93 -85 -209 -120q-117 -35 -228 -35h-455v1434h398zM305 1321v-1208h330q93 0 184 27t166 99q76 73 121 191q47 123 47 307q0 135 -38 244
q-37 106 -110 184q-70 74 -180 116q-105 40 -243 40h-277zM657 1571h-120l-271 258h119l211 -178l213 178h117z" />
    <glyph glyph-name="dcaron" unicode="&#x10f;" horiz-adv-x="1331" 
d="M1055 0h-123v207q-25 -49 -56 -86q-38 -44 -80 -73q-47 -32 -104 -50t-125 -18q-111 0 -195 40t-144 114q-57 71 -88 173q-29 97 -29 219q0 120 30 222t90 177q58 73 146 116q85 42 196 42q138 0 228 -60t131 -151v562h123v-1434zM590 979q-86 0 -152 -33t-110 -92
q-46 -61 -68 -142t-22 -184q0 -100 21 -182q20 -80 65 -140q44 -60 108 -90q67 -32 154 -32q75 0 141 30t112 88q44 56 72 142q27 84 27 195t-27 193q-28 85 -72 138q-46 55 -111 82q-64 27 -138 27zM1219 1198h-84l100 287h133z" />
    <glyph glyph-name="Dcroat" unicode="&#x110;" horiz-adv-x="1458" 
d="M635 1434q146 0 275 -41t224 -127q94 -85 150 -217q55 -129 55 -312q0 -214 -58 -355q-58 -140 -152 -227q-93 -86 -208 -120q-117 -35 -229 -35h-454v707h-183v86h183v641h397zM690 113q94 0 185 27q89 26 165 99t121 191q47 123 47 307q0 135 -38 244q-37 106 -110 184
q-70 75 -179 116q-105 40 -244 40h-277v-528h433v-86h-433v-594h330z" />
    <glyph glyph-name="dcroat" unicode="&#x111;" horiz-adv-x="1236" 
d="M1223 1214h-168v-1214h-123v207q-25 -49 -56 -86q-37 -44 -79 -73q-45 -32 -103 -50q-57 -18 -125 -18q-112 0 -196 40q-85 40 -145 114q-57 71 -88 173q-29 97 -29 219q0 120 30 222t90 177q59 74 145 116t193 42q142 0 232 -60t131 -151v342h-346v95h346v125h123v-125
h168v-95zM590 84q76 0 139 30q64 31 110 88q45 57 71 142q26 86 26 195q0 111 -27 193q-28 85 -72 138q-46 54 -110 82q-63 27 -137 27q-86 0 -152 -33t-110 -92q-46 -61 -68 -142t-22 -184q0 -100 21 -182q20 -78 66 -140q44 -59 109 -90q67 -32 156 -32z" />
    <glyph glyph-name="Emacron" unicode="&#x112;" horiz-adv-x="1157" 
d="M1018 1323h-711v-537h668v-110h-668v-565h729v-111h-854v1434h836v-111zM920 1626h-617v92h617v-92z" />
    <glyph glyph-name="emacron" unicode="&#x113;" horiz-adv-x="1161" 
d="M594 1083q114 0 202 -44q85 -43 146 -117q58 -71 89 -173q30 -99 30 -210v-31h-823q0 -98 25 -174q25 -77 74 -135t118 -88q71 -31 159 -31q114 0 196 50t134 132l103 -55q-70 -109 -181 -170q-108 -60 -256 -60q-118 0 -214 45q-94 44 -156 118q-65 77 -97 177
q-32 99 -32 220q0 113 30 212q30 98 92 174q59 72 152 117q89 43 209 43zM592 983q-84 0 -149 -30q-64 -30 -108 -80q-46 -53 -69 -118q-23 -67 -28 -149h696q-5 83 -28 150q-26 74 -66 120q-44 50 -106 78q-64 29 -142 29zM893 1298h-617v93h617v-93z" />
    <glyph glyph-name="Ebreve" unicode="&#x114;" horiz-adv-x="1157" 
d="M1018 1323h-711v-537h668v-110h-668v-565h729v-111h-854v1434h836v-111zM907 1804q-12 -105 -86 -181q-73 -75 -209 -75t-209 75q-74 76 -86 181h78q12 -71 70 -120q57 -48 147 -48q91 0 148 48q56 48 67 120h80z" />
    <glyph glyph-name="ebreve" unicode="&#x115;" horiz-adv-x="1161" 
d="M594 1083q114 0 202 -44q85 -43 146 -117q58 -71 89 -173q30 -99 30 -210v-31h-823q0 -98 25 -174q25 -77 74 -135t118 -88q71 -31 159 -31q114 0 196 50t134 132l103 -55q-70 -109 -181 -170q-108 -60 -256 -60q-118 0 -214 45q-94 44 -156 118q-65 77 -97 177
q-32 99 -32 220q0 113 30 212q30 98 92 174q59 72 152 117q89 43 209 43zM592 983q-84 0 -149 -30q-64 -30 -108 -80q-46 -53 -69 -118q-23 -67 -28 -149h696q-5 83 -28 150q-26 74 -66 120q-44 50 -106 78q-64 29 -142 29zM881 1483q-6 -52 -28 -101q-22 -48 -58 -83
q-38 -37 -89 -57q-52 -21 -120 -21t-120 21q-51 20 -89 57q-38 36 -59 83q-21 46 -27 101h78q12 -72 69 -123t148 -51q90 0 147 51q58 52 68 123h80z" />
    <glyph glyph-name="Edotaccent" unicode="&#x116;" horiz-adv-x="1157" 
d="M1018 1323h-711v-537h668v-110h-668v-565h729v-111h-854v1434h836v-111zM612 1784q35 0 60 -25q24 -24 24 -59t-24 -59q-23 -23 -60 -23q-36 0 -59 23q-25 25 -25 59t25 59t59 25z" />
    <glyph glyph-name="edotaccent" unicode="&#x117;" horiz-adv-x="1161" 
d="M594 1083q114 0 202 -44q85 -43 146 -117q58 -71 89 -173q30 -99 30 -210v-31h-823q0 -98 25 -174q25 -77 74 -135t118 -88q71 -31 159 -31q114 0 196 50t134 132l103 -55q-70 -109 -181 -170q-108 -60 -256 -60q-118 0 -214 45q-94 44 -156 118q-65 77 -97 177
q-32 99 -32 220q0 113 30 212q30 98 92 174q59 72 152 117q89 43 209 43zM592 983q-84 0 -149 -30q-64 -30 -108 -80q-46 -53 -69 -118q-23 -67 -28 -149h696q-5 83 -28 150q-26 74 -66 120q-44 50 -106 78q-64 29 -142 29zM586 1456q35 0 59 -24q25 -25 25 -60
q0 -33 -25 -58q-24 -24 -59 -24q-36 0 -60 24t-24 58q0 36 24 60t60 24z" />
    <glyph glyph-name="Eogonek" unicode="&#x118;" horiz-adv-x="1157" 
d="M1018 1323h-711v-537h668v-110h-668v-565h729v-111h-854v1434h836v-111zM961 0q-123 -52 -176 -118q-52 -64 -52 -130q0 -63 40 -93q41 -30 114 -30q35 0 80 9q35 7 65 18l29 -72q-45 -18 -93 -27q-53 -10 -96 -10q-113 0 -179 49q-64 48 -64 146q0 96 87 172t228 117z
" />
    <glyph glyph-name="eogonek" unicode="&#x119;" horiz-adv-x="1161" 
d="M594 1083q114 0 202 -44q85 -43 146 -117q58 -71 89 -173q30 -99 30 -210v-31h-823q0 -98 25 -174q25 -77 74 -135t118 -88q71 -31 159 -31q114 0 196 50t134 132l103 -55q-70 -109 -181 -170q-108 -60 -256 -60q-118 0 -214 45q-94 44 -156 118q-65 77 -97 177
q-32 99 -32 220q0 113 30 212q30 98 92 174q59 72 152 117q89 43 209 43zM592 983q-84 0 -149 -30q-64 -30 -108 -80q-46 -53 -69 -118q-23 -67 -28 -149h696q-5 83 -28 150q-26 74 -66 120q-44 50 -106 78q-64 29 -142 29zM772 0q-121 -52 -175 -118q-52 -64 -52 -130
q0 -63 40 -93q41 -30 113 -30q35 0 80 9q38 8 66 18l28 -72q-45 -18 -93 -27q-53 -10 -95 -10q-113 0 -179 49q-65 48 -65 146q0 96 87 172t229 117z" />
    <glyph glyph-name="Ecaron" unicode="&#x11a;" horiz-adv-x="1157" 
d="M1018 1323h-711v-537h668v-110h-668v-565h729v-111h-854v1434h836v-111zM674 1571h-121l-270 258h118l211 -178l213 178h117z" />
    <glyph glyph-name="ecaron" unicode="&#x11b;" horiz-adv-x="1161" 
d="M594 1083q114 0 202 -44q85 -43 146 -117q58 -71 89 -173q30 -99 30 -210v-31h-823q0 -98 25 -174q25 -77 74 -135t118 -88q71 -31 159 -31q114 0 196 50t134 132l103 -55q-70 -109 -181 -170q-108 -60 -256 -60q-118 0 -214 45q-94 44 -156 118q-65 77 -97 177
q-32 99 -32 220q0 113 30 212q30 98 92 174q59 72 152 117q89 43 209 43zM592 983q-84 0 -149 -30q-64 -30 -108 -80q-46 -53 -69 -118q-23 -67 -28 -149h696q-5 83 -28 150q-26 74 -66 120q-44 50 -106 78q-64 29 -142 29zM647 1243h-121l-270 262h119l211 -182l213 182
h116z" />
    <glyph glyph-name="Gcircumflex" unicode="&#x11c;" horiz-adv-x="1484" 
d="M745 1460q95 0 174 -20q82 -21 155 -65t130 -113q60 -72 99 -170l-113 -45q-123 303 -447 303q-108 0 -198 -42q-91 -42 -156 -124q-64 -79 -102 -201q-37 -117 -37 -274q0 -162 37 -277q37 -116 103 -194t157 -116t196 -38q85 0 171 28q84 28 148 87q64 60 103 151
q39 92 39 223v45h-407v111h530v-729h-123v256q-63 -142 -190 -212q-128 -71 -279 -71q-108 0 -215 37q-109 38 -197 123q-90 87 -146 226t-56 350q0 197 54 339t141 234q87 91 200 135q111 43 229 43zM1077 1563h-116l-213 178l-211 -178h-119l270 256h121z" />
    <glyph glyph-name="gcircumflex" unicode="&#x11d;" horiz-adv-x="1134" 
d="M1081 1022q-65 0 -111 -15q-42 -14 -83 -51q42 -44 62 -100q20 -57 20 -117q0 -154 -113 -243q-112 -88 -307 -88q-64 0 -124 12q-61 12 -114 41q-29 -24 -47 -50q-18 -25 -18 -59q0 -54 39 -85q38 -31 116 -31h238q112 0 195 -22q80 -21 129 -60q47 -37 71 -91
q23 -52 23 -112q0 -143 -131 -227q-130 -84 -359 -84q-135 0 -224 22q-87 21 -147 61q-57 37 -81 90q-25 55 -25 113q0 72 45 132q46 62 137 102q-64 22 -99 66q-34 43 -34 104q0 93 107 170q-53 41 -87 100t-34 139q0 67 27 130q28 65 79 110q54 48 133 76q78 28 181 28
q87 0 155 -18t119 -51q45 59 108 88q67 31 154 31v-111zM547 991q-147 0 -224 -72t-77 -178q0 -116 83 -179q81 -62 216 -62q147 0 225 62q80 63 80 179q0 107 -74 179q-72 71 -229 71zM369 135q-94 -40 -130 -90t-36 -106q0 -46 18 -83q18 -38 62 -65q41 -26 112 -41
q64 -14 172 -14q175 0 272 55t97 154q0 93 -73 142q-72 48 -263 48h-231zM877 1227h-117l-213 182l-211 -182h-119l270 262h121z" />
    <glyph glyph-name="Gbreve" unicode="&#x11e;" horiz-adv-x="1484" 
d="M745 1460q95 0 174 -20q82 -21 155 -65t130 -113q60 -72 99 -170l-113 -45q-123 303 -447 303q-108 0 -198 -42q-91 -42 -156 -124q-64 -79 -102 -201q-37 -117 -37 -274q0 -162 37 -277q37 -116 103 -194t157 -116t196 -38q85 0 171 28q84 28 148 87q64 60 103 151
q39 92 39 223v45h-407v111h530v-729h-123v256q-63 -142 -190 -212q-128 -71 -279 -71q-108 0 -215 37q-109 38 -197 123q-90 87 -146 226t-56 350q0 197 54 339t141 234q87 91 200 135q111 43 229 43zM1042 1804q-12 -105 -86 -181q-74 -75 -208 -75q-136 0 -209 75
q-74 76 -86 181h77q12 -71 70 -120q57 -48 148 -48q90 0 147 48q58 48 68 120h79z" />
    <glyph glyph-name="gbreve" unicode="&#x11f;" horiz-adv-x="1134" 
d="M1081 1022q-65 0 -111 -15q-42 -14 -83 -51q42 -44 62 -100q20 -57 20 -117q0 -154 -113 -243q-112 -88 -307 -88q-64 0 -124 12q-61 12 -114 41q-29 -24 -47 -50q-18 -25 -18 -59q0 -54 39 -85q38 -31 116 -31h238q112 0 195 -22q80 -21 129 -60q47 -37 71 -91
q23 -52 23 -112q0 -143 -131 -227q-130 -84 -359 -84q-135 0 -224 22q-87 21 -147 61q-57 37 -81 90q-25 55 -25 113q0 72 45 132q46 62 137 102q-64 22 -99 66q-34 43 -34 104q0 93 107 170q-53 41 -87 100t-34 139q0 67 27 130q28 65 79 110q54 48 133 76q78 28 181 28
q87 0 155 -18t119 -51q45 59 108 88q67 31 154 31v-111zM547 991q-147 0 -224 -72t-77 -178q0 -116 83 -179q81 -62 216 -62q147 0 225 62q80 63 80 179q0 107 -74 179q-72 71 -229 71zM369 135q-94 -40 -130 -90t-36 -106q0 -46 18 -83q18 -38 62 -65q41 -26 112 -41
q64 -14 172 -14q175 0 272 55t97 154q0 93 -73 142q-72 48 -263 48h-231zM842 1483q-6 -52 -28 -101q-22 -48 -58 -83q-38 -37 -89 -57q-53 -21 -120 -21t-120 21q-51 20 -89 57q-36 35 -58 83q-22 49 -28 101h78q12 -72 69 -123t148 -51q90 0 147 51q58 52 68 123h80z" />
    <glyph glyph-name="Gdotaccent" unicode="&#x120;" horiz-adv-x="1484" 
d="M745 1460q95 0 174 -20q82 -21 155 -65t130 -113q60 -72 99 -170l-113 -45q-123 303 -447 303q-108 0 -198 -42q-91 -42 -156 -124q-64 -79 -102 -201q-37 -117 -37 -274q0 -162 37 -277q37 -116 103 -194t157 -116t196 -38q85 0 171 28q84 28 148 87q64 60 103 151
q39 92 39 223v45h-407v111h530v-729h-123v256q-63 -142 -190 -212q-128 -71 -279 -71q-108 0 -215 37q-109 38 -197 123q-90 87 -146 226t-56 350q0 197 54 339t141 234q87 91 200 135q111 43 229 43zM748 1784q34 0 59 -25q24 -24 24 -59t-24 -59q-23 -23 -59 -23
q-37 0 -60 23q-24 24 -24 59t24 59q25 25 60 25z" />
    <glyph glyph-name="gdotaccent" unicode="&#x121;" horiz-adv-x="1134" 
d="M1081 1022q-65 0 -111 -15q-42 -14 -83 -51q42 -44 62 -100q20 -57 20 -117q0 -154 -113 -243q-112 -88 -307 -88q-64 0 -124 12q-61 12 -114 41q-29 -24 -47 -50q-18 -25 -18 -59q0 -54 39 -85q38 -31 116 -31h238q112 0 195 -22q80 -21 129 -60q47 -37 71 -91
q23 -52 23 -112q0 -143 -131 -227q-130 -84 -359 -84q-135 0 -224 22q-87 21 -147 61q-57 37 -81 90q-25 55 -25 113q0 72 45 132q46 62 137 102q-64 22 -99 66q-34 43 -34 104q0 93 107 170q-53 41 -87 100t-34 139q0 67 27 130q28 65 79 110q54 48 133 76q78 28 181 28
q87 0 155 -18t119 -51q45 59 108 88q67 31 154 31v-111zM547 991q-147 0 -224 -72t-77 -178q0 -116 83 -179q81 -62 216 -62q147 0 225 62q80 63 80 179q0 107 -74 179q-72 71 -229 71zM369 135q-94 -40 -130 -90t-36 -106q0 -46 18 -83q18 -38 62 -65q41 -26 112 -41
q64 -14 172 -14q175 0 272 55t97 154q0 93 -73 142q-72 48 -263 48h-231zM547 1456q35 0 59 -24q25 -25 25 -60q0 -33 -25 -58q-24 -24 -59 -24q-36 0 -60 24t-24 58q0 36 24 60t60 24z" />
    <glyph glyph-name="Gcommaaccent" unicode="&#x122;" horiz-adv-x="1484" 
d="M745 1460q95 0 174 -20q82 -21 155 -65t130 -113q60 -72 99 -170l-113 -45q-123 303 -447 303q-108 0 -198 -42q-91 -42 -156 -124q-64 -79 -102 -201q-37 -117 -37 -274q0 -162 37 -277q37 -116 103 -194t157 -116t196 -38q85 0 171 28q84 28 148 87q64 60 103 151
q39 92 39 223v45h-407v111h530v-729h-123v256q-63 -142 -190 -212q-128 -71 -279 -71q-108 0 -215 37q-109 38 -197 123q-90 87 -146 226t-56 350q0 197 54 339t141 234q87 91 200 135q111 43 229 43zM752 -166q33 0 54 -21t21 -57q0 -59 -32 -138q-33 -81 -86 -155l-60 23
q31 58 47 112q17 57 21 97q-41 27 -41 65q0 33 22 54q21 20 54 20z" />
    <glyph glyph-name="gcommaaccent" unicode="&#x123;" horiz-adv-x="1134" 
d="M1081 1022q-65 0 -111 -15q-42 -14 -83 -51q42 -44 62 -100q20 -57 20 -117q0 -154 -113 -243q-112 -88 -307 -88q-64 0 -124 12q-61 12 -114 41q-29 -24 -47 -50q-18 -25 -18 -59q0 -54 39 -85q38 -31 116 -31h238q112 0 195 -22q80 -21 129 -60q47 -37 71 -91
q23 -52 23 -112q0 -143 -131 -227q-130 -84 -359 -84q-135 0 -224 22q-87 21 -147 61q-57 37 -81 90q-25 55 -25 113q0 72 45 132q46 62 137 102q-64 22 -99 66q-34 43 -34 104q0 93 107 170q-53 41 -87 100t-34 139q0 67 27 130q28 65 79 110q54 48 133 76q78 28 181 28
q87 0 155 -18t119 -51q45 59 108 88q67 31 154 31v-111zM547 991q-147 0 -224 -72t-77 -178q0 -116 83 -179q81 -62 216 -62q147 0 225 62q80 63 80 179q0 107 -74 179q-72 71 -229 71zM369 135q-94 -40 -130 -90t-36 -106q0 -46 18 -83q18 -38 62 -65q41 -26 112 -41
q64 -14 172 -14q175 0 272 55t97 154q0 93 -73 142q-72 48 -263 48h-231zM547 1229q-33 0 -54 21q-22 22 -22 57q0 57 33 138q32 78 86 154l59 -22q-31 -58 -47 -112q-15 -52 -20 -97q41 -27 41 -65q0 -33 -23 -54q-21 -20 -53 -20z" />
    <glyph glyph-name="Hcircumflex" unicode="&#x124;" horiz-adv-x="1404" 
d="M1225 0h-125v690h-793v-690h-125v1434h125v-633h793v633h125v-1434zM1032 1563h-117l-213 178l-210 -178h-119l270 256h121z" />
    <glyph glyph-name="hcircumflex" unicode="&#x125;" horiz-adv-x="1167" 
d="M295 864q46 97 136 158q91 61 216 61q181 0 271 -105t90 -298v-680h-123v649q0 152 -58 242q-57 88 -204 88q-64 0 -125 -26q-60 -25 -105 -75q-43 -47 -71 -124q-27 -74 -27 -170v-584h-123v1434h123v-570zM915 1563h-116l-213 178l-211 -178h-119l270 256h121z" />
    <glyph glyph-name="Hbar" unicode="&#x126;" horiz-adv-x="1466" 
d="M1397 1139h-137v-1139h-125v690h-793v-690h-125v1139h-147v94h147v201h125v-201h793v201h125v-201h137v-94zM1135 1139h-793v-338h793v338z" />
    <glyph glyph-name="hbar" unicode="&#x127;" horiz-adv-x="1179" 
d="M657 1083q181 0 271 -105t90 -298v-680h-123v623q0 173 -57 265q-57 91 -205 91q-64 0 -125 -26q-60 -25 -105 -75q-43 -47 -71 -124q-27 -74 -27 -170v-584h-123v1214h-166v95h166v125h123v-125h346v-95h-346v-350q46 97 136 158q91 61 216 61z" />
    <glyph glyph-name="Itilde" unicode="&#x128;" horiz-adv-x="704" 
d="M629 1325h-213v-1216h213v-109h-551v109h213v1216h-213v109h551v-109zM225 1774q53 0 87 -18q37 -19 61 -38q11 -8 29.5 -21.5t21.5 -16.5q23 -17 59 -17q42 0 66 24q25 25 45 72h80q-16 -79 -68 -132q-51 -52 -129 -52q-55 0 -88 17q-38 20 -60 38q-7 6 -50 38
q-24 18 -60 18q-41 0 -66 -24q-27 -25 -47 -73h-77q17 79 66 132q50 53 130 53z" />
    <glyph glyph-name="itilde" unicode="&#x129;" horiz-adv-x="464" 
d="M295 0h-123v1065h123v-1065zM106 1446q54 0 88 -18q38 -20 60 -37q11 -8 29 -21.5l22 -16.5q24 -18 60 -18q41 0 65 24t45 73h80q-17 -80 -68 -133q-51 -52 -129 -52q-54 0 -88 18q-38 20 -60 38q-10 8 -28.5 21.5t-21.5 15.5q-24 18 -60 18q-40 0 -66 -24t-46 -72h-78
q16 80 66 132q49 52 130 52z" />
    <glyph glyph-name="Imacron" unicode="&#x12a;" horiz-adv-x="704" 
d="M629 1325h-213v-1216h213v-109h-551v109h213v1216h-213v109h551v-109zM659 1626h-616v92h616v-92z" />
    <glyph glyph-name="imacron" unicode="&#x12b;" horiz-adv-x="464" 
d="M295 0h-123v1065h123v-1065zM541 1300h-617v93h617v-93z" />
    <glyph glyph-name="Ibreve" unicode="&#x12c;" horiz-adv-x="704" 
d="M629 1325h-213v-1216h213v-109h-551v109h213v1216h-213v109h551v-109zM647 1804q-12 -105 -86 -181q-74 -75 -209 -75q-136 0 -209 75q-74 76 -86 181h78q12 -71 70 -120q57 -48 147 -48q91 0 148 48q56 48 67 120h80z" />
    <glyph glyph-name="ibreve" unicode="&#x12d;" horiz-adv-x="464" 
d="M295 0h-123v1065h123v-1065zM528 1485q-6 -55 -27 -101q-20 -45 -59 -82q-40 -38 -89 -58q-53 -21 -120 -21t-119 21q-49 20 -89 58q-39 37 -59 82q-21 46 -27 101h77q12 -71 70 -123q57 -51 147 -51q91 0 148 51q58 52 68 123h79z" />
    <glyph glyph-name="Iogonek" unicode="&#x12e;" horiz-adv-x="704" 
d="M629 1325h-213v-1216h213v-109h-551v109h213v1216h-213v109h551v-109zM393 0q-121 -52 -175 -118q-52 -64 -52 -130q0 -63 40 -93t113 -30q35 0 80 9q37 8 66 18l29 -72q-44 -18 -94 -27q-53 -10 -95 -10q-113 0 -179 49q-65 48 -65 146q0 96 87 172t229 117z" />
    <glyph glyph-name="iogonek" unicode="&#x12f;" horiz-adv-x="464" 
d="M295 0h-123v1065h123v-1065zM233 1458q36 0 60 -24t24 -60q0 -34 -24 -58t-60 -24q-35 0 -59 24t-24 58q0 36 24 60t59 24zM285 0q-121 -52 -175 -118q-53 -65 -53 -130q0 -63 40 -93q41 -30 114 -30q35 0 80 9q35 7 65 18l29 -72q-45 -18 -93 -27q-53 -10 -95 -10
q-114 0 -180 49q-64 48 -64 146q0 96 87 172t228 117z" />
    <glyph glyph-name="Idotaccent" unicode="&#x130;" horiz-adv-x="704" 
d="M629 1325h-213v-1216h213v-109h-551v109h213v1216h-213v109h551v-109zM352 1784q35 0 60 -25q24 -24 24 -59t-24 -59q-23 -23 -60 -23q-36 0 -59 23q-25 25 -25 59t25 59t59 25z" />
    <glyph glyph-name="dotlessi" unicode="&#x131;" horiz-adv-x="464" 
d="M295 0h-123v1065h123v-1065z" />
    <glyph glyph-name="IJ" unicode="&#x132;" horiz-adv-x="1523" 
d="M629 1325h-213v-1216h213v-109h-551v109h213v1216h-213v109h551v-109zM1366 383q0 -95 -17 -163q-19 -74 -61 -124q-45 -53 -113 -79q-71 -27 -176 -27q-62 0 -105 4q-75 7 -101 10v113q11 -1 36 -3.5t38 -4.5q40 -5 77 -5q84 0 143 17q58 17 92 52q32 34 48 90
q14 50 14 132v1039h125v-1051z" />
    <glyph glyph-name="ij" unicode="&#x133;" horiz-adv-x="958" 
d="M788 -61q0 -82 -24 -139q-23 -56 -65 -91q-41 -35 -90 -50q-50 -15 -103 -15q-25 0 -55 2q-23 2 -45 6v98q15 -1 28 -3q8 -1 29 -1q50 0 86 10q35 10 63 36q26 25 40 71q14 47 14 114v1088h122v-1126zM727 1458q35 0 59 -24q25 -25 25 -60q0 -33 -25 -58q-24 -24 -59 -24
t-59 24q-25 25 -25 58q0 35 25 60q24 24 59 24zM295 0h-123v1065h123v-1065zM233 1458q36 0 60 -24t24 -60q0 -34 -24 -58t-60 -24q-35 0 -59 24t-24 58q0 36 24 60t59 24z" />
    <glyph glyph-name="Jcircumflex" unicode="&#x134;" horiz-adv-x="790" 
d="M633 383q0 -91 -18 -163q-19 -76 -60 -124q-45 -52 -114 -79q-71 -27 -175 -27q-62 0 -105 4q-81 8 -102 10v113q11 -1 36.5 -3.5t38.5 -4.5q40 -5 77 -5q84 0 143 17q57 16 91 52q34 35 49 90q14 50 14 132v1039h125v-1051zM899 1563h-117l-213 178l-211 -178h-118
l270 256h121z" />
    <glyph glyph-name="jcircumflex" unicode="&#x135;" horiz-adv-x="464" 
d="M295 -61q0 -80 -25 -139q-24 -57 -64 -91q-41 -35 -90 -50q-50 -15 -104 -15q-25 0 -55 2q-23 2 -45 6v98q18 -2 29 -3q8 -1 28 -1q50 0 86 10q37 10 64 36q26 25 40 71q13 43 13 114v1088h123v-1126zM563 1229h-117l-213 182l-210 -182h-119l270 262h121z" />
    <glyph glyph-name="Kcommaaccent" unicode="&#x136;" horiz-adv-x="1280" 
d="M545 745l-238 -274v-471h-125v1434h125v-795l682 795h152l-514 -596l610 -838h-147zM643 -166q33 0 54 -21q22 -22 22 -57q0 -57 -33 -138t-86 -155l-59 23q31 58 47 112q15 52 20 97q-41 27 -41 65q0 33 23 54q21 20 53 20z" />
    <glyph glyph-name="kcommaaccent" unicode="&#x137;" horiz-adv-x="1081" 
d="M295 502l565 563h154l-422 -416l452 -649h-143l-393 569l-213 -211v-358h-123v1434h123v-932zM543 -166q33 0 54 -21t21 -57q0 -59 -32 -138q-33 -81 -86 -155l-60 23q31 58 47 112q17 57 21 97q-41 27 -41 65q0 33 22 54q21 20 54 20z" />
    <glyph glyph-name="kgreenlandic" unicode="&#x138;" horiz-adv-x="1081" 
d="M594 647l450 -647h-143l-393 569l-213 -211v-358h-123v1065h123v-563l565 563h154z" />
    <glyph glyph-name="Lacute" unicode="&#x139;" horiz-adv-x="1064" 
d="M307 113h692v-113h-817v1434h125v-1321zM297 1542h-109l199 266h168z" />
    <glyph glyph-name="lacute" unicode="&#x13a;" horiz-adv-x="550" 
d="M285 260q0 -90 23 -127q24 -39 102 -39q23 0 33 1q26 3 38 5v-100q-11 -2 -53 -7q-24 -3 -55 -3q-211 0 -211 250v1194h123v-1174zM262 1542h-108l198 266h168z" />
    <glyph glyph-name="Lcommaaccent" unicode="&#x13b;" horiz-adv-x="1064" 
d="M307 113h692v-113h-817v1434h125v-1321zM598 -166q33 0 54 -21q22 -22 22 -57q0 -57 -33 -138t-86 -155l-59 23q31 58 47 112q15 52 20 97q-41 27 -41 65q0 33 23 54q21 20 53 20z" />
    <glyph glyph-name="lcommaaccent" unicode="&#x13c;" horiz-adv-x="550" 
d="M285 260q0 -90 23 -127q24 -39 102 -39q23 0 33 1q26 3 38 5v-100q-11 -2 -53 -7q-24 -3 -55 -3q-211 0 -211 250v1194h123v-1174zM330 -166q33 0 54 -21q22 -22 22 -57q0 -57 -33 -138t-86 -155l-60 23q31 58 47 112q17 57 21 97q-41 27 -41 65q0 33 22 54q21 20 54 20z
" />
    <glyph glyph-name="Lcaron" unicode="&#x13d;" horiz-adv-x="1064" 
d="M307 113h692v-113h-817v1434h125v-1321zM526 1198h-84l101 287h133z" />
    <glyph glyph-name="lcaron" unicode="&#x13e;" horiz-adv-x="589" 
d="M285 260q0 -90 23 -127q24 -39 102 -39q23 0 33 1q26 3 38 5v-100q-11 -2 -53 -7q-24 -3 -55 -3q-211 0 -211 250v1194h123v-1174zM438 1198h-84l101 287h133z" />
    <glyph glyph-name="Ldot" unicode="&#x13f;" horiz-adv-x="1064" 
d="M307 113h692v-113h-817v1434h125v-1321zM784 834q35 0 60 -25q24 -24 24 -59t-24 -59q-23 -23 -60 -23q-36 0 -59 23q-25 25 -25 59t25 59t59 25z" />
    <glyph glyph-name="ldot" unicode="&#x140;" horiz-adv-x="579" 
d="M285 260q0 -90 23 -127q24 -39 102 -39q23 0 33 1q26 3 38 5v-100q-11 -2 -53 -7q-24 -3 -55 -3q-211 0 -211 250v1194h123v-1174zM512 774q28 0 48 -20t20 -47t-20 -47q-19 -19 -48 -19q-28 0 -47 19q-20 20 -20 47t20 47t47 20z" />
    <glyph glyph-name="Lslash" unicode="&#x141;" horiz-adv-x="1124" 
d="M1047 113v-113h-818v643l-174 -94v102l174 94v689h125v-621l406 221v-104l-406 -219v-598h693z" />
    <glyph glyph-name="lslash" unicode="&#x142;" horiz-adv-x="569" 
d="M303 666v-406q0 -88 24 -127t101 -39q24 0 34 1q26 3 38 5v-100q-8 -1 -54 -7q-24 -3 -55 -3q-211 0 -211 250v358l-131 -72v103l131 73v732h123v-664l199 111v-105z" />
    <glyph glyph-name="Nacute" unicode="&#x143;" horiz-adv-x="1404" 
d="M1225 0h-135l-787 1219v-1219h-121v1434h129l791 -1237v1237h123v-1434zM743 1542h-108l199 266h167z" />
    <glyph glyph-name="nacute" unicode="&#x144;" horiz-adv-x="1167" 
d="M647 1083q181 0 271 -105t90 -298v-680h-123v639q0 158 -58 250q-57 90 -204 90q-64 0 -125 -26q-60 -25 -105 -75q-43 -47 -71 -124q-27 -74 -27 -170v-584h-123v1065h123v-201q51 109 144 164q92 55 208 55zM664 1214h-109l199 271h161z" />
    <glyph glyph-name="Ncommaaccent" unicode="&#x145;" horiz-adv-x="1404" 
d="M1225 0h-135l-787 1219v-1219h-121v1434h129l791 -1237v1237h123v-1434zM705 -166q33 0 54 -21t21 -57q0 -59 -32 -138q-33 -81 -86 -155l-60 23q31 58 47 112q17 57 21 97q-41 27 -41 65q0 33 22 54q21 20 54 20z" />
    <glyph glyph-name="ncommaaccent" unicode="&#x146;" horiz-adv-x="1167" 
d="M647 1083q181 0 271 -105t90 -298v-680h-123v639q0 158 -58 250q-57 90 -204 90q-64 0 -125 -26q-60 -25 -105 -75q-43 -47 -71 -124q-27 -74 -27 -170v-584h-123v1065h123v-201q51 109 144 164q92 55 208 55zM588 -166q33 0 54 -21q22 -22 22 -57q0 -57 -33 -138
t-86 -155l-60 23q31 58 47 112q17 57 21 97q-41 27 -41 65q0 33 23 54q21 20 53 20z" />
    <glyph glyph-name="Ncaron" unicode="&#x147;" horiz-adv-x="1404" 
d="M1225 0h-135l-787 1219v-1219h-121v1434h129l791 -1237v1237h123v-1434zM764 1571h-121l-270 258h119l210 -178l213 178h117z" />
    <glyph glyph-name="ncaron" unicode="&#x148;" horiz-adv-x="1167" 
d="M647 1083q181 0 271 -105t90 -298v-680h-123v639q0 158 -58 250q-57 90 -204 90q-64 0 -125 -26q-60 -25 -105 -75q-43 -47 -71 -124q-27 -74 -27 -170v-584h-123v1065h123v-201q51 109 144 164q92 55 208 55zM688 1243h-121l-270 262h119l211 -182l213 182h116z" />
    <glyph glyph-name="napostrophe" unicode="&#x149;" horiz-adv-x="1687" 
d="M1165 1083q181 0 271 -105t90 -298v-680h-123v639q0 160 -57 250t-205 90q-64 0 -125 -26q-60 -25 -105 -75q-43 -47 -71 -124q-27 -74 -27 -170v-584h-123v1065h123v-201q51 109 144 164q92 55 208 55zM240 1508q36 0 62 -26q25 -25 25 -64q0 -73 -41 -173
q-39 -95 -109 -184l-62 29q37 64 58 135q20 69 26 123q-47 26 -47 74q0 35 25 60q26 26 63 26z" />
    <glyph glyph-name="Eng" unicode="&#x14a;" horiz-adv-x="1404" 
d="M1225 1434v-1434q0 -166 -95 -259q-94 -93 -296 -93q-54 0 -100 3t-99 9v104q39 -5 73 -6q46 -2 70 -2q87 0 155 13q61 12 100 41q37 28 54 75q17 48 17 115h-14l-787 1219v-1219h-121v1434h129l791 -1237v1237h123z" />
    <glyph glyph-name="eng" unicode="&#x14b;" horiz-adv-x="1167" 
d="M647 1083q181 0 271 -105t90 -298v-741q0 -80 -25 -139q-24 -57 -64 -91q-41 -35 -91 -50t-103 -15q-25 0 -55 2q-22 2 -45 6v98q15 -1 28 -3q8 -1 29 -1q50 0 86 10q35 10 63 36q26 25 40 71q14 47 14 114v662q0 158 -58 250q-57 90 -204 90q-64 0 -125 -26
q-60 -25 -105 -75q-43 -47 -71 -124q-27 -74 -27 -170v-584h-123v1065h123v-201q51 109 144 164q92 55 208 55z" />
    <glyph glyph-name="Omacron" unicode="&#x14c;" horiz-adv-x="1521" 
d="M762 1460q105 0 219 -38q112 -37 207 -125q94 -87 154 -229q61 -145 61 -353q0 -200 -56 -339q-57 -142 -147 -230q-90 -89 -205 -131q-114 -42 -233 -42q-104 0 -220 38q-113 37 -207 125t-154 230q-60 143 -60 353q0 199 55 339t147 229q93 90 205 131q114 42 234 42z
M760 1350q-108 0 -200 -40q-93 -40 -162 -120q-67 -77 -108 -198q-40 -117 -40 -273q0 -160 40 -277q41 -121 108 -198q69 -80 162 -120q92 -40 200 -40q105 0 197 40q95 41 163 120q72 83 111 197q41 120 41 274q0 159 -40 276q-41 119 -110 199q-68 79 -163 120
q-92 40 -199 40zM1067 1626h-616v92h616v-92z" />
    <glyph glyph-name="omacron" unicode="&#x14d;" horiz-adv-x="1218" 
d="M610 1083q119 0 209 -43q96 -46 157 -118q64 -76 99 -177q35 -102 35 -215q0 -120 -33 -222q-33 -101 -96 -175q-64 -74 -157 -115q-94 -41 -214 -41t-212 43q-93 44 -156 117q-64 75 -98 175q-33 98 -33 218q0 123 33 221q34 101 99 175q64 73 157 115t210 42zM608 979
q-85 0 -154 -33q-70 -33 -117 -91q-49 -60 -74 -140q-25 -81 -25 -183q0 -100 24 -183q23 -79 72 -142q45 -58 116 -92q69 -33 158 -33q91 0 160 33q72 34 117 91q47 59 71 141q25 86 25 185q0 97 -26 181q-25 81 -73 141q-46 58 -118 92q-69 33 -156 33zM915 1300h-616v93
h616v-93z" />
    <glyph glyph-name="Obreve" unicode="&#x14e;" horiz-adv-x="1521" 
d="M762 1460q105 0 219 -38q112 -37 207 -125q94 -87 154 -229q61 -145 61 -353q0 -200 -56 -339q-57 -142 -147 -230q-90 -89 -205 -131q-114 -42 -233 -42q-104 0 -220 38q-113 37 -207 125t-154 230q-60 143 -60 353q0 199 55 339t147 229q93 90 205 131q114 42 234 42z
M760 1350q-108 0 -200 -40q-93 -40 -162 -120q-67 -77 -108 -198q-40 -117 -40 -273q0 -160 40 -277q41 -121 108 -198q69 -80 162 -120q92 -40 200 -40q105 0 197 40q95 41 163 120q72 83 111 197q41 120 41 274q0 159 -40 276q-41 119 -110 199q-68 79 -163 120
q-92 40 -199 40zM1055 1804q-12 -105 -86 -181q-73 -75 -209 -75t-209 75q-74 76 -86 181h78q12 -72 69 -120t148 -48q90 0 147 48q58 48 68 120h80z" />
    <glyph glyph-name="obreve" unicode="&#x14f;" horiz-adv-x="1218" 
d="M610 1083q119 0 209 -43q96 -46 157 -118q64 -76 99 -177q35 -102 35 -215q0 -120 -33 -222q-33 -101 -96 -175q-64 -74 -157 -115q-94 -41 -214 -41t-212 43q-93 44 -156 117q-64 75 -98 175q-33 98 -33 218q0 123 33 221q34 101 99 175q64 73 157 115t210 42zM608 979
q-85 0 -154 -33q-70 -33 -117 -91q-49 -60 -74 -140q-25 -81 -25 -183q0 -100 24 -183q23 -79 72 -142q45 -58 116 -92q69 -33 158 -33q91 0 160 33q72 34 117 91q47 59 71 141q25 86 25 185q0 97 -26 181q-25 81 -73 141q-46 58 -118 92q-69 33 -156 33zM903 1485
q-6 -55 -27 -101q-20 -45 -59 -82q-40 -38 -89 -58q-52 -21 -120 -21t-120 21q-49 20 -89 58q-37 36 -58 82q-22 49 -28 101h78q12 -71 70 -123q57 -51 147 -51q91 0 148 51q56 50 67 123h80z" />
    <glyph glyph-name="Ohungarumlaut" unicode="&#x150;" horiz-adv-x="1521" 
d="M762 1460q105 0 219 -38q112 -37 207 -125q94 -87 154 -229q61 -145 61 -353q0 -200 -56 -339q-57 -142 -147 -230q-90 -89 -205 -131q-114 -42 -233 -42q-104 0 -220 38q-113 37 -207 125t-154 230q-60 143 -60 353q0 199 55 339t147 229q93 90 205 131q114 42 234 42z
M760 1350q-108 0 -200 -40q-93 -40 -162 -120q-67 -77 -108 -198q-40 -117 -40 -273q0 -160 40 -277q41 -121 108 -198q69 -80 162 -120q92 -40 200 -40q105 0 197 40q95 41 163 120q72 83 111 197q41 120 41 274q0 159 -40 276q-41 119 -110 199q-68 79 -163 120
q-92 40 -199 40zM645 1542h-90l168 266h151zM973 1542h-90l174 266h149z" />
    <glyph glyph-name="ohungarumlaut" unicode="&#x151;" horiz-adv-x="1218" 
d="M610 1083q119 0 209 -43q96 -46 157 -118q64 -76 99 -177q35 -102 35 -215q0 -120 -33 -222q-33 -101 -96 -175q-64 -74 -157 -115q-94 -41 -214 -41t-212 43q-93 44 -156 117q-64 75 -98 175q-33 98 -33 218q0 123 33 221q34 101 99 175q64 73 157 115t210 42zM608 979
q-85 0 -154 -33q-70 -33 -117 -91q-49 -60 -74 -140q-25 -81 -25 -183q0 -100 24 -183q23 -79 72 -142q45 -58 116 -92q69 -33 158 -33q91 0 160 33q72 34 117 91q47 59 71 141q25 86 25 185q0 97 -26 181q-25 81 -73 141q-46 58 -118 92q-69 33 -156 33zM485 1217h-96
l166 278h154zM813 1217h-96l172 278h153z" />
    <glyph glyph-name="OE" unicode="&#x152;" horiz-adv-x="1925" 
d="M756 1460q61 0 112 -6q61 -7 115 -20h805v-111h-682v-537h639v-110h-639v-565h700v-111h-821q-65 -18 -113 -22q-58 -5 -116 -5q-104 0 -216 38t-205 125q-94 88 -154 230q-60 143 -60 353q0 199 55 339q55 139 146 229t203 131q114 42 231 42zM756 1350q-107 0 -197 -40
q-92 -41 -161 -120q-67 -77 -108 -198q-40 -117 -40 -273q0 -160 40 -277q41 -121 108 -198q69 -79 161 -120q90 -40 197 -40q68 0 116 7q54 8 107 28v1198q-51 16 -105 24q-61 9 -118 9z" />
    <glyph glyph-name="oe" unicode="&#x153;" horiz-adv-x="1998" 
d="M1442 1083q109 0 195 -44q85 -43 144 -117q57 -72 88 -173q29 -96 29 -210v-31h-806q1 -94 26 -174q23 -75 72 -135q47 -58 115 -88q70 -31 155 -31q109 0 189 47q79 46 131 133l104 -53q-146 -230 -428 -230q-85 0 -158 26q-70 25 -126 70q-55 44 -92 102
q-37 57 -58 126q-18 -66 -55 -125q-37 -60 -91 -103q-55 -45 -124 -70q-70 -26 -154 -26q-118 0 -207 43q-88 43 -152 117q-63 74 -96 175q-32 99 -32 218q0 122 32 221t97 175q62 73 153 115q90 42 205 42q86 0 154 -25q69 -25 125 -71q55 -45 93 -105q38 -61 56 -130
q18 68 54 128q37 61 88 105q53 45 121 72q66 26 153 26zM1434 983q-80 0 -142 -30q-60 -29 -104 -81q-43 -50 -67 -120q-22 -64 -27 -150h675q-5 85 -28 152t-67 120q-43 52 -102 80q-61 29 -138 29zM598 979q-85 0 -151 -33q-67 -34 -113 -91q-49 -62 -72 -140
q-24 -83 -24 -183q0 -104 23 -183q24 -83 70 -142t113 -92q68 -33 154 -33t155 33q67 32 114 91t71 141q25 86 25 185q0 97 -26 181q-24 79 -74 141q-47 59 -115 92t-150 33z" />
    <glyph glyph-name="Racute" unicode="&#x154;" horiz-adv-x="1249" 
d="M631 1434q129 0 227 -32q97 -32 158 -87t91 -129t30 -158q0 -71 -21 -137t-64 -118q-41 -49 -111 -89q-64 -37 -159 -49l406 -635h-146l-389 616h-348v-616h-123v1434h449zM305 1323v-600h363q159 0 248 80q90 81 90 225q0 141 -92 218t-271 77h-338zM666 1542h-109
l199 266h168z" />
    <glyph glyph-name="racute" unicode="&#x155;" horiz-adv-x="757" 
d="M631 1083q24 0 38 -1q28 -2 40 -5v-127q-24 4 -43 4h-29q-67 0 -129 -21t-109 -74t-75 -138q-29 -87 -29 -215v-506h-123v1065h123v-234q47 132 139 192t197 60zM496 1214h-109l199 271h162z" />
    <glyph glyph-name="Rcommaaccent" unicode="&#x156;" horiz-adv-x="1249" 
d="M631 1434q129 0 227 -32q97 -32 158 -87t91 -129t30 -158q0 -71 -21 -137t-64 -118q-41 -49 -111 -89q-64 -37 -159 -49l406 -635h-146l-389 616h-348v-616h-123v1434h449zM305 1323v-600h363q159 0 248 80q90 81 90 225q0 141 -92 218t-271 77h-338zM668 -166
q33 0 54 -21t21 -57q0 -59 -32 -138q-33 -81 -86 -155l-60 23q31 58 47 112q17 57 21 97q-41 27 -41 65q0 33 22 54q21 20 54 20z" />
    <glyph glyph-name="rcommaaccent" unicode="&#x157;" horiz-adv-x="757" 
d="M631 1083q24 0 38 -1q28 -2 40 -5v-127q-24 4 -43 4h-29q-67 0 -129 -21t-109 -74t-75 -138q-29 -87 -29 -215v-506h-123v1065h123v-234q47 132 139 192t197 60zM244 -166q33 0 54 -21t21 -57q0 -59 -32 -138q-33 -81 -86 -155l-60 23q31 58 47 112q17 57 21 97
q-41 27 -41 65q0 33 22 54q21 20 54 20z" />
    <glyph glyph-name="Rcaron" unicode="&#x158;" horiz-adv-x="1249" 
d="M631 1434q129 0 227 -32q97 -32 158 -87t91 -129t30 -158q0 -71 -21 -137t-64 -118q-41 -49 -111 -89q-64 -37 -159 -49l406 -635h-146l-389 616h-348v-616h-123v1434h449zM305 1323v-600h363q159 0 248 80q90 81 90 225q0 141 -92 218t-271 77h-338zM686 1571h-121
l-270 258h119l211 -178l213 178h116z" />
    <glyph glyph-name="rcaron" unicode="&#x159;" horiz-adv-x="757" 
d="M631 1083q24 0 38 -1q28 -2 40 -5v-127q-24 4 -43 4h-29q-67 0 -129 -21t-109 -74t-75 -138q-29 -87 -29 -215v-506h-123v1065h123v-234q47 132 139 192t197 60zM520 1243h-121l-270 262h119l211 -182l213 182h116z" />
    <glyph glyph-name="Sacute" unicode="&#x15a;" horiz-adv-x="1269" 
d="M633 -27q-76 0 -158 14t-156 43q-80 31 -142 75q-69 49 -118 112l91 78q87 -104 208 -157q123 -54 277 -54q189 0 296 82t107 215q0 65 -18 114t-67 89q-47 38 -132 67q-83 28 -215 51q-233 37 -353 126q-120 88 -120 255q0 84 35 154q35 69 98 119q64 50 155 77t204 27
q98 0 178 -19q83 -20 147 -53q66 -35 118 -79q48 -41 89 -97l-96 -69q-25 34 -66 74q-34 33 -92 66q-52 30 -122 48q-73 19 -156 19q-173 0 -269 -72t-96 -191q0 -57 22 -103q22 -45 70 -77q50 -34 131 -57q84 -24 203 -45q261 -45 372 -147t111 -271q0 -90 -32 -164
t-101 -131q-68 -56 -168 -87q-102 -32 -235 -32zM676 1542h-109l199 266h168z" />
    <glyph glyph-name="sacute" unicode="&#x15b;" horiz-adv-x="1050" 
d="M518 1083q140 0 235 -36q97 -37 175 -107l-76 -74q-133 117 -334 117q-133 0 -203 -50q-69 -49 -69 -128q0 -44 16 -73t53 -53q37 -23 97 -40q58 -16 147 -31q96 -16 174 -39t127 -59q52 -38 77 -90q26 -54 26 -129q0 -64 -29 -122q-28 -56 -85 -98q-60 -44 -139 -67
q-82 -24 -192 -24q-149 0 -267 45t-198 131l80 77q69 -74 169 -112q96 -37 214 -37q165 0 242 58q78 58 78 145q0 48 -17 84q-17 35 -56 60t-106 43q-64 18 -163 34q-198 29 -284 100q-87 72 -87 193q0 127 105 205q104 77 290 77zM555 1214h-109l199 271h162z" />
    <glyph glyph-name="Scircumflex" unicode="&#x15c;" horiz-adv-x="1269" 
d="M633 -27q-76 0 -158 14t-156 43q-80 31 -142 75q-69 49 -118 112l91 78q87 -104 208 -157q123 -54 277 -54q189 0 296 82t107 215q0 65 -18 114t-67 89q-47 38 -132 67q-83 28 -215 51q-233 37 -353 126q-120 88 -120 255q0 84 35 154q35 69 98 119q64 50 155 77t204 27
q98 0 178 -19q83 -20 147 -53q66 -35 118 -79q48 -41 89 -97l-96 -69q-25 34 -66 74q-34 33 -92 66q-52 30 -122 48q-73 19 -156 19q-173 0 -269 -72t-96 -191q0 -57 22 -103q22 -45 70 -77q50 -34 131 -57q84 -24 203 -45q261 -45 372 -147t111 -271q0 -90 -32 -164
t-101 -131q-68 -56 -168 -87q-102 -32 -235 -32zM965 1563h-117l-213 178l-211 -178h-119l270 256h121z" />
    <glyph glyph-name="scircumflex" unicode="&#x15d;" horiz-adv-x="1050" 
d="M518 1083q140 0 235 -36q97 -37 175 -107l-76 -74q-133 117 -334 117q-133 0 -203 -50q-69 -49 -69 -128q0 -44 16 -73t53 -53q37 -23 97 -40q58 -16 147 -31q96 -16 174 -39t127 -59q52 -38 77 -90q26 -54 26 -129q0 -64 -29 -122q-28 -56 -85 -98q-60 -44 -139 -67
q-82 -24 -192 -24q-149 0 -267 45t-198 131l80 77q69 -74 169 -112q96 -37 214 -37q165 0 242 58q78 58 78 145q0 48 -17 84q-17 35 -56 60t-106 43q-64 18 -163 34q-198 29 -284 100q-87 72 -87 193q0 127 105 205q104 77 290 77zM848 1227h-117l-213 182l-211 -182h-119
l271 262h121z" />
    <glyph glyph-name="Scedilla" unicode="&#x15e;" horiz-adv-x="1269" 
d="M633 -27q-76 0 -158 14t-156 43q-80 31 -142 75q-69 49 -118 112l91 78q87 -104 208 -157q123 -54 277 -54q189 0 296 82t107 215q0 65 -18 114t-67 89q-47 38 -132 67q-83 28 -215 51q-233 37 -353 126q-120 88 -120 255q0 84 35 154q35 69 98 119q64 50 155 77t204 27
q98 0 178 -19q83 -20 147 -53q66 -35 118 -79q48 -41 89 -97l-96 -69q-25 34 -66 74q-34 33 -92 66q-52 30 -122 48q-73 19 -156 19q-173 0 -269 -72t-96 -191q0 -57 22 -103q22 -45 70 -77q50 -34 131 -57q84 -24 203 -45q261 -45 372 -147t111 -271q0 -90 -32 -164
t-101 -131q-68 -56 -168 -87q-102 -32 -235 -32zM662 -109q106 -7 164 -53q57 -45 57 -112q0 -86 -67 -136q-65 -49 -175 -49q-55 0 -113 14q-57 14 -96 37l39 68q35 -23 76 -32t82 -9q66 0 109 26q42 25 42 81q0 62 -59 83q-60 21 -160 21l27 176h76z" />
    <glyph glyph-name="scedilla" unicode="&#x15f;" horiz-adv-x="1050" 
d="M518 1083q140 0 235 -36q97 -37 175 -107l-76 -74q-133 117 -334 117q-133 0 -203 -50q-69 -49 -69 -128q0 -44 16 -73t53 -53q37 -23 97 -40q58 -16 147 -31q96 -16 174 -39t127 -59q52 -38 77 -90q26 -54 26 -129q0 -64 -29 -122q-28 -56 -85 -98q-60 -44 -139 -67
q-82 -24 -192 -24q-149 0 -267 45t-198 131l80 77q69 -74 169 -112q96 -37 214 -37q165 0 242 58q78 58 78 145q0 48 -17 84q-17 35 -56 60t-106 43q-64 18 -163 34q-198 29 -284 100q-87 72 -87 193q0 127 105 205q104 77 290 77zM543 -109q107 -7 165 -53q56 -44 56 -112
q0 -86 -67 -136q-65 -49 -175 -49q-54 0 -112 14q-59 14 -97 37l39 68q35 -23 76 -32q40 -9 82 -9q67 0 110 26q42 25 42 81q0 62 -60 83t-160 21l27 176h76z" />
    <glyph glyph-name="Scaron" unicode="&#x160;" horiz-adv-x="1269" 
d="M633 -27q-76 0 -158 14t-156 43q-80 31 -142 75q-69 49 -118 112l91 78q87 -104 208 -157q123 -54 277 -54q189 0 296 82t107 215q0 65 -18 114t-67 89q-47 38 -132 67q-83 28 -215 51q-233 37 -353 126q-120 88 -120 255q0 84 35 154q35 69 98 119q64 50 155 77t204 27
q98 0 178 -19q83 -20 147 -53q66 -35 118 -79q48 -41 89 -97l-96 -69q-25 34 -66 74q-34 33 -92 66q-52 30 -122 48q-73 19 -156 19q-173 0 -269 -72t-96 -191q0 -57 22 -103q22 -45 70 -77q50 -34 131 -57q84 -24 203 -45q261 -45 372 -147t111 -271q0 -90 -32 -164
t-101 -131q-68 -56 -168 -87q-102 -32 -235 -32zM696 1571h-121l-270 258h119l211 -178l213 178h117z" />
    <glyph glyph-name="scaron" unicode="&#x161;" horiz-adv-x="1050" 
d="M518 1083q140 0 235 -36q97 -37 175 -107l-76 -74q-133 117 -334 117q-133 0 -203 -50q-69 -49 -69 -128q0 -44 16 -73t53 -53q37 -23 97 -40q58 -16 147 -31q96 -16 174 -39t127 -59q52 -38 77 -90q26 -54 26 -129q0 -64 -29 -122q-28 -56 -85 -98q-60 -44 -139 -67
q-82 -24 -192 -24q-149 0 -267 45t-198 131l80 77q69 -74 169 -112q96 -37 214 -37q165 0 242 58q78 58 78 145q0 48 -17 84q-17 35 -56 60t-106 43q-64 18 -163 34q-198 29 -284 100q-87 72 -87 193q0 127 105 205q104 77 290 77zM580 1243h-121l-271 262h119l211 -182
l213 182h117z" />
    <glyph glyph-name="Tcommaaccent" unicode="&#x162;" horiz-adv-x="1171" 
d="M1102 1323h-455v-1323h-123v1323h-454v111h1032v-111zM625 -102q106 -7 165 -54q56 -44 56 -112q0 -85 -67 -135t-175 -50q-54 0 -112 14q-56 14 -97 38l39 67q35 -23 76 -32q40 -9 82 -9q66 0 109 26q42 25 42 81q0 62 -59 83q-60 21 -160 21l27 176h76z" />
    <glyph glyph-name="tcommaaccent" unicode="&#x163;" horiz-adv-x="731" 
d="M326 1065h327v-94h-327v-688q0 -91 39 -145t147 -54q46 0 96 8q42 7 82 19v-101q-40 -12 -92 -21q-51 -9 -111 -9q-81 0 -137 21q-54 20 -88 59q-32 36 -46 92q-13 51 -13 114v705h-154v94h154v287h123v-287zM487 -109q107 -7 165 -53q57 -45 57 -112q0 -86 -67 -136
q-65 -49 -175 -49q-55 0 -113 14q-57 14 -96 37l39 68q35 -23 76 -32t82 -9q66 0 109 26q42 25 42 81q0 62 -59 83q-60 21 -160 21l27 176h75z" />
    <glyph glyph-name="Tcaron" unicode="&#x164;" horiz-adv-x="1171" 
d="M1102 1323h-455v-1323h-123v1323h-454v111h1032v-111zM647 1571h-121l-270 258h119l211 -178l213 178h116z" />
    <glyph glyph-name="tcaron" unicode="&#x165;" horiz-adv-x="731" 
d="M326 1065h327v-94h-327v-688q0 -91 39 -145t147 -54q46 0 96 8q42 7 82 19v-101q-40 -12 -92 -21q-51 -9 -111 -9q-81 0 -137 21q-54 20 -88 59q-32 36 -46 92q-13 51 -13 114v705h-154v94h154v287h123v-287zM610 1198h-84l101 287h133z" />
    <glyph glyph-name="Tbar" unicode="&#x166;" horiz-adv-x="1171" 
d="M926 799h-279v-799h-123v799h-276v98h276v426h-454v111h1032v-111h-455v-426h279v-98z" />
    <glyph glyph-name="tbar" unicode="&#x167;" horiz-adv-x="731" 
d="M512 84q46 0 96 8q42 7 82 19v-101q-40 -12 -92 -21q-51 -9 -111 -9q-81 0 -137 21q-54 20 -88 59q-32 36 -46 92q-13 51 -13 114v393h-148v91h148v221h-154v94h154v287h123v-287h327v-94h-327v-221h311v-91h-311v-376q0 -91 39 -145t147 -54z" />
    <glyph glyph-name="Utilde" unicode="&#x168;" horiz-adv-x="1345" 
d="M1190 500q0 -97 -27 -190q-27 -92 -87 -169q-58 -74 -160 -122q-98 -46 -244 -46q-149 0 -249 47q-99 47 -158 122q-59 76 -83 169q-24 95 -24 189v934h125v-930q0 -96 22 -171q22 -76 71 -132q48 -56 122 -86q76 -31 176 -31q98 0 174 31q74 30 122 86q47 54 71 133
q24 78 24 170v930h125v-934zM545 1774q53 0 87 -18t60 -38q11 -8 29.5 -21.5t21.5 -16.5q23 -17 60 -17q41 0 65 24q25 25 45 72h80q-17 -80 -67 -132q-51 -52 -129 -52q-55 0 -88 17q-41 21 -61 38q-7 6 -50 38q-24 18 -59 18q-41 0 -67 -24q-25 -24 -46 -73h-78
q16 78 67 132q50 53 130 53z" />
    <glyph glyph-name="utilde" unicode="&#x169;" horiz-adv-x="1161" 
d="M991 0h-123v188q-46 -91 -137 -150q-89 -58 -213 -58q-172 0 -264 96q-92 97 -92 282v707h123v-680q0 -152 60 -224q61 -73 198 -73q65 0 125 24t103 70q44 47 71 119q26 69 26 170v594h123v-1065zM446 1446q53 0 88 -18q38 -20 60 -37q11 -8 29 -21.5l22 -16.5
q24 -18 60 -18q41 0 65 24t45 73h80q-17 -80 -68 -133q-51 -52 -129 -52q-54 0 -88 18q-38 20 -60 38q-10 8 -28.5 21.5t-21.5 15.5q-24 18 -60 18q-40 0 -66 -24t-46 -72h-78q16 80 66 132q49 52 130 52z" />
    <glyph glyph-name="Umacron" unicode="&#x16a;" horiz-adv-x="1345" 
d="M1190 500q0 -97 -27 -190q-27 -92 -87 -169q-58 -74 -160 -122q-98 -46 -244 -46q-149 0 -249 47q-99 47 -158 122q-59 76 -83 169q-24 95 -24 189v934h125v-930q0 -96 22 -171q22 -76 71 -132q48 -56 122 -86q76 -31 176 -31q98 0 174 31q74 30 122 86q47 54 71 133
q24 78 24 170v930h125v-934zM979 1626h-617v92h617v-92z" />
    <glyph glyph-name="umacron" unicode="&#x16b;" horiz-adv-x="1161" 
d="M991 0h-123v188q-46 -91 -137 -150q-89 -58 -213 -58q-172 0 -264 96q-92 97 -92 282v707h123v-680q0 -152 60 -224q61 -73 198 -73q65 0 125 24t103 70q44 47 71 119q26 69 26 170v594h123v-1065zM881 1298h-617v93h617v-93z" />
    <glyph glyph-name="Ubreve" unicode="&#x16c;" horiz-adv-x="1345" 
d="M1190 500q0 -97 -27 -190q-27 -92 -87 -169q-58 -74 -160 -122q-98 -46 -244 -46q-149 0 -249 47q-99 47 -158 122q-59 76 -83 169q-24 95 -24 189v934h125v-930q0 -96 22 -171q22 -76 71 -132q48 -56 122 -86q76 -31 176 -31q98 0 174 31q74 30 122 86q47 54 71 133
q24 78 24 170v930h125v-934zM967 1804q-12 -105 -86 -181q-73 -75 -209 -75t-209 75q-74 76 -86 181h78q12 -72 69 -120t148 -48q90 0 147 48q58 48 68 120h80z" />
    <glyph glyph-name="ubreve" unicode="&#x16d;" horiz-adv-x="1161" 
d="M991 0h-123v188q-46 -91 -137 -150q-89 -58 -213 -58q-172 0 -264 96q-92 97 -92 282v707h123v-680q0 -152 60 -224q61 -73 198 -73q65 0 125 24t103 70q44 47 71 119q26 69 26 170v594h123v-1065zM868 1483q-6 -55 -27 -101q-21 -47 -59 -83q-38 -37 -89 -57
q-53 -21 -120 -21q-66 0 -119 21q-51 20 -89 57q-38 36 -59 83q-21 46 -27 101h77q12 -71 70 -123q57 -51 147 -51q91 0 148 51q56 50 67 123h80z" />
    <glyph glyph-name="Uring" unicode="&#x16e;" horiz-adv-x="1345" 
d="M1190 500q0 -97 -27 -190q-27 -92 -87 -169q-58 -74 -160 -122q-98 -46 -244 -46q-149 0 -249 47q-99 47 -158 122q-59 76 -83 169q-24 95 -24 189v934h125v-930q0 -96 22 -171q22 -76 71 -132q48 -56 122 -86q76 -31 176 -31q98 0 174 31q74 30 122 86q47 54 71 133
q24 78 24 170v930h125v-934zM672 1956q45 0 90 -17q42 -16 76 -47q32 -29 52 -72q19 -41 19 -94q0 -52 -19 -93t-52 -71q-32 -29 -76 -46q-45 -17 -90 -17q-46 0 -91 17t-77 46q-33 30 -52 71q-20 43 -20 93q0 51 20 94t52 72q34 31 77 47q45 17 91 17zM672 1882
q-62 0 -108 -42t-46 -114q0 -71 46 -111t108 -40q59 0 105 40t46 111q0 72 -46 114t-105 42z" />
    <glyph glyph-name="uring" unicode="&#x16f;" horiz-adv-x="1161" 
d="M991 0h-123v188q-46 -91 -137 -150q-89 -58 -213 -58q-172 0 -264 96q-92 97 -92 282v707h123v-680q0 -152 60 -224q61 -73 198 -73q65 0 125 24t103 70q44 47 71 119q26 69 26 170v594h123v-1065zM573 1659q47 0 91 -18q41 -17 75 -48t53 -72t19 -94q0 -52 -19 -93
q-18 -39 -53 -71q-33 -30 -75 -46q-45 -17 -91 -17t-91 17q-44 17 -76 46q-35 32 -53 71q-19 41 -19 93q0 53 19 94t53 72q33 30 76 48t91 18zM573 1583q-61 0 -107 -42t-46 -114q0 -71 46 -111t107 -40q60 0 106 40t46 111q0 72 -46 114q-47 42 -106 42z" />
    <glyph glyph-name="Uhungarumlaut" unicode="&#x170;" horiz-adv-x="1345" 
d="M1190 500q0 -97 -27 -190q-27 -92 -87 -169q-58 -74 -160 -122q-98 -46 -244 -46q-149 0 -249 47q-99 47 -158 122q-59 76 -83 169q-24 95 -24 189v934h125v-930q0 -96 22 -171q22 -76 71 -132q48 -56 122 -86q76 -31 176 -31q98 0 174 31q74 30 122 86q47 54 71 133
q24 78 24 170v930h125v-934zM557 1542h-90l168 266h151zM885 1542h-90l174 266h149z" />
    <glyph glyph-name="uhungarumlaut" unicode="&#x171;" horiz-adv-x="1161" 
d="M991 0h-123v188q-46 -91 -137 -150q-89 -58 -213 -58q-172 0 -264 96q-92 97 -92 282v707h123v-680q0 -152 60 -224q61 -73 198 -73q65 0 125 24t103 70q44 47 71 119q26 69 26 170v594h123v-1065zM451 1214h-97l166 279h154zM778 1214h-96l172 279h154z" />
    <glyph glyph-name="Uogonek" unicode="&#x172;" horiz-adv-x="1345" 
d="M1190 500q0 -97 -27 -190q-27 -92 -87 -169q-58 -74 -160 -122q-98 -46 -244 -46q-149 0 -249 47q-99 47 -158 122q-59 76 -83 169q-24 95 -24 189v934h125v-930q0 -96 22 -171q22 -76 71 -132q48 -56 122 -86q76 -31 176 -31q98 0 174 31q74 30 122 86q47 54 71 133
q24 78 24 170v930h125v-934zM858 0q-121 -52 -175 -118q-52 -64 -52 -130q0 -63 40 -93t113 -30q35 0 80 9q38 8 66 18l28 -72q-45 -18 -93 -27q-53 -10 -95 -10q-113 0 -179 49q-65 48 -65 146q0 96 87 172t229 117z" />
    <glyph glyph-name="uogonek" unicode="&#x173;" horiz-adv-x="1161" 
d="M991 0h-123v188q-46 -91 -137 -150q-89 -58 -213 -58q-172 0 -264 96q-92 97 -92 282v707h123v-680q0 -152 60 -224q61 -73 198 -73q65 0 125 24t103 70q44 47 71 119q26 69 26 170v594h123v-1065zM948 0q-121 -52 -175 -118q-52 -64 -52 -130q0 -63 40 -93
q41 -30 113 -30q35 0 80 9q38 8 66 18l29 -72q-44 -18 -94 -27q-53 -10 -95 -10q-113 0 -179 49q-65 48 -65 146q0 96 87 172t229 117z" />
    <glyph glyph-name="Wcircumflex" unicode="&#x174;" horiz-adv-x="1689" 
d="M1309 0h-148l-307 1270l-291 -1270h-153l-361 1434h131l307 -1303l297 1303h142l309 -1299l285 1299h122zM1184 1563h-117l-213 178l-211 -178h-119l271 256h120z" />
    <glyph glyph-name="wcircumflex" unicode="&#x175;" horiz-adv-x="1570" 
d="M1198 0h-147l-265 905l-264 -905h-145l-324 1065h135l265 -928l262 928h141l270 -926l265 926h127zM1116 1227h-117l-213 182l-211 -182h-118l270 262h121z" />
    <glyph glyph-name="Ycircumflex" unicode="&#x176;" horiz-adv-x="1210" 
d="M674 590v-590h-125v588l-506 846h141l428 -729l420 729h137zM938 1563h-117l-213 178l-211 -178h-118l270 256h121z" />
    <glyph glyph-name="ycircumflex" unicode="&#x177;" horiz-adv-x="995" 
d="M588 -41q-24 -71 -49 -126q-27 -58 -67 -101q-42 -45 -95 -68q-55 -24 -135 -24q-34 0 -62 3q-36 4 -53 7v100q27 -5 46 -6q26 -2 46 -2q59 0 100 18t70 53t48 81q22 52 38 106h-39l-393 1065h135l340 -967l307 967h129zM827 1227h-116l-213 182l-211 -182h-119l270 262
h121z" />
    <glyph glyph-name="Ydieresis" unicode="&#x178;" horiz-adv-x="1210" 
d="M674 590v-590h-125v588l-506 846h141l428 -729l420 729h137zM389 1755q34 0 57 -23q25 -25 25 -57q0 -31 -25 -56q-24 -24 -57 -24q-32 0 -56 24t-24 56q0 33 24 57q23 23 56 23zM827 1755q35 0 58 -23q24 -24 24 -57q0 -32 -24 -56t-58 -24q-32 0 -56 24q-23 23 -23 56
q0 34 23 57t56 23z" />
    <glyph glyph-name="Zacute" unicode="&#x179;" horiz-adv-x="1214" 
d="M1110 1327l-874 -1214h888v-113h-1050v100l878 1223h-817v111h975v-107zM643 1542h-108l198 266h168z" />
    <glyph glyph-name="zacute" unicode="&#x17a;" horiz-adv-x="952" 
d="M872 967l-655 -861h662v-106h-816v94l658 867h-594v104h745v-98zM514 1217h-108l198 270h162z" />
    <glyph glyph-name="Zdotaccent" unicode="&#x17b;" horiz-adv-x="1214" 
d="M1110 1327l-874 -1214h888v-113h-1050v100l878 1223h-817v111h975v-107zM602 1784q35 0 60 -25q24 -24 24 -59t-24 -59q-23 -23 -60 -23q-36 0 -59 23q-25 25 -25 59t25 59t59 25z" />
    <glyph glyph-name="zdotaccent" unicode="&#x17c;" horiz-adv-x="952" 
d="M872 967l-655 -861h662v-106h-816v94l658 867h-594v104h745v-98zM477 1458q36 0 60 -24t24 -60q0 -34 -24 -58t-60 -24q-35 0 -59 24q-25 25 -25 58q0 35 25 60q24 24 59 24z" />
    <glyph glyph-name="Zcaron" unicode="&#x17d;" horiz-adv-x="1214" 
d="M1110 1327l-874 -1214h888v-113h-1050v100l878 1223h-817v111h975v-107zM664 1571h-121l-271 258h119l211 -178l213 178h117z" />
    <glyph glyph-name="zcaron" unicode="&#x17e;" horiz-adv-x="952" 
d="M872 967l-655 -861h662v-106h-816v94l658 867h-594v104h745v-98zM539 1245h-121l-271 262h119l211 -182l213 182h117z" />
    <glyph glyph-name="longs" unicode="&#x17f;" horiz-adv-x="679" 
d="M506 1454q49 0 92 -8q37 -7 80 -25v-94q-52 16 -77 21q-40 8 -81 8q-110 0 -152 -49t-42 -142v-1165h-123v971h-154v94h154v117q0 54 14 100q15 50 49 88q35 40 93 62q57 22 147 22z" />
    <glyph glyph-name="uni018F" unicode="&#x18f;" horiz-adv-x="1476" 
d="M741 1460q119 0 231 -41q110 -40 197 -130q88 -91 138 -230q51 -141 51 -340q0 -211 -59 -355t-148 -230t-200 -124q-108 -37 -210 -37q-112 0 -222 37q-112 38 -200 126q-87 87 -143 236q-55 146 -55 365v25h1110q-6 144 -44 255q-37 108 -103 183q-65 74 -152 111
t-191 37q-61 0 -130 -16q-65 -15 -124 -49q-58 -33 -111 -91t-93 -139l-123 43q50 106 118 174q68 69 145 112q75 43 159 61q78 17 159 17zM741 84q96 0 183 35q86 35 150 105q66 72 106 177q42 110 49 252h-973q6 -167 51 -277q44 -108 115 -174q68 -64 153 -91
q84 -27 166 -27z" />
    <glyph glyph-name="florin" unicode="&#x192;" horiz-adv-x="630" 
d="M506 1454q59 0 109 -10q54 -11 94 -27v-98q-30 13 -87 26q-48 11 -102 11q-113 0 -153 -49q-41 -50 -41 -142v-100h331v-94h-331v-1032q0 -80 -25 -139q-24 -57 -64 -91q-41 -35 -91 -50q-49 -15 -103 -15q-25 0 -55 2q-22 2 -45 6v98q15 -1 28 -3q8 -1 29 -1q50 0 86 10
q37 10 64 36q25 23 39 71q14 47 14 114v994h-154v94h154v117q0 54 14 100q15 50 49 88q35 40 93 62q57 22 147 22z" />
    <glyph glyph-name="uni01CD" unicode="&#x1cd;" horiz-adv-x="1241" 
d="M965 299h-695l-100 -299h-131l502 1434h164l499 -1434h-139zM307 410h621l-310 917zM684 1571h-121l-270 258h119l211 -178l213 178h116z" />
    <glyph glyph-name="uni01CE" unicode="&#x1ce;" horiz-adv-x="1114" 
d="M557 1083q117 0 193 -24q73 -23 120 -70t64 -109q18 -64 18 -147v-442q0 -105 7 -168q8 -69 28 -123h-127q-11 35 -19 83q-9 51 -10 79q-46 -73 -142 -128q-95 -54 -236 -54q-91 0 -154 23q-66 24 -110 65t-66 97q-23 58 -23 122q0 142 102 231q103 89 335 119l292 39v47
q0 70 -10 117q-10 48 -41 82q-29 32 -84 49q-51 16 -139 16q-159 0 -225 -63t-68 -170h-121q4 152 108 241q103 88 308 88zM571 547q-179 -24 -262 -83q-82 -58 -82 -171q0 -89 58 -150q56 -59 190 -59q76 0 142 23q68 24 112 62q48 42 74 92q26 51 26 114v207zM623 1245
h-121l-271 262h119l211 -182l213 182h117z" />
    <glyph glyph-name="uni01CF" unicode="&#x1cf;" horiz-adv-x="704" 
d="M629 1325h-213v-1216h213v-109h-551v109h213v1216h-213v109h551v-109zM414 1571h-121l-270 258h118l211 -178l213 178h117z" />
    <glyph glyph-name="uni01D0" unicode="&#x1d0;" horiz-adv-x="464" 
d="M295 0h-123v1065h123v-1065zM295 1245h-121l-270 262h119l210 -182l213 182h117z" />
    <glyph glyph-name="uni01D1" unicode="&#x1d1;" horiz-adv-x="1521" 
d="M762 1460q105 0 219 -38q112 -37 207 -125q94 -87 154 -229q61 -145 61 -353q0 -200 -56 -339q-57 -142 -147 -230q-90 -89 -205 -131q-114 -42 -233 -42q-104 0 -220 38q-113 37 -207 125t-154 230q-60 143 -60 353q0 199 55 339t147 229q93 90 205 131q114 42 234 42z
M760 1350q-108 0 -200 -40q-93 -40 -162 -120q-67 -77 -108 -198q-40 -117 -40 -273q0 -160 40 -277q41 -121 108 -198q69 -80 162 -120q92 -40 200 -40q105 0 197 40q95 41 163 120q72 83 111 197q41 120 41 274q0 159 -40 276q-41 119 -110 199q-68 79 -163 120
q-92 40 -199 40zM821 1571h-121l-270 258h119l211 -178l213 178h117z" />
    <glyph glyph-name="uni01D2" unicode="&#x1d2;" horiz-adv-x="1218" 
d="M610 1083q119 0 209 -43q96 -46 157 -118q64 -76 99 -177q35 -102 35 -215q0 -120 -33 -222q-33 -101 -96 -175q-64 -74 -157 -115q-94 -41 -214 -41t-212 43q-93 44 -156 117q-64 75 -98 175q-33 98 -33 218q0 123 33 221q34 101 99 175q64 73 157 115t210 42zM608 979
q-85 0 -154 -33q-70 -33 -117 -91q-49 -60 -74 -140q-25 -81 -25 -183q0 -100 24 -183q23 -79 72 -142q45 -58 116 -92q69 -33 158 -33q91 0 160 33q72 34 117 91q47 59 71 141q25 86 25 185q0 97 -26 181q-25 81 -73 141q-46 58 -118 92q-69 33 -156 33zM670 1245h-121
l-270 262h118l211 -182l213 182h117z" />
    <glyph glyph-name="uni01D3" unicode="&#x1d3;" horiz-adv-x="1345" 
d="M1190 500q0 -97 -27 -190q-27 -92 -87 -169q-58 -74 -160 -122q-98 -46 -244 -46q-149 0 -249 47q-99 47 -158 122q-59 76 -83 169q-24 95 -24 189v934h125v-930q0 -96 22 -171q22 -76 71 -132q48 -56 122 -86q76 -31 176 -31q98 0 174 31q74 30 122 86q47 54 71 133
q24 78 24 170v930h125v-934zM733 1571h-121l-270 258h119l211 -178l213 178h116z" />
    <glyph glyph-name="uni01D4" unicode="&#x1d4;" horiz-adv-x="1161" 
d="M991 0h-123v188q-46 -91 -137 -150q-89 -58 -213 -58q-172 0 -264 96q-92 97 -92 282v707h123v-680q0 -152 60 -224q61 -73 198 -73q65 0 125 24t103 70q44 47 71 119q26 69 26 170v594h123v-1065zM635 1243h-121l-270 262h118l211 -182l213 182h117z" />
    <glyph glyph-name="Aringacute" unicode="&#x1fa;" horiz-adv-x="1241" 
d="M965 299h-695l-100 -299h-131l502 1434h164l499 -1434h-139zM307 410h621l-310 917zM623 1956q45 0 90 -17q40 -15 75 -47q34 -31 53 -72t19 -94q0 -52 -19 -93q-18 -39 -53 -71q-33 -30 -75 -46q-45 -17 -90 -17q-47 0 -92 17q-44 17 -76 46q-35 32 -53 71
q-19 41 -19 93q0 53 19 94t53 72t76 47q45 17 92 17zM623 1882q-61 0 -108 -42q-46 -42 -46 -114q0 -71 46 -111t108 -40q59 0 105 40t46 111q0 72 -46 114t-105 42zM664 2015h-109l199 266h168z" />
    <glyph glyph-name="aringacute" unicode="&#x1fb;" horiz-adv-x="1114" 
d="M557 1083q117 0 193 -24q73 -23 120 -70t64 -109q18 -64 18 -147v-442q0 -105 7 -168q8 -69 28 -123h-127q-11 35 -19 83q-9 51 -10 79q-46 -73 -142 -128q-95 -54 -236 -54q-91 0 -154 23q-66 24 -110 65t-66 97q-23 58 -23 122q0 142 102 231q103 89 335 119l292 39v47
q0 70 -10 117q-10 48 -41 82q-29 32 -84 49q-51 16 -139 16q-159 0 -225 -63t-68 -170h-121q4 152 108 241q103 88 308 88zM571 547q-179 -24 -262 -83q-82 -58 -82 -171q0 -89 58 -150q56 -59 190 -59q76 0 142 23q68 24 112 62q48 42 74 92q26 51 26 114v207zM561 1659
q47 0 90 -18t76 -48q32 -29 52 -72t20 -94q0 -50 -20 -93q-19 -41 -52 -71q-32 -29 -76 -46q-45 -17 -90 -17q-46 0 -91 17t-77 46q-33 30 -52 71t-19 93q0 53 19 94q20 43 52 72q33 30 77 48t91 18zM561 1583q-61 0 -107 -42t-46 -114q0 -71 46 -111t107 -40q60 0 106 40
t46 111q0 72 -46 114t-106 42zM598 1749h-109l199 270h162z" />
    <glyph glyph-name="AEacute" unicode="&#x1fc;" horiz-adv-x="1949" 
d="M1759 1323h-790l84 -537h678v-110h-662l88 -563h713v-113h-828l-43 295h-690l-157 -295h-136l772 1434h971v-111zM362 403h621l-133 914zM1245 1542h-108l198 266h168z" />
    <glyph glyph-name="aeacute" unicode="&#x1fd;" horiz-adv-x="1861" 
d="M1294 1083q114 0 202 -44q85 -43 146 -117q60 -73 90 -173q29 -96 29 -210v-31h-823q1 -91 27 -174q24 -78 72 -135q49 -59 117 -88q71 -31 159 -31q116 0 196 50t133 130l103 -53q-72 -110 -179 -170q-108 -60 -255 -60q-157 0 -263 71t-161 181q-43 -105 -146 -177
q-102 -72 -278 -72q-95 0 -160 23q-67 24 -113 65q-45 40 -67 97q-23 58 -23 122q0 144 103 235q102 90 334 119l294 37q5 39 25 100q-10 45 -27 84q-17 41 -49 67q-35 28 -86 43q-53 15 -137 15q-83 0 -137 -16q-55 -16 -90 -47q-35 -30 -50 -74q-17 -48 -18 -96h-121
q4 152 107 241q101 88 311 88q102 0 168 -18q64 -18 104 -48q40 -31 59 -67q22 -42 32 -71q17 33 52 71q34 37 82 67q49 31 107 48q60 18 131 18zM571 551q-182 -22 -263 -84q-81 -61 -81 -174q0 -90 60 -150q59 -59 192 -59q76 0 139 21q62 21 112 58q48 36 77 83t35 98
q-13 54 -17 92q-4 39 -4 82v31q0 11 2 33zM1292 983q-84 0 -148 -30q-66 -31 -109 -81q-44 -52 -68 -120q-24 -70 -29 -150h696q-5 88 -27 152q-24 70 -67 120q-45 53 -105 80q-64 29 -143 29zM969 1217h-109l199 270h162z" />
    <glyph glyph-name="Oslashacute" unicode="&#x1fe;" horiz-adv-x="1521" 
d="M1200 1286q91 -89 147 -227q56 -137 56 -344q0 -200 -56 -339q-57 -142 -147 -230q-90 -89 -205 -131q-114 -42 -233 -42q-82 0 -171 23q-85 22 -169 74l-156 -254h-112l196 307q-100 85 -165 231q-64 144 -64 365q0 199 55 339t147 229q93 90 205 131q114 42 234 42
q93 0 184 -26q97 -28 180 -86l131 206h109zM250 719q0 -170 45 -293t123 -201l647 1020q-132 103 -305 103q-108 0 -200 -40q-94 -41 -162 -119q-67 -77 -108 -197q-40 -117 -40 -273zM760 86q105 0 197 40q96 42 163 119q73 84 111 196q41 120 41 274q0 155 -39 273
q-38 117 -107 196l-643 -1016q118 -82 277 -82zM801 1542h-109l199 266h168z" />
    <glyph glyph-name="oslashacute" unicode="&#x1ff;" horiz-adv-x="1218" 
d="M940 958q83 -77 126 -187q44 -112 44 -241q0 -120 -33 -222q-33 -101 -96 -175q-64 -74 -157 -115q-94 -41 -214 -41q-132 0 -239 58l-127 -209h-113l162 260q-90 76 -136 190q-46 113 -46 254q0 123 33 221q34 101 99 175q64 73 157 115t210 42q141 0 252 -69l119 194
h106zM608 979q-85 0 -154 -33q-70 -33 -117 -91q-49 -60 -74 -140q-25 -81 -25 -183q0 -224 118 -346l451 734q-42 29 -90 44q-50 15 -109 15zM422 131q38 -22 86 -36q45 -13 100 -13q91 0 160 33q72 34 117 91q47 59 71 141q25 86 25 185q0 98 -28 185q-26 80 -81 143z
M645 1217h-108l198 270h162z" />
    <glyph glyph-name="Scommaaccent" unicode="&#x218;" horiz-adv-x="1269" 
d="M633 -27q-76 0 -158 14t-156 43q-80 31 -142 75q-69 49 -118 112l91 78q87 -104 208 -157q123 -54 277 -54q189 0 296 82t107 215q0 65 -18 114t-67 89q-47 38 -132 67q-83 28 -215 51q-233 37 -353 126q-120 88 -120 255q0 84 35 154q35 69 98 119q64 50 155 77t204 27
q98 0 178 -19q83 -20 147 -53q66 -35 118 -79q48 -41 89 -97l-96 -69q-25 34 -66 74q-34 33 -92 66q-52 30 -122 48q-73 19 -156 19q-173 0 -269 -72t-96 -191q0 -57 22 -103q22 -45 70 -77q50 -34 131 -57q84 -24 203 -45q261 -45 372 -147t111 -271q0 -90 -32 -164
t-101 -131q-68 -56 -168 -87q-102 -32 -235 -32zM641 -166q33 0 54 -21q22 -22 22 -57q0 -57 -33 -138t-86 -155l-59 23q31 58 47 112q15 52 20 97q-41 27 -41 65q0 33 23 54q21 20 53 20z" />
    <glyph glyph-name="scommaaccent" unicode="&#x219;" horiz-adv-x="1050" 
d="M518 1083q140 0 235 -36q97 -37 175 -107l-76 -74q-133 117 -334 117q-133 0 -203 -50q-69 -49 -69 -128q0 -44 16 -73t53 -53q37 -23 97 -40q58 -16 147 -31q96 -16 174 -39t127 -59q52 -38 77 -90q26 -54 26 -129q0 -64 -29 -122q-28 -56 -85 -98q-60 -44 -139 -67
q-82 -24 -192 -24q-149 0 -267 45t-198 131l80 77q69 -74 169 -112q96 -37 214 -37q165 0 242 58q78 58 78 145q0 48 -17 84q-17 35 -56 60t-106 43q-64 18 -163 34q-198 29 -284 100q-87 72 -87 193q0 127 105 205q104 77 290 77zM522 -166q34 0 55 -21t21 -57
q0 -57 -33 -138t-86 -155l-59 23q31 58 47 112q15 52 20 97q-41 27 -41 65q0 33 23 54q21 20 53 20z" />
    <glyph glyph-name="uni021A" unicode="&#x21a;" horiz-adv-x="1171" 
d="M1102 1323h-455v-1323h-123v1323h-454v111h1032v-111zM604 -160q33 0 54 -21q22 -22 22 -57q0 -57 -33 -138q-32 -78 -86 -154l-59 22q31 58 47 112q15 52 20 97q-41 27 -41 66q0 32 23 53q21 20 53 20z" />
    <glyph glyph-name="uni021B" unicode="&#x21b;" horiz-adv-x="731" 
d="M326 1065h327v-94h-327v-688q0 -91 39 -145t147 -54q46 0 96 8q42 7 82 19v-101q-40 -12 -92 -21q-51 -9 -111 -9q-81 0 -137 21q-54 20 -88 59q-32 36 -46 92q-13 51 -13 114v705h-154v94h154v287h123v-287zM467 -166q33 0 54 -21q22 -22 22 -57q0 -57 -33 -138
t-86 -155l-59 23q31 58 47 112q15 52 20 97q-41 27 -41 65q0 33 23 54q21 20 53 20z" />
    <glyph glyph-name="uni0237" unicode="&#x237;" horiz-adv-x="464" 
d="M295 -61q0 -80 -25 -139q-24 -57 -64 -91q-41 -35 -90 -50q-50 -15 -104 -15q-25 0 -55 2q-23 2 -45 6v98q18 -2 29 -3q8 -1 28 -1q50 0 86 10q37 10 64 36q26 25 40 71q13 43 13 114v1088h123v-1126z" />
    <glyph glyph-name="uni0259" unicode="&#x259;" horiz-adv-x="1161" 
d="M596 -18q-114 0 -202 44q-85 43 -146 117q-58 71 -89 173q-30 99 -30 210v31h823q0 98 -25 174q-25 77 -74 135t-118 88q-71 31 -159 31q-114 0 -196 -50t-134 -132l-103 55q70 109 181 170q106 59 256 59q120 0 214 -44t156 -118q65 -77 97 -177q32 -99 32 -220
q0 -113 -30 -212q-29 -96 -93 -174q-60 -73 -151 -117q-89 -43 -209 -43zM598 82q84 0 149 30q64 30 108 80q46 53 69 118q23 67 28 149h-696q5 -83 28 -150q25 -73 66 -119q45 -52 106 -79q64 -29 142 -29z" />
    <glyph glyph-name="uni02BB" unicode="&#x2bb;" horiz-adv-x="520" 
d="M244 1130q-37 0 -63 26q-25 25 -25 64q0 72 41 172q40 97 109 185l63 -30q-40 -69 -59 -134q-19 -63 -25 -123q47 -26 47 -74q0 -34 -26 -60t-62 -26z" />
    <glyph glyph-name="afii57929" unicode="&#x2bc;" horiz-adv-x="518" 
d="M252 1508q36 0 62 -26t26 -64q0 -73 -41 -173q-38 -93 -110 -184l-62 29q39 68 59 135q19 63 25 123q-47 26 -47 74q0 35 25 60q26 26 63 26z" />
    <glyph glyph-name="circumflex" unicode="&#x2c6;" horiz-adv-x="782" 
d="M721 1227h-117l-213 182l-211 -182h-119l271 262h121z" />
    <glyph glyph-name="caron" unicode="&#x2c7;" horiz-adv-x="782" 
d="M453 1243h-121l-271 262h119l211 -182l213 182h117z" />
    <glyph glyph-name="breve" unicode="&#x2d8;" horiz-adv-x="712" 
d="M651 1483q-6 -55 -27 -101q-21 -47 -59 -83q-38 -37 -89 -57q-52 -21 -120 -21q-66 0 -119 21t-90 57q-36 35 -58 83q-22 49 -28 101h78q12 -71 70 -123q57 -51 147 -51q91 0 148 51q56 50 67 123h80z" />
    <glyph glyph-name="dotaccent" unicode="&#x2d9;" horiz-adv-x="290" 
d="M145 1456q36 0 60 -24t24 -60q0 -34 -24 -58t-60 -24q-35 0 -59 24q-25 25 -25 58q0 35 25 60q24 24 59 24z" />
    <glyph glyph-name="ring" unicode="&#x2da;" horiz-adv-x="600" 
d="M301 1659q47 0 90 -18t76 -48q32 -29 52 -72t20 -94q0 -50 -20 -93q-19 -41 -52 -71q-32 -29 -76 -46q-45 -17 -90 -17q-46 0 -91 17t-77 46q-33 30 -52 71q-20 43 -20 93q0 51 20 94t52 72q33 30 77 48q43 18 91 18zM301 1583q-61 0 -107 -42q-47 -42 -47 -114
q0 -70 47 -111q46 -40 107 -40q60 0 106 40t46 111q0 72 -46 114q-47 42 -106 42z" />
    <glyph glyph-name="ogonek" unicode="&#x2db;" horiz-adv-x="550" 
d="M389 0q-121 -52 -175 -118q-52 -64 -52 -130q0 -63 40 -93t113 -30q35 0 80 9q37 8 66 18l28 -72q-45 -18 -93 -27q-53 -10 -95 -10q-113 0 -179 49q-65 48 -65 146q0 96 87 172t229 117z" />
    <glyph glyph-name="tilde" unicode="&#x2dc;" horiz-adv-x="768" 
d="M258 1446q52 0 87 -18q41 -21 61 -37q11 -8 29 -21.5l22 -16.5q24 -18 59 -18q42 0 66 24t45 73h80q-17 -80 -68 -133q-51 -52 -129 -52q-54 0 -88 18q-41 21 -61 38q-10 8 -28.5 21.5t-21.5 15.5q-24 18 -59 18q-42 0 -67 -24q-26 -24 -46 -72h-78q16 78 67 132
q49 52 130 52z" />
    <glyph glyph-name="hungarumlaut" unicode="&#x2dd;" horiz-adv-x="778" 
d="M158 1214h-97l166 279h154zM485 1214h-96l172 279h154z" />
    <glyph glyph-name="gravecomb" unicode="&#x300;" horiz-adv-x="2" 
d="M-61 1214h-107l-254 271h162z" />
    <glyph glyph-name="acutecomb" unicode="&#x301;" horiz-adv-x="2" 
d="M-313 1214h-109l199 271h162z" />
    <glyph glyph-name="uni0302" unicode="&#x302;" horiz-adv-x="2" 
d="M-61 1227h-117l-213 182l-211 -182h-119l270 262h121z" />
    <glyph glyph-name="tildecomb" unicode="&#x303;" horiz-adv-x="2" 
d="M-510 1446q52 0 87 -18q41 -21 61 -37q11 -8 29.5 -21.5t21.5 -16.5q24 -18 59 -18q42 0 66 24t45 73h80q-17 -80 -68 -133q-51 -52 -129 -52q-54 0 -88 18q-41 21 -61 38q-10 8 -28.5 21.5t-21.5 15.5q-24 18 -59 18q-42 0 -67 -24q-26 -24 -46 -72h-78q16 78 67 132
q49 52 130 52z" />
    <glyph glyph-name="uni0304" unicode="&#x304;" horiz-adv-x="2" 
d="M-61 1298h-617v93h617v-93z" />
    <glyph glyph-name="uni0306" unicode="&#x306;" horiz-adv-x="2" 
d="M-61 1483q-6 -52 -28 -101q-22 -48 -58 -83q-37 -36 -90 -57q-52 -21 -119 -21q-68 0 -120 21q-51 20 -89 57q-38 36 -59 83q-21 46 -27 101h78q12 -72 69 -123t148 -51q90 0 147 51q58 52 68 123h80z" />
    <glyph glyph-name="uni0307" unicode="&#x307;" horiz-adv-x="2" 
d="M-145 1456q35 0 59 -24q25 -25 25 -60q0 -33 -25 -58q-24 -24 -59 -24q-36 0 -60 24t-24 58q0 36 24 60t60 24z" />
    <glyph glyph-name="uni0308" unicode="&#x308;" horiz-adv-x="2" 
d="M-582 1427q35 0 58 -23q24 -24 24 -56q0 -33 -24 -57q-23 -23 -58 -23q-33 0 -56 23q-24 24 -24 57q0 32 24 56q23 23 56 23zM-143 1427q34 0 57 -23q25 -25 25 -56q0 -32 -25 -57q-23 -23 -57 -23t-57 23t-23 57q0 33 23 56t57 23z" />
    <glyph glyph-name="uni030A" unicode="&#x30a;" horiz-adv-x="2" 
d="M-299 1659q47 0 90 -18t76 -48q32 -29 52 -72t20 -94q0 -50 -20 -93q-19 -41 -52 -71q-32 -29 -76 -46q-45 -17 -90 -17q-46 0 -91 17t-77 46q-33 30 -52 71q-20 43 -20 93q0 51 20 94t52 72q33 30 77 48q43 18 91 18zM-299 1583q-61 0 -108 -42q-46 -42 -46 -114
q0 -71 46 -111t108 -40q59 0 105 40q47 41 47 111q0 72 -47 114t-105 42z" />
    <glyph glyph-name="uni030B" unicode="&#x30b;" horiz-adv-x="2" 
d="M-621 1214h-96l166 279h154zM-293 1214h-96l172 279h154z" />
    <glyph glyph-name="uni030C" unicode="&#x30c;" horiz-adv-x="2" 
d="M-330 1243h-121l-270 262h119l211 -182l213 182h117z" />
    <glyph glyph-name="uni0326" unicode="&#x326;" horiz-adv-x="2" 
d="M-180 -166q33 0 54 -21q22 -22 22 -57q0 -57 -33 -138t-86 -155l-60 23q31 58 47 112q17 57 21 97q-41 27 -41 65q0 33 23 54q21 20 53 20z" />
    <glyph glyph-name="uni0327" unicode="&#x327;" horiz-adv-x="2" 
d="M-279 -109q107 -7 165 -53q57 -45 57 -112q0 -86 -67 -136q-65 -49 -175 -49q-55 0 -113 14q-57 14 -96 37l39 68q35 -23 76 -32t82 -9q66 0 109 26q42 25 42 81q0 62 -59 83q-60 21 -160 21l27 176h76z" />
    <glyph glyph-name="uni0328" unicode="&#x328;" horiz-adv-x="2" 
d="M-162 0q-121 -52 -175 -118q-52 -64 -52 -130q0 -63 40 -93q41 -30 113 -30q35 0 80 9q38 8 66 18l29 -72q-44 -18 -94 -27q-53 -10 -95 -10q-113 0 -179 49q-65 48 -65 146q0 96 87 172t229 117z" />
    <glyph glyph-name="Delta" unicode="&#x394;" horiz-adv-x="1241" 
d="M1204 0h-1165l502 1434h164zM1028 109l-410 1212l-411 -1212h821z" />
    <glyph glyph-name="Omega" unicode="&#x3a9;" horiz-adv-x="1521" 
d="M762 1460q108 0 224 -38q113 -37 207 -125t152 -228t58 -346q0 -134 -26 -236q-25 -101 -69 -174q-42 -72 -103 -123q-56 -48 -126 -77h310v-113h-471v113q78 23 142 73q64 51 111 128q47 78 74 179q27 102 27 228q0 151 -38 270q-37 115 -107 196q-68 79 -161 119
q-92 40 -204 40q-107 0 -200 -39q-94 -39 -163 -116q-68 -75 -109 -193q-40 -114 -40 -271q0 -256 99 -412q99 -155 255 -202v-113h-471v113h311q-69 29 -127 77t-102 124t-69 176t-25 235q0 197 55 337q55 139 147 228t205 129q115 41 234 41z" />
    <glyph glyph-name="mu" unicode="&#x3bc;" horiz-adv-x="1171" 
d="M1001 0h-122v246q-33 -136 -117 -203q-85 -68 -205 -68q-209 0 -262 181v-484h-123v1393h123v-680q0 -299 262 -299q65 0 124 24q60 25 102 71q45 50 70 120q26 73 26 170v594h122v-1065z" />
    <glyph glyph-name="pi" unicode="&#x3c0;" horiz-adv-x="1310" 
d="M1198 963h-186v-963h-123v963h-467v-963h-123v963h-184v102h1083v-102z" />
    <glyph glyph-name="Wgrave" unicode="&#x1e80;" horiz-adv-x="1689" 
d="M1309 0h-148l-307 1270l-291 -1270h-153l-361 1434h131l307 -1303l297 1303h142l309 -1299l285 1299h122zM928 1542h-107l-260 266h168z" />
    <glyph glyph-name="wgrave" unicode="&#x1e81;" horiz-adv-x="1570" 
d="M1198 0h-147l-265 905l-264 -905h-145l-324 1065h135l265 -928l262 928h141l270 -926l265 926h127zM856 1214h-106l-254 271h161z" />
    <glyph glyph-name="Wacute" unicode="&#x1e82;" horiz-adv-x="1689" 
d="M1309 0h-148l-307 1270l-291 -1270h-153l-361 1434h131l307 -1303l297 1303h142l309 -1299l285 1299h122zM895 1542h-109l199 266h168z" />
    <glyph glyph-name="wacute" unicode="&#x1e83;" horiz-adv-x="1570" 
d="M1198 0h-147l-265 905l-264 -905h-145l-324 1065h135l265 -928l262 928h141l270 -926l265 926h127zM823 1214h-108l198 271h162z" />
    <glyph glyph-name="Wdieresis" unicode="&#x1e84;" horiz-adv-x="1689" 
d="M1309 0h-148l-307 1270l-291 -1270h-153l-361 1434h131l307 -1303l297 1303h142l309 -1299l285 1299h122zM635 1755q34 0 57 -23q25 -25 25 -57q0 -31 -25 -56q-24 -24 -57 -24q-32 0 -56 24t-24 56q0 33 24 57q23 23 56 23zM1073 1755q34 0 57 -23q25 -25 25 -57
q0 -31 -25 -56q-24 -24 -57 -24q-32 0 -56 24t-24 56q0 33 24 57q23 23 56 23z" />
    <glyph glyph-name="wdieresis" unicode="&#x1e85;" horiz-adv-x="1570" 
d="M1198 0h-147l-265 905l-264 -905h-145l-324 1065h135l265 -928l262 928h141l270 -926l265 926h127zM567 1427q35 0 58 -23q24 -24 24 -56q0 -33 -24 -57q-23 -23 -58 -23q-33 0 -56 23q-24 24 -24 57q0 32 24 56q23 23 56 23zM1006 1427q34 0 57 -23q24 -24 24 -56
q0 -33 -24 -57q-23 -23 -57 -23t-57 23t-23 57q0 33 23 56t57 23z" />
    <glyph glyph-name="uni1E9E" unicode="&#x1e9e;" horiz-adv-x="1390" 
d="M831 -27q-131 0 -233 32t-186 97l61 95q76 -59 163 -86q86 -27 198 -27q64 0 125 19q62 19 111 59q48 39 78 96t30 133q0 144 -91 221q-90 76 -296 115v100l317 371q-61 64 -159 109q-93 43 -242 43q-94 0 -172 -24q-79 -24 -135 -76q-58 -53 -87 -134q-30 -82 -30 -196
v-920h-125v936q0 129 40 227q41 100 112 165q72 66 174 99t223 33q188 0 320 -69q127 -66 230 -179l-344 -403q81 -21 154 -51q71 -30 126 -80q55 -51 85 -119q31 -71 31 -168q0 -98 -37 -173q-38 -77 -102 -131q-65 -54 -151 -84q-87 -30 -188 -30z" />
    <glyph glyph-name="Ygrave" unicode="&#x1ef2;" horiz-adv-x="1210" 
d="M674 590v-590h-125v588l-506 846h141l428 -729l420 729h137zM682 1542h-107l-260 266h168z" />
    <glyph glyph-name="ygrave" unicode="&#x1ef3;" horiz-adv-x="995" 
d="M588 -41q-24 -71 -49 -126q-27 -58 -67 -101q-42 -45 -95 -68q-55 -24 -135 -24q-34 0 -62 3q-36 4 -53 7v100q27 -5 46 -6q26 -2 46 -2q59 0 100 18t70 53t48 81q22 52 38 106h-39l-393 1065h135l340 -967l307 967h129zM567 1214h-106l-254 271h162z" />
    <glyph glyph-name="uni2007" unicode="&#x2007;" horiz-adv-x="1226" 
 />
    <glyph glyph-name="uni2008" unicode="&#x2008;" horiz-adv-x="516" 
 />
    <glyph glyph-name="uni200B" unicode="&#x200b;" horiz-adv-x="0" 
 />
    <glyph glyph-name="figuredash" unicode="&#x2012;" 
d="M1139 532h-1049v111h1049v-111z" />
    <glyph glyph-name="endash" unicode="&#x2013;" horiz-adv-x="1056" 
d="M948 569h-842v111h842v-111z" />
    <glyph glyph-name="emdash" unicode="&#x2014;" horiz-adv-x="1261" 
d="M1153 569h-1047v111h1047v-111z" />
    <glyph glyph-name="quoteleft" unicode="&#x2018;" horiz-adv-x="520" 
d="M244 1130q-37 0 -63 26q-25 25 -25 64q0 72 41 172q40 97 109 185l63 -30q-40 -69 -59 -134q-19 -63 -25 -123q47 -26 47 -74q0 -34 -26 -60t-62 -26z" />
    <glyph glyph-name="quoteright" unicode="&#x2019;" horiz-adv-x="518" 
d="M252 1508q36 0 62 -26t26 -64q0 -73 -41 -173q-38 -93 -110 -184l-62 29q39 68 59 135q19 63 25 123q-47 26 -47 74q0 35 25 60q26 26 63 26z" />
    <glyph glyph-name="quotesinglbase" unicode="&#x201a;" horiz-adv-x="518" 
d="M252 158q37 0 62 -25q26 -26 26 -65q0 -72 -41 -172q-39 -95 -110 -185l-62 30q40 69 59 134q19 63 25 123q-47 26 -47 74q0 36 25 61t63 25z" />
    <glyph glyph-name="quotedblleft" unicode="&#x201c;" horiz-adv-x="839" 
d="M563 1130q-36 0 -62 26q-25 25 -25 64q0 72 41 172q40 97 109 185l62 -30q-38 -65 -58 -134t-26 -123q47 -26 47 -74q0 -35 -25 -60q-26 -26 -63 -26zM244 1130q-37 0 -63 26q-25 25 -25 64q0 72 41 172q40 97 109 185l63 -30q-40 -69 -59 -134q-19 -63 -25 -123
q47 -26 47 -74q0 -34 -26 -60t-62 -26z" />
    <glyph glyph-name="quotedblright" unicode="&#x201d;" horiz-adv-x="839" 
d="M252 1506q36 0 62 -26t26 -64q0 -73 -41 -173q-38 -93 -110 -184l-62 29q39 68 59 135q19 63 25 123q-47 26 -47 74q0 35 25 60q26 26 63 26zM573 1506q37 0 63 -26q25 -25 25 -64q0 -73 -41 -173q-39 -95 -109 -184l-62 29q37 64 58 135q19 63 25 123q-46 25 -46 74
q0 35 25 60q26 26 62 26z" />
    <glyph glyph-name="quotedblbase" unicode="&#x201e;" horiz-adv-x="839" 
d="M252 158q37 0 62 -25q26 -26 26 -65q0 -72 -41 -172q-39 -95 -110 -185l-62 30q40 69 59 134q19 63 25 123q-47 26 -47 74q0 36 25 61t63 25zM573 158q38 0 63 -25t25 -65q0 -72 -41 -172q-40 -97 -109 -185l-62 30q38 65 58 134q19 63 25 123q-46 25 -46 74q0 36 25 61
t62 25z" />
    <glyph glyph-name="dagger" unicode="&#x2020;" horiz-adv-x="1234" 
d="M674 1065h352v-104h-352v-1289h-117v1289h-352v104h352v369h117v-369z" />
    <glyph glyph-name="daggerdbl" unicode="&#x2021;" horiz-adv-x="1234" 
d="M674 1022h352v-102h-352v-727h352v-103h-352v-418h-117v418h-352v103h352v727h-352v102h352v412h117v-412z" />
    <glyph glyph-name="bullet" unicode="&#x2022;" horiz-adv-x="651" 
d="M326 829q77 0 134 -54q56 -53 56 -132q0 -39 -15 -74t-42 -60q-28 -27 -61 -41q-34 -15 -72 -15t-72 15q-33 14 -61 41q-27 25 -42 60q-16 37 -16 74t16 74q15 35 42 59t61 39q32 14 72 14z" />
    <glyph glyph-name="uni2023" unicode="&#x2023;" horiz-adv-x="698" 
d="M178 455v340l340 -170z" />
    <glyph glyph-name="ellipsis" unicode="&#x2026;" horiz-adv-x="1556" 
d="M249 151q33 0 59 -24q25 -24 25 -58q0 -36 -25 -60q-26 -24 -59 -24t-59 24q-25 24 -25 60q0 35 25 59q24 23 59 23zM777 151q33 0 59 -24q25 -24 25 -58q0 -36 -25 -60q-26 -24 -59 -24t-58 24t-25 60q0 35 25 59q24 23 58 23zM1308 151q33 0 58 -24t25 -58
q0 -36 -25 -60t-58 -24q-34 0 -59 24t-25 60q0 35 25 59q24 23 59 23z" />
    <glyph glyph-name="perthousand" unicode="&#x2030;" horiz-adv-x="2928" 
d="M473 1458q76 0 141 -26q69 -28 120 -83q52 -57 84 -144q32 -88 32 -208q0 -121 -32 -211q-31 -88 -84 -145q-52 -57 -120 -84t-141 -27t-142 27q-68 27 -121 84q-54 58 -83 145q-31 91 -31 211q0 118 31 208q30 86 83 144q51 56 121 83q66 26 142 26zM647 -25h-106
l886 1483h107zM473 1370q-118 0 -193 -91t-75 -282q0 -194 76 -285t192 -91q117 0 192 90q74 89 74 286q0 194 -74 283q-75 90 -192 90zM1606 907q76 0 141 -26q67 -27 120 -84t83 -145q30 -87 30 -208q0 -124 -30 -212q-29 -87 -83 -145q-51 -55 -120 -83q-67 -27 -141 -27
t-143 27q-70 27 -121 83q-53 57 -84 145q-31 87 -31 212q0 122 31 208q32 89 84 145q53 57 121 84q66 26 143 26zM2458 907q76 0 141 -26q67 -27 120 -84q52 -56 84 -145q31 -86 31 -208q0 -125 -31 -212q-31 -88 -84 -145q-51 -55 -120 -83q-67 -27 -141 -27t-142 27
q-69 28 -120 83q-51 56 -83 145q-32 90 -32 212q0 120 32 208q33 90 83 145q52 57 120 84q65 26 142 26zM1604 817q-119 0 -194 -90t-75 -281q0 -196 76 -287t193 -91q116 0 191 90t75 284q0 192 -75 284q-75 91 -191 91zM2456 817q-117 0 -192 -90t-75 -281q0 -196 76 -287
t191 -91q118 0 193 90t75 284q0 192 -75 284q-75 91 -193 91z" />
    <glyph glyph-name="guilsinglleft" unicode="&#x2039;" horiz-adv-x="524" 
d="M422 920l-203 -347l203 -356l-66 -43l-252 336v127l252 328z" />
    <glyph glyph-name="guilsinglright" unicode="&#x203a;" horiz-adv-x="524" 
d="M422 637v-127l-254 -336l-64 43l203 356l-203 347l64 45z" />
    <glyph glyph-name="uni203D" unicode="&#x203d;" horiz-adv-x="1062" 
d="M539 1450q130 0 213 -37q85 -38 135 -91q49 -52 71 -117q21 -63 21 -115q0 -87 -28 -149q-27 -60 -69 -105q-44 -47 -91 -80q-52 -36 -92 -72q-43 -39 -69 -83q-28 -48 -28 -112v-88h-117l-22 562v372q-113 -23 -177 -97q-63 -74 -91 -161l-115 35q16 54 48 109
q34 59 91 110q56 50 136 85q78 34 184 34zM582 688q34 50 81 90t87 84q42 45 69 95q29 53 29 126q0 99 -58 170t-194 88v-378zM543 166q37 0 64 -27q28 -28 28 -63q0 -38 -28 -66q-26 -26 -64 -26q-39 0 -65 26q-27 27 -27 66t27 64q28 26 65 26z" />
    <glyph glyph-name="fraction" unicode="&#x2044;" horiz-adv-x="423" 
d="M-180 -25h-107l887 1483h107z" />
    <glyph glyph-name="uni2070" unicode="&#x2070;" horiz-adv-x="819" 
d="M410 1554q153 0 244 -109t91 -339q0 -229 -91 -336q-92 -108 -244 -108q-154 0 -245 108q-91 107 -91 336q0 230 91 339t245 109zM410 1458q-104 0 -161 -84q-56 -83 -56 -268q0 -179 56 -263q57 -85 161 -85t158 85q55 87 55 263q0 182 -55 268q-54 84 -158 84z" />
    <glyph glyph-name="uni2074" unicode="&#x2074;" horiz-adv-x="819" 
d="M629 963h145v-95h-145v-192h-115v192h-469v99l434 569h150v-573zM162 963h352v452z" />
    <glyph glyph-name="uni2075" unicode="&#x2075;" horiz-adv-x="819" 
d="M682 1442h-418l-37 -254q46 51 107 69q63 19 119 19q59 0 112 -21q55 -22 94 -58q41 -38 65 -91t24 -121q0 -69 -24 -129q-23 -58 -69 -102q-46 -45 -109 -68q-64 -24 -147 -24q-75 0 -127 17q-55 18 -95 46q-38 27 -65 65t-38 70l104 35q22 -52 77 -96q53 -43 148 -43
q102 0 162 63t60 160q0 95 -60 147q-62 54 -147 54q-65 0 -117 -23q-51 -22 -92 -76l-103 17l62 438h528z" />
    <glyph glyph-name="uni2076" unicode="&#x2076;" horiz-adv-x="819" 
d="M434 1554q197 0 279 -165l-101 -37q-25 54 -70 82q-46 28 -108 28q-219 0 -241 -352q29 63 95 104q67 41 158 41q62 0 113 -19q54 -20 93 -56q40 -37 64 -90q23 -50 23 -121q0 -73 -23 -128q-24 -57 -67 -97q-44 -41 -102 -61q-60 -21 -131 -21t-134 21q-62 21 -108 68
q-46 48 -71 115q-25 68 -25 166q0 261 95 392q94 130 261 130zM418 1163q-96 0 -153 -56q-58 -57 -58 -142q0 -93 56 -152t151 -59q92 0 147 57q55 56 55 152q0 92 -54 146t-144 54z" />
    <glyph glyph-name="uni2077" unicode="&#x2077;" horiz-adv-x="819" 
d="M725 1442q-78 -90 -138 -179q-58 -86 -99 -179q-37 -84 -66 -191q-25 -94 -41 -217h-129q17 122 49 234q28 98 75 197q42 88 102 173q58 82 132 162h-413v-99h-103v193h631v-94z" />
    <glyph glyph-name="uni2078" unicode="&#x2078;" horiz-adv-x="819" 
d="M408 662q-96 0 -161 22q-69 23 -109 58q-41 35 -61 80t-20 87q0 92 56 150t149 80q-89 39 -124 87q-34 47 -34 109q0 36 17 76q17 41 53 71q37 31 94 52q54 20 140 20q83 0 139 -19q55 -19 94 -50q35 -28 53 -69q17 -39 17 -75q0 -69 -54 -123q-53 -53 -120 -77
q62 -20 108 -42q41 -20 70 -49q26 -26 37 -61q10 -31 10 -76q0 -43 -18 -87t-58 -81q-38 -35 -109 -60q-66 -23 -169 -23zM444 1171q64 23 109 67q43 42 43 95q0 50 -43 90q-44 41 -143 41q-102 0 -145 -42q-44 -42 -44 -89q0 -59 44 -91q42 -30 136 -58zM406 754
q68 0 110 14q48 16 73 38q27 24 39 51q11 25 11 54q0 41 -14 66q-15 27 -44 46q-31 20 -74 35q-47 16 -106 32l-43 12q-83 -21 -132 -68q-48 -47 -48 -121q0 -61 55 -110t173 -49z" />
    <glyph glyph-name="uni2079" unicode="&#x2079;" horiz-adv-x="819" 
d="M381 657q-105 0 -177 45q-75 47 -114 121l98 41q57 -114 193 -114q120 0 177 95q57 94 63 269q-27 -57 -92 -99q-62 -40 -158 -40q-61 0 -113 18q-51 17 -93 55q-40 36 -63 89q-22 51 -22 123q0 65 24 119t68 92q47 40 103 60q60 21 133 21q72 0 133 -21q60 -21 105 -67
q46 -47 69 -111q24 -66 24 -157q0 -539 -358 -539zM401 1069q98 0 154 56q57 57 57 139q0 85 -53 141q-52 55 -151 55q-92 0 -150 -53q-57 -53 -57 -145q0 -88 54 -141q53 -52 146 -52z" />
    <glyph glyph-name="uni207A" unicode="&#x207a;" horiz-adv-x="774" 
d="M420 1114h215v-84h-215v-213h-92v213h-213v84h213v211h92v-211z" />
    <glyph glyph-name="uni207B" unicode="&#x207b;" horiz-adv-x="774" 
d="M635 1030h-520v84h520v-84z" />
    <glyph glyph-name="uni207C" unicode="&#x207c;" horiz-adv-x="774" 
d="M635 1151h-520v86h520v-86zM635 901h-520v84h520v-84z" />
    <glyph glyph-name="uni2080" unicode="&#x2080;" horiz-adv-x="819" 
d="M410 553q152 0 244 -110q91 -109 91 -339q0 -228 -91 -335q-92 -109 -244 -109q-153 0 -245 109q-91 107 -91 335q0 230 91 339q92 110 245 110zM410 457q-104 0 -161 -84q-56 -83 -56 -269q0 -179 56 -263q57 -85 161 -85t158 85q55 87 55 263q0 183 -55 269
q-54 84 -158 84z" />
    <glyph glyph-name="uni2081" unicode="&#x2081;" horiz-adv-x="819" 
d="M168 -231h225v528h-219v82h49q57 0 91 7q35 7 57 26q20 17 29 48q10 33 14 75h96v-766h197v-95h-539v95z" />
    <glyph glyph-name="uni2082" unicode="&#x2082;" horiz-adv-x="819" 
d="M414 553q137 0 215 -69t78 -181q0 -138 -121 -271q-124 -136 -332 -263h471v-95h-631v93q239 158 363 287q123 128 123 243q0 78 -44 120t-128 42q-92 0 -139 -51q-45 -50 -50 -129h-119q0 51 20 102q20 49 58 88t97 61q60 23 139 23z" />
    <glyph glyph-name="uni2083" unicode="&#x2083;" horiz-adv-x="819" 
d="M416 553q144 0 223 -64q78 -63 78 -161q0 -78 -51 -129q-52 -51 -134 -62q85 -11 146 -61q65 -52 65 -152q0 -60 -24 -110q-23 -47 -70 -83q-46 -35 -105 -53q-60 -18 -132 -18q-135 0 -221 61q-87 61 -115 166l110 25q18 -69 76 -113q56 -43 150 -43q87 0 146 43
q60 43 60 129q0 78 -53 119t-137 41h-98v86h88q71 0 124 35q52 34 52 106q0 71 -50 109q-49 37 -130 37q-84 0 -136 -40q-53 -41 -69 -106l-111 19q23 92 105 155q84 64 213 64z" />
    <glyph glyph-name="uni2084" unicode="&#x2084;" horiz-adv-x="819" 
d="M629 -39h145v-94h-145v-193h-115v193h-469v98l434 570h150v-574zM162 -39h352v453z" />
    <glyph glyph-name="uni2085" unicode="&#x2085;" horiz-adv-x="819" 
d="M682 440h-418l-37 -254q48 52 107 70q60 18 119 18q62 0 112 -20q55 -22 94 -58q40 -37 65 -92q24 -52 24 -120q0 -69 -24 -129q-24 -59 -69 -103q-44 -43 -109 -67q-67 -25 -147 -25q-75 0 -127 17t-95 47q-39 28 -65 64q-26 37 -38 71l104 35q23 -53 77 -97
q53 -43 148 -43q101 0 162 64q60 63 60 159t-60 148q-61 53 -147 53q-67 0 -117 -22q-51 -22 -92 -76l-103 16l62 439h528z" />
    <glyph glyph-name="uni2086" unicode="&#x2086;" horiz-adv-x="819" 
d="M434 553q197 0 279 -166l-101 -37q-25 54 -70 82q-47 29 -108 29q-219 0 -241 -352q29 63 95 104q67 41 158 41q59 0 113 -20t93 -56q40 -37 64 -90q23 -50 23 -121q0 -73 -23 -128t-67 -96t-102 -61q-63 -22 -131 -22t-134 22q-64 21 -108 67q-46 47 -71 116
q-25 68 -25 166q0 261 95 392q94 130 261 130zM418 162q-94 0 -153 -57q-58 -57 -58 -142q0 -92 56 -151q57 -60 151 -60q91 0 147 58q55 56 55 151q0 93 -54 147t-144 54z" />
    <glyph glyph-name="uni2087" unicode="&#x2087;" horiz-adv-x="819" 
d="M725 440q-78 -90 -138 -179q-59 -88 -99 -178q-37 -83 -66 -192q-25 -94 -41 -217h-129q17 124 49 235q27 96 75 196q44 91 102 174q55 78 132 161h-413v-98h-103v193h631v-95z" />
    <glyph glyph-name="uni2088" unicode="&#x2088;" horiz-adv-x="819" 
d="M408 -340q-94 0 -161 23q-69 23 -109 58q-41 35 -61 80t-20 87q0 91 56 149t149 80q-89 39 -124 87q-34 47 -34 110q0 36 17 76t53 70q37 31 94 52t140 21t139 -19q53 -18 94 -51q36 -28 53 -68q17 -39 17 -75q0 -70 -54 -124q-53 -53 -120 -77q62 -20 108 -42
q41 -20 70 -49q26 -26 37 -60q10 -31 10 -76q0 -44 -18 -87q-18 -44 -58 -81q-38 -35 -109 -60q-69 -24 -169 -24zM444 170q64 23 109 67q43 42 43 95q0 50 -43 90q-44 41 -143 41q-102 0 -145 -42q-44 -42 -44 -89q0 -59 44 -91t136 -59zM406 -248q65 0 110 15q50 17 73 37
q26 23 39 52q11 25 11 54q0 40 -14 65q-16 29 -44 47t-74 34q-47 16 -106 32l-43 12q-85 -21 -132 -67q-48 -47 -48 -121q0 -62 55 -111t173 -49z" />
    <glyph glyph-name="uni2089" unicode="&#x2089;" horiz-adv-x="819" 
d="M381 -344q-105 0 -177 45q-75 47 -114 121l98 41q58 -115 193 -115q120 0 177 95q57 94 63 270q-28 -59 -92 -100q-62 -40 -158 -40q-58 0 -113 19q-52 18 -93 54q-40 36 -63 89q-22 51 -22 123q0 66 24 120t68 92q45 39 103 59q63 22 133 22q69 0 133 -22
q61 -21 105 -66q45 -47 69 -112q24 -66 24 -156q0 -539 -358 -539zM401 68q98 0 154 56q57 57 57 138q0 85 -53 141t-151 56q-92 0 -150 -53q-57 -52 -57 -146q0 -88 54 -140q53 -52 146 -52z" />
    <glyph glyph-name="uni208A" unicode="&#x208a;" horiz-adv-x="749" 
d="M420 113h215v-84h-215v-213h-92v213h-213v84h213v211h92v-211z" />
    <glyph glyph-name="uni208B" unicode="&#x208b;" horiz-adv-x="749" 
d="M635 29h-520v84h520v-84z" />
    <glyph glyph-name="uni208C" unicode="&#x208c;" horiz-adv-x="749" 
d="M635 129h-520v86h520v-86zM635 -121h-520v84h520v-84z" />
    <glyph glyph-name="uni208D" unicode="&#x208d;" horiz-adv-x="614" 
d="M463 594q-88 -135 -123 -254q-35 -120 -35 -242q0 -124 34 -241q35 -121 124 -254h-76q-44 57 -76 117q-32 61 -55 127q-21 61 -34 129q-11 59 -11 122t11 122q13 70 35 129q26 69 56 127q33 63 76 118h74z" />
    <glyph glyph-name="uni208E" unicode="&#x208e;" horiz-adv-x="614" 
d="M266 594q43 -55 76 -118q30 -58 56 -127q22 -59 35 -129q11 -59 11 -122t-11 -122q-13 -68 -34 -129q-23 -66 -55 -127q-32 -60 -76 -117h-75q87 131 123 254q34 117 34 241q0 125 -34 242q-36 123 -123 254h73z" />
    <glyph glyph-name="Euro" unicode="&#x20ac;" horiz-adv-x="1351" 
d="M823 1460q112 0 211 -37q101 -38 180 -127l-40 -114q-141 168 -353 168q-176 0 -290 -116q-113 -114 -146 -339h668l-27 -76h-651q-4 -24 -4 -53v-109q0 -30 4 -51h581l-26 -78h-547q24 -229 132 -337q107 -107 286 -107q123 0 210 43q91 45 142 100v-133
q-65 -55 -160 -88t-192 -33q-99 0 -187 30t-159 95t-121 171t-68 259h-184l27 78h149q-2 24 -3 51q-1 18 -1 56q0 37 1 54q2 34 3 52h-168l27 76h149q21 145 72 252t125 176q72 68 166 103q90 34 194 34z" />
    <glyph glyph-name="uni20B9" unicode="&#x20b9;" 
d="M1075 1348h-325q77 -46 121 -123t44 -178v-3h160v-81h-168q-15 -80 -55 -136q-39 -56 -101 -94q-58 -36 -139 -55q-82 -19 -163 -19h-144l645 -659h-143l-645 659v107h274q290 0 340 197h-616v81h626v9q0 129 -90 212q-91 83 -260 83h-276v86h915v-86z" />
    <glyph glyph-name="uni20BA" unicode="&#x20ba;" 
d="M1069 440q-5 -84 -38 -164q-35 -83 -98 -148q-66 -68 -157 -108q-90 -40 -213 -40q-70 0 -123 7q-66 9 -98 17v717l-190 -103v80l190 103v235l-190 -100v80l190 100v318h123v-252l434 231v-80l-434 -231v-236l434 232v-80l-434 -232v-690q8 -2 57 -8q31 -4 70 -4
q78 0 146 31q64 29 116 81q49 49 78 113t35 131h102z" />
    <glyph glyph-name="uni20BD" unicode="&#x20bd;" 
d="M313 590v-197h510v-82h-510v-311h-125v311h-122v82h122v197h-125v104h125v740h469q136 0 232 -33q97 -33 158 -90q63 -58 89 -133q27 -76 27 -162q0 -194 -122 -310t-377 -116h-351zM313 694h359q168 0 264 75t96 245q0 141 -87 225t-273 84h-359v-629z" />
    <glyph glyph-name="afii61248" unicode="&#x2105;" horiz-adv-x="1843" 
d="M522 -25h-106l887 1483h106zM473 1389q91 0 156 -43q66 -43 96 -113l-66 -27q-28 51 -73 80q-48 31 -113 31q-104 0 -165 -73q-60 -72 -60 -187t59 -187q60 -73 162 -73q87 0 133 41t70 94l67 -27q-33 -79 -98 -129q-66 -51 -172 -51q-72 0 -130 26q-56 25 -95 70
q-38 44 -60 106q-20 57 -20 130q0 69 21 131q21 61 62 105q42 46 97 70q58 26 129 26zM1370 649q73 0 129 -25q55 -25 97 -71q41 -45 62 -106q21 -60 21 -128q0 -74 -20 -133q-21 -62 -60 -105q-41 -46 -97 -69q-58 -24 -132 -24q-75 0 -131 25q-55 24 -97 70
q-39 42 -61 104q-20 57 -20 132q0 74 20 131q21 61 61 105q42 47 97 70q57 24 131 24zM1370 578q-104 0 -164 -72q-59 -71 -59 -187q0 -115 57 -187q58 -73 166 -73t166 73q57 72 57 187q0 113 -59 185q-60 74 -164 74z" />
    <glyph glyph-name="afii61289" unicode="&#x2113;" 
d="M770 -27q-129 0 -205 76t-76 230v221l-151 -166l-37 80l188 209v538q0 158 65 229q64 70 167 70q53 0 89 -16q38 -17 62 -44t36 -65q12 -37 12 -78q0 -76 -25 -160q-23 -79 -68 -162q-49 -91 -98 -164q-66 -98 -117 -169v-301q0 -119 51 -170q49 -49 134 -49q37 0 69 5
q30 5 58 15v-98q-17 -8 -60 -20q-39 -11 -94 -11zM612 748q29 46 74 122q35 59 67 126q31 64 48 125q18 63 18 120q0 55 -20 94q-21 41 -72 41t-83 -50t-32 -173v-405z" />
    <glyph glyph-name="afii61352" unicode="&#x2116;" horiz-adv-x="2457" 
d="M1395 0h-135l-787 1219v-1219h-121v1434h129l791 -1239v1239h123v-1434zM1905 764q-73 0 -131 26q-59 26 -98 70q-37 42 -60 106q-21 60 -21 132q0 70 21 130q22 63 60 104q42 45 98 70t131 25q74 0 129 -26t97 -71q39 -42 61 -104q22 -63 22 -128q0 -72 -21 -133
q-22 -64 -59 -107q-41 -47 -97 -70q-59 -24 -132 -24zM1905 836q109 0 166 72t57 190q0 111 -60 183q-61 73 -163 73q-104 0 -164 -72t-60 -184q0 -114 58 -189q57 -73 166 -73zM1634 584h561v-84h-561v84z" />
    <glyph glyph-name="uni2117" unicode="&#x2117;" horiz-adv-x="1843" 
d="M924 -27q-154 0 -291 58q-136 57 -237 157q-99 98 -159 236q-59 136 -59 291q0 154 59 292q59 137 159 236q102 101 237 159q134 58 291 58q154 0 288 -58q136 -59 236 -159q102 -102 158 -236q57 -137 57 -292q0 -156 -57 -291t-158 -236q-99 -99 -236 -157t-288 -58z
M924 47q141 0 261 52q122 53 211 143q89 91 140 212q51 122 51 261t-51 262q-50 121 -140 214q-86 89 -211 143q-120 52 -261 52t-261 -52q-124 -54 -212 -143q-91 -93 -143 -214q-52 -122 -52 -262q0 -141 52 -261q53 -122 143 -212q91 -91 212 -143q120 -52 261 -52z
M684 1147h293q144 0 223 -67q78 -66 78 -185q0 -51 -17 -94q-18 -45 -54 -81q-34 -34 -90 -56q-54 -21 -128 -21h-223v-362h-82v866zM991 713q95 0 147 49t52 135t-56 132t-155 46h-215v-362h227z" />
    <glyph glyph-name="uni2120" unicode="&#x2120;" horiz-adv-x="2457" 
d="M657 1450q128 0 216 -44q87 -44 141 -108l-72 -53q-36 42 -102 79q-68 38 -183 38q-110 0 -173 -39q-62 -38 -62 -102q0 -35 13 -58q14 -25 45 -44q32 -20 85 -35q40 -12 133 -29q175 -30 252 -92q76 -61 76 -172q0 -115 -90 -187t-274 -72q-43 0 -108 9q-52 7 -105 26
q-50 18 -98 47q-45 27 -81 70l74 66q53 -64 135 -98q81 -34 185 -34q116 0 187 47t71 119q0 36 -13 65q-12 27 -43 49t-86 38q-51 15 -141 31q-158 27 -240 85t-82 165q0 102 93 168q92 65 247 65zM2169 543h-109l-90 760l-231 -760h-121l-246 757l-86 -757h-104l94 891h160
l243 -772l232 772h155z" />
    <glyph glyph-name="trademark" unicode="&#x2122;" horiz-adv-x="2048" 
d="M866 1337h-325v-794h-111v794h-315v97h751v-97zM1917 543h-107l-92 760l-231 -760h-119l-248 757l-84 -757h-106l96 891h158l246 -772l229 772h156z" />
    <glyph glyph-name="uni2126" unicode="&#x2126;" horiz-adv-x="1550" 
d="M776 1460q108 0 224 -38q113 -37 207 -125t152 -228t58 -346q0 -137 -25 -236q-25 -98 -70 -174q-44 -73 -102 -123q-56 -48 -126 -77h309v-113h-471v113q78 23 142 73q66 52 112 128q47 78 74 179q26 98 26 228q0 151 -38 270q-38 117 -106 196q-68 78 -162 119
q-92 40 -204 40q-106 0 -199 -39q-94 -39 -163 -116t-110 -193q-40 -114 -40 -271q0 -254 100 -412q99 -156 254 -202v-113h-471v113h312q-69 29 -127 77q-60 49 -103 124q-42 73 -68 176q-26 104 -26 235q0 197 55 337q55 139 147 228q91 88 206 129t233 41z" />
    <glyph glyph-name="estimated" unicode="&#x212e;" horiz-adv-x="1935" 
d="M969 1460q166 0 312 -56q149 -57 262 -157q114 -101 180 -238q68 -141 69 -302h-1343v-500q33 -39 88 -73q56 -35 123 -58q72 -25 148 -38q77 -13 159 -13q195 0 339 57q143 57 238 162h72q-119 -135 -277 -203q-159 -68 -374 -68q-174 0 -324 57q-152 58 -260 154
q-109 97 -173 233q-63 133 -63 292t65 298q64 137 177 238q114 102 262 158q150 57 320 57zM969 1409q-180 0 -312 -53q-130 -52 -208 -135v-465h1042v463q-85 79 -214 135q-126 55 -308 55z" />
    <glyph glyph-name="uni2150" unicode="&#x2150;" horiz-adv-x="2000" 
d="M618 -25h-106l887 1483h106zM1907 766q-82 -95 -139 -179q-56 -84 -98 -178q-37 -83 -66 -192q-25 -94 -41 -217h-129q17 122 49 234q28 98 75 197q42 88 102 173q58 82 132 162h-414v-98h-102v192h631v-94zM168 668h225v528h-219v82h49q57 0 91 7q35 7 57 26
q20 17 29 48q10 33 14 75h96v-766h197v-95h-539v95z" />
    <glyph glyph-name="uni2151" unicode="&#x2151;" horiz-adv-x="1939" 
d="M618 -25h-106l887 1483h106zM1501 -16q-105 0 -177 45q-75 47 -114 121l99 40q57 -114 192 -114q120 0 177 95q57 94 63 269q-28 -58 -91 -99q-62 -40 -159 -40q-61 0 -113 18q-51 17 -93 55q-39 34 -62 89q-23 54 -23 123q0 64 25 120t67 92q44 38 104 59q63 22 132 22
t133 -22q61 -21 105 -66q45 -47 69 -112q25 -69 25 -157q0 -538 -359 -538zM1522 395q96 0 153 57q58 58 58 138q0 84 -54 141q-52 55 -151 55q-92 0 -150 -53q-57 -53 -57 -145q0 -88 54 -141q53 -52 147 -52zM168 668h225v528h-219v82h49q57 0 91 7q35 7 57 26
q20 17 29 48q10 33 14 75h96v-766h197v-95h-539v95z" />
    <glyph glyph-name="uni2152" unicode="&#x2152;" horiz-adv-x="2738" 
d="M618 -25h-106l887 1483h106zM1268 94h225v529h-219v82h49q57 0 91 7q35 7 56 25t30 48q8 28 13 75h97v-766h196v-94h-538v94zM2329 879q152 0 244 -110q91 -109 91 -339q0 -229 -91 -336q-91 -108 -244 -108t-245 108q-91 107 -91 336q0 230 91 339q92 110 245 110z
M2329 782q-104 0 -161 -84t-57 -268q0 -178 57 -263t161 -85t158 85q55 87 55 263q0 182 -55 268q-54 84 -158 84zM168 668h225v528h-219v82h49q57 0 91 7q35 7 57 26q20 17 29 48q10 33 14 75h96v-766h197v-95h-539v95z" />
    <glyph glyph-name="onethird" unicode="&#x2153;" horiz-adv-x="1939" 
d="M618 -25h-106l887 1483h106zM1536 879q144 0 223 -64q78 -63 78 -162q0 -78 -51 -129q-50 -50 -133 -61q83 -10 145 -62q66 -52 66 -151q0 -59 -25 -111q-23 -47 -70 -83q-44 -34 -105 -52q-60 -18 -132 -18q-134 0 -220 61q-88 62 -116 166l111 25q18 -70 75 -113
q56 -43 150 -43q87 0 146 43q61 44 61 129q0 78 -53 119t-138 41h-98v86h88q71 0 124 35q52 34 52 106q0 71 -50 109q-48 36 -130 36q-84 0 -136 -40q-53 -41 -69 -105l-110 18q23 94 104 156q84 64 213 64zM168 668h225v528h-219v82h49q57 0 91 7q35 7 57 26q20 17 29 48
q10 33 14 75h96v-766h197v-95h-539v95z" />
    <glyph glyph-name="twothirds" unicode="&#x2154;" horiz-adv-x="1939" 
d="M618 -25h-106l887 1483h106zM1536 879q144 0 223 -64q78 -63 78 -162q0 -78 -51 -129q-50 -50 -133 -61q83 -10 145 -62q66 -52 66 -151q0 -59 -25 -111q-23 -47 -70 -83q-44 -34 -105 -52q-60 -18 -132 -18q-134 0 -220 61q-88 62 -116 166l111 25q18 -70 75 -113
q56 -43 150 -43q87 0 146 43q61 44 61 129q0 78 -53 119t-138 41h-98v86h88q71 0 124 35q52 34 52 106q0 71 -50 109q-48 36 -130 36q-84 0 -136 -40q-53 -41 -69 -105l-110 18q23 94 104 156q84 64 213 64zM414 1452q137 0 215 -69t78 -181q0 -138 -121 -271
q-124 -136 -332 -263h471v-95h-631v93q239 158 363 287q123 127 123 243q0 78 -44 120t-128 42q-92 0 -139 -51q-45 -50 -50 -129h-119q0 51 20 102q19 50 58 88q40 40 97 62t139 22z" />
    <glyph glyph-name="uni2155" unicode="&#x2155;" horiz-adv-x="1959" 
d="M618 -25h-106l887 1483h106zM1823 766h-418l-37 -254q48 52 107 70q60 18 118 18q63 0 113 -20q53 -21 94 -59t65 -91q23 -50 23 -121t-23 -129t-69 -102q-46 -45 -109 -68q-65 -24 -147 -24q-75 0 -127 17q-55 18 -95 46t-66 65q-27 38 -38 70l105 35q22 -52 77 -96
q53 -43 148 -43q102 0 162 63q59 62 59 160q0 96 -59 148q-61 53 -147 53q-65 0 -117 -23t-92 -75l-103 16l62 438h528zM168 668h225v528h-219v82h49q57 0 91 7q35 7 57 26q20 17 29 48q10 33 14 75h96v-766h197v-95h-539v95z" />
    <glyph glyph-name="uni2156" unicode="&#x2156;" horiz-adv-x="1959" 
d="M618 -25h-106l887 1483h106zM1823 766h-418l-37 -254q48 52 107 70q60 18 118 18q63 0 113 -20q53 -21 94 -59t65 -91q23 -50 23 -121t-23 -129t-69 -102q-46 -45 -109 -68q-65 -24 -147 -24q-75 0 -127 17q-55 18 -95 46t-66 65q-27 38 -38 70l105 35q22 -52 77 -96
q53 -43 148 -43q102 0 162 63q59 62 59 160q0 96 -59 148q-61 53 -147 53q-65 0 -117 -23t-92 -75l-103 16l62 438h528zM414 1452q137 0 215 -69t78 -181q0 -138 -121 -271q-124 -136 -332 -263h471v-95h-631v93q239 158 363 287q123 127 123 243q0 78 -44 120t-128 42
q-92 0 -139 -51q-45 -50 -50 -129h-119q0 51 20 102q19 50 58 88q40 40 97 62t139 22z" />
    <glyph glyph-name="uni2157" unicode="&#x2157;" horiz-adv-x="1878" 
d="M537 -25h-107l887 1483h106zM1741 766h-418l-37 -254q48 52 107 70q60 18 118 18q63 0 113 -20q53 -21 94 -59t65 -91q23 -50 23 -121t-23 -129t-69 -102q-46 -45 -109 -68q-65 -24 -147 -24q-75 0 -127 17q-55 18 -95 46t-66 65q-25 35 -37 70l104 35q22 -52 77 -96
q53 -43 148 -43q102 0 162 63q59 62 59 160q0 96 -59 148q-61 53 -147 53q-65 0 -117 -23t-92 -75l-103 16l62 438h528zM416 1452q145 0 223 -63t78 -162q0 -78 -51 -129q-52 -52 -134 -62q85 -11 146 -61q65 -52 65 -152q0 -61 -24 -110q-23 -47 -70 -83q-44 -34 -105 -52
q-63 -19 -132 -19q-133 0 -221 62q-87 61 -115 165l110 25q18 -69 76 -113q56 -43 150 -43q87 0 146 43q61 44 61 129q0 77 -54 119q-53 41 -137 41h-98v86h88q71 0 124 35q52 34 52 106q0 71 -50 109q-49 37 -130 37q-84 0 -136 -40q-53 -41 -69 -106l-111 19
q23 93 105 156q83 63 213 63z" />
    <glyph glyph-name="uni2158" unicode="&#x2158;" horiz-adv-x="1939" 
d="M598 -25h-106l886 1483h107zM1802 766h-418l-36 -254q48 53 106 70q60 18 119 18q63 0 113 -20q53 -21 94 -59q39 -36 64 -91q24 -53 24 -121q0 -69 -24 -129q-24 -59 -68 -102q-46 -44 -110 -68t-146 -24q-75 0 -127 17q-57 18 -96 46q-38 27 -65 65t-38 70l104 35
q22 -52 77 -96q53 -43 149 -43q102 0 162 63q59 62 59 160q0 96 -59 148q-61 53 -148 53q-65 0 -117 -23t-92 -75l-102 16l61 438h529zM629 860h145v-94h-145v-193h-115v193h-469v98l434 570h150v-574zM162 860h352v453z" />
    <glyph glyph-name="uni2159" unicode="&#x2159;" horiz-adv-x="1918" 
d="M618 -25h-106l887 1483h106zM1534 879q196 0 278 -166l-100 -37q-24 53 -71 82q-46 28 -107 28q-220 0 -242 -352q29 64 96 105t158 41q59 0 113 -20t93 -56q40 -37 64 -90q23 -50 23 -121q0 -73 -23 -128t-67 -96q-45 -42 -102 -62q-60 -21 -131 -21q-72 0 -135 21
q-61 20 -107 68t-71 115q-25 68 -25 166q0 262 95 393q94 130 261 130zM1518 487q-96 0 -153 -56q-58 -57 -58 -142q0 -93 56 -152t150 -59q93 0 148 57q55 56 55 152q0 92 -54 146t-144 54zM168 668h225v528h-219v82h49q57 0 91 7q35 7 57 26q20 17 29 48q10 33 14 75h96
v-766h197v-95h-539v95z" />
    <glyph glyph-name="uni215A" unicode="&#x215a;" horiz-adv-x="1837" 
d="M537 -25h-107l887 1483h106zM1452 879q197 0 279 -166l-101 -37q-25 54 -70 82q-46 28 -108 28q-220 0 -242 -352q29 64 96 105t158 41q59 0 113 -20t93 -56q40 -37 64 -90q23 -50 23 -121q0 -73 -23 -128t-67 -96q-45 -42 -102 -62q-60 -21 -131 -21q-72 0 -135 21
q-61 20 -107 68t-71 115q-25 68 -25 166q0 262 95 393q94 130 261 130zM1436 487q-96 0 -153 -56q-58 -57 -58 -142q0 -93 56 -152t151 -59q92 0 147 57q55 56 55 152q0 92 -54 146t-144 54zM682 1339h-418l-37 -254q48 52 107 70q63 19 119 19q59 0 112 -21q55 -22 94 -58
q41 -38 65 -91q24 -52 24 -121t-24 -129q-24 -59 -69 -103q-44 -43 -109 -67q-67 -25 -147 -25q-71 0 -127 18q-55 18 -95 46q-39 28 -65 64q-26 37 -38 71l104 35q23 -53 77 -97q53 -43 148 -43q101 0 162 64q60 63 60 160q0 95 -60 147q-61 53 -147 53q-67 0 -117 -22
q-51 -22 -92 -76l-103 16l62 439h528z" />
    <glyph glyph-name="oneeighth" unicode="&#x215b;" horiz-adv-x="1939" 
d="M618 -25h-106l887 1483h106zM1528 -14q-96 0 -161 22q-67 23 -109 59t-61 79q-19 42 -19 87q0 94 55 150q56 58 149 80q-89 39 -124 87q-33 46 -33 109q0 38 16 76q17 41 53 71t95 52q57 21 139 21q81 0 139 -20q55 -19 94 -50q36 -29 54 -69q16 -36 16 -74
q0 -71 -53 -124t-121 -77q62 -20 108 -42q41 -20 70 -49q26 -26 37 -61q10 -31 10 -75q0 -46 -17 -87q-18 -43 -59 -81q-40 -37 -109 -61q-66 -23 -169 -23zM1565 496q64 23 108 66q43 42 43 95q0 51 -43 91t-143 40q-102 0 -145 -42q-44 -42 -44 -89q0 -59 44 -91
q41 -30 137 -58zM1526 78q68 0 110 14q48 16 73 38q27 24 39 51q11 25 11 55q0 40 -14 65q-15 27 -44 46q-31 20 -74 35q-50 17 -105 32l-43 12q-83 -21 -132 -68t-49 -120q0 -61 56 -111q55 -49 172 -49zM168 668h225v528h-219v82h49q57 0 91 7q35 7 57 26q20 17 29 48
q10 33 14 75h96v-766h197v-95h-539v95z" />
    <glyph glyph-name="threeeighths" unicode="&#x215c;" horiz-adv-x="1857" 
d="M537 -25h-107l887 1483h106zM1446 -14q-96 0 -161 22t-108 59t-62 79t-19 87q0 94 55 150q56 58 149 80q-88 38 -123 87q-34 47 -34 109q0 38 16 76q17 41 53 71t95 52q57 21 139 21q81 0 139 -20q55 -19 94 -50q36 -29 54 -69q16 -36 16 -74q0 -71 -53 -124t-121 -77
q62 -20 108 -42q41 -20 70 -49q26 -26 37 -61q10 -31 10 -75q0 -46 -17 -87q-18 -43 -59 -81q-40 -37 -109 -61q-66 -23 -169 -23zM1483 496q64 23 108 66q43 42 43 95q0 51 -43 91t-143 40t-144 -42t-44 -89q0 -59 44 -91q42 -30 136 -58zM1444 78q68 0 110 14q48 16 73 38
q27 24 39 51q11 25 11 55q0 40 -14 65q-15 27 -44 46q-31 20 -74 35q-50 17 -105 32l-43 12q-83 -21 -132 -68q-48 -46 -48 -120q0 -62 55 -111t172 -49zM416 1452q145 0 223 -63t78 -162q0 -78 -51 -129q-52 -52 -134 -62q85 -11 146 -61q65 -52 65 -152q0 -61 -24 -110
q-23 -47 -70 -83q-44 -34 -105 -52q-63 -19 -132 -19q-133 0 -221 62q-87 61 -115 165l110 25q18 -69 76 -113q56 -43 150 -43q87 0 146 43q60 44 60 129q0 78 -53 119t-137 41h-98v86h88q71 0 124 35q52 34 52 106q0 71 -50 109q-49 37 -130 37q-84 0 -136 -40
q-53 -41 -69 -106l-111 19q23 93 105 156q83 63 213 63z" />
    <glyph glyph-name="fiveeighths" unicode="&#x215d;" horiz-adv-x="1857" 
d="M537 -25h-107l887 1483h106zM1446 -14q-96 0 -161 22t-108 59t-62 79t-19 87q0 94 55 150q56 58 149 80q-88 38 -123 87q-34 47 -34 109q0 38 16 76q17 41 53 71t95 52q57 21 139 21q81 0 139 -20q55 -19 94 -50q36 -29 54 -69q16 -36 16 -74q0 -71 -53 -124t-121 -77
q62 -20 108 -42q41 -20 70 -49q26 -26 37 -61q10 -31 10 -75q0 -46 -17 -87q-18 -43 -59 -81q-40 -37 -109 -61q-66 -23 -169 -23zM1483 496q64 23 108 66q43 42 43 95q0 51 -43 91t-143 40t-144 -42t-44 -89q0 -59 44 -91q42 -30 136 -58zM1444 78q68 0 110 14q48 16 73 38
q27 24 39 51q11 25 11 55q0 40 -14 65q-15 27 -44 46q-31 20 -74 35q-50 17 -105 32l-43 12q-83 -21 -132 -68q-48 -46 -48 -120q0 -62 55 -111t172 -49zM682 1339h-418l-37 -254q48 52 107 70q60 18 119 18q62 0 112 -20q55 -22 94 -58q41 -38 65 -91q24 -52 24 -121
t-24 -129q-24 -59 -69 -103q-44 -43 -109 -67q-67 -25 -147 -25q-71 0 -127 18q-55 18 -95 46q-39 28 -65 64q-26 37 -38 71l104 35q23 -53 77 -97q53 -43 148 -43q101 0 162 64q60 63 60 160q0 95 -60 147q-61 53 -147 53q-67 0 -117 -22q-51 -22 -92 -76l-103 16l62 439
h528z" />
    <glyph glyph-name="seveneighths" unicode="&#x215e;" horiz-adv-x="1755" 
d="M434 -25h-106l886 1483h107zM1343 -14q-95 0 -160 22q-67 23 -109 59t-61 79q-20 45 -20 87q0 92 56 150t149 80q-89 39 -124 87q-34 47 -34 109q0 36 17 76q17 41 53 71q37 31 94 52t139 21t140 -20q55 -19 94 -50q35 -28 53 -69q17 -39 17 -74q0 -70 -54 -124
q-53 -53 -120 -77q62 -20 108 -42q41 -20 70 -49q26 -26 37 -61q10 -31 10 -75t-18 -87q-18 -44 -58 -81q-39 -36 -110 -61q-66 -23 -169 -23zM1380 496q65 24 109 66q43 42 43 95q0 51 -43 91t-143 40q-102 0 -145 -42q-44 -42 -44 -89q0 -59 44 -91q42 -30 136 -58z
M1341 78q69 0 111 14q48 16 73 38q27 24 39 51q11 25 11 55q0 40 -14 65q-15 27 -44 46q-31 20 -74 35q-47 16 -106 32l-43 12q-83 -21 -132 -68q-48 -46 -48 -120q0 -62 55 -111t172 -49zM725 1339q-78 -90 -138 -179q-59 -88 -99 -178q-37 -84 -66 -191q-25 -93 -41 -218
h-129q17 124 49 235q28 98 75 197q42 88 102 173q55 78 132 161h-413v-98h-103v193h631v-95z" />
    <glyph glyph-name="uni215F" unicode="&#x215f;" horiz-adv-x="1222" 
d="M618 -25h-106l887 1483h106zM168 668h225v528h-219v82h49q57 0 91 7q35 7 57 26q20 17 29 48q10 33 14 75h96v-766h197v-95h-539v95z" />
    <glyph glyph-name="uni2189" unicode="&#x2189;" horiz-adv-x="1837" 
d="M516 -25h-106l886 1483h107zM1434 879q144 0 223 -64q78 -63 78 -162q0 -77 -52 -129q-51 -50 -133 -61q84 -10 146 -62q65 -52 65 -151q0 -62 -24 -111q-23 -47 -70 -83q-44 -34 -105 -52q-60 -18 -133 -18q-134 0 -220 61q-87 61 -115 166l110 25q18 -69 76 -113
q56 -43 150 -43q87 0 146 43q60 43 60 129q0 78 -53 119t-137 41h-98v86h88q71 0 124 35q52 34 52 106q0 71 -50 109q-48 36 -130 36q-85 0 -137 -40t-68 -105l-111 18q23 93 105 156q84 64 213 64zM410 1452q152 0 244 -110q91 -109 91 -338t-91 -336q-92 -109 -244 -109
q-153 0 -245 109q-91 107 -91 336t91 338q92 110 245 110zM410 1356q-104 0 -161 -84q-56 -83 -56 -268q0 -180 56 -264q57 -85 161 -85t158 85q55 87 55 264q0 182 -55 268q-54 84 -158 84z" />
    <glyph glyph-name="arrowleft" unicode="&#x2190;" horiz-adv-x="1843" 
d="M907 1235l-473 -508h1172v-106h-1172l473 -508l-90 -76l-579 637l579 637z" />
    <glyph glyph-name="arrowup" unicode="&#x2191;" horiz-adv-x="1843" 
d="M1561 788l-74 -83l-504 473v-1178h-121v1178l-506 -473l-71 83l637 580z" />
    <glyph glyph-name="arrowright" unicode="&#x2192;" horiz-adv-x="1843" 
d="M1606 674l-580 -637l-88 76l471 508h-1171v106h1171l-471 508l88 76z" />
    <glyph glyph-name="arrowdown" unicode="&#x2193;" horiz-adv-x="1843" 
d="M983 115l504 471l74 -82l-639 -582l-637 582l71 82l506 -471v1175h121v-1175z" />
    <glyph glyph-name="arrowboth" unicode="&#x2194;" horiz-adv-x="2621" 
d="M2404 674l-581 -637l-88 76l471 508h-1792l473 -508l-90 -76l-580 637l580 637l90 -76l-473 -508h1792l-471 508l88 76z" />
    <glyph glyph-name="arrowupdn" unicode="&#x2195;" horiz-adv-x="1843" 
d="M1561 1223l-74 -84l-504 473v-1831l504 473l74 -84l-639 -582l-637 582l71 84l506 -473v1831l-506 -473l-71 84l637 581z" />
    <glyph glyph-name="uni2196" unicode="&#x2196;" horiz-adv-x="1843" 
d="M1309 1106l-693 -25l826 -827l-80 -82l-827 829l-25 -692l-117 4l41 865l864 41z" />
    <glyph glyph-name="uni2197" unicode="&#x2197;" horiz-adv-x="1843" 
d="M1409 1178l41 -865l-117 -4l-24 692l-826 -829l-82 82l826 827l-690 25l8 113z" />
    <glyph glyph-name="uni2198" unicode="&#x2198;" horiz-adv-x="1843" 
d="M1309 297l22 692l119 -6l-41 -862l-866 -43l-8 112l690 25l-826 829l82 82z" />
    <glyph glyph-name="uni2199" unicode="&#x2199;" horiz-adv-x="1843" 
d="M1442 1044l-826 -829l693 -25l-11 -112l-864 43l-41 862l117 6l25 -692l827 829z" />
    <glyph glyph-name="partialdiff" unicode="&#x2202;" horiz-adv-x="1234" 
d="M270 1450q208 -5 361 -56q156 -52 261 -159q108 -109 159 -269q53 -165 53 -388q0 -154 -37 -266q-37 -113 -103 -189q-64 -74 -159 -113q-90 -37 -201 -37q-109 0 -202 35q-88 33 -156 98q-64 62 -103 154q-37 89 -37 199q0 111 36 199q36 89 100 151q62 60 149 94
q86 33 184 33q76 0 144 -20q69 -20 116 -53q53 -37 86 -77q34 -41 56 -90q-17 169 -66 290q-49 122 -135 201q-84 78 -212 119q-123 39 -294 44v100zM594 831q-85 0 -151 -27q-64 -26 -112 -77q-47 -50 -72 -118q-26 -70 -26 -150q0 -89 29 -161q28 -70 78 -120t117 -75
q66 -25 147 -25q84 0 150 28q68 28 114 81q48 54 73 125q26 73 26 161q0 76 -27 142q-28 68 -75 114q-51 50 -116 75q-69 27 -155 27z" />
    <glyph glyph-name="emptyset" unicode="&#x2205;" horiz-adv-x="1843" 
d="M1384 1300q129 -102 204 -253t75 -332q0 -156 -57 -291q-57 -134 -157 -236q-97 -99 -235 -157q-137 -58 -290 -58q-120 0 -228 35q-106 34 -198 96l-92 -124h-93l125 170q-120 103 -188 247q-70 148 -70 318q0 154 58 291q57 134 157 236q100 101 237 160q135 58 292 58
q112 0 213 -30q96 -29 186 -87l82 111h92zM285 715q0 -147 57 -272q56 -122 158 -212l764 1031q-150 98 -340 98q-135 0 -252 -51q-116 -51 -203 -139t-135 -204q-49 -117 -49 -251zM924 74q134 0 251 50q115 49 201 137t134 204q49 119 49 250q0 153 -63 283
q-64 133 -173 221l-764 -1033q80 -54 169 -83q88 -29 196 -29z" />
    <glyph glyph-name="uni2206" unicode="&#x2206;" horiz-adv-x="1241" 
d="M1204 0h-1165l502 1434h164zM1028 109l-410 1212l-411 -1212h821z" />
    <glyph glyph-name="product" unicode="&#x220f;" horiz-adv-x="1269" 
d="M1178 1333h-187v-1333h-123v1333h-467v-1333h-122v1333h-185v101h1084v-101z" />
    <glyph glyph-name="summation" unicode="&#x2211;" 
d="M1092 1333h-813l475 -551v-96l-475 -582h813v-104h-957v90l524 643l-524 608v93h957v-101z" />
    <glyph glyph-name="minus" unicode="&#x2212;" 
d="M1008 543h-785v110h785v-110z" />
    <glyph glyph-name="uni2215" unicode="&#x2215;" 
d="M223 -25h-106l887 1483h106z" />
    <glyph glyph-name="uni2219" unicode="&#x2219;" 
d="M614 829q78 0 135 -54q56 -53 56 -132q0 -39 -15 -74t-42 -60q-28 -27 -61 -41q-34 -15 -73 -15q-36 0 -71 15q-34 15 -62 41q-27 25 -42 60t-15 74t15 74t42 59t62 39q32 14 71 14z" />
    <glyph glyph-name="radical" unicode="&#x221a;" 
d="M1382 1675h-383l-487 -1675h-125l-397 1063l127 2l329 -911l463 1622h473v-101z" />
    <glyph glyph-name="infinity" unicode="&#x221e;" horiz-adv-x="1808" 
d="M1286 928q82 0 153 -31q67 -29 116 -83q48 -52 75 -122q27 -69 27 -149q0 -82 -28 -155q-26 -69 -79 -123q-50 -52 -123 -82q-70 -29 -157 -29q-73 0 -124 20q-56 22 -98 58q-44 38 -79 91q-42 64 -66 113q-61 -125 -151 -203q-91 -79 -228 -79q-83 0 -152 30
q-67 29 -117 84q-47 51 -75 123q-26 66 -26 150q0 81 27 153q26 69 78 123q49 51 122 81q72 30 160 30q138 0 221 -76t145 -201q60 123 152 200t227 77zM539 827q-54 0 -102 -18t-85 -55t-58 -90q-22 -55 -22 -123q0 -67 21 -119q21 -53 55 -90q33 -36 80 -58q43 -20 96 -20
q60 0 110 24q52 25 91 64q41 41 74 95q32 53 57 116q-22 55 -49 104q-28 51 -64 87q-39 39 -87 61t-117 22zM1286 827q-61 0 -109 -22q-53 -24 -92 -63t-73 -93q-36 -57 -58 -114q23 -56 50 -106q30 -55 63 -88q37 -37 87 -61t118 -24q53 0 101 18q46 17 85 56q38 38 59 90
t21 123q0 67 -20 117q-21 52 -56 90q-32 34 -80 57q-43 20 -96 20z" />
    <glyph glyph-name="integral" unicode="&#x222b;" horiz-adv-x="614" 
d="M555 1747q58 0 111 -10q51 -10 96 -23v-100q-31 11 -90 22q-58 11 -103 11q-108 0 -156 -50q-48 -49 -48 -139v-1603q0 -50 -16 -103q-15 -50 -51 -87t-94 -61t-147 -24q-57 0 -110 10q-54 10 -97 23v98q15 -5 91 -21q55 -12 102 -12q111 0 156 50t45 141v1604
q0 53 16 101q18 52 53 88q37 37 97 61t145 24z" />
    <glyph glyph-name="congruent" unicode="&#x2245;" 
d="M1020 690h-787v111h787v-111zM1020 270h-787v109h787v-109zM451 1374q59 0 104 -18q46 -19 83 -42q36 -23 74 -42t74 -19q58 0 102 32q45 33 75 79l69 -59q-20 -34 -40 -57q-25 -28 -54 -50q-28 -21 -71 -37q-38 -14 -89 -14q-59 0 -104 18q-42 17 -84 41q-43 25 -74 41
q-36 19 -74 19q-57 0 -101 -32q-45 -33 -75 -79l-69 59q19 34 40 58q24 28 54 51q29 22 70 37q38 14 90 14z" />
    <glyph glyph-name="approxequal" unicode="&#x2248;" 
d="M451 946q59 0 104 -18q46 -19 83 -42q36 -23 74 -42t74 -19q58 0 102 32q45 33 75 79l69 -59q-20 -34 -40 -57q-25 -29 -54 -50q-28 -21 -71 -37q-38 -14 -89 -14q-59 0 -104 18q-42 17 -84 41q-43 25 -74 41q-36 19 -74 19q-57 0 -101 -32q-45 -33 -75 -79l-69 59
q19 34 40 58q24 28 54 51q29 22 70 37q38 14 90 14zM451 561q59 0 104 -18q46 -19 83 -42q36 -23 74 -42t74 -19q58 0 102 32q45 33 75 79l69 -59q-20 -34 -40 -57q-25 -29 -54 -50q-28 -21 -71 -37q-38 -14 -89 -14q-59 0 -104 18q-42 17 -84 41q-43 25 -74 41
q-36 19 -74 19q-57 0 -101 -32q-45 -33 -75 -79l-69 59q19 34 40 58q24 29 54 51q29 22 70 37q38 14 90 14z" />
    <glyph glyph-name="uni2259" unicode="&#x2259;" 
d="M924 1065h-121l-189 272l-190 -272h-121l262 369h101zM1008 776h-787v111h787v-111zM1008 356h-787v109h787v-109z" />
    <glyph glyph-name="notequal" unicode="&#x2260;" 
d="M762 776l-182 -311h428v-109h-492l-182 -311h-105l183 311h-191v109h256l182 311h-438v111h504l172 293h102l-172 -293h181v-111h-246z" />
    <glyph glyph-name="lessequal" unicode="&#x2264;" 
d="M1008 1026l-695 -301l695 -305v-119l-787 352v142l787 350v-119zM1008 0h-785v111h785v-111z" />
    <glyph glyph-name="greaterequal" unicode="&#x2265;" 
d="M1008 795v-142l-787 -352v119l694 305l-694 301v119zM1006 0h-785v111h785v-111z" />
    <glyph glyph-name="dotmath" unicode="&#x22c5;" 
d="M614 692q39 0 65 -26q28 -28 28 -64q0 -37 -28 -65q-27 -27 -65 -27q-37 0 -64 27q-28 28 -28 65q0 39 28 65q26 25 64 25z" />
    <glyph glyph-name="uni2460" unicode="&#x2460;" horiz-adv-x="1843" 
d="M689 411h205v481h-199v74h44q45 0 83 7q34 6 52 23q18 16 27 44q9 27 12 68h87v-697h179v-85h-490v85zM924 1460q154 0 288 -58q136 -59 236 -159q102 -102 158 -236q57 -137 57 -292q0 -156 -57 -291t-158 -236q-99 -99 -236 -157t-288 -58q-154 0 -291 58
q-136 57 -237 157q-99 98 -159 236q-59 136 -59 291q0 154 59 292q59 137 159 236q102 101 237 159q134 58 291 58zM924 1380q-138 0 -258 -52q-122 -53 -210 -142q-91 -92 -141 -212q-51 -122 -51 -259q0 -139 51 -259q50 -117 141 -210q90 -92 210 -142q122 -51 258 -51
t258 51q118 50 209 142q88 89 139 210q51 120 51 259q0 137 -51 259q-52 123 -139 212q-88 90 -209 142q-120 52 -258 52z" />
    <glyph glyph-name="uni2461" unicode="&#x2461;" horiz-adv-x="1843" 
d="M927 1124q126 0 195 -62q71 -63 71 -165q0 -125 -110 -247q-111 -123 -301 -239h428v-85h-573v83q220 147 329 262q112 118 112 221q0 71 -40 108q-42 39 -117 39q-83 0 -125 -47q-43 -48 -46 -117h-108q0 48 18 93t53 80t88 56q50 20 126 20zM924 1460q154 0 288 -58
q136 -59 236 -159q102 -102 158 -236q57 -137 57 -292q0 -156 -57 -291t-158 -236q-99 -99 -236 -157t-288 -58q-154 0 -291 58q-136 57 -237 157q-99 98 -159 236q-59 136 -59 291q0 154 59 292q59 137 159 236q102 101 237 159q134 58 291 58zM924 1380q-138 0 -258 -52
q-122 -53 -210 -142q-91 -92 -141 -212q-51 -122 -51 -259q0 -139 51 -259q50 -117 141 -210q90 -92 210 -142q122 -51 258 -51t258 51q118 50 209 142q88 89 139 210q51 120 51 259q0 137 -51 259q-52 123 -139 212q-88 90 -209 142q-120 52 -258 52z" />
    <glyph glyph-name="uni2462" unicode="&#x2462;" horiz-adv-x="1843" 
d="M929 1124q133 0 203 -57t70 -148q0 -71 -46 -117q-47 -47 -121 -56q77 -9 132 -55q60 -48 60 -138q0 -55 -23 -101q-22 -45 -63 -75q-44 -33 -96 -48q-54 -16 -120 -16q-121 0 -200 55t-105 151l100 23q17 -64 69 -103q53 -39 136 -39q77 0 133 39q55 39 55 117
q0 70 -48 108q-49 38 -125 38h-89v78h80q63 0 112 32q48 32 48 96q0 65 -46 99q-45 33 -118 33q-76 0 -124 -36q-47 -35 -62 -96l-101 17q22 86 95 142q75 57 194 57zM924 1460q154 0 288 -58q136 -59 236 -159q102 -102 158 -236q57 -137 57 -292q0 -156 -57 -291
t-158 -236q-99 -99 -236 -157t-288 -58q-154 0 -291 58q-136 57 -237 157q-99 98 -159 236q-59 136 -59 291q0 154 59 292q59 137 159 236q102 101 237 159q134 58 291 58zM924 1380q-138 0 -258 -52q-122 -53 -210 -142q-91 -92 -141 -212q-51 -122 -51 -259
q0 -139 51 -259q50 -117 141 -210q90 -92 210 -142q122 -51 258 -51t258 51q118 50 209 142q88 89 139 210q51 120 51 259q0 137 -51 259q-52 123 -139 212q-88 90 -209 142q-120 52 -258 52z" />
    <glyph glyph-name="uni2463" unicode="&#x2463;" horiz-adv-x="1843" 
d="M1090 586h132v-85h-132v-175h-105v175h-426v89l395 518h136v-522zM665 586h320v412zM924 1460q154 0 288 -58q136 -59 236 -159q102 -102 158 -236q57 -137 57 -292q0 -156 -57 -291t-158 -236q-99 -99 -236 -157t-288 -58q-154 0 -291 58q-136 57 -237 157
q-99 98 -159 236q-59 136 -59 291q0 154 59 292q59 137 159 236q102 101 237 159q134 58 291 58zM924 1380q-138 0 -258 -52q-122 -53 -210 -142q-91 -92 -141 -212q-51 -122 -51 -259q0 -139 51 -259q50 -117 141 -210q90 -92 210 -142q122 -51 258 -51t258 51
q118 50 209 142q88 89 139 210q51 120 51 259q0 137 -51 259q-52 123 -139 212q-88 90 -209 142q-120 52 -258 52z" />
    <glyph glyph-name="uni2464" unicode="&#x2464;" horiz-adv-x="1843" 
d="M1169 1022h-380l-33 -231q44 47 96 63q56 17 108 17t103 -19q46 -17 85 -53t59 -82q21 -48 21 -110q0 -64 -21 -118q-21 -53 -62 -93q-39 -38 -100 -61q-57 -22 -133 -22q-70 0 -116 15q-49 16 -86 42q-35 25 -60 59q-23 32 -34 64l95 32q22 -50 70 -88q49 -39 135 -39
q92 0 147 58q54 57 54 145q0 86 -54 134q-55 49 -134 49q-59 0 -106 -21t-84 -69l-93 15l56 399h480zM924 1460q154 0 288 -58q136 -59 236 -159q102 -102 158 -236q57 -137 57 -292q0 -156 -57 -291t-158 -236q-99 -99 -236 -157t-288 -58q-154 0 -291 58q-136 57 -237 157
q-99 98 -159 236q-59 136 -59 291q0 154 59 292q59 137 159 236q102 101 237 159q134 58 291 58zM924 1380q-138 0 -258 -52q-122 -53 -210 -142q-91 -92 -141 -212q-51 -122 -51 -259q0 -139 51 -259q50 -117 141 -210q90 -92 210 -142q122 -51 258 -51t258 51
q118 50 209 142q88 89 139 210q51 120 51 259q0 137 -51 259q-52 123 -139 212q-88 90 -209 142q-120 52 -258 52z" />
    <glyph glyph-name="uni2465" unicode="&#x2465;" horiz-adv-x="1843" 
d="M935 1124q179 0 254 -151l-92 -33q-23 49 -64 74q-43 26 -98 26q-198 0 -219 -320q26 57 86 95q59 37 145 37q57 0 102 -17q50 -19 85 -51t57 -82t22 -110q0 -64 -22 -117q-21 -51 -60 -87q-40 -37 -93 -56t-119 -19t-122 19q-57 20 -98 62q-40 41 -64 105
q-24 63 -24 151q0 238 87 356t237 118zM920 769q-86 0 -138 -51q-53 -51 -53 -130q0 -84 51 -138t137 -54q83 0 134 52q50 51 50 138q0 84 -49 133q-50 50 -132 50zM924 1460q154 0 288 -58q136 -59 236 -159q102 -102 158 -236q57 -137 57 -292q0 -156 -57 -291t-158 -236
q-99 -99 -236 -157t-288 -58q-154 0 -291 58q-136 57 -237 157q-99 98 -159 236q-59 136 -59 291q0 154 59 292q59 137 159 236q102 101 237 159q134 58 291 58zM924 1380q-138 0 -258 -52q-122 -53 -210 -142q-91 -92 -141 -212q-51 -122 -51 -259q0 -139 51 -259
q50 -117 141 -210q90 -92 210 -142q122 -51 258 -51t258 51q118 50 209 142q88 89 139 210q51 120 51 259q0 137 -51 259q-52 123 -139 212q-88 90 -209 142q-120 52 -258 52z" />
    <glyph glyph-name="uni2466" unicode="&#x2466;" horiz-adv-x="1843" 
d="M1224 1022q-76 -88 -125 -163q-57 -86 -90 -162q-36 -83 -60 -174q-23 -89 -37 -197h-118q16 117 45 213q30 102 68 179q40 81 93 157q52 75 120 147h-376v-89h-93v175h573v-86zM924 1460q154 0 288 -58q136 -59 236 -159q102 -102 158 -236q57 -137 57 -292
q0 -156 -57 -291t-158 -236q-99 -99 -236 -157t-288 -58q-154 0 -291 58q-136 57 -237 157q-99 98 -159 236q-59 136 -59 291q0 154 59 292q59 137 159 236q102 101 237 159q134 58 291 58zM924 1380q-138 0 -258 -52q-122 -53 -210 -142q-91 -92 -141 -212
q-51 -122 -51 -259q0 -139 51 -259q50 -117 141 -210q90 -92 210 -142q122 -51 258 -51t258 51q118 50 209 142q88 89 139 210q51 120 51 259q0 137 -51 259q-52 123 -139 212q-88 90 -209 142q-120 52 -258 52z" />
    <glyph glyph-name="uni2467" unicode="&#x2467;" horiz-adv-x="1843" 
d="M921 313q-89 0 -146 20q-63 22 -98 53q-39 34 -56 73q-18 41 -18 79q0 85 50 136q49 51 136 72q-82 36 -112 79q-31 45 -31 100q0 33 15 69q15 35 48 64q36 31 86 48q53 18 126 18q77 0 127 -17q54 -19 86 -46q34 -29 48 -62q15 -35 15 -68q0 -64 -49 -113
q-48 -48 -109 -70q55 -16 98 -38q41 -20 64 -45q24 -26 33 -55q9 -30 9 -68q0 -43 -15 -80q-17 -41 -53 -73q-40 -35 -100 -55q-63 -21 -154 -21zM955 776q58 22 99 61q39 37 39 86q0 45 -39 82q-38 37 -131 37q-90 0 -131 -38q-40 -37 -40 -81q0 -55 40 -83q42 -30 124 -53
zM920 396q61 0 100 13t66 35q26 21 36 46q10 24 10 50q0 36 -13 59q-14 25 -40 42q-29 19 -67 32q-48 16 -96 29l-39 11q-76 -18 -120 -62t-44 -109q0 -57 50 -101q51 -45 157 -45zM924 1460q154 0 288 -58q136 -59 236 -159q102 -102 158 -236q57 -137 57 -292
q0 -156 -57 -291t-158 -236q-99 -99 -236 -157t-288 -58q-154 0 -291 58q-136 57 -237 157q-99 98 -159 236q-59 136 -59 291q0 154 59 292q59 137 159 236q102 101 237 159q134 58 291 58zM924 1380q-138 0 -258 -52q-122 -53 -210 -142q-91 -92 -141 -212
q-51 -122 -51 -259q0 -139 51 -259q50 -117 141 -210q90 -92 210 -142q122 -51 258 -51t258 51q118 50 209 142q88 89 139 210q51 120 51 259q0 137 -51 259q-52 123 -139 212q-88 90 -209 142q-120 52 -258 52z" />
    <glyph glyph-name="uni2468" unicode="&#x2468;" horiz-adv-x="1843" 
d="M899 311q-94 0 -161 41q-65 40 -103 110l89 37q52 -104 175 -104q111 0 161 86q51 87 57 245q-25 -54 -83 -90q-59 -37 -144 -37q-53 0 -102 17q-50 17 -85 49q-36 33 -57 81q-20 46 -20 112q0 61 22 109q23 50 61 84q39 35 94 54q54 19 120 19q67 0 121 -19t96 -61
q40 -40 63 -101q22 -59 22 -143q0 -489 -326 -489zM918 685q86 0 139 51t53 126q0 76 -49 128q-47 50 -138 50q-83 0 -135 -48q-53 -48 -53 -132q0 -80 50 -128q48 -47 133 -47zM924 1460q154 0 288 -58q136 -59 236 -159q102 -102 158 -236q57 -137 57 -292
q0 -156 -57 -291t-158 -236q-99 -99 -236 -157t-288 -58q-154 0 -291 58q-136 57 -237 157q-99 98 -159 236q-59 136 -59 291q0 154 59 292q59 137 159 236q102 101 237 159q134 58 291 58zM924 1380q-138 0 -258 -52q-122 -53 -210 -142q-91 -92 -141 -212
q-51 -122 -51 -259q0 -139 51 -259q50 -117 141 -210q90 -92 210 -142q122 -51 258 -51t258 51q118 50 209 142q88 89 139 210q51 120 51 259q0 137 -51 259q-52 123 -139 212q-88 90 -209 142q-120 52 -258 52z" />
    <glyph glyph-name="uni24EA" unicode="&#x24ea;" horiz-adv-x="1843" 
d="M923 1124q141 0 223 -99q83 -100 83 -308q0 -206 -83 -306q-82 -98 -223 -98q-140 0 -222 98q-83 100 -83 306q0 208 83 308q83 99 222 99zM923 1037q-95 0 -146 -77q-51 -76 -51 -243q0 -162 51 -240q50 -77 146 -77t145 77t49 240q0 167 -49 243q-50 77 -145 77z
M924 1460q154 0 288 -58q136 -59 236 -159q102 -102 158 -236q57 -137 57 -292q0 -156 -57 -291t-158 -236q-99 -99 -236 -157t-288 -58q-154 0 -291 58q-136 57 -237 157q-99 98 -159 236q-59 136 -59 291q0 154 59 292q59 137 159 236q102 101 237 159q134 58 291 58z
M924 1380q-138 0 -258 -52q-122 -53 -210 -142q-91 -92 -141 -212q-51 -122 -51 -259q0 -139 51 -259q50 -117 141 -210q90 -92 210 -142q122 -51 258 -51t258 51q118 50 209 142q88 89 139 210q51 120 51 259q0 137 -51 259q-52 123 -139 212q-88 90 -209 142
q-120 52 -258 52z" />
    <glyph glyph-name="uni24FF" unicode="&#x24ff;" horiz-adv-x="1843" 
d="M924 -27q-154 0 -291 58q-136 57 -237 157q-99 98 -159 236q-59 136 -59 291q0 154 59 292q59 137 159 236q102 101 237 159q134 58 291 58q154 0 288 -58q136 -59 236 -159q102 -102 158 -236q57 -137 57 -292q0 -156 -57 -291t-158 -236q-99 -99 -236 -157t-288 -58z
M922 313q140 0 223 99q82 98 82 305q0 210 -82 308q-83 99 -223 99q-142 0 -224 -99q-82 -98 -82 -308q0 -207 82 -305q82 -99 224 -99zM922 399q-97 0 -147 78q-50 79 -50 240q0 168 50 245q49 76 147 76q95 0 144 -76q50 -77 50 -245q0 -161 -50 -240q-50 -78 -144 -78z
" />
    <glyph glyph-name="filledbox" unicode="&#x25a0;" 
d="M1001 930v-776h-776v776h776z" />
    <glyph glyph-name="H22073" unicode="&#x25a1;" 
d="M1001 930v-776h-778v776h778zM332 262h561v559h-561v-559z" />
    <glyph glyph-name="uni25B3" unicode="&#x25b3;" horiz-adv-x="1843" 
d="M926 1452l712 -1452h-1433zM1456 109l-530 1083l-537 -1083h1067z" />
    <glyph glyph-name="uni25B4" unicode="&#x25b4;" 
d="M1001 154h-776l387 776z" />
    <glyph glyph-name="uni25B8" unicode="&#x25b8;" 
d="M225 154v776l776 -389z" />
    <glyph glyph-name="uni25BD" unicode="&#x25bd;" horiz-adv-x="1843" 
d="M926 -18l712 1452h-1433zM1456 1325l-530 -1083l-537 1083h1067z" />
    <glyph glyph-name="uni25BE" unicode="&#x25be;" 
d="M225 930h776l-389 -776z" />
    <glyph glyph-name="uni25C2" unicode="&#x25c2;" 
d="M1001 930v-776l-776 387z" />
    <glyph glyph-name="uni25C6" unicode="&#x25c6;" 
d="M1147 545l-533 -570l-532 570l532 559z" />
    <glyph glyph-name="uni25C7" unicode="&#x25c7;" 
d="M1147 545l-533 -570l-532 570l532 559zM221 545l393 -422l392 422l-392 411z" />
    <glyph glyph-name="lozenge" unicode="&#x25ca;" 
d="M1124 737l-434 -737h-149l-435 735l435 699h149zM233 735l381 -657l379 657l-381 621z" />
    <glyph glyph-name="circle" unicode="&#x25cb;" 
d="M616 55q-102 0 -192 39q-91 39 -157 107q-67 69 -104 157q-38 91 -38 193q0 101 38 192t104 157q67 67 157 106q88 38 192 38q106 0 192 -38q89 -39 156 -106q65 -65 105 -157q39 -90 39 -192q0 -103 -39 -193q-39 -89 -105 -157q-66 -67 -156 -107q-88 -39 -192 -39z
M616 160q80 0 147 29q71 31 119 82q51 54 80 124t29 156q0 84 -29 154q-28 68 -80 123q-48 51 -119 82q-69 30 -147 30q-79 0 -148 -30q-71 -31 -119 -82q-52 -55 -80 -123q-29 -70 -29 -154q0 -86 29 -156t80 -124q48 -51 119 -82q67 -29 148 -29z" />
    <glyph glyph-name="H18533" unicode="&#x25cf;" 
d="M616 55q-102 0 -192 39t-158 107q-67 67 -106 157t-39 193q0 102 39 192q40 93 106 157q69 67 158 106q88 38 192 38q105 0 193 -38q90 -39 157 -106q65 -65 105 -157q39 -90 39 -192q0 -103 -39 -193q-39 -89 -105 -157t-157 -107q-90 -39 -193 -39z" />
    <glyph glyph-name="uni2605" unicode="&#x2605;" horiz-adv-x="1843" 
d="M1413 -20l-495 362l-496 -362l164 573l-412 399l545 -59l192 567l197 -569l559 59l-416 -403z" />
    <glyph glyph-name="uni2610" unicode="&#x2610;" horiz-adv-x="1843" 
d="M205 1434h1433v-1434h-1433v1434zM1528 111v1212h-1213v-1212h1213z" />
    <glyph glyph-name="uni2611" unicode="&#x2611;" horiz-adv-x="1843" 
d="M205 1434h1433v-1434h-1433v1434zM1528 111v1212h-1213v-1212h1213zM1242 1102l-363 -749h-87l-158 336h87l115 -248l321 661h85z" />
    <glyph glyph-name="uni2612" unicode="&#x2612;" horiz-adv-x="1843" 
d="M205 1434h1433v-1434h-1433v1434zM1528 111v1212h-1213v-1212h1213zM995 716l182 -371h-103l-148 303l-287 -385h-108l351 472l-175 361h101l143 -290l268 355h105z" />
    </font>
</defs>
</svg>
